<svg width="20" height="20" viewBox="0 0 20 20" fill="none" xmlns="http://www.w3.org/2000/svg">
<path fill-rule="evenodd" clip-rule="evenodd" d="M0 0.683486L1.87959 0L2.73113 2.34174H19.2206L16.9099 11.5843C16.7986 12.0294 16.3987 12.3417 15.9398 12.3417H4.93979C4.51929 12.3417 4.1437 12.0787 4 11.6835L0 0.683486Z" fill="black"/>
<path d="M6.43982 14.3417C5.37343 14.3417 4.50093 15.2142 4.50093 16.2806C4.50093 17.347 5.37343 18.2195 6.43982 18.2195C7.50621 18.2195 8.37871 17.347 8.37871 16.2806C8.37871 15.2142 7.50621 14.3417 6.43982 14.3417Z" fill="black"/>
<path d="M14.1649 14.3419C13.0985 14.3419 12.226 15.2144 12.226 16.2807C12.226 17.3471 13.0985 18.2196 14.1649 18.2196C15.2313 18.2196 16.1038 17.3471 16.1038 16.2807C16.1038 15.2144 15.2313 14.3419 14.1649 14.3419Z" fill="black"/>
</svg>
