<svg width="240" height="240" viewBox="0 0 240 240" fill="none" xmlns="http://www.w3.org/2000/svg">
<rect width="240" height="240" fill="#FBED9E"/>
<path fill-rule="evenodd" clip-rule="evenodd" d="M35 27H17V25H35V27Z" fill="#4A4A4A"/>
<path fill-rule="evenodd" clip-rule="evenodd" d="M35 21H17V19H35V21Z" fill="#4A4A4A"/>
<path fill-rule="evenodd" clip-rule="evenodd" d="M35 15H17V13H35V15Z" fill="#4A4A4A"/>
<path d="M53.2578 14.5469H60.6641V15.8984H54.7734V26H53.2578V14.5469ZM61.5078 17.7031H68.0391V26H66.6406V18.8672H62.9141V23C62.9141 23.9635 62.8828 24.599 62.8203 24.9062C62.7578 25.2135 62.5859 25.4818 62.3047 25.7109C62.0234 25.9401 61.6172 26.0547 61.0859 26.0547C60.7578 26.0547 60.3802 26.0339 59.9531 25.9922V24.8203H60.5703C60.862 24.8203 61.0703 24.7917 61.1953 24.7344C61.3203 24.6719 61.4036 24.5755 61.4453 24.4453C61.487 24.3151 61.5078 23.8906 61.5078 23.1719V17.7031ZM75.5781 24.9766C75.0573 25.4193 74.5547 25.7318 74.0703 25.9141C73.5911 26.0964 73.0755 26.1875 72.5234 26.1875C71.612 26.1875 70.9115 25.9661 70.4219 25.5234C69.9323 25.0755 69.6875 24.5052 69.6875 23.8125C69.6875 23.4062 69.7786 23.0365 69.9609 22.7031C70.1484 22.3646 70.3906 22.0938 70.6875 21.8906C70.9896 21.6875 71.3281 21.5339 71.7031 21.4297C71.9792 21.3568 72.3958 21.2865 72.9531 21.2188C74.0885 21.0833 74.9245 20.9219 75.4609 20.7344C75.4661 20.5417 75.4688 20.4193 75.4688 20.3672C75.4688 19.7943 75.3359 19.3906 75.0703 19.1562C74.7109 18.8385 74.1771 18.6797 73.4688 18.6797C72.8073 18.6797 72.3177 18.7969 72 19.0312C71.6875 19.2604 71.4557 19.6693 71.3047 20.2578L69.9297 20.0703C70.0547 19.4818 70.2604 19.0078 70.5469 18.6484C70.8333 18.2839 71.2474 18.0052 71.7891 17.8125C72.3307 17.6146 72.9583 17.5156 73.6719 17.5156C74.3802 17.5156 74.9557 17.599 75.3984 17.7656C75.8411 17.9323 76.1667 18.1432 76.375 18.3984C76.5833 18.6484 76.7292 18.9661 76.8125 19.3516C76.8594 19.5911 76.8828 20.0234 76.8828 20.6484V22.5234C76.8828 23.8307 76.9115 24.6589 76.9688 25.0078C77.0312 25.3516 77.151 25.6823 77.3281 26H75.8594C75.7135 25.7083 75.6198 25.3672 75.5781 24.9766ZM75.4609 21.8359C74.9505 22.0443 74.1849 22.2214 73.1641 22.3672C72.5859 22.4505 72.1771 22.5443 71.9375 22.6484C71.6979 22.7526 71.513 22.9062 71.3828 23.1094C71.2526 23.3073 71.1875 23.5286 71.1875 23.7734C71.1875 24.1484 71.3281 24.4609 71.6094 24.7109C71.8958 24.9609 72.3125 25.0859 72.8594 25.0859C73.401 25.0859 73.8828 24.9688 74.3047 24.7344C74.7266 24.4948 75.0365 24.1693 75.2344 23.7578C75.3854 23.4401 75.4609 22.9714 75.4609 22.3516V21.8359ZM79.0781 17.7031H82.3203C83.1172 17.7031 83.7083 17.7708 84.0938 17.9062C84.4844 18.0365 84.8177 18.2786 85.0938 18.6328C85.375 18.987 85.5156 19.4115 85.5156 19.9062C85.5156 20.3021 85.4323 20.6484 85.2656 20.9453C85.1042 21.237 84.8594 21.4818 84.5312 21.6797C84.9219 21.8099 85.2448 22.0547 85.5 22.4141C85.7604 22.7682 85.8906 23.1901 85.8906 23.6797C85.8385 24.4661 85.5573 25.0495 85.0469 25.4297C84.5365 25.8099 83.7943 26 82.8203 26H79.0781V17.7031ZM80.4844 21.1953H81.9844C82.5833 21.1953 82.9948 21.1641 83.2188 21.1016C83.4427 21.0391 83.6432 20.9141 83.8203 20.7266C83.9974 20.5339 84.0859 20.3047 84.0859 20.0391C84.0859 19.6016 83.9297 19.2969 83.6172 19.125C83.3099 18.9531 82.7812 18.8672 82.0312 18.8672H80.4844V21.1953ZM80.4844 24.8438H82.3359C83.1328 24.8438 83.6797 24.7526 83.9766 24.5703C84.2734 24.3828 84.4297 24.0625 84.4453 23.6094C84.4453 23.3438 84.3594 23.099 84.1875 22.875C84.0156 22.6458 83.7917 22.5026 83.5156 22.4453C83.2396 22.3828 82.7969 22.3516 82.1875 22.3516H80.4844V24.8438ZM87.5781 17.7031H88.9844V21.1562H92.8828V17.7031H94.2891V26H92.8828V22.3203H88.9844V26H87.5781V17.7031ZM95.8906 21.8516C95.8906 20.3151 96.3177 19.1771 97.1719 18.4375C97.8854 17.8229 98.7552 17.5156 99.7812 17.5156C100.922 17.5156 101.854 17.8906 102.578 18.6406C103.302 19.3854 103.664 20.4167 103.664 21.7344C103.664 22.8021 103.503 23.6432 103.18 24.2578C102.862 24.8672 102.396 25.3411 101.781 25.6797C101.172 26.0182 100.505 26.1875 99.7812 26.1875C98.6198 26.1875 97.6797 25.8151 96.9609 25.0703C96.2474 24.3255 95.8906 23.2526 95.8906 21.8516ZM97.3359 21.8516C97.3359 22.9141 97.5677 23.7109 98.0312 24.2422C98.4948 24.7682 99.0781 25.0312 99.7812 25.0312C100.479 25.0312 101.06 24.7656 101.523 24.2344C101.987 23.7031 102.219 22.8932 102.219 21.8047C102.219 20.7786 101.984 20.0026 101.516 19.4766C101.052 18.9453 100.474 18.6797 99.7812 18.6797C99.0781 18.6797 98.4948 18.9427 98.0312 19.4688C97.5677 19.9948 97.3359 20.7891 97.3359 21.8516ZM111 23.3281L112.453 23.5078C112.224 24.3568 111.799 25.0156 111.18 25.4844C110.56 25.9531 109.768 26.1875 108.805 26.1875C107.591 26.1875 106.628 25.8151 105.914 25.0703C105.206 24.3203 104.852 23.2708 104.852 21.9219C104.852 20.526 105.211 19.4427 105.93 18.6719C106.648 17.901 107.581 17.5156 108.727 17.5156C109.836 17.5156 110.742 17.8932 111.445 18.6484C112.148 19.4036 112.5 20.4661 112.5 21.8359C112.5 21.9193 112.497 22.0443 112.492 22.2109H106.305C106.357 23.1224 106.615 23.8203 107.078 24.3047C107.542 24.7891 108.12 25.0312 108.812 25.0312C109.328 25.0312 109.768 24.8958 110.133 24.625C110.497 24.3542 110.786 23.9219 111 23.3281ZM106.383 21.0547H111.016C110.953 20.3568 110.776 19.8333 110.484 19.4844C110.036 18.9427 109.456 18.6719 108.742 18.6719C108.096 18.6719 107.552 18.888 107.109 19.3203C106.672 19.7526 106.43 20.3307 106.383 21.0547Z" fill="#4A4A4A"/>
<path fill-rule="evenodd" clip-rule="evenodd" d="M16 50.6835L17.8796 50L18.7311 52.3417H35.2206L32.9099 61.5843C32.7986 62.0294 32.3987 62.3417 31.9398 62.3417H20.9398C20.5193 62.3417 20.1437 62.0787 20 61.6835L16 50.6835Z" fill="#4A4A4A"/>
<path d="M22.4398 64.3417C21.3734 64.3417 20.5009 65.2142 20.5009 66.2806C20.5009 67.347 21.3734 68.2195 22.4398 68.2195C23.5062 68.2195 24.3787 67.347 24.3787 66.2806C24.3787 65.2142 23.5062 64.3417 22.4398 64.3417Z" fill="#4A4A4A"/>
<path d="M30.1649 64.3419C29.0985 64.3419 28.226 65.2144 28.226 66.2807C28.226 67.3471 29.0985 68.2196 30.1649 68.2196C31.2313 68.2196 32.1038 67.3471 32.1038 66.2807C32.1038 65.2144 31.2313 64.3419 30.1649 64.3419Z" fill="#4A4A4A"/>
<path d="M53.25 54.5469H62.2578V66H60.7344V55.8984H54.7656V66H53.25V54.5469ZM64.0312 61.8516C64.0312 60.3151 64.4583 59.1771 65.3125 58.4375C66.026 57.8229 66.8958 57.5156 67.9219 57.5156C69.0625 57.5156 69.9948 57.8906 70.7188 58.6406C71.4427 59.3854 71.8047 60.4167 71.8047 61.7344C71.8047 62.8021 71.6432 63.6432 71.3203 64.2578C71.0026 64.8672 70.5365 65.3411 69.9219 65.6797C69.3125 66.0182 68.6458 66.1875 67.9219 66.1875C66.7604 66.1875 65.8203 65.8151 65.1016 65.0703C64.388 64.3255 64.0312 63.2526 64.0312 61.8516ZM65.4766 61.8516C65.4766 62.9141 65.7083 63.7109 66.1719 64.2422C66.6354 64.7682 67.2188 65.0312 67.9219 65.0312C68.6198 65.0312 69.2005 64.7656 69.6641 64.2344C70.1276 63.7031 70.3594 62.8932 70.3594 61.8047C70.3594 60.7786 70.125 60.0026 69.6562 59.4766C69.1927 58.9453 68.6146 58.6797 67.9219 58.6797C67.2188 58.6797 66.6354 58.9427 66.1719 59.4688C65.7083 59.9948 65.4766 60.7891 65.4766 61.8516ZM73.4531 57.7031H74.8594V61.2891C75.3073 61.2891 75.6198 61.2031 75.7969 61.0312C75.9792 60.8594 76.2448 60.3594 76.5938 59.5312C76.8698 58.875 77.0938 58.4427 77.2656 58.2344C77.4375 58.026 77.6354 57.8854 77.8594 57.8125C78.0833 57.7396 78.4427 57.7031 78.9375 57.7031H79.2188V58.8672L78.8281 58.8594C78.4583 58.8594 78.2214 58.9141 78.1172 59.0234C78.0078 59.138 77.8411 59.4792 77.6172 60.0469C77.4036 60.5885 77.2083 60.9635 77.0312 61.1719C76.8542 61.3802 76.5807 61.5703 76.2109 61.7422C76.8151 61.9036 77.4089 62.4661 77.9922 63.4297L79.5312 66H77.9844L76.4844 63.4297C76.1771 62.9141 75.9089 62.5755 75.6797 62.4141C75.4505 62.2474 75.1771 62.1641 74.8594 62.1641V66H73.4531V57.7031ZM80.5859 69.1953L80.4297 67.875C80.737 67.9583 81.0052 68 81.2344 68C81.5469 68 81.7969 67.9479 81.9844 67.8438C82.1719 67.7396 82.3255 67.5938 82.4453 67.4062C82.5339 67.2656 82.6771 66.9167 82.875 66.3594C82.901 66.2812 82.9427 66.1667 83 66.0156L79.8516 57.7031H81.3672L83.0938 62.5078C83.3177 63.1172 83.5182 63.7578 83.6953 64.4297C83.8568 63.7839 84.0495 63.1536 84.2734 62.5391L86.0469 57.7031H87.4531L84.2969 66.1406C83.9583 67.0521 83.6953 67.6797 83.5078 68.0234C83.2578 68.487 82.9714 68.8255 82.6484 69.0391C82.3255 69.2578 81.9401 69.3672 81.4922 69.3672C81.2214 69.3672 80.9193 69.3099 80.5859 69.1953ZM88.6562 57.7031H95.2031V66H93.7969V58.8672H90.0625V66H88.6562V57.7031ZM97.3125 57.7031H98.7188V61.2891C99.1667 61.2891 99.4792 61.2031 99.6562 61.0312C99.8385 60.8594 100.104 60.3594 100.453 59.5312C100.729 58.875 100.953 58.4427 101.125 58.2344C101.297 58.026 101.495 57.8854 101.719 57.8125C101.943 57.7396 102.302 57.7031 102.797 57.7031H103.078V58.8672L102.688 58.8594C102.318 58.8594 102.081 58.9141 101.977 59.0234C101.867 59.138 101.701 59.4792 101.477 60.0469C101.263 60.5885 101.068 60.9635 100.891 61.1719C100.714 61.3802 100.44 61.5703 100.07 61.7422C100.674 61.9036 101.268 62.4661 101.852 63.4297L103.391 66H101.844L100.344 63.4297C100.036 62.9141 99.7682 62.5755 99.5391 62.4141C99.3099 62.2474 99.0365 62.1641 98.7188 62.1641V66H97.3125V57.7031ZM104.32 57.7031H105.727V64.0312L109.625 57.7031H111.141V66H109.734V59.7109L105.836 66H104.32V57.7031Z" fill="#4A4A4A"/>
<path d="M26.5 104C26.5 103.448 26.9477 103 27.5 103H34.5C35.0523 103 35.5 103.448 35.5 104V108C35.5 108.552 35.0523 109 34.5 109H27.5C26.9477 109 26.5 108.552 26.5 108V104Z" fill="#4A4A4A"/>
<path d="M26.5 92C26.5 91.4477 26.9477 91 27.5 91H34.5C35.0523 91 35.5 91.4477 35.5 92V100C35.5 100.552 35.0523 101 34.5 101H27.5C26.9477 101 26.5 100.552 26.5 100V92Z" fill="#4A4A4A"/>
<path d="M17.5 100C17.5 99.4477 17.9477 99 18.5 99H23.5C24.0523 99 24.5 99.4477 24.5 100V108C24.5 108.552 24.0523 109 23.5 109H18.5C17.9477 109 17.5 108.552 17.5 108V100Z" fill="#4A4A4A"/>
<path d="M17.5 92C17.5 91.4477 17.9477 91 18.5 91H23.5C24.0523 91 24.5 91.4477 24.5 92V96C24.5 96.5523 24.0523 97 23.5 97H18.5C17.9477 97 17.5 96.5523 17.5 96V92Z" fill="#4A4A4A"/>
<path d="M61.4062 101.984L62.9219 102.367C62.6042 103.612 62.0312 104.562 61.2031 105.219C60.3802 105.87 59.3724 106.195 58.1797 106.195C56.9453 106.195 55.9401 105.945 55.1641 105.445C54.3932 104.94 53.8047 104.211 53.3984 103.258C52.9974 102.305 52.7969 101.281 52.7969 100.188C52.7969 98.9948 53.0234 97.9557 53.4766 97.0703C53.9349 96.1797 54.5833 95.5052 55.4219 95.0469C56.2656 94.5833 57.1927 94.3516 58.2031 94.3516C59.349 94.3516 60.3125 94.6432 61.0938 95.2266C61.875 95.8099 62.4193 96.6302 62.7266 97.6875L61.2344 98.0391C60.9688 97.2057 60.5833 96.599 60.0781 96.2188C59.5729 95.8385 58.9375 95.6484 58.1719 95.6484C57.2917 95.6484 56.5547 95.8594 55.9609 96.2812C55.3724 96.7031 54.9583 97.2708 54.7188 97.9844C54.4792 98.6927 54.3594 99.4245 54.3594 100.18C54.3594 101.154 54.5 102.005 54.7812 102.734C55.0677 103.458 55.5104 104 56.1094 104.359C56.7083 104.719 57.3568 104.898 58.0547 104.898C58.9036 104.898 59.6224 104.654 60.2109 104.164C60.7995 103.674 61.1979 102.948 61.4062 101.984ZM64.6094 97.7031H66.0156V101.289C66.4635 101.289 66.776 101.203 66.9531 101.031C67.1354 100.859 67.401 100.359 67.75 99.5312C68.026 98.875 68.25 98.4427 68.4219 98.2344C68.5938 98.026 68.7917 97.8854 69.0156 97.8125C69.2396 97.7396 69.599 97.7031 70.0938 97.7031H70.375V98.8672L69.9844 98.8594C69.6146 98.8594 69.3776 98.9141 69.2734 99.0234C69.1641 99.138 68.9974 99.4792 68.7734 100.047C68.5599 100.589 68.3646 100.964 68.1875 101.172C68.0104 101.38 67.737 101.57 67.3672 101.742C67.9714 101.904 68.5651 102.466 69.1484 103.43L70.6875 106H69.1406L67.6406 103.43C67.3333 102.914 67.0651 102.576 66.8359 102.414C66.6068 102.247 66.3333 102.164 66.0156 102.164V106H64.6094V97.7031ZM72.4922 97.7031H79.0234V106H77.625V98.8672H73.8984V103C73.8984 103.964 73.8672 104.599 73.8047 104.906C73.7422 105.214 73.5703 105.482 73.2891 105.711C73.0078 105.94 72.6016 106.055 72.0703 106.055C71.7422 106.055 71.3646 106.034 70.9375 105.992V104.82H71.5547C71.8464 104.82 72.0547 104.792 72.1797 104.734C72.3047 104.672 72.388 104.576 72.4297 104.445C72.4714 104.315 72.4922 103.891 72.4922 103.172V97.7031ZM86.5625 104.977C86.0417 105.419 85.5391 105.732 85.0547 105.914C84.5755 106.096 84.0599 106.188 83.5078 106.188C82.5964 106.188 81.8958 105.966 81.4062 105.523C80.9167 105.076 80.6719 104.505 80.6719 103.812C80.6719 103.406 80.763 103.036 80.9453 102.703C81.1328 102.365 81.375 102.094 81.6719 101.891C81.974 101.688 82.3125 101.534 82.6875 101.43C82.9635 101.357 83.3802 101.286 83.9375 101.219C85.0729 101.083 85.9089 100.922 86.4453 100.734C86.4505 100.542 86.4531 100.419 86.4531 100.367C86.4531 99.7943 86.3203 99.3906 86.0547 99.1562C85.6953 98.8385 85.1615 98.6797 84.4531 98.6797C83.7917 98.6797 83.3021 98.7969 82.9844 99.0312C82.6719 99.2604 82.4401 99.6693 82.2891 100.258L80.9141 100.07C81.0391 99.4818 81.2448 99.0078 81.5312 98.6484C81.8177 98.2839 82.2318 98.0052 82.7734 97.8125C83.3151 97.6146 83.9427 97.5156 84.6562 97.5156C85.3646 97.5156 85.9401 97.599 86.3828 97.7656C86.8255 97.9323 87.151 98.1432 87.3594 98.3984C87.5677 98.6484 87.7135 98.9661 87.7969 99.3516C87.8438 99.5911 87.8672 100.023 87.8672 100.648V102.523C87.8672 103.831 87.8958 104.659 87.9531 105.008C88.0156 105.352 88.1354 105.682 88.3125 106H86.8438C86.6979 105.708 86.6042 105.367 86.5625 104.977ZM86.4453 101.836C85.9349 102.044 85.1693 102.221 84.1484 102.367C83.5703 102.451 83.1615 102.544 82.9219 102.648C82.6823 102.753 82.4974 102.906 82.3672 103.109C82.237 103.307 82.1719 103.529 82.1719 103.773C82.1719 104.148 82.3125 104.461 82.5938 104.711C82.8802 104.961 83.2969 105.086 83.8438 105.086C84.3854 105.086 84.8672 104.969 85.2891 104.734C85.7109 104.495 86.0208 104.169 86.2188 103.758C86.3698 103.44 86.4453 102.971 86.4453 102.352V101.836ZM91.1641 97.7031H96.9453V104.844H97.8438V108.352H96.6875V106H90.1562V108.352H89V104.844H89.7422C90.7318 103.5 91.2057 101.12 91.1641 97.7031ZM92.3359 98.8672C92.2318 101.56 91.8151 103.552 91.0859 104.844H95.5469V98.8672H92.3359Z" fill="#4A4A4A"/>
<path fill-rule="evenodd" clip-rule="evenodd" d="M24.3223 131C24.0621 131 23.8512 131.211 23.8512 131.471V133.248C23.1172 133.429 22.4144 133.72 21.7663 134.109L20.5143 132.854C20.426 132.765 20.3061 132.716 20.1811 132.715C20.056 132.715 19.9361 132.765 19.8477 132.853L17.8535 134.848C17.7651 134.936 17.7154 135.056 17.7155 135.181C17.7156 135.306 17.7654 135.426 17.8539 135.514L19.1091 136.766C18.7195 137.414 18.4291 138.117 18.2477 138.851H16.4711C16.2109 138.851 16 139.062 16 139.322V141.678C16 141.938 16.2109 142.149 16.4711 142.149H18.2477C18.4291 142.883 18.7195 143.586 19.1091 144.234L17.8539 145.486C17.7654 145.574 17.7156 145.694 17.7155 145.819C17.7154 145.944 17.7651 146.064 17.8535 146.152L19.8477 148.147C19.9361 148.235 20.056 148.285 20.1811 148.285C20.3061 148.284 20.426 148.235 20.5143 148.146L21.7663 146.891C22.4144 147.28 23.1172 147.571 23.8512 147.752V149.529C23.8512 149.789 24.0621 150 24.3223 150H26.6777C26.9379 150 27.1488 149.789 27.1488 149.529V147.752C27.8828 147.571 28.5856 147.28 29.2337 146.891L30.4857 148.146C30.574 148.235 30.6939 148.284 30.8189 148.285C30.944 148.285 31.0639 148.235 31.1523 148.147L33.1465 146.152C33.2349 146.064 33.2846 145.944 33.2845 145.819C33.2844 145.694 33.2346 145.574 33.1461 145.486L31.8909 144.234C32.2805 143.586 32.5709 142.883 32.7523 142.149H34.5289C34.7891 142.149 35 141.938 35 141.678V139.322C35 139.062 34.7891 138.851 34.5289 138.851H32.7523C32.5709 138.117 32.2805 137.414 31.8909 136.766L33.1461 135.514C33.2346 135.426 33.2844 135.306 33.2845 135.181C33.2846 135.056 33.2349 134.936 33.1465 134.848L31.1523 132.853C31.0639 132.765 30.944 132.715 30.8189 132.715C30.6939 132.716 30.574 132.765 30.4857 132.854L29.2337 134.109C28.5856 133.72 27.8828 133.429 27.1488 133.248V131.471C27.1488 131.211 26.9379 131 26.6777 131H24.3223ZM22.2025 140.5C22.2025 138.679 23.6788 137.202 25.5 137.202C27.3212 137.202 28.7975 138.679 28.7975 140.5C28.7975 142.321 27.3212 143.798 25.5 143.798C23.6788 143.798 22.2025 142.321 22.2025 140.5Z" fill="#4A4A4A"/>
<path d="M51.9766 146L56.375 134.547H58.0078L62.6953 146H60.9688L59.6328 142.531H54.8438L53.5859 146H51.9766ZM55.2812 141.297H59.1641L57.9688 138.125C57.6042 137.161 57.3333 136.37 57.1562 135.75C57.0104 136.484 56.8047 137.214 56.5391 137.938L55.2812 141.297ZM64.8359 137.703H70.6172V144.844H71.5156V148.352H70.3594V146H63.8281V148.352H62.6719V144.844H63.4141C64.4036 143.5 64.8776 141.12 64.8359 137.703ZM66.0078 138.867C65.9036 141.56 65.487 143.552 64.7578 144.844H69.2188V138.867H66.0078ZM73.1094 137.703H75.2969L77.4766 144.344L79.8984 137.703H81.9219V146H80.5156V139.32L78.0625 146H76.8047L74.4844 139V146H73.1094V137.703ZM84.0703 137.703H85.4766V144.031L89.375 137.703H90.8906V146H89.4844V139.711L85.5859 146H84.0703V137.703ZM93.0156 137.703H94.4219V141.156H98.3203V137.703H99.7266V146H98.3203V142.32H94.4219V146H93.0156V137.703ZM101.852 137.703H103.258V144.031L107.156 137.703H108.672V146H107.266V139.711L103.367 146H101.852V137.703ZM116.203 142.961L117.586 143.141C117.435 144.094 117.047 144.841 116.422 145.383C115.802 145.919 115.039 146.188 114.133 146.188C112.997 146.188 112.083 145.818 111.391 145.078C110.703 144.333 110.359 143.268 110.359 141.883C110.359 140.987 110.508 140.203 110.805 139.531C111.102 138.859 111.552 138.357 112.156 138.023C112.766 137.685 113.427 137.516 114.141 137.516C115.042 137.516 115.779 137.745 116.352 138.203C116.924 138.656 117.292 139.302 117.453 140.141L116.086 140.352C115.956 139.794 115.724 139.375 115.391 139.094C115.062 138.812 114.664 138.672 114.195 138.672C113.487 138.672 112.911 138.927 112.469 139.438C112.026 139.943 111.805 140.745 111.805 141.844C111.805 142.958 112.018 143.768 112.445 144.273C112.872 144.779 113.43 145.031 114.117 145.031C114.669 145.031 115.13 144.862 115.5 144.523C115.87 144.185 116.104 143.664 116.203 142.961ZM118.031 137.703H124.773V138.867H122.102V146H120.703V138.867H118.031V137.703ZM126.117 137.703H127.523V144.031L131.422 137.703H132.938V146H131.531V139.711L127.633 146H126.117V137.703ZM135.055 149.18V137.703H136.336V138.781C136.638 138.359 136.979 138.044 137.359 137.836C137.74 137.622 138.201 137.516 138.742 137.516C139.451 137.516 140.076 137.698 140.617 138.062C141.159 138.427 141.568 138.943 141.844 139.609C142.12 140.271 142.258 140.997 142.258 141.789C142.258 142.638 142.104 143.404 141.797 144.086C141.495 144.763 141.052 145.284 140.469 145.648C139.891 146.008 139.281 146.188 138.641 146.188C138.172 146.188 137.75 146.089 137.375 145.891C137.005 145.693 136.701 145.443 136.461 145.141V149.18H135.055ZM136.328 141.898C136.328 142.966 136.544 143.755 136.977 144.266C137.409 144.776 137.932 145.031 138.547 145.031C139.172 145.031 139.706 144.768 140.148 144.242C140.596 143.711 140.82 142.891 140.82 141.781C140.82 140.724 140.602 139.932 140.164 139.406C139.732 138.88 139.214 138.617 138.609 138.617C138.01 138.617 137.479 138.898 137.016 139.461C136.557 140.018 136.328 140.831 136.328 141.898ZM143.438 141.852C143.438 140.315 143.865 139.177 144.719 138.438C145.432 137.823 146.302 137.516 147.328 137.516C148.469 137.516 149.401 137.891 150.125 138.641C150.849 139.385 151.211 140.417 151.211 141.734C151.211 142.802 151.049 143.643 150.727 144.258C150.409 144.867 149.943 145.341 149.328 145.68C148.719 146.018 148.052 146.188 147.328 146.188C146.167 146.188 145.227 145.815 144.508 145.07C143.794 144.326 143.438 143.253 143.438 141.852ZM144.883 141.852C144.883 142.914 145.115 143.711 145.578 144.242C146.042 144.768 146.625 145.031 147.328 145.031C148.026 145.031 148.607 144.766 149.07 144.234C149.534 143.703 149.766 142.893 149.766 141.805C149.766 140.779 149.531 140.003 149.062 139.477C148.599 138.945 148.021 138.68 147.328 138.68C146.625 138.68 146.042 138.943 145.578 139.469C145.115 139.995 144.883 140.789 144.883 141.852ZM152.875 137.703H156.117C156.914 137.703 157.505 137.771 157.891 137.906C158.281 138.036 158.615 138.279 158.891 138.633C159.172 138.987 159.312 139.411 159.312 139.906C159.312 140.302 159.229 140.648 159.062 140.945C158.901 141.237 158.656 141.482 158.328 141.68C158.719 141.81 159.042 142.055 159.297 142.414C159.557 142.768 159.688 143.19 159.688 143.68C159.635 144.466 159.354 145.049 158.844 145.43C158.333 145.81 157.591 146 156.617 146H152.875V137.703ZM154.281 141.195H155.781C156.38 141.195 156.792 141.164 157.016 141.102C157.24 141.039 157.44 140.914 157.617 140.727C157.794 140.534 157.883 140.305 157.883 140.039C157.883 139.602 157.727 139.297 157.414 139.125C157.107 138.953 156.578 138.867 155.828 138.867H154.281V141.195ZM154.281 144.844H156.133C156.93 144.844 157.477 144.753 157.773 144.57C158.07 144.383 158.227 144.062 158.242 143.609C158.242 143.344 158.156 143.099 157.984 142.875C157.812 142.646 157.589 142.503 157.312 142.445C157.036 142.383 156.594 142.352 155.984 142.352H154.281V144.844ZM166.594 144.977C166.073 145.419 165.57 145.732 165.086 145.914C164.607 146.096 164.091 146.188 163.539 146.188C162.628 146.188 161.927 145.966 161.438 145.523C160.948 145.076 160.703 144.505 160.703 143.812C160.703 143.406 160.794 143.036 160.977 142.703C161.164 142.365 161.406 142.094 161.703 141.891C162.005 141.688 162.344 141.534 162.719 141.43C162.995 141.357 163.411 141.286 163.969 141.219C165.104 141.083 165.94 140.922 166.477 140.734C166.482 140.542 166.484 140.419 166.484 140.367C166.484 139.794 166.352 139.391 166.086 139.156C165.727 138.839 165.193 138.68 164.484 138.68C163.823 138.68 163.333 138.797 163.016 139.031C162.703 139.26 162.471 139.669 162.32 140.258L160.945 140.07C161.07 139.482 161.276 139.008 161.562 138.648C161.849 138.284 162.263 138.005 162.805 137.812C163.346 137.615 163.974 137.516 164.688 137.516C165.396 137.516 165.971 137.599 166.414 137.766C166.857 137.932 167.182 138.143 167.391 138.398C167.599 138.648 167.745 138.966 167.828 139.352C167.875 139.591 167.898 140.023 167.898 140.648V142.523C167.898 143.831 167.927 144.659 167.984 145.008C168.047 145.352 168.167 145.682 168.344 146H166.875C166.729 145.708 166.635 145.367 166.594 144.977ZM166.477 141.836C165.966 142.044 165.201 142.221 164.18 142.367C163.602 142.451 163.193 142.544 162.953 142.648C162.714 142.753 162.529 142.906 162.398 143.109C162.268 143.307 162.203 143.529 162.203 143.773C162.203 144.148 162.344 144.461 162.625 144.711C162.911 144.961 163.328 145.086 163.875 145.086C164.417 145.086 164.898 144.969 165.32 144.734C165.742 144.495 166.052 144.169 166.25 143.758C166.401 143.44 166.477 142.971 166.477 142.352V141.836ZM170.094 137.703H171.5V141.156H175.398V137.703H176.805V146H175.398V142.32H171.5V146H170.094V137.703ZM178.93 137.703H180.336V144.031L184.234 137.703H185.75V146H184.344V139.711L180.445 146H178.93V137.703ZM193.547 143.328L195 143.508C194.771 144.357 194.346 145.016 193.727 145.484C193.107 145.953 192.315 146.188 191.352 146.188C190.138 146.188 189.174 145.815 188.461 145.07C187.753 144.32 187.398 143.271 187.398 141.922C187.398 140.526 187.758 139.443 188.477 138.672C189.195 137.901 190.128 137.516 191.273 137.516C192.383 137.516 193.289 137.893 193.992 138.648C194.695 139.404 195.047 140.466 195.047 141.836C195.047 141.919 195.044 142.044 195.039 142.211H188.852C188.904 143.122 189.161 143.82 189.625 144.305C190.089 144.789 190.667 145.031 191.359 145.031C191.875 145.031 192.315 144.896 192.68 144.625C193.044 144.354 193.333 143.922 193.547 143.328ZM188.93 141.055H193.562C193.5 140.357 193.323 139.833 193.031 139.484C192.583 138.943 192.003 138.672 191.289 138.672C190.643 138.672 190.099 138.888 189.656 139.32C189.219 139.753 188.977 140.331 188.93 141.055Z" fill="#4A4A4A"/>
</svg>
