<svg width="726" height="293" viewBox="0 0 726 293" fill="none" xmlns="http://www.w3.org/2000/svg">
<rect x="386" y="20" width="320" height="253" rx="2" stroke="#9B9B9B"/>
<rect width="159" height="36" transform="translate(387 21)" fill="url(#paint0_linear_211_1265)"/>
<path d="M410.111 43V35.4238H407.281V34.4102H414.09V35.4238H411.248V43H410.111ZM414.6 36.7773H415.654V41.5234L418.578 36.7773H419.715V43H418.66V38.2832L415.736 43H414.6V36.7773ZM421.309 36.7773H426.219V43H425.164V37.6504H422.363V43H421.309V36.7773Z" fill="#4A4A4A"/>
<rect width="159" height="36" transform="translate(546 21)" fill="url(#paint1_linear_211_1265)"/>
<path d="M566.457 40.5742L567.541 40.293C567.623 40.7109 567.842 41.1289 568.197 41.5469C568.557 41.9648 569.031 42.1738 569.621 42.1738C570.223 42.1738 570.697 42.0195 571.045 41.7109C571.393 41.4023 571.566 41.0293 571.566 40.5918C571.566 40.1191 571.383 39.7441 571.016 39.4668C570.648 39.1855 570.148 39.0449 569.516 39.0449H568.971V38.0547C569.494 38.0547 569.895 38.0254 570.172 37.9668C570.449 37.9043 570.693 37.75 570.904 37.5039C571.119 37.2539 571.227 36.9707 571.227 36.6543C571.227 36.2793 571.08 35.9531 570.787 35.6758C570.498 35.3984 570.105 35.2598 569.609 35.2598C569.176 35.2598 568.805 35.3691 568.496 35.5879C568.191 35.8027 567.98 36.0898 567.863 36.4492C567.746 36.8047 567.688 37.0703 567.688 37.2461L566.598 37C566.867 35.1758 567.875 34.2637 569.621 34.2637C570.461 34.2637 571.127 34.498 571.619 34.9668C572.111 35.4316 572.357 35.9766 572.357 36.6016C572.357 37.4023 571.979 38.0234 571.221 38.4648C571.658 38.5859 572.023 38.834 572.316 39.209C572.613 39.5801 572.762 40.0254 572.762 40.5449C572.762 41.2832 572.475 41.9023 571.9 42.4023C571.33 42.8984 570.572 43.1465 569.627 43.1465C568.002 43.1465 566.945 42.2891 566.457 40.5742ZM574.051 36.7773H575.105V39.3672H578.029V36.7773H579.084V43H578.029V40.2402H575.105V43H574.051V36.7773ZM584.738 42.2324C584.348 42.5645 583.971 42.7988 583.607 42.9355C583.248 43.0723 582.861 43.1406 582.447 43.1406C581.764 43.1406 581.238 42.9746 580.871 42.6426C580.504 42.3066 580.32 41.8789 580.32 41.3594C580.32 41.0547 580.389 40.7773 580.525 40.5273C580.666 40.2734 580.848 40.0703 581.07 39.918C581.297 39.7656 581.551 39.6504 581.832 39.5723C582.039 39.5176 582.352 39.4648 582.77 39.4141C583.621 39.3125 584.248 39.1914 584.65 39.0508C584.654 38.9062 584.656 38.8145 584.656 38.7754C584.656 38.3457 584.557 38.043 584.357 37.8672C584.088 37.6289 583.688 37.5098 583.156 37.5098C582.66 37.5098 582.293 37.5977 582.055 37.7734C581.82 37.9453 581.646 38.252 581.533 38.6934L580.502 38.5527C580.596 38.1113 580.75 37.7559 580.965 37.4863C581.18 37.2129 581.49 37.0039 581.896 36.8594C582.303 36.7109 582.773 36.6367 583.309 36.6367C583.84 36.6367 584.271 36.6992 584.604 36.8242C584.936 36.9492 585.18 37.1074 585.336 37.2988C585.492 37.4863 585.602 37.7246 585.664 38.0137C585.699 38.1934 585.717 38.5176 585.717 38.9863V40.3926C585.717 41.373 585.738 41.9941 585.781 42.2559C585.828 42.5137 585.918 42.7617 586.051 43H584.949C584.84 42.7812 584.77 42.5254 584.738 42.2324ZM584.65 39.877C584.268 40.0332 583.693 40.166 582.928 40.2754C582.494 40.3379 582.188 40.4082 582.008 40.4863C581.828 40.5645 581.689 40.6797 581.592 40.832C581.494 40.9805 581.445 41.1465 581.445 41.3301C581.445 41.6113 581.551 41.8457 581.762 42.0332C581.977 42.2207 582.289 42.3145 582.699 42.3145C583.105 42.3145 583.467 42.2266 583.783 42.0508C584.1 41.8711 584.332 41.627 584.48 41.3184C584.594 41.0801 584.65 40.7285 584.65 40.2637V39.877ZM586.701 36.7773H587.756V37.9551C587.756 38.4629 587.785 38.832 587.844 39.0625C587.906 39.2891 588.053 39.4883 588.283 39.6602C588.514 39.8281 588.803 39.9121 589.15 39.9121C589.549 39.9121 590.064 39.8066 590.697 39.5957V36.7773H591.752V43H590.697V40.4922C590.049 40.6953 589.443 40.7969 588.881 40.7969C588.408 40.7969 587.99 40.6777 587.627 40.4395C587.268 40.1973 587.023 39.9023 586.895 39.5547C586.766 39.207 586.701 38.8242 586.701 38.4062V36.7773ZM597.605 40.9961L598.695 41.1309C598.523 41.7676 598.205 42.2617 597.74 42.6133C597.275 42.9648 596.682 43.1406 595.959 43.1406C595.049 43.1406 594.326 42.8613 593.791 42.3027C593.26 41.7402 592.994 40.9531 592.994 39.9414C592.994 38.8945 593.264 38.082 593.803 37.5039C594.342 36.9258 595.041 36.6367 595.9 36.6367C596.732 36.6367 597.412 36.9199 597.939 37.4863C598.467 38.0527 598.73 38.8496 598.73 39.877C598.73 39.9395 598.729 40.0332 598.725 40.1582H594.084C594.123 40.8418 594.316 41.3652 594.664 41.7285C595.012 42.0918 595.445 42.2734 595.965 42.2734C596.352 42.2734 596.682 42.1719 596.955 41.9688C597.229 41.7656 597.445 41.4414 597.605 40.9961ZM594.143 39.291H597.617C597.57 38.7676 597.438 38.375 597.219 38.1133C596.883 37.707 596.447 37.5039 595.912 37.5039C595.428 37.5039 595.02 37.666 594.688 37.9902C594.359 38.3145 594.178 38.748 594.143 39.291ZM600.031 36.7773H601.086V39.3672H604.01V36.7773H605.064V43H604.01V40.2402H601.086V43H600.031V36.7773ZM606.658 36.7773H607.713V41.5234L610.637 36.7773H611.773V43H610.719V38.2832L607.795 43H606.658V36.7773ZM617.621 40.9961L618.711 41.1309C618.539 41.7676 618.221 42.2617 617.756 42.6133C617.291 42.9648 616.697 43.1406 615.975 43.1406C615.064 43.1406 614.342 42.8613 613.807 42.3027C613.275 41.7402 613.01 40.9531 613.01 39.9414C613.01 38.8945 613.279 38.082 613.818 37.5039C614.357 36.9258 615.057 36.6367 615.916 36.6367C616.748 36.6367 617.428 36.9199 617.955 37.4863C618.482 38.0527 618.746 38.8496 618.746 39.877C618.746 39.9395 618.744 40.0332 618.74 40.1582H614.1C614.139 40.8418 614.332 41.3652 614.68 41.7285C615.027 42.0918 615.461 42.2734 615.98 42.2734C616.367 42.2734 616.697 42.1719 616.971 41.9688C617.244 41.7656 617.461 41.4414 617.621 40.9961ZM614.158 39.291H617.633C617.586 38.7676 617.453 38.375 617.234 38.1133C616.898 37.707 616.463 37.5039 615.928 37.5039C615.443 37.5039 615.035 37.666 614.703 37.9902C614.375 38.3145 614.193 38.748 614.158 39.291Z" fill="#4A4A4A"/>
<rect width="159" height="36" transform="translate(387 57)" fill="#FBED9E"/>
<path d="M413.889 79V69.5298H410.352V68.2627H418.862V69.5298H415.31V79H413.889ZM424.634 76.4951L425.996 76.6636C425.781 77.4595 425.383 78.0771 424.802 78.5166C424.221 78.9561 423.479 79.1758 422.576 79.1758C421.438 79.1758 420.535 78.8267 419.866 78.1284C419.202 77.4253 418.87 76.4414 418.87 75.1768C418.87 73.8682 419.207 72.8525 419.88 72.1299C420.554 71.4072 421.428 71.0459 422.502 71.0459C423.542 71.0459 424.392 71.3999 425.051 72.1079C425.71 72.8159 426.04 73.812 426.04 75.0962C426.04 75.1743 426.038 75.2915 426.033 75.4478H420.232C420.281 76.3022 420.522 76.9565 420.957 77.4106C421.392 77.8647 421.934 78.0918 422.583 78.0918C423.066 78.0918 423.479 77.9648 423.821 77.7109C424.163 77.457 424.434 77.0518 424.634 76.4951ZM420.305 74.3638H424.648C424.59 73.7095 424.424 73.2188 424.15 72.8916C423.73 72.3838 423.186 72.1299 422.517 72.1299C421.912 72.1299 421.401 72.3325 420.986 72.7378C420.576 73.1431 420.349 73.6851 420.305 74.3638ZM427.805 71.2217H433.928V79H432.617V72.313H429.124V76.1875C429.124 77.0908 429.094 77.6865 429.036 77.9746C428.977 78.2627 428.816 78.5142 428.552 78.729C428.289 78.9438 427.908 79.0513 427.41 79.0513C427.102 79.0513 426.748 79.0317 426.348 78.9927V77.894H426.926C427.2 77.894 427.395 77.8672 427.512 77.8135C427.629 77.7549 427.708 77.6646 427.747 77.5425C427.786 77.4204 427.805 77.0225 427.805 76.3486V71.2217ZM441.245 76.4951L442.607 76.6636C442.393 77.4595 441.995 78.0771 441.414 78.5166C440.833 78.9561 440.09 79.1758 439.187 79.1758C438.049 79.1758 437.146 78.8267 436.477 78.1284C435.813 77.4253 435.481 76.4414 435.481 75.1768C435.481 73.8682 435.818 72.8525 436.492 72.1299C437.166 71.4072 438.04 71.0459 439.114 71.0459C440.154 71.0459 441.003 71.3999 441.663 72.1079C442.322 72.8159 442.651 73.812 442.651 75.0962C442.651 75.1743 442.649 75.2915 442.644 75.4478H436.843C436.892 76.3022 437.134 76.9565 437.568 77.4106C438.003 77.8647 438.545 78.0918 439.194 78.0918C439.678 78.0918 440.09 77.9648 440.432 77.7109C440.774 77.457 441.045 77.0518 441.245 76.4951ZM436.917 74.3638H441.26C441.201 73.7095 441.035 73.2188 440.762 72.8916C440.342 72.3838 439.797 72.1299 439.128 72.1299C438.523 72.1299 438.013 72.3325 437.598 72.7378C437.188 73.1431 436.96 73.6851 436.917 74.3638ZM448.796 68.2627H450.115V71.9761C450.388 71.6636 450.688 71.4316 451.016 71.2803C451.343 71.124 451.694 71.0459 452.07 71.0459C452.993 71.0459 453.723 71.4316 454.26 72.2031C454.802 72.9697 455.073 73.9365 455.073 75.1035C455.073 76.3193 454.783 77.3032 454.202 78.0552C453.621 78.8022 452.898 79.1758 452.034 79.1758C451.75 79.1758 451.462 79.1318 451.169 79.0439C450.876 78.9561 450.525 78.7168 450.115 78.3262V81.981H448.796V78.3262C448.533 78.6094 448.24 78.8218 447.917 78.9634C447.6 79.105 447.256 79.1758 446.885 79.1758C446.069 79.1758 445.356 78.8193 444.746 78.1064C444.136 77.3887 443.831 76.3633 443.831 75.0303C443.831 73.9023 444.106 72.9575 444.658 72.1958C445.21 71.4292 445.952 71.0459 446.885 71.0459C447.275 71.0459 447.629 71.124 447.947 71.2803C448.264 71.4316 448.547 71.6636 448.796 71.9761V68.2627ZM450.107 75.1401C450.107 76.312 450.269 77.1006 450.591 77.5059C450.913 77.9062 451.316 78.1064 451.799 78.1064C452.336 78.1064 452.793 77.8599 453.169 77.3667C453.55 76.8687 453.74 76.0972 453.74 75.0522C453.74 74.0659 453.564 73.3311 453.213 72.8477C452.866 72.3643 452.419 72.1226 451.873 72.1226C451.287 72.1226 450.845 72.374 450.547 72.877C450.254 73.3799 450.107 74.1343 450.107 75.1401ZM445.171 74.9937C445.171 76.0923 445.354 76.8833 445.72 77.3667C446.091 77.8501 446.55 78.0918 447.097 78.0918C447.668 78.0918 448.096 77.8525 448.379 77.374C448.662 76.8906 448.804 76.168 448.804 75.2061C448.804 74.1807 448.655 73.4116 448.357 72.8989C448.059 72.3862 447.61 72.1299 447.009 72.1299C446.467 72.1299 446.025 72.3813 445.684 72.8843C445.342 73.3823 445.171 74.0854 445.171 74.9937ZM456.128 75.1108C456.128 73.6704 456.528 72.6035 457.329 71.9102C457.998 71.334 458.813 71.0459 459.775 71.0459C460.845 71.0459 461.719 71.3975 462.397 72.1006C463.076 72.7988 463.416 73.7656 463.416 75.001C463.416 76.002 463.264 76.7905 462.961 77.3667C462.664 77.938 462.227 78.3823 461.65 78.6997C461.079 79.0171 460.454 79.1758 459.775 79.1758C458.687 79.1758 457.805 78.8267 457.131 78.1284C456.462 77.4302 456.128 76.4243 456.128 75.1108ZM457.483 75.1108C457.483 76.1069 457.7 76.854 458.135 77.3521C458.569 77.8452 459.116 78.0918 459.775 78.0918C460.43 78.0918 460.974 77.8428 461.409 77.3447C461.843 76.8467 462.061 76.0874 462.061 75.0669C462.061 74.105 461.841 73.3774 461.401 72.8843C460.967 72.3862 460.425 72.1372 459.775 72.1372C459.116 72.1372 458.569 72.3838 458.135 72.877C457.7 73.3701 457.483 74.1147 457.483 75.1108ZM464.976 71.2217H466.294V74.459H469.949V71.2217H471.267V79H469.949V75.5503H466.294V79H464.976V71.2217ZM482.034 79H480.715V70.5991C480.398 70.9019 479.98 71.2046 479.463 71.5073C478.95 71.8101 478.489 72.0371 478.079 72.1885V70.9141C478.816 70.5674 479.46 70.1475 480.012 69.6543C480.564 69.1611 480.955 68.6826 481.184 68.2188H482.034V79Z" fill="#4A4A4A"/>
<rect width="159" height="36" transform="translate(546 57)" fill="#FBED9E"/>
<path d="M571.651 73.1772C571.104 72.9771 570.699 72.6914 570.436 72.3203C570.172 71.9492 570.04 71.5049 570.04 70.9873C570.04 70.2061 570.321 69.5493 570.882 69.0171C571.444 68.4849 572.191 68.2188 573.124 68.2188C574.061 68.2188 574.815 68.4922 575.387 69.0391C575.958 69.5811 576.244 70.2427 576.244 71.0239C576.244 71.522 576.112 71.9565 575.848 72.3276C575.589 72.6938 575.194 72.9771 574.662 73.1772C575.321 73.3921 575.821 73.7388 576.163 74.2173C576.51 74.6958 576.683 75.2671 576.683 75.9312C576.683 76.8491 576.358 77.6206 575.709 78.2456C575.06 78.8706 574.205 79.1831 573.146 79.1831C572.086 79.1831 571.231 78.8706 570.582 78.2456C569.933 77.6157 569.608 76.832 569.608 75.8945C569.608 75.1963 569.784 74.6128 570.135 74.144C570.492 73.6704 570.997 73.3481 571.651 73.1772ZM571.388 70.9434C571.388 71.4512 571.551 71.8662 571.878 72.1885C572.206 72.5107 572.63 72.6719 573.153 72.6719C573.661 72.6719 574.076 72.5132 574.398 72.1958C574.725 71.8735 574.889 71.4805 574.889 71.0166C574.889 70.5332 574.72 70.1279 574.383 69.8008C574.051 69.4688 573.636 69.3027 573.138 69.3027C572.635 69.3027 572.218 69.4639 571.886 69.7861C571.554 70.1084 571.388 70.4941 571.388 70.9434ZM570.963 75.9019C570.963 76.2778 571.051 76.6416 571.227 76.9932C571.407 77.3447 571.673 77.6182 572.025 77.8135C572.376 78.0039 572.755 78.0991 573.16 78.0991C573.79 78.0991 574.31 77.8965 574.72 77.4912C575.13 77.0859 575.335 76.5708 575.335 75.9458C575.335 75.311 575.123 74.7861 574.698 74.3711C574.278 73.9561 573.751 73.7485 573.116 73.7485C572.496 73.7485 571.981 73.9536 571.571 74.3638C571.166 74.7739 570.963 75.2866 570.963 75.9019ZM578.17 76.5171L579.437 76.3999C579.544 76.9956 579.75 77.4277 580.052 77.6963C580.355 77.9648 580.743 78.0991 581.217 78.0991C581.622 78.0991 581.976 78.0063 582.279 77.8208C582.586 77.6353 582.838 77.3887 583.033 77.0811C583.229 76.7686 583.392 76.3486 583.524 75.8213C583.656 75.2939 583.722 74.7568 583.722 74.21C583.722 74.1514 583.719 74.0635 583.714 73.9463C583.451 74.3662 583.089 74.708 582.63 74.9717C582.176 75.2305 581.683 75.3599 581.151 75.3599C580.262 75.3599 579.51 75.0376 578.895 74.3931C578.28 73.7485 577.972 72.8989 577.972 71.8442C577.972 70.7554 578.292 69.8789 578.932 69.2148C579.576 68.5508 580.382 68.2188 581.349 68.2188C582.047 68.2188 582.684 68.4067 583.26 68.7827C583.841 69.1587 584.281 69.6958 584.579 70.394C584.881 71.0874 585.033 72.0933 585.033 73.4116C585.033 74.7837 584.884 75.8774 584.586 76.6929C584.288 77.5034 583.844 78.1211 583.253 78.5459C582.667 78.9707 581.979 79.1831 581.188 79.1831C580.348 79.1831 579.662 78.9512 579.129 78.4873C578.597 78.0186 578.277 77.3618 578.17 76.5171ZM583.568 71.7783C583.568 71.0215 583.365 70.4209 582.96 69.9766C582.56 69.5322 582.076 69.3101 581.51 69.3101C580.924 69.3101 580.414 69.5493 579.979 70.0278C579.544 70.5063 579.327 71.1265 579.327 71.8882C579.327 72.5718 579.532 73.1284 579.942 73.5581C580.357 73.9829 580.868 74.1953 581.473 74.1953C582.083 74.1953 582.584 73.9829 582.975 73.5581C583.37 73.1284 583.568 72.5352 583.568 71.7783ZM586.52 76.5171L587.787 76.3999C587.894 76.9956 588.099 77.4277 588.402 77.6963C588.705 77.9648 589.093 78.0991 589.566 78.0991C589.972 78.0991 590.326 78.0063 590.628 77.8208C590.936 77.6353 591.188 77.3887 591.383 77.0811C591.578 76.7686 591.742 76.3486 591.874 75.8213C592.005 75.2939 592.071 74.7568 592.071 74.21C592.071 74.1514 592.069 74.0635 592.064 73.9463C591.8 74.3662 591.439 74.708 590.98 74.9717C590.526 75.2305 590.033 75.3599 589.5 75.3599C588.612 75.3599 587.86 75.0376 587.245 74.3931C586.629 73.7485 586.322 72.8989 586.322 71.8442C586.322 70.7554 586.642 69.8789 587.281 69.2148C587.926 68.5508 588.731 68.2188 589.698 68.2188C590.396 68.2188 591.034 68.4067 591.61 68.7827C592.191 69.1587 592.63 69.6958 592.928 70.394C593.231 71.0874 593.382 72.0933 593.382 73.4116C593.382 74.7837 593.233 75.8774 592.936 76.6929C592.638 77.5034 592.193 78.1211 591.603 78.5459C591.017 78.9707 590.328 79.1831 589.537 79.1831C588.697 79.1831 588.011 78.9512 587.479 78.4873C586.947 78.0186 586.627 77.3618 586.52 76.5171ZM591.917 71.7783C591.917 71.0215 591.715 70.4209 591.31 69.9766C590.909 69.5322 590.426 69.3101 589.859 69.3101C589.273 69.3101 588.763 69.5493 588.329 70.0278C587.894 70.5063 587.677 71.1265 587.677 71.8882C587.677 72.5718 587.882 73.1284 588.292 73.5581C588.707 73.9829 589.217 74.1953 589.823 74.1953C590.433 74.1953 590.934 73.9829 591.324 73.5581C591.72 73.1284 591.917 72.5352 591.917 71.7783ZM599.637 79H598.319V70.5991C598.001 70.9019 597.584 71.2046 597.066 71.5073C596.554 71.8101 596.092 72.0371 595.682 72.1885V70.9141C596.419 70.5674 597.064 70.1475 597.616 69.6543C598.167 69.1611 598.558 68.6826 598.788 68.2188H599.637V79ZM609.95 77.7329V79H602.853C602.843 78.6826 602.894 78.3774 603.006 78.0845C603.187 77.6011 603.475 77.125 603.871 76.6562C604.271 76.1875 604.847 75.6455 605.599 75.0303C606.766 74.0732 607.555 73.3164 607.965 72.7598C608.375 72.1982 608.58 71.6685 608.58 71.1704C608.58 70.6479 608.392 70.2085 608.016 69.8521C607.645 69.4907 607.159 69.3101 606.559 69.3101C605.924 69.3101 605.416 69.5005 605.035 69.8813C604.654 70.2622 604.461 70.7896 604.457 71.4634L603.102 71.3242C603.194 70.3135 603.543 69.5444 604.149 69.0171C604.754 68.4849 605.567 68.2188 606.588 68.2188C607.618 68.2188 608.434 68.5044 609.034 69.0757C609.635 69.647 609.935 70.355 609.935 71.1997C609.935 71.6294 609.847 72.0518 609.671 72.4668C609.496 72.8818 609.203 73.3188 608.792 73.7778C608.387 74.2368 607.711 74.8667 606.764 75.6675C605.973 76.3315 605.465 76.7832 605.24 77.0225C605.016 77.2568 604.83 77.4937 604.684 77.7329H609.95ZM611.371 73.7046C611.371 72.4351 611.5 71.4146 611.759 70.6431C612.022 69.8667 612.411 69.2686 612.923 68.8486C613.441 68.4287 614.09 68.2188 614.872 68.2188C615.448 68.2188 615.953 68.3359 616.388 68.5703C616.822 68.7998 617.181 69.1343 617.464 69.5737C617.748 70.0083 617.97 70.5405 618.131 71.1704C618.292 71.7954 618.373 72.6401 618.373 73.7046C618.373 74.9644 618.243 75.9824 617.984 76.7588C617.726 77.5303 617.337 78.1284 616.82 78.5532C616.307 78.9731 615.658 79.1831 614.872 79.1831C613.836 79.1831 613.023 78.812 612.433 78.0698C611.725 77.1763 611.371 75.7212 611.371 73.7046ZM612.726 73.7046C612.726 75.4673 612.931 76.6416 613.341 77.2275C613.756 77.8086 614.266 78.0991 614.872 78.0991C615.477 78.0991 615.985 77.8062 616.395 77.2202C616.81 76.6343 617.018 75.4624 617.018 73.7046C617.018 71.937 616.81 70.7627 616.395 70.1816C615.985 69.6006 615.472 69.3101 614.857 69.3101C614.251 69.3101 613.768 69.5664 613.407 70.0791C612.953 70.7334 612.726 71.9419 612.726 73.7046ZM619.72 73.7046C619.72 72.4351 619.85 71.4146 620.108 70.6431C620.372 69.8667 620.76 69.2686 621.273 68.8486C621.791 68.4287 622.44 68.2188 623.221 68.2188C623.797 68.2188 624.303 68.3359 624.737 68.5703C625.172 68.7998 625.531 69.1343 625.814 69.5737C626.097 70.0083 626.319 70.5405 626.48 71.1704C626.642 71.7954 626.722 72.6401 626.722 73.7046C626.722 74.9644 626.593 75.9824 626.334 76.7588C626.075 77.5303 625.687 78.1284 625.169 78.5532C624.657 78.9731 624.007 79.1831 623.221 79.1831C622.186 79.1831 621.373 78.812 620.782 78.0698C620.074 77.1763 619.72 75.7212 619.72 73.7046ZM621.075 73.7046C621.075 75.4673 621.28 76.6416 621.69 77.2275C622.105 77.8086 622.616 78.0991 623.221 78.0991C623.827 78.0991 624.334 77.8062 624.745 77.2202C625.16 76.6343 625.367 75.4624 625.367 73.7046C625.367 71.937 625.16 70.7627 624.745 70.1816C624.334 69.6006 623.822 69.3101 623.207 69.3101C622.601 69.3101 622.118 69.5664 621.756 70.0791C621.302 70.7334 621.075 71.9419 621.075 73.7046ZM634.999 77.7329V79H627.901C627.892 78.6826 627.943 78.3774 628.055 78.0845C628.236 77.6011 628.524 77.125 628.919 76.6562C629.32 76.1875 629.896 75.6455 630.648 75.0303C631.815 74.0732 632.604 73.3164 633.014 72.7598C633.424 72.1982 633.629 71.6685 633.629 71.1704C633.629 70.6479 633.441 70.2085 633.065 69.8521C632.694 69.4907 632.208 69.3101 631.607 69.3101C630.973 69.3101 630.465 69.5005 630.084 69.8813C629.703 70.2622 629.51 70.7896 629.505 71.4634L628.15 71.3242C628.243 70.3135 628.592 69.5444 629.198 69.0171C629.803 68.4849 630.616 68.2188 631.637 68.2188C632.667 68.2188 633.482 68.5044 634.083 69.0757C634.684 69.647 634.984 70.355 634.984 71.1997C634.984 71.6294 634.896 72.0518 634.72 72.4668C634.544 72.8818 634.251 73.3188 633.841 73.7778C633.436 74.2368 632.76 74.8667 631.812 75.6675C631.021 76.3315 630.514 76.7832 630.289 77.0225C630.064 77.2568 629.879 77.4937 629.732 77.7329H634.999ZM636.419 73.7046C636.419 72.4351 636.549 71.4146 636.808 70.6431C637.071 69.8667 637.459 69.2686 637.972 68.8486C638.49 68.4287 639.139 68.2188 639.92 68.2188C640.497 68.2188 641.002 68.3359 641.437 68.5703C641.871 68.7998 642.23 69.1343 642.513 69.5737C642.796 70.0083 643.019 70.5405 643.18 71.1704C643.341 71.7954 643.421 72.6401 643.421 73.7046C643.421 74.9644 643.292 75.9824 643.033 76.7588C642.774 77.5303 642.386 78.1284 641.869 78.5532C641.356 78.9731 640.707 79.1831 639.92 79.1831C638.885 79.1831 638.072 78.812 637.481 78.0698C636.773 77.1763 636.419 75.7212 636.419 73.7046ZM637.774 73.7046C637.774 75.4673 637.979 76.6416 638.39 77.2275C638.805 77.8086 639.315 78.0991 639.92 78.0991C640.526 78.0991 641.034 77.8062 641.444 77.2202C641.859 76.6343 642.066 75.4624 642.066 73.7046C642.066 71.937 641.859 70.7627 641.444 70.1816C641.034 69.6006 640.521 69.3101 639.906 69.3101C639.3 69.3101 638.817 69.5664 638.456 70.0791C638.001 70.7334 637.774 71.9419 637.774 73.7046ZM644.967 76.5171L646.234 76.3999C646.341 76.9956 646.546 77.4277 646.849 77.6963C647.152 77.9648 647.54 78.0991 648.014 78.0991C648.419 78.0991 648.773 78.0063 649.076 77.8208C649.383 77.6353 649.635 77.3887 649.83 77.0811C650.025 76.7686 650.189 76.3486 650.321 75.8213C650.453 75.2939 650.519 74.7568 650.519 74.21C650.519 74.1514 650.516 74.0635 650.511 73.9463C650.248 74.3662 649.886 74.708 649.427 74.9717C648.973 75.2305 648.48 75.3599 647.948 75.3599C647.059 75.3599 646.307 75.0376 645.692 74.3931C645.077 73.7485 644.769 72.8989 644.769 71.8442C644.769 70.7554 645.089 69.8789 645.729 69.2148C646.373 68.5508 647.179 68.2188 648.146 68.2188C648.844 68.2188 649.481 68.4067 650.057 68.7827C650.638 69.1587 651.078 69.6958 651.375 70.394C651.678 71.0874 651.83 72.0933 651.83 73.4116C651.83 74.7837 651.681 75.8774 651.383 76.6929C651.085 77.5034 650.641 78.1211 650.05 78.5459C649.464 78.9707 648.775 79.1831 647.984 79.1831C647.145 79.1831 646.458 78.9512 645.926 78.4873C645.394 78.0186 645.074 77.3618 644.967 76.5171ZM650.365 71.7783C650.365 71.0215 650.162 70.4209 649.757 69.9766C649.356 69.5322 648.873 69.3101 648.307 69.3101C647.721 69.3101 647.21 69.5493 646.776 70.0278C646.341 70.5063 646.124 71.1265 646.124 71.8882C646.124 72.5718 646.329 73.1284 646.739 73.5581C647.154 73.9829 647.665 74.1953 648.27 74.1953C648.88 74.1953 649.381 73.9829 649.771 73.5581C650.167 73.1284 650.365 72.5352 650.365 71.7783ZM653.316 76.5171L654.583 76.3999C654.691 76.9956 654.896 77.4277 655.199 77.6963C655.501 77.9648 655.89 78.0991 656.363 78.0991C656.769 78.0991 657.123 78.0063 657.425 77.8208C657.733 77.6353 657.984 77.3887 658.18 77.0811C658.375 76.7686 658.539 76.3486 658.67 75.8213C658.802 75.2939 658.868 74.7568 658.868 74.21C658.868 74.1514 658.866 74.0635 658.861 73.9463C658.597 74.3662 658.236 74.708 657.777 74.9717C657.323 75.2305 656.83 75.3599 656.297 75.3599C655.409 75.3599 654.657 75.0376 654.042 74.3931C653.426 73.7485 653.119 72.8989 653.119 71.8442C653.119 70.7554 653.438 69.8789 654.078 69.2148C654.723 68.5508 655.528 68.2188 656.495 68.2188C657.193 68.2188 657.831 68.4067 658.407 68.7827C658.988 69.1587 659.427 69.6958 659.725 70.394C660.028 71.0874 660.179 72.0933 660.179 73.4116C660.179 74.7837 660.03 75.8774 659.732 76.6929C659.435 77.5034 658.99 78.1211 658.399 78.5459C657.813 78.9707 657.125 79.1831 656.334 79.1831C655.494 79.1831 654.808 78.9512 654.276 78.4873C653.744 78.0186 653.424 77.3618 653.316 76.5171ZM658.714 71.7783C658.714 71.0215 658.512 70.4209 658.106 69.9766C657.706 69.5322 657.223 69.3101 656.656 69.3101C656.07 69.3101 655.56 69.5493 655.125 70.0278C654.691 70.5063 654.474 71.1265 654.474 71.8882C654.474 72.5718 654.679 73.1284 655.089 73.5581C655.504 73.9829 656.014 74.1953 656.62 74.1953C657.23 74.1953 657.73 73.9829 658.121 73.5581C658.517 73.1284 658.714 72.5352 658.714 71.7783Z" fill="#4A4A4A"/>
<rect width="159" height="36" transform="translate(387 93)" fill="white"/>
<path d="M411.889 115V105.53H408.352V104.263H416.862V105.53H413.31V115H411.889ZM422.634 112.495L423.996 112.664C423.781 113.459 423.383 114.077 422.802 114.517C422.221 114.956 421.479 115.176 420.576 115.176C419.438 115.176 418.535 114.827 417.866 114.128C417.202 113.425 416.87 112.441 416.87 111.177C416.87 109.868 417.207 108.853 417.88 108.13C418.554 107.407 419.428 107.046 420.502 107.046C421.542 107.046 422.392 107.4 423.051 108.108C423.71 108.816 424.04 109.812 424.04 111.096C424.04 111.174 424.038 111.292 424.033 111.448H418.232C418.281 112.302 418.522 112.957 418.957 113.411C419.392 113.865 419.934 114.092 420.583 114.092C421.066 114.092 421.479 113.965 421.821 113.711C422.163 113.457 422.434 113.052 422.634 112.495ZM418.305 110.364H422.648C422.59 109.709 422.424 109.219 422.15 108.892C421.73 108.384 421.186 108.13 420.517 108.13C419.912 108.13 419.401 108.333 418.986 108.738C418.576 109.143 418.349 109.685 418.305 110.364ZM425.805 107.222H431.928V115H430.617V108.313H427.124V112.188C427.124 113.091 427.094 113.687 427.036 113.975C426.977 114.263 426.816 114.514 426.552 114.729C426.289 114.944 425.908 115.051 425.41 115.051C425.102 115.051 424.748 115.032 424.348 114.993V113.894H424.926C425.2 113.894 425.395 113.867 425.512 113.813C425.629 113.755 425.708 113.665 425.747 113.542C425.786 113.42 425.805 113.022 425.805 112.349V107.222ZM439.245 112.495L440.607 112.664C440.393 113.459 439.995 114.077 439.414 114.517C438.833 114.956 438.09 115.176 437.187 115.176C436.049 115.176 435.146 114.827 434.477 114.128C433.813 113.425 433.481 112.441 433.481 111.177C433.481 109.868 433.818 108.853 434.492 108.13C435.166 107.407 436.04 107.046 437.114 107.046C438.154 107.046 439.003 107.4 439.663 108.108C440.322 108.816 440.651 109.812 440.651 111.096C440.651 111.174 440.649 111.292 440.644 111.448H434.843C434.892 112.302 435.134 112.957 435.568 113.411C436.003 113.865 436.545 114.092 437.194 114.092C437.678 114.092 438.09 113.965 438.432 113.711C438.774 113.457 439.045 113.052 439.245 112.495ZM434.917 110.364H439.26C439.201 109.709 439.035 109.219 438.762 108.892C438.342 108.384 437.797 108.13 437.128 108.13C436.523 108.13 436.013 108.333 435.598 108.738C435.188 109.143 434.96 109.685 434.917 110.364ZM446.796 104.263H448.115V107.976C448.388 107.664 448.688 107.432 449.016 107.28C449.343 107.124 449.694 107.046 450.07 107.046C450.993 107.046 451.723 107.432 452.26 108.203C452.802 108.97 453.073 109.937 453.073 111.104C453.073 112.319 452.783 113.303 452.202 114.055C451.621 114.802 450.898 115.176 450.034 115.176C449.75 115.176 449.462 115.132 449.169 115.044C448.876 114.956 448.525 114.717 448.115 114.326V117.981H446.796V114.326C446.533 114.609 446.24 114.822 445.917 114.963C445.6 115.105 445.256 115.176 444.885 115.176C444.069 115.176 443.356 114.819 442.746 114.106C442.136 113.389 441.831 112.363 441.831 111.03C441.831 109.902 442.106 108.958 442.658 108.196C443.21 107.429 443.952 107.046 444.885 107.046C445.275 107.046 445.629 107.124 445.947 107.28C446.264 107.432 446.547 107.664 446.796 107.976V104.263ZM448.107 111.14C448.107 112.312 448.269 113.101 448.591 113.506C448.913 113.906 449.316 114.106 449.799 114.106C450.336 114.106 450.793 113.86 451.169 113.367C451.55 112.869 451.74 112.097 451.74 111.052C451.74 110.066 451.564 109.331 451.213 108.848C450.866 108.364 450.419 108.123 449.873 108.123C449.287 108.123 448.845 108.374 448.547 108.877C448.254 109.38 448.107 110.134 448.107 111.14ZM443.171 110.994C443.171 112.092 443.354 112.883 443.72 113.367C444.091 113.85 444.55 114.092 445.097 114.092C445.668 114.092 446.096 113.853 446.379 113.374C446.662 112.891 446.804 112.168 446.804 111.206C446.804 110.181 446.655 109.412 446.357 108.899C446.059 108.386 445.61 108.13 445.009 108.13C444.467 108.13 444.025 108.381 443.684 108.884C443.342 109.382 443.171 110.085 443.171 110.994ZM454.128 111.111C454.128 109.67 454.528 108.604 455.329 107.91C455.998 107.334 456.813 107.046 457.775 107.046C458.845 107.046 459.719 107.397 460.397 108.101C461.076 108.799 461.416 109.766 461.416 111.001C461.416 112.002 461.264 112.791 460.961 113.367C460.664 113.938 460.227 114.382 459.65 114.7C459.079 115.017 458.454 115.176 457.775 115.176C456.687 115.176 455.805 114.827 455.131 114.128C454.462 113.43 454.128 112.424 454.128 111.111ZM455.483 111.111C455.483 112.107 455.7 112.854 456.135 113.352C456.569 113.845 457.116 114.092 457.775 114.092C458.43 114.092 458.974 113.843 459.409 113.345C459.843 112.847 460.061 112.087 460.061 111.067C460.061 110.105 459.841 109.377 459.401 108.884C458.967 108.386 458.425 108.137 457.775 108.137C457.116 108.137 456.569 108.384 456.135 108.877C455.7 109.37 455.483 110.115 455.483 111.111ZM462.976 107.222H464.294V110.459H467.949V107.222H469.267V115H467.949V111.55H464.294V115H462.976V107.222ZM481.997 113.733V115H474.899C474.89 114.683 474.941 114.377 475.053 114.084C475.234 113.601 475.522 113.125 475.917 112.656C476.318 112.188 476.894 111.646 477.646 111.03C478.813 110.073 479.602 109.316 480.012 108.76C480.422 108.198 480.627 107.668 480.627 107.17C480.627 106.648 480.439 106.208 480.063 105.852C479.692 105.491 479.206 105.31 478.605 105.31C477.971 105.31 477.463 105.5 477.082 105.881C476.701 106.262 476.508 106.79 476.503 107.463L475.148 107.324C475.241 106.313 475.59 105.544 476.196 105.017C476.801 104.485 477.614 104.219 478.635 104.219C479.665 104.219 480.48 104.504 481.081 105.076C481.682 105.647 481.982 106.355 481.982 107.2C481.982 107.629 481.894 108.052 481.718 108.467C481.542 108.882 481.25 109.319 480.839 109.778C480.434 110.237 479.758 110.867 478.811 111.667C478.02 112.332 477.512 112.783 477.287 113.022C477.062 113.257 476.877 113.494 476.73 113.733H481.997Z" fill="#4A4A4A"/>
<rect width="159" height="36" transform="translate(546 93)" fill="white"/>
<path d="M569.651 109.177C569.104 108.977 568.699 108.691 568.436 108.32C568.172 107.949 568.04 107.505 568.04 106.987C568.04 106.206 568.321 105.549 568.882 105.017C569.444 104.485 570.191 104.219 571.124 104.219C572.061 104.219 572.815 104.492 573.387 105.039C573.958 105.581 574.244 106.243 574.244 107.024C574.244 107.522 574.112 107.957 573.848 108.328C573.589 108.694 573.194 108.977 572.662 109.177C573.321 109.392 573.821 109.739 574.163 110.217C574.51 110.696 574.683 111.267 574.683 111.931C574.683 112.849 574.358 113.621 573.709 114.246C573.06 114.871 572.205 115.183 571.146 115.183C570.086 115.183 569.231 114.871 568.582 114.246C567.933 113.616 567.608 112.832 567.608 111.895C567.608 111.196 567.784 110.613 568.135 110.144C568.492 109.67 568.997 109.348 569.651 109.177ZM569.388 106.943C569.388 107.451 569.551 107.866 569.878 108.188C570.206 108.511 570.63 108.672 571.153 108.672C571.661 108.672 572.076 108.513 572.398 108.196C572.725 107.874 572.889 107.48 572.889 107.017C572.889 106.533 572.72 106.128 572.383 105.801C572.051 105.469 571.636 105.303 571.138 105.303C570.635 105.303 570.218 105.464 569.886 105.786C569.554 106.108 569.388 106.494 569.388 106.943ZM568.963 111.902C568.963 112.278 569.051 112.642 569.227 112.993C569.407 113.345 569.673 113.618 570.025 113.813C570.376 114.004 570.755 114.099 571.16 114.099C571.79 114.099 572.31 113.896 572.72 113.491C573.13 113.086 573.335 112.571 573.335 111.946C573.335 111.311 573.123 110.786 572.698 110.371C572.278 109.956 571.751 109.749 571.116 109.749C570.496 109.749 569.981 109.954 569.571 110.364C569.166 110.774 568.963 111.287 568.963 111.902ZM578.858 118.157C578.13 117.239 577.515 116.165 577.012 114.934C576.509 113.704 576.258 112.429 576.258 111.111C576.258 109.949 576.446 108.835 576.822 107.771C577.261 106.536 577.94 105.305 578.858 104.08H579.803C579.212 105.095 578.821 105.82 578.631 106.255C578.333 106.929 578.099 107.632 577.928 108.364C577.718 109.277 577.613 110.195 577.613 111.118C577.613 113.467 578.343 115.813 579.803 118.157H578.858ZM582.996 109.177C582.449 108.977 582.044 108.691 581.78 108.32C581.517 107.949 581.385 107.505 581.385 106.987C581.385 106.206 581.666 105.549 582.227 105.017C582.789 104.485 583.536 104.219 584.468 104.219C585.406 104.219 586.16 104.492 586.731 105.039C587.303 105.581 587.588 106.243 587.588 107.024C587.588 107.522 587.457 107.957 587.193 108.328C586.934 108.694 586.539 108.977 586.006 109.177C586.666 109.392 587.166 109.739 587.508 110.217C587.854 110.696 588.028 111.267 588.028 111.931C588.028 112.849 587.703 113.621 587.054 114.246C586.404 114.871 585.55 115.183 584.49 115.183C583.431 115.183 582.576 114.871 581.927 114.246C581.277 113.616 580.953 112.832 580.953 111.895C580.953 111.196 581.128 110.613 581.48 110.144C581.836 109.67 582.342 109.348 582.996 109.177ZM582.732 106.943C582.732 107.451 582.896 107.866 583.223 108.188C583.55 108.511 583.975 108.672 584.498 108.672C585.005 108.672 585.42 108.513 585.743 108.196C586.07 107.874 586.233 107.48 586.233 107.017C586.233 106.533 586.065 106.128 585.728 105.801C585.396 105.469 584.981 105.303 584.483 105.303C583.98 105.303 583.562 105.464 583.23 105.786C582.898 106.108 582.732 106.494 582.732 106.943ZM582.308 111.902C582.308 112.278 582.396 112.642 582.571 112.993C582.752 113.345 583.018 113.618 583.37 113.813C583.721 114.004 584.1 114.099 584.505 114.099C585.135 114.099 585.655 113.896 586.065 113.491C586.475 113.086 586.68 112.571 586.68 111.946C586.68 111.311 586.468 110.786 586.043 110.371C585.623 109.956 585.096 109.749 584.461 109.749C583.841 109.749 583.326 109.954 582.916 110.364C582.51 110.774 582.308 111.287 582.308 111.902ZM594.283 115H592.964V106.599C592.647 106.902 592.229 107.205 591.712 107.507C591.199 107.81 590.738 108.037 590.328 108.188V106.914C591.065 106.567 591.709 106.147 592.261 105.654C592.813 105.161 593.204 104.683 593.433 104.219H594.283V115ZM601.893 115V112.429H597.234V111.221L602.134 104.263H603.211V111.221H604.661V112.429H603.211V115H601.893ZM601.893 111.221V106.379L598.531 111.221H601.893ZM612.945 113.733V115H605.848C605.838 114.683 605.889 114.377 606.001 114.084C606.182 113.601 606.47 113.125 606.866 112.656C607.266 112.188 607.842 111.646 608.594 111.03C609.761 110.073 610.55 109.316 610.96 108.76C611.37 108.198 611.575 107.668 611.575 107.17C611.575 106.648 611.387 106.208 611.011 105.852C610.64 105.491 610.154 105.31 609.554 105.31C608.919 105.31 608.411 105.5 608.03 105.881C607.649 106.262 607.457 106.79 607.452 107.463L606.097 107.324C606.189 106.313 606.539 105.544 607.144 105.017C607.75 104.485 608.562 104.219 609.583 104.219C610.613 104.219 611.429 104.504 612.029 105.076C612.63 105.647 612.93 106.355 612.93 107.2C612.93 107.629 612.842 108.052 612.667 108.467C612.491 108.882 612.198 109.319 611.788 109.778C611.382 110.237 610.706 110.867 609.759 111.667C608.968 112.332 608.46 112.783 608.235 113.022C608.011 113.257 607.825 113.494 607.679 113.733H612.945ZM615.596 118.157H614.651C616.111 115.813 616.841 113.467 616.841 111.118C616.841 110.2 616.736 109.29 616.526 108.386C616.36 107.654 616.128 106.951 615.831 106.277C615.64 105.837 615.247 105.105 614.651 104.08H615.596C616.514 105.305 617.193 106.536 617.632 107.771C618.008 108.835 618.196 109.949 618.196 111.111C618.196 112.429 617.942 113.704 617.435 114.934C616.932 116.165 616.319 117.239 615.596 118.157ZM619.361 112.188L620.745 112.07C620.848 112.744 621.084 113.252 621.456 113.594C621.832 113.931 622.283 114.099 622.811 114.099C623.445 114.099 623.982 113.86 624.422 113.381C624.861 112.903 625.081 112.268 625.081 111.477C625.081 110.725 624.869 110.132 624.444 109.697C624.024 109.263 623.472 109.045 622.789 109.045C622.364 109.045 621.98 109.143 621.639 109.338C621.297 109.529 621.028 109.778 620.833 110.085L619.595 109.924L620.635 104.409H625.975V105.669H621.69L621.111 108.555C621.756 108.105 622.432 107.881 623.14 107.881C624.078 107.881 624.869 108.206 625.513 108.855C626.158 109.504 626.48 110.339 626.48 111.36C626.48 112.332 626.197 113.171 625.63 113.879C624.942 114.749 624.002 115.183 622.811 115.183C621.834 115.183 621.036 114.91 620.416 114.363C619.8 113.816 619.449 113.091 619.361 112.188ZM627.908 112.517L629.175 112.4C629.283 112.996 629.488 113.428 629.791 113.696C630.093 113.965 630.481 114.099 630.955 114.099C631.36 114.099 631.714 114.006 632.017 113.821C632.325 113.635 632.576 113.389 632.771 113.081C632.967 112.769 633.13 112.349 633.262 111.821C633.394 111.294 633.46 110.757 633.46 110.21C633.46 110.151 633.458 110.063 633.453 109.946C633.189 110.366 632.828 110.708 632.369 110.972C631.915 111.23 631.421 111.36 630.889 111.36C630 111.36 629.249 111.038 628.633 110.393C628.018 109.749 627.71 108.899 627.71 107.844C627.71 106.755 628.03 105.879 628.67 105.215C629.314 104.551 630.12 104.219 631.087 104.219C631.785 104.219 632.422 104.407 632.999 104.783C633.58 105.159 634.019 105.696 634.317 106.394C634.62 107.087 634.771 108.093 634.771 109.412C634.771 110.784 634.622 111.877 634.324 112.693C634.026 113.503 633.582 114.121 632.991 114.546C632.405 114.971 631.717 115.183 630.926 115.183C630.086 115.183 629.4 114.951 628.868 114.487C628.335 114.019 628.016 113.362 627.908 112.517ZM633.306 107.778C633.306 107.021 633.104 106.421 632.698 105.977C632.298 105.532 631.814 105.31 631.248 105.31C630.662 105.31 630.152 105.549 629.717 106.028C629.283 106.506 629.065 107.126 629.065 107.888C629.065 108.572 629.271 109.128 629.681 109.558C630.096 109.983 630.606 110.195 631.211 110.195C631.822 110.195 632.322 109.983 632.713 109.558C633.108 109.128 633.306 108.535 633.306 107.778ZM635.914 111.777V110.452H639.964V111.777H635.914ZM641.055 109.705C641.055 108.435 641.185 107.415 641.443 106.643C641.707 105.867 642.095 105.269 642.608 104.849C643.125 104.429 643.775 104.219 644.556 104.219C645.132 104.219 645.638 104.336 646.072 104.57C646.507 104.8 646.866 105.134 647.149 105.574C647.432 106.008 647.654 106.541 647.815 107.17C647.977 107.795 648.057 108.64 648.057 109.705C648.057 110.964 647.928 111.982 647.669 112.759C647.41 113.53 647.022 114.128 646.504 114.553C645.992 114.973 645.342 115.183 644.556 115.183C643.521 115.183 642.708 114.812 642.117 114.07C641.409 113.176 641.055 111.721 641.055 109.705ZM642.41 109.705C642.41 111.467 642.615 112.642 643.025 113.228C643.44 113.809 643.951 114.099 644.556 114.099C645.162 114.099 645.669 113.806 646.08 113.22C646.495 112.634 646.702 111.462 646.702 109.705C646.702 107.937 646.495 106.763 646.08 106.182C645.669 105.601 645.157 105.31 644.542 105.31C643.936 105.31 643.453 105.566 643.091 106.079C642.637 106.733 642.41 107.942 642.41 109.705ZM654.371 115H653.052V106.599C652.735 106.902 652.317 107.205 651.8 107.507C651.287 107.81 650.826 108.037 650.416 108.188V106.914C651.153 106.567 651.797 106.147 652.349 105.654C652.901 105.161 653.292 104.683 653.521 104.219H654.371V115ZM657.608 111.777V110.452H661.658V111.777H657.608ZM662.75 109.705C662.75 108.435 662.879 107.415 663.138 106.643C663.401 105.867 663.79 105.269 664.302 104.849C664.82 104.429 665.469 104.219 666.25 104.219C666.827 104.219 667.332 104.336 667.767 104.57C668.201 104.8 668.56 105.134 668.843 105.574C669.126 106.008 669.349 106.541 669.51 107.17C669.671 107.795 669.751 108.64 669.751 109.705C669.751 110.964 669.622 111.982 669.363 112.759C669.104 113.53 668.716 114.128 668.199 114.553C667.686 114.973 667.037 115.183 666.25 115.183C665.215 115.183 664.402 114.812 663.812 114.07C663.104 113.176 662.75 111.721 662.75 109.705ZM664.104 109.705C664.104 111.467 664.31 112.642 664.72 113.228C665.135 113.809 665.645 114.099 666.25 114.099C666.856 114.099 667.364 113.806 667.774 113.22C668.189 112.634 668.396 111.462 668.396 109.705C668.396 107.937 668.189 106.763 667.774 106.182C667.364 105.601 666.851 105.31 666.236 105.31C665.63 105.31 665.147 105.566 664.786 106.079C664.332 106.733 664.104 107.942 664.104 109.705ZM671.099 109.705C671.099 108.435 671.229 107.415 671.487 106.643C671.751 105.867 672.139 105.269 672.652 104.849C673.169 104.429 673.819 104.219 674.6 104.219C675.176 104.219 675.682 104.336 676.116 104.57C676.551 104.8 676.91 105.134 677.193 105.574C677.476 106.008 677.698 106.541 677.859 107.17C678.021 107.795 678.101 108.64 678.101 109.705C678.101 110.964 677.972 111.982 677.713 112.759C677.454 113.53 677.066 114.128 676.548 114.553C676.036 114.973 675.386 115.183 674.6 115.183C673.565 115.183 672.752 114.812 672.161 114.07C671.453 113.176 671.099 111.721 671.099 109.705ZM672.454 109.705C672.454 111.467 672.659 112.642 673.069 113.228C673.484 113.809 673.995 114.099 674.6 114.099C675.206 114.099 675.713 113.806 676.124 113.22C676.539 112.634 676.746 111.462 676.746 109.705C676.746 107.937 676.539 106.763 676.124 106.182C675.713 105.601 675.201 105.31 674.585 105.31C673.98 105.31 673.497 105.566 673.135 106.079C672.681 106.733 672.454 107.942 672.454 109.705Z" fill="#4A4A4A"/>
<rect width="159" height="36" transform="translate(387 129)" fill="#F2F2F2"/>
<path d="M410.187 151V140.263H417.95V141.53H411.607V144.818H417.547V146.078H411.607V149.733H418.199V151H410.187ZM419.994 151V143.222H421.173V144.313C421.417 143.932 421.742 143.627 422.147 143.397C422.552 143.163 423.014 143.046 423.531 143.046C424.107 143.046 424.579 143.166 424.945 143.405C425.316 143.644 425.577 143.979 425.729 144.408C426.344 143.5 427.145 143.046 428.131 143.046C428.902 143.046 429.496 143.261 429.911 143.69C430.326 144.115 430.533 144.772 430.533 145.661V151H429.222V146.1C429.222 145.573 429.178 145.194 429.09 144.965C429.007 144.73 428.854 144.542 428.629 144.401C428.404 144.259 428.141 144.188 427.838 144.188C427.291 144.188 426.837 144.372 426.476 144.738C426.114 145.099 425.934 145.68 425.934 146.481V151H424.615V145.946C424.615 145.36 424.508 144.921 424.293 144.628C424.078 144.335 423.727 144.188 423.238 144.188C422.867 144.188 422.523 144.286 422.206 144.481C421.893 144.677 421.666 144.962 421.524 145.338C421.383 145.714 421.312 146.256 421.312 146.964V151H419.994ZM437.564 150.041C437.076 150.456 436.605 150.749 436.151 150.919C435.702 151.09 435.218 151.176 434.701 151.176C433.846 151.176 433.189 150.968 432.73 150.553C432.271 150.133 432.042 149.599 432.042 148.949C432.042 148.568 432.127 148.222 432.298 147.909C432.474 147.592 432.701 147.338 432.979 147.147C433.263 146.957 433.58 146.813 433.932 146.715C434.19 146.647 434.581 146.581 435.104 146.518C436.168 146.391 436.952 146.239 437.455 146.063C437.459 145.883 437.462 145.768 437.462 145.719C437.462 145.182 437.337 144.804 437.088 144.584C436.751 144.286 436.251 144.137 435.587 144.137C434.967 144.137 434.508 144.247 434.21 144.467C433.917 144.682 433.7 145.065 433.558 145.617L432.269 145.441C432.386 144.889 432.579 144.445 432.848 144.108C433.116 143.766 433.504 143.505 434.012 143.324C434.52 143.139 435.108 143.046 435.777 143.046C436.441 143.046 436.981 143.124 437.396 143.28C437.811 143.437 438.116 143.634 438.312 143.874C438.507 144.108 438.644 144.406 438.722 144.767C438.766 144.992 438.788 145.397 438.788 145.983V147.741C438.788 148.966 438.814 149.743 438.868 150.07C438.927 150.392 439.039 150.702 439.205 151H437.828C437.691 150.727 437.604 150.407 437.564 150.041ZM437.455 147.096C436.976 147.292 436.258 147.458 435.301 147.594C434.759 147.672 434.376 147.76 434.151 147.858C433.927 147.956 433.753 148.1 433.631 148.29C433.509 148.476 433.448 148.683 433.448 148.913C433.448 149.264 433.58 149.557 433.844 149.792C434.112 150.026 434.503 150.143 435.016 150.143C435.523 150.143 435.975 150.033 436.371 149.813C436.766 149.589 437.057 149.284 437.242 148.898C437.384 148.6 437.455 148.161 437.455 147.58V147.096ZM440.846 141.779V140.263H442.164V141.779H440.846ZM440.846 151V143.222H442.164V151H440.846ZM444.149 151V140.263H445.467V151H444.149Z" fill="#4A4A4A"/>
<rect width="159" height="36" transform="translate(546 129)" fill="#F2F2F2"/>
<path d="M568.498 147.111C568.498 145.67 568.898 144.604 569.699 143.91C570.368 143.334 571.184 143.046 572.146 143.046C573.215 143.046 574.089 143.397 574.768 144.101C575.446 144.799 575.786 145.766 575.786 147.001C575.786 148.002 575.634 148.791 575.332 149.367C575.034 149.938 574.597 150.382 574.021 150.7C573.449 151.017 572.824 151.176 572.146 151.176C571.057 151.176 570.175 150.827 569.501 150.128C568.833 149.43 568.498 148.424 568.498 147.111ZM569.853 147.111C569.853 148.107 570.07 148.854 570.505 149.352C570.939 149.845 571.486 150.092 572.146 150.092C572.8 150.092 573.344 149.843 573.779 149.345C574.213 148.847 574.431 148.087 574.431 147.067C574.431 146.105 574.211 145.377 573.771 144.884C573.337 144.386 572.795 144.137 572.146 144.137C571.486 144.137 570.939 144.384 570.505 144.877C570.07 145.37 569.853 146.115 569.853 147.111ZM577.338 151V143.222H578.525V144.328C579.096 143.473 579.921 143.046 581 143.046C581.469 143.046 581.899 143.131 582.29 143.302C582.685 143.468 582.98 143.688 583.176 143.961C583.371 144.235 583.508 144.56 583.586 144.936C583.635 145.18 583.659 145.607 583.659 146.217V151H582.341V146.269C582.341 145.731 582.29 145.331 582.187 145.067C582.084 144.799 581.901 144.586 581.638 144.43C581.379 144.269 581.074 144.188 580.722 144.188C580.161 144.188 579.675 144.367 579.265 144.723C578.859 145.08 578.657 145.756 578.657 146.752V151H577.338ZM591.013 148.495L592.375 148.664C592.16 149.459 591.762 150.077 591.181 150.517C590.6 150.956 589.858 151.176 588.955 151.176C587.817 151.176 586.914 150.827 586.245 150.128C585.581 149.425 585.249 148.441 585.249 147.177C585.249 145.868 585.585 144.853 586.259 144.13C586.933 143.407 587.807 143.046 588.881 143.046C589.921 143.046 590.771 143.4 591.43 144.108C592.089 144.816 592.419 145.812 592.419 147.096C592.419 147.174 592.417 147.292 592.412 147.448H586.611C586.66 148.302 586.901 148.957 587.336 149.411C587.771 149.865 588.312 150.092 588.962 150.092C589.445 150.092 589.858 149.965 590.2 149.711C590.542 149.457 590.812 149.052 591.013 148.495ZM586.684 146.364H591.027C590.969 145.709 590.803 145.219 590.529 144.892C590.109 144.384 589.565 144.13 588.896 144.13C588.291 144.13 587.78 144.333 587.365 144.738C586.955 145.143 586.728 145.685 586.684 146.364ZM593.796 151.645L595.078 151.835C595.131 152.23 595.28 152.519 595.524 152.699C595.852 152.943 596.298 153.065 596.865 153.065C597.475 153.065 597.946 152.943 598.278 152.699C598.61 152.455 598.835 152.113 598.952 151.674C599.021 151.405 599.052 150.841 599.047 149.982C598.471 150.661 597.753 151 596.894 151C595.825 151 594.997 150.614 594.411 149.843C593.825 149.071 593.532 148.146 593.532 147.067C593.532 146.325 593.667 145.641 593.935 145.016C594.204 144.386 594.592 143.9 595.1 143.559C595.612 143.217 596.213 143.046 596.901 143.046C597.819 143.046 598.576 143.417 599.172 144.159V143.222H600.388V149.945C600.388 151.156 600.263 152.013 600.014 152.516C599.77 153.024 599.379 153.424 598.842 153.717C598.31 154.01 597.653 154.157 596.872 154.157C595.944 154.157 595.195 153.947 594.624 153.527C594.052 153.112 593.776 152.484 593.796 151.645ZM594.887 146.972C594.887 147.992 595.09 148.737 595.495 149.206C595.9 149.674 596.408 149.909 597.019 149.909C597.624 149.909 598.132 149.677 598.542 149.213C598.952 148.744 599.157 148.012 599.157 147.016C599.157 146.063 598.945 145.346 598.52 144.862C598.1 144.379 597.592 144.137 596.997 144.137C596.411 144.137 595.913 144.376 595.502 144.855C595.092 145.329 594.887 146.034 594.887 146.972ZM601.896 147.111C601.896 145.67 602.297 144.604 603.098 143.91C603.767 143.334 604.582 143.046 605.544 143.046C606.613 143.046 607.487 143.397 608.166 144.101C608.845 144.799 609.184 145.766 609.184 147.001C609.184 148.002 609.033 148.791 608.73 149.367C608.432 149.938 607.995 150.382 607.419 150.7C606.848 151.017 606.223 151.176 605.544 151.176C604.455 151.176 603.574 150.827 602.9 150.128C602.231 149.43 601.896 148.424 601.896 147.111ZM603.251 147.111C603.251 148.107 603.469 148.854 603.903 149.352C604.338 149.845 604.885 150.092 605.544 150.092C606.198 150.092 606.743 149.843 607.177 149.345C607.612 148.847 607.829 148.087 607.829 147.067C607.829 146.105 607.609 145.377 607.17 144.884C606.735 144.386 606.193 144.137 605.544 144.137C604.885 144.137 604.338 144.384 603.903 144.877C603.469 145.37 603.251 146.115 603.251 147.111ZM618.251 149.806C617.934 150.172 617.578 150.468 617.182 150.692C616.792 150.912 616.398 151.022 616.003 151.022C615.568 151.022 615.146 150.895 614.736 150.641C614.326 150.387 613.991 149.997 613.732 149.469C613.479 148.942 613.352 148.363 613.352 147.733C613.352 146.957 613.549 146.181 613.945 145.404C614.345 144.623 614.841 144.037 615.432 143.646C616.022 143.256 616.596 143.061 617.153 143.061C617.578 143.061 617.983 143.173 618.369 143.397C618.754 143.617 619.086 143.954 619.365 144.408L619.614 143.273H620.925L619.87 148.188C619.724 148.871 619.65 149.25 619.65 149.323C619.65 149.455 619.699 149.569 619.797 149.667C619.899 149.76 620.021 149.806 620.163 149.806C620.422 149.806 620.761 149.657 621.181 149.359C621.738 148.969 622.177 148.446 622.5 147.792C622.827 147.133 622.99 146.454 622.99 145.756C622.99 144.94 622.78 144.179 622.36 143.471C621.945 142.763 621.323 142.196 620.493 141.771C619.667 141.347 618.754 141.134 617.753 141.134C616.611 141.134 615.566 141.403 614.619 141.94C613.676 142.472 612.944 143.239 612.421 144.24C611.904 145.236 611.645 146.305 611.645 147.448C611.645 148.644 611.904 149.674 612.421 150.539C612.944 151.403 613.696 152.04 614.677 152.45C615.664 152.865 616.755 153.073 617.951 153.073C619.23 153.073 620.302 152.858 621.167 152.428C622.031 151.999 622.678 151.476 623.107 150.861H624.433C624.184 151.374 623.757 151.896 623.151 152.428C622.546 152.96 621.826 153.38 620.991 153.688C620.156 154 619.15 154.157 617.973 154.157C616.889 154.157 615.888 154.018 614.97 153.739C614.057 153.461 613.278 153.041 612.634 152.479C611.989 151.923 611.503 151.281 611.176 150.553C610.766 149.63 610.561 148.634 610.561 147.565C610.561 146.374 610.805 145.238 611.293 144.159C611.889 142.836 612.734 141.823 613.828 141.12C614.926 140.417 616.257 140.065 617.819 140.065C619.03 140.065 620.117 140.314 621.079 140.812C622.045 141.305 622.807 142.042 623.364 143.024C623.837 143.869 624.074 144.787 624.074 145.778C624.074 147.194 623.576 148.451 622.58 149.55C621.691 150.536 620.72 151.029 619.665 151.029C619.328 151.029 619.055 150.978 618.845 150.875C618.64 150.773 618.488 150.626 618.391 150.436C618.327 150.314 618.281 150.104 618.251 149.806ZM614.707 147.821C614.707 148.49 614.865 149.01 615.183 149.381C615.5 149.752 615.864 149.938 616.274 149.938C616.547 149.938 616.835 149.857 617.138 149.696C617.441 149.53 617.729 149.286 618.002 148.964C618.281 148.642 618.508 148.234 618.684 147.741C618.859 147.243 618.947 146.745 618.947 146.247C618.947 145.583 618.781 145.067 618.449 144.701C618.122 144.335 617.722 144.152 617.248 144.152C616.936 144.152 616.64 144.232 616.362 144.394C616.088 144.55 615.822 144.804 615.563 145.155C615.305 145.507 615.097 145.934 614.941 146.437C614.785 146.94 614.707 147.401 614.707 147.821ZM625.48 147.111C625.48 145.67 625.881 144.604 626.682 143.91C627.351 143.334 628.166 143.046 629.128 143.046C630.197 143.046 631.071 143.397 631.75 144.101C632.429 144.799 632.768 145.766 632.768 147.001C632.768 148.002 632.617 148.791 632.314 149.367C632.016 149.938 631.579 150.382 631.003 150.7C630.432 151.017 629.807 151.176 629.128 151.176C628.039 151.176 627.158 150.827 626.484 150.128C625.815 149.43 625.48 148.424 625.48 147.111ZM626.835 147.111C626.835 148.107 627.053 148.854 627.487 149.352C627.922 149.845 628.469 150.092 629.128 150.092C629.782 150.092 630.327 149.843 630.761 149.345C631.196 148.847 631.413 148.087 631.413 147.067C631.413 146.105 631.193 145.377 630.754 144.884C630.319 144.386 629.777 144.137 629.128 144.137C628.469 144.137 627.922 144.384 627.487 144.877C627.053 145.37 626.835 146.115 626.835 147.111ZM634.321 151V143.222H635.507V144.328C636.079 143.473 636.904 143.046 637.983 143.046C638.452 143.046 638.881 143.131 639.272 143.302C639.667 143.468 639.963 143.688 640.158 143.961C640.354 144.235 640.49 144.56 640.568 144.936C640.617 145.18 640.642 145.607 640.642 146.217V151H639.323V146.269C639.323 145.731 639.272 145.331 639.169 145.067C639.067 144.799 638.884 144.586 638.62 144.43C638.361 144.269 638.056 144.188 637.705 144.188C637.143 144.188 636.657 144.367 636.247 144.723C635.842 145.08 635.639 145.756 635.639 146.752V151H634.321ZM647.995 148.495L649.357 148.664C649.143 149.459 648.745 150.077 648.164 150.517C647.583 150.956 646.84 151.176 645.937 151.176C644.799 151.176 643.896 150.827 643.227 150.128C642.563 149.425 642.231 148.441 642.231 147.177C642.231 145.868 642.568 144.853 643.242 144.13C643.916 143.407 644.79 143.046 645.864 143.046C646.904 143.046 647.753 143.4 648.413 144.108C649.072 144.816 649.401 145.812 649.401 147.096C649.401 147.174 649.399 147.292 649.394 147.448H643.593C643.642 148.302 643.884 148.957 644.318 149.411C644.753 149.865 645.295 150.092 645.944 150.092C646.428 150.092 646.84 149.965 647.182 149.711C647.524 149.457 647.795 149.052 647.995 148.495ZM643.667 146.364H648.01C647.951 145.709 647.785 145.219 647.512 144.892C647.092 144.384 646.547 144.13 645.878 144.13C645.273 144.13 644.763 144.333 644.348 144.738C643.938 145.143 643.71 145.685 643.667 146.364ZM650.778 151.645L652.06 151.835C652.114 152.23 652.263 152.519 652.507 152.699C652.834 152.943 653.281 153.065 653.847 153.065C654.458 153.065 654.929 152.943 655.261 152.699C655.593 152.455 655.817 152.113 655.935 151.674C656.003 151.405 656.035 150.841 656.03 149.982C655.454 150.661 654.736 151 653.876 151C652.807 151 651.979 150.614 651.394 149.843C650.808 149.071 650.515 148.146 650.515 147.067C650.515 146.325 650.649 145.641 650.917 145.016C651.186 144.386 651.574 143.9 652.082 143.559C652.595 143.217 653.195 143.046 653.884 143.046C654.802 143.046 655.559 143.417 656.154 144.159V143.222H657.37V149.945C657.37 151.156 657.246 152.013 656.997 152.516C656.752 153.024 656.362 153.424 655.825 153.717C655.292 154.01 654.636 154.157 653.854 154.157C652.927 154.157 652.177 153.947 651.606 153.527C651.035 153.112 650.759 152.484 650.778 151.645ZM651.87 146.972C651.87 147.992 652.072 148.737 652.478 149.206C652.883 149.674 653.391 149.909 654.001 149.909C654.606 149.909 655.114 149.677 655.524 149.213C655.935 148.744 656.14 148.012 656.14 147.016C656.14 146.063 655.927 145.346 655.502 144.862C655.083 144.379 654.575 144.137 653.979 144.137C653.393 144.137 652.895 144.376 652.485 144.855C652.075 145.329 651.87 146.034 651.87 146.972ZM658.879 147.111C658.879 145.67 659.279 144.604 660.08 143.91C660.749 143.334 661.564 143.046 662.526 143.046C663.596 143.046 664.47 143.397 665.148 144.101C665.827 144.799 666.167 145.766 666.167 147.001C666.167 148.002 666.015 148.791 665.712 149.367C665.415 149.938 664.978 150.382 664.401 150.7C663.83 151.017 663.205 151.176 662.526 151.176C661.438 151.176 660.556 150.827 659.882 150.128C659.213 149.43 658.879 148.424 658.879 147.111ZM660.234 147.111C660.234 148.107 660.451 148.854 660.886 149.352C661.32 149.845 661.867 150.092 662.526 150.092C663.181 150.092 663.725 149.843 664.16 149.345C664.594 148.847 664.812 148.087 664.812 147.067C664.812 146.105 664.592 145.377 664.152 144.884C663.718 144.386 663.176 144.137 662.526 144.137C661.867 144.137 661.32 144.384 660.886 144.877C660.451 145.37 660.234 146.115 660.234 147.111ZM668.093 151V149.499H669.594V151H668.093ZM671.879 151V143.222H673.066V144.401C673.369 143.849 673.647 143.485 673.901 143.31C674.16 143.134 674.443 143.046 674.75 143.046C675.195 143.046 675.646 143.188 676.105 143.471L675.651 144.694C675.329 144.503 675.007 144.408 674.685 144.408C674.396 144.408 674.138 144.496 673.908 144.672C673.679 144.843 673.515 145.082 673.417 145.39C673.271 145.858 673.198 146.371 673.198 146.928V151H671.879ZM681.987 151V149.857C681.381 150.736 680.559 151.176 679.519 151.176C679.06 151.176 678.63 151.088 678.229 150.912C677.834 150.736 677.539 150.517 677.343 150.253C677.153 149.984 677.019 149.657 676.94 149.271C676.887 149.013 676.86 148.603 676.86 148.041V143.222H678.178V147.536C678.178 148.224 678.205 148.688 678.259 148.927C678.342 149.274 678.518 149.547 678.786 149.748C679.055 149.943 679.387 150.041 679.782 150.041C680.178 150.041 680.549 149.94 680.896 149.74C681.242 149.535 681.486 149.259 681.628 148.913C681.774 148.561 681.848 148.053 681.848 147.389V143.222H683.166V151H681.987Z" fill="#4A4A4A"/>
<a href="mailto:onego@onego.ru">
<rect fill="black" fill-opacity="0" y="-0.124268" width="116.243" height="17.2485"/>
</a>
<rect width="159" height="36" transform="translate(387 165)" fill="white"/>
<path d="M412.226 187L408.066 176.263H409.604L412.395 184.063C412.619 184.688 412.807 185.274 412.958 185.821C413.125 185.235 413.317 184.649 413.537 184.063L416.438 176.263H417.888L413.684 187H412.226ZM418.723 177.779V176.263H420.041V177.779H418.723ZM418.723 187V179.222H420.041V187H418.723ZM423.271 187H422.048V176.263H423.366V180.093C423.923 179.395 424.633 179.046 425.498 179.046C425.976 179.046 426.428 179.144 426.853 179.339C427.282 179.529 427.634 179.8 427.907 180.152C428.186 180.499 428.403 180.918 428.559 181.412C428.715 181.905 428.793 182.432 428.793 182.994C428.793 184.327 428.464 185.357 427.805 186.084C427.146 186.812 426.354 187.176 425.432 187.176C424.514 187.176 423.793 186.792 423.271 186.026V187ZM423.256 183.052C423.256 183.985 423.383 184.659 423.637 185.074C424.052 185.752 424.614 186.092 425.322 186.092C425.898 186.092 426.396 185.843 426.816 185.345C427.236 184.842 427.446 184.095 427.446 183.104C427.446 182.088 427.243 181.338 426.838 180.855C426.438 180.372 425.952 180.13 425.38 180.13C424.804 180.13 424.306 180.381 423.886 180.884C423.466 181.382 423.256 182.105 423.256 183.052ZM435.729 184.495L437.092 184.664C436.877 185.459 436.479 186.077 435.898 186.517C435.317 186.956 434.575 187.176 433.671 187.176C432.534 187.176 431.63 186.827 430.961 186.128C430.297 185.425 429.965 184.441 429.965 183.177C429.965 181.868 430.302 180.853 430.976 180.13C431.65 179.407 432.524 179.046 433.598 179.046C434.638 179.046 435.488 179.4 436.147 180.108C436.806 180.816 437.136 181.812 437.136 183.096C437.136 183.174 437.133 183.292 437.128 183.448H431.328C431.376 184.302 431.618 184.957 432.053 185.411C432.487 185.865 433.029 186.092 433.679 186.092C434.162 186.092 434.575 185.965 434.917 185.711C435.258 185.457 435.529 185.052 435.729 184.495ZM431.401 182.364H435.744C435.686 181.709 435.52 181.219 435.246 180.892C434.826 180.384 434.282 180.13 433.613 180.13C433.007 180.13 432.497 180.333 432.082 180.738C431.672 181.143 431.445 181.685 431.401 182.364ZM438.74 187V179.222H439.926V180.401C440.229 179.849 440.507 179.485 440.761 179.31C441.02 179.134 441.303 179.046 441.611 179.046C442.055 179.046 442.507 179.188 442.966 179.471L442.512 180.694C442.189 180.503 441.867 180.408 441.545 180.408C441.257 180.408 440.998 180.496 440.769 180.672C440.539 180.843 440.375 181.082 440.278 181.39C440.131 181.858 440.058 182.371 440.058 182.928V187H438.74Z" fill="#4A4A4A"/>
<rect width="159" height="36" transform="translate(546 165)" fill="white"/>
<rect width="159" height="36" transform="translate(387 201)" fill="#F2F2F2"/>
<path d="M412.032 223L409.183 212.263H410.641L412.274 219.301C412.45 220.039 412.601 220.771 412.728 221.499C413.001 220.351 413.163 219.689 413.211 219.514L415.255 212.263H416.969L418.507 217.697C418.893 219.045 419.171 220.312 419.342 221.499C419.479 220.82 419.657 220.041 419.876 219.162L421.561 212.263H422.989L420.045 223H418.675L416.412 214.819C416.222 214.135 416.109 213.715 416.075 213.559C415.963 214.052 415.858 214.472 415.76 214.819L413.482 223H412.032ZM424.154 223V212.263H425.472V216.115C426.087 215.402 426.864 215.046 427.801 215.046C428.377 215.046 428.878 215.161 429.303 215.39C429.728 215.615 430.03 215.927 430.211 216.328C430.396 216.728 430.489 217.309 430.489 218.071V223H429.171V218.071C429.171 217.412 429.027 216.933 428.739 216.635C428.456 216.333 428.053 216.181 427.53 216.181C427.14 216.181 426.771 216.284 426.424 216.489C426.083 216.689 425.838 216.962 425.692 217.309C425.545 217.656 425.472 218.134 425.472 218.745V223H424.154ZM437.579 222.041C437.091 222.456 436.62 222.749 436.166 222.919C435.716 223.09 435.233 223.176 434.715 223.176C433.861 223.176 433.204 222.968 432.745 222.553C432.286 222.133 432.057 221.599 432.057 220.949C432.057 220.568 432.142 220.222 432.313 219.909C432.489 219.592 432.716 219.338 432.994 219.147C433.277 218.957 433.595 218.813 433.946 218.715C434.205 218.647 434.596 218.581 435.118 218.518C436.183 218.391 436.966 218.239 437.469 218.063C437.474 217.883 437.477 217.768 437.477 217.719C437.477 217.182 437.352 216.804 437.103 216.584C436.766 216.286 436.266 216.137 435.602 216.137C434.981 216.137 434.522 216.247 434.225 216.467C433.932 216.682 433.714 217.065 433.573 217.617L432.284 217.441C432.401 216.889 432.594 216.445 432.862 216.108C433.131 215.766 433.519 215.505 434.027 215.324C434.535 215.139 435.123 215.046 435.792 215.046C436.456 215.046 436.996 215.124 437.411 215.28C437.826 215.437 438.131 215.634 438.326 215.874C438.521 216.108 438.658 216.406 438.736 216.767C438.78 216.992 438.802 217.397 438.802 217.983V219.741C438.802 220.966 438.829 221.743 438.883 222.07C438.941 222.392 439.054 222.702 439.22 223H437.843C437.706 222.727 437.618 222.407 437.579 222.041ZM437.469 219.096C436.991 219.292 436.273 219.458 435.316 219.594C434.774 219.672 434.391 219.76 434.166 219.858C433.941 219.956 433.768 220.1 433.646 220.29C433.524 220.476 433.463 220.683 433.463 220.913C433.463 221.264 433.595 221.557 433.858 221.792C434.127 222.026 434.518 222.143 435.03 222.143C435.538 222.143 435.99 222.033 436.385 221.813C436.781 221.589 437.071 221.284 437.257 220.898C437.398 220.6 437.469 220.161 437.469 219.58V219.096ZM443.731 221.821L443.922 222.985C443.551 223.063 443.219 223.103 442.926 223.103C442.447 223.103 442.076 223.027 441.812 222.875C441.549 222.724 441.363 222.526 441.256 222.282C441.148 222.033 441.095 221.513 441.095 220.722V216.247H440.128V215.222H441.095V213.295L442.406 212.504V215.222H443.731V216.247H442.406V220.795C442.406 221.171 442.428 221.413 442.472 221.521C442.521 221.628 442.596 221.713 442.699 221.777C442.806 221.84 442.958 221.872 443.153 221.872C443.299 221.872 443.492 221.855 443.731 221.821ZM444.5 220.678L445.804 220.473C445.877 220.996 446.08 221.396 446.412 221.674C446.749 221.953 447.218 222.092 447.818 222.092C448.424 222.092 448.873 221.97 449.166 221.726C449.459 221.477 449.605 221.186 449.605 220.854C449.605 220.556 449.476 220.322 449.217 220.151C449.037 220.034 448.587 219.885 447.87 219.704C446.903 219.46 446.231 219.25 445.855 219.074C445.484 218.894 445.201 218.647 445.006 218.334C444.815 218.017 444.72 217.668 444.72 217.287C444.72 216.94 444.798 216.621 444.955 216.328C445.116 216.03 445.333 215.783 445.606 215.588C445.812 215.437 446.09 215.31 446.441 215.207C446.798 215.1 447.179 215.046 447.584 215.046C448.194 215.046 448.729 215.134 449.188 215.31C449.652 215.485 449.994 215.725 450.213 216.027C450.433 216.325 450.584 216.726 450.667 217.229L449.378 217.404C449.32 217.004 449.149 216.691 448.866 216.467C448.587 216.242 448.192 216.13 447.679 216.13C447.074 216.13 446.642 216.23 446.383 216.43C446.124 216.63 445.995 216.865 445.995 217.133C445.995 217.304 446.048 217.458 446.156 217.595C446.263 217.736 446.432 217.854 446.661 217.946C446.793 217.995 447.181 218.107 447.826 218.283C448.758 218.532 449.408 218.737 449.774 218.898C450.145 219.055 450.436 219.284 450.646 219.587C450.855 219.89 450.96 220.266 450.96 220.715C450.96 221.154 450.831 221.569 450.572 221.96C450.318 222.346 449.95 222.646 449.466 222.861C448.983 223.071 448.436 223.176 447.826 223.176C446.815 223.176 446.043 222.966 445.511 222.546C444.984 222.126 444.647 221.503 444.5 220.678ZM454.857 223L458.98 212.263H460.511L464.906 223H463.287L462.035 219.748H457.545L456.366 223H454.857ZM457.955 218.591H461.595L460.475 215.617C460.133 214.714 459.879 213.972 459.713 213.391C459.576 214.079 459.383 214.763 459.134 215.441L457.955 218.591ZM465.873 225.981V215.222H467.074V216.232C467.357 215.837 467.677 215.542 468.033 215.346C468.39 215.146 468.822 215.046 469.33 215.046C469.994 215.046 470.58 215.217 471.087 215.559C471.595 215.9 471.979 216.384 472.237 217.009C472.496 217.629 472.625 218.31 472.625 219.052C472.625 219.848 472.481 220.566 472.193 221.206C471.91 221.84 471.495 222.329 470.948 222.67C470.406 223.007 469.835 223.176 469.234 223.176C468.795 223.176 468.399 223.083 468.048 222.897C467.701 222.712 467.416 222.478 467.191 222.194V225.981H465.873ZM467.066 219.155C467.066 220.156 467.269 220.896 467.674 221.374C468.08 221.853 468.57 222.092 469.146 222.092C469.732 222.092 470.233 221.845 470.648 221.352C471.068 220.854 471.278 220.085 471.278 219.045C471.278 218.054 471.073 217.312 470.663 216.818C470.257 216.325 469.771 216.079 469.205 216.079C468.644 216.079 468.146 216.342 467.711 216.87C467.281 217.392 467.066 218.154 467.066 219.155ZM474.222 225.981V215.222H475.423V216.232C475.707 215.837 476.026 215.542 476.383 215.346C476.739 215.146 477.171 215.046 477.679 215.046C478.343 215.046 478.929 215.217 479.437 215.559C479.945 215.9 480.328 216.384 480.587 217.009C480.846 217.629 480.975 218.31 480.975 219.052C480.975 219.848 480.831 220.566 480.543 221.206C480.26 221.84 479.845 222.329 479.298 222.67C478.756 223.007 478.185 223.176 477.584 223.176C477.145 223.176 476.749 223.083 476.397 222.897C476.051 222.712 475.765 222.478 475.541 222.194V225.981H474.222ZM475.416 219.155C475.416 220.156 475.619 220.896 476.024 221.374C476.429 221.853 476.92 222.092 477.496 222.092C478.082 222.092 478.583 221.845 478.998 221.352C479.417 220.854 479.627 220.085 479.627 219.045C479.627 218.054 479.422 217.312 479.012 216.818C478.607 216.325 478.121 216.079 477.555 216.079C476.993 216.079 476.495 216.342 476.061 216.87C475.631 217.392 475.416 218.154 475.416 219.155Z" fill="#4A4A4A"/>
<rect width="159" height="36" transform="translate(546 201)" fill="#F2F2F2"/>
<rect width="318" height="35" transform="translate(387 237)" fill="white"/>
<rect x="20" y="20" width="320" height="253" rx="2" stroke="#9B9B9B"/>
<rect width="318" height="36" transform="translate(21 21)" fill="#FBED9E"/>
<path d="M43.978 43L48.1016 32.2627H49.6323L54.0269 43H52.4082L51.1558 39.748H46.666L45.4868 43H43.978ZM47.0762 38.5908H50.7163L49.5957 35.6172C49.2539 34.7139 49 33.9717 48.834 33.3906C48.6973 34.0791 48.5044 34.7627 48.2554 35.4414L47.0762 38.5908ZM55.001 35.2217H58.0405C58.7876 35.2217 59.3418 35.2852 59.7031 35.4121C60.0693 35.5342 60.3818 35.7612 60.6406 36.0933C60.9043 36.4253 61.0361 36.8232 61.0361 37.2871C61.0361 37.6582 60.958 37.9829 60.8018 38.2612C60.6504 38.5347 60.4209 38.7642 60.1133 38.9497C60.4795 39.0718 60.7822 39.3013 61.0215 39.6382C61.2656 39.9702 61.3877 40.3657 61.3877 40.8247C61.3389 41.562 61.0752 42.1089 60.5967 42.4653C60.1182 42.8218 59.4224 43 58.5093 43H55.001V35.2217ZM56.3193 38.4956H57.7256C58.2871 38.4956 58.6729 38.4663 58.8828 38.4077C59.0928 38.3491 59.2808 38.2319 59.4468 38.0562C59.6128 37.8755 59.6958 37.6606 59.6958 37.4116C59.6958 37.0015 59.5493 36.7158 59.2563 36.5547C58.9683 36.3936 58.4727 36.313 57.7695 36.313H56.3193V38.4956ZM56.3193 41.916H58.0552C58.8022 41.916 59.3149 41.8306 59.5933 41.6597C59.8716 41.4839 60.0181 41.1836 60.0327 40.7588C60.0327 40.5098 59.9521 40.2803 59.791 40.0703C59.6299 39.8555 59.4199 39.7212 59.1611 39.6675C58.9023 39.6089 58.4873 39.5796 57.916 39.5796H56.3193V41.916ZM67.8623 42.0405C67.374 42.4556 66.9028 42.7485 66.4487 42.9194C65.9995 43.0903 65.5161 43.1758 64.9985 43.1758C64.144 43.1758 63.4873 42.9683 63.0283 42.5532C62.5693 42.1333 62.3398 41.5986 62.3398 40.9492C62.3398 40.5684 62.4253 40.2217 62.5962 39.9092C62.772 39.5918 62.999 39.3379 63.2773 39.1475C63.5605 38.957 63.8779 38.813 64.2295 38.7153C64.4883 38.647 64.8789 38.5811 65.4014 38.5176C66.4658 38.3906 67.2495 38.2393 67.7524 38.0635C67.7573 37.8828 67.7598 37.7681 67.7598 37.7192C67.7598 37.1821 67.6353 36.8037 67.3862 36.584C67.0493 36.2861 66.5488 36.1372 65.8848 36.1372C65.2646 36.1372 64.8057 36.2471 64.5078 36.4668C64.2148 36.6816 63.9976 37.0649 63.856 37.6167L62.5669 37.4409C62.6841 36.8892 62.877 36.4448 63.1455 36.1079C63.4141 35.7661 63.8022 35.5049 64.3101 35.3242C64.8179 35.1387 65.4062 35.0459 66.0752 35.0459C66.7393 35.0459 67.2788 35.124 67.6938 35.2803C68.1089 35.4365 68.4141 35.6343 68.6094 35.8735C68.8047 36.1079 68.9414 36.4058 69.0195 36.7671C69.0635 36.9917 69.0854 37.397 69.0854 37.9829V39.7407C69.0854 40.9663 69.1123 41.7427 69.166 42.0698C69.2246 42.3921 69.3369 42.7021 69.5029 43H68.126C67.9893 42.7266 67.9014 42.4067 67.8623 42.0405ZM67.7524 39.0962C67.2739 39.2915 66.5562 39.4575 65.5991 39.5942C65.0571 39.6724 64.6738 39.7603 64.4492 39.8579C64.2246 39.9556 64.0513 40.0996 63.9292 40.29C63.8071 40.4756 63.7461 40.6831 63.7461 40.9126C63.7461 41.2642 63.8779 41.5571 64.1416 41.7915C64.4102 42.0259 64.8008 42.1431 65.3135 42.1431C65.8213 42.1431 66.2729 42.0332 66.6685 41.8135C67.064 41.5889 67.3545 41.2837 67.54 40.8979C67.6816 40.6001 67.7524 40.1606 67.7524 39.5796V39.0962ZM71.1362 45.981V35.2217H72.3374V36.2324C72.6206 35.8369 72.9404 35.5415 73.2969 35.3462C73.6533 35.146 74.0854 35.0459 74.5933 35.0459C75.2573 35.0459 75.8433 35.2168 76.3511 35.5586C76.8589 35.9004 77.2422 36.3838 77.501 37.0088C77.7598 37.6289 77.8892 38.3101 77.8892 39.0522C77.8892 39.8481 77.7451 40.5659 77.457 41.2056C77.1738 41.8403 76.7588 42.3286 76.2119 42.6704C75.6699 43.0073 75.0986 43.1758 74.498 43.1758C74.0586 43.1758 73.6631 43.083 73.3115 42.8975C72.9648 42.7119 72.6792 42.4775 72.4546 42.1943V45.981H71.1362ZM72.3301 39.1548C72.3301 40.1558 72.5327 40.8955 72.938 41.374C73.3433 41.8525 73.834 42.0918 74.4102 42.0918C74.9961 42.0918 75.4966 41.8452 75.9116 41.3521C76.3315 40.854 76.5415 40.085 76.5415 39.0449C76.5415 38.0537 76.3364 37.3115 75.9263 36.8184C75.521 36.3252 75.0352 36.0786 74.4688 36.0786C73.9072 36.0786 73.4092 36.3423 72.9746 36.8696C72.5449 37.3921 72.3301 38.1538 72.3301 39.1548ZM79.4858 35.2217H80.8042V41.1543L84.459 35.2217H85.8799V43H84.5615V37.104L80.9067 43H79.4858V35.2217ZM87.8647 35.2217H89.1831V41.1543L92.8379 35.2217H94.2588V43H92.9404V37.104L89.2856 43H87.8647V35.2217ZM92.4424 32.2773H93.3433C93.27 32.8877 93.0454 33.3564 92.6694 33.6836C92.2983 34.0107 91.8027 34.1743 91.1826 34.1743C90.5576 34.1743 90.0571 34.0132 89.6812 33.6909C89.3101 33.3638 89.0879 32.8926 89.0146 32.2773H89.9155C89.9839 32.6094 90.1182 32.8584 90.3184 33.0244C90.5234 33.1855 90.7969 33.2661 91.1387 33.2661C91.5342 33.2661 91.832 33.188 92.0322 33.0317C92.2373 32.8706 92.374 32.6191 92.4424 32.2773ZM96.251 35.2217H97.5693V38.459H101.224V35.2217H102.542V43H101.224V39.5503H97.5693V43H96.251V35.2217ZM109.61 42.0405C109.122 42.4556 108.651 42.7485 108.197 42.9194C107.748 43.0903 107.264 43.1758 106.747 43.1758C105.892 43.1758 105.235 42.9683 104.776 42.5532C104.317 42.1333 104.088 41.5986 104.088 40.9492C104.088 40.5684 104.173 40.2217 104.344 39.9092C104.52 39.5918 104.747 39.3379 105.025 39.1475C105.309 38.957 105.626 38.813 105.978 38.7153C106.236 38.647 106.627 38.5811 107.149 38.5176C108.214 38.3906 108.998 38.2393 109.5 38.0635C109.505 37.8828 109.508 37.7681 109.508 37.7192C109.508 37.1821 109.383 36.8037 109.134 36.584C108.797 36.2861 108.297 36.1372 107.633 36.1372C107.013 36.1372 106.554 36.2471 106.256 36.4668C105.963 36.6816 105.746 37.0649 105.604 37.6167L104.315 37.4409C104.432 36.8892 104.625 36.4448 104.894 36.1079C105.162 35.7661 105.55 35.5049 106.058 35.3242C106.566 35.1387 107.154 35.0459 107.823 35.0459C108.487 35.0459 109.027 35.124 109.442 35.2803C109.857 35.4365 110.162 35.6343 110.357 35.8735C110.553 36.1079 110.689 36.4058 110.768 36.7671C110.812 36.9917 110.833 37.397 110.833 37.9829V39.7407C110.833 40.9663 110.86 41.7427 110.914 42.0698C110.973 42.3921 111.085 42.7021 111.251 43H109.874C109.737 42.7266 109.649 42.4067 109.61 42.0405ZM109.5 39.0962C109.022 39.2915 108.304 39.4575 107.347 39.5942C106.805 39.6724 106.422 39.7603 106.197 39.8579C105.973 39.9556 105.799 40.0996 105.677 40.29C105.555 40.4756 105.494 40.6831 105.494 40.9126C105.494 41.2642 105.626 41.5571 105.89 41.7915C106.158 42.0259 106.549 42.1431 107.062 42.1431C107.569 42.1431 108.021 42.0332 108.417 41.8135C108.812 41.5889 109.103 41.2837 109.288 40.8979C109.43 40.6001 109.5 40.1606 109.5 39.5796V39.0962ZM119.007 35.2217V43H117.696V39.9678H116.935C116.471 39.9678 116.124 40.0288 115.895 40.1509C115.67 40.2681 115.34 40.6514 114.906 41.3008L113.756 43H112.123L113.543 40.9053C113.978 40.2656 114.41 39.9043 114.84 39.8213C114.088 39.7188 113.529 39.4478 113.163 39.0083C112.801 38.5688 112.621 38.0635 112.621 37.4922C112.621 36.8184 112.857 36.2715 113.331 35.8516C113.81 35.4316 114.5 35.2217 115.404 35.2217H119.007ZM117.696 36.313H115.821C115.035 36.313 114.527 36.4351 114.298 36.6792C114.073 36.9233 113.961 37.209 113.961 37.5361C113.961 38 114.127 38.3418 114.459 38.5615C114.796 38.7764 115.389 38.8838 116.239 38.8838H117.696V36.313Z" fill="#4A4A4A"/>
<rect width="318" height="36" transform="translate(21 57)" fill="white"/>
<path d="M43.1719 68.2627H51.6167V79H50.1885V69.5298H44.5928V79H43.1719V68.2627ZM53.77 81.981V71.2217H54.9712V72.2324C55.2544 71.8369 55.5742 71.5415 55.9307 71.3462C56.2871 71.146 56.7192 71.0459 57.2271 71.0459C57.8911 71.0459 58.4771 71.2168 58.9849 71.5586C59.4927 71.9004 59.876 72.3838 60.1348 73.0088C60.3936 73.6289 60.5229 74.3101 60.5229 75.0522C60.5229 75.8481 60.3789 76.5659 60.0908 77.2056C59.8076 77.8403 59.3926 78.3286 58.8457 78.6704C58.3037 79.0073 57.7324 79.1758 57.1318 79.1758C56.6924 79.1758 56.2969 79.083 55.9453 78.8975C55.5986 78.7119 55.313 78.4775 55.0884 78.1943V81.981H53.77ZM54.9639 75.1548C54.9639 76.1558 55.1665 76.8955 55.5718 77.374C55.9771 77.8525 56.4678 78.0918 57.0439 78.0918C57.6299 78.0918 58.1304 77.8452 58.5454 77.3521C58.9653 76.854 59.1753 76.085 59.1753 75.0449C59.1753 74.0537 58.9702 73.3115 58.5601 72.8184C58.1548 72.3252 57.6689 72.0786 57.1025 72.0786C56.541 72.0786 56.043 72.3423 55.6084 72.8696C55.1787 73.3921 54.9639 74.1538 54.9639 75.1548ZM62.1196 71.2217H63.438V77.1543L67.0928 71.2217H68.5137V79H67.1953V73.104L63.5405 79H62.1196V71.2217ZM75.8232 76.4951L77.1855 76.6636C76.9707 77.4595 76.5728 78.0771 75.9917 78.5166C75.4106 78.9561 74.6685 79.1758 73.7651 79.1758C72.6274 79.1758 71.7241 78.8267 71.0552 78.1284C70.3911 77.4253 70.0591 76.4414 70.0591 75.1768C70.0591 73.8682 70.396 72.8525 71.0698 72.1299C71.7437 71.4072 72.6177 71.0459 73.6919 71.0459C74.7319 71.0459 75.5815 71.3999 76.2407 72.1079C76.8999 72.8159 77.2295 73.812 77.2295 75.0962C77.2295 75.1743 77.2271 75.2915 77.2222 75.4478H71.4214C71.4702 76.3022 71.7119 76.9565 72.1465 77.4106C72.5811 77.8647 73.123 78.0918 73.7725 78.0918C74.2559 78.0918 74.6685 77.9648 75.0103 77.7109C75.3521 77.457 75.623 77.0518 75.8232 76.4951ZM71.4946 74.3638H75.8379C75.7793 73.7095 75.6133 73.2188 75.3398 72.8916C74.9199 72.3838 74.3755 72.1299 73.7065 72.1299C73.1011 72.1299 72.5908 72.3325 72.1758 72.7378C71.7656 73.1431 71.5386 73.6851 71.4946 74.3638ZM78.8848 71.2217H80.9355L82.979 77.4473L85.2495 71.2217H87.1465V79H85.8281V72.7378L83.5283 79H82.3491L80.1738 72.4375V79H78.8848V71.2217ZM89.168 71.2217H90.4863V74.459H94.1411V71.2217H95.4595V79H94.1411V75.5503H90.4863V79H89.168V71.2217ZM102.527 78.0405C102.039 78.4556 101.568 78.7485 101.114 78.9194C100.665 79.0903 100.181 79.1758 99.6636 79.1758C98.8091 79.1758 98.1523 78.9683 97.6934 78.5532C97.2344 78.1333 97.0049 77.5986 97.0049 76.9492C97.0049 76.5684 97.0903 76.2217 97.2612 75.9092C97.437 75.5918 97.6641 75.3379 97.9424 75.1475C98.2256 74.957 98.543 74.813 98.8945 74.7153C99.1533 74.647 99.5439 74.5811 100.066 74.5176C101.131 74.3906 101.915 74.2393 102.417 74.0635C102.422 73.8828 102.425 73.7681 102.425 73.7192C102.425 73.1821 102.3 72.8037 102.051 72.584C101.714 72.2861 101.214 72.1372 100.55 72.1372C99.9297 72.1372 99.4707 72.2471 99.1729 72.4668C98.8799 72.6816 98.6626 73.0649 98.521 73.6167L97.2319 73.4409C97.3491 72.8892 97.542 72.4448 97.8105 72.1079C98.0791 71.7661 98.4673 71.5049 98.9751 71.3242C99.4829 71.1387 100.071 71.0459 100.74 71.0459C101.404 71.0459 101.944 71.124 102.359 71.2803C102.774 71.4365 103.079 71.6343 103.274 71.8735C103.47 72.1079 103.606 72.4058 103.685 72.7671C103.729 72.9917 103.75 73.397 103.75 73.9829V75.7407C103.75 76.9663 103.777 77.7427 103.831 78.0698C103.89 78.3921 104.002 78.7021 104.168 79H102.791C102.654 78.7266 102.566 78.4067 102.527 78.0405ZM102.417 75.0962C101.939 75.2915 101.221 75.4575 100.264 75.5942C99.7222 75.6724 99.3389 75.7603 99.1143 75.8579C98.8896 75.9556 98.7163 76.0996 98.5942 76.29C98.4722 76.4756 98.4111 76.6831 98.4111 76.9126C98.4111 77.2642 98.543 77.5571 98.8066 77.7915C99.0752 78.0259 99.4658 78.1431 99.9785 78.1431C100.486 78.1431 100.938 78.0332 101.333 77.8135C101.729 77.5889 102.02 77.2837 102.205 76.8979C102.347 76.6001 102.417 76.1606 102.417 75.5796V75.0962ZM111.924 71.2217V79H110.613V75.9678H109.852C109.388 75.9678 109.041 76.0288 108.812 76.1509C108.587 76.2681 108.257 76.6514 107.823 77.3008L106.673 79H105.04L106.46 76.9053C106.895 76.2656 107.327 75.9043 107.757 75.8213C107.005 75.7188 106.446 75.4478 106.08 75.0083C105.718 74.5688 105.538 74.0635 105.538 73.4922C105.538 72.8184 105.774 72.2715 106.248 71.8516C106.727 71.4316 107.417 71.2217 108.321 71.2217H111.924ZM110.613 72.313H108.738C107.952 72.313 107.444 72.4351 107.215 72.6792C106.99 72.9233 106.878 73.209 106.878 73.5361C106.878 74 107.044 74.3418 107.376 74.5615C107.713 74.7764 108.306 74.8838 109.156 74.8838H110.613V72.313Z" fill="#4A4A4A"/>
<rect width="318" height="36" transform="translate(21 93)" fill="#F2F2F2"/>
<path d="M44.1719 104.263H52.6167V115H51.1885V105.53H45.5928V115H44.1719V104.263ZM54.77 117.981V107.222H55.9712V108.232C56.2544 107.837 56.5742 107.542 56.9307 107.346C57.2871 107.146 57.7192 107.046 58.2271 107.046C58.8911 107.046 59.4771 107.217 59.9849 107.559C60.4927 107.9 60.876 108.384 61.1348 109.009C61.3936 109.629 61.5229 110.31 61.5229 111.052C61.5229 111.848 61.3789 112.566 61.0908 113.206C60.8076 113.84 60.3926 114.329 59.8457 114.67C59.3037 115.007 58.7324 115.176 58.1318 115.176C57.6924 115.176 57.2969 115.083 56.9453 114.897C56.5986 114.712 56.313 114.478 56.0884 114.194V117.981H54.77ZM55.9639 111.155C55.9639 112.156 56.1665 112.896 56.5718 113.374C56.9771 113.853 57.4678 114.092 58.0439 114.092C58.6299 114.092 59.1304 113.845 59.5454 113.352C59.9653 112.854 60.1753 112.085 60.1753 111.045C60.1753 110.054 59.9702 109.312 59.5601 108.818C59.1548 108.325 58.6689 108.079 58.1025 108.079C57.541 108.079 57.043 108.342 56.6084 108.87C56.1787 109.392 55.9639 110.154 55.9639 111.155ZM63.1196 107.222H64.438V113.154L68.0928 107.222H69.5137V115H68.1953V109.104L64.5405 115H63.1196V107.222ZM76.8232 112.495L78.1855 112.664C77.9707 113.459 77.5728 114.077 76.9917 114.517C76.4106 114.956 75.6685 115.176 74.7651 115.176C73.6274 115.176 72.7241 114.827 72.0552 114.128C71.3911 113.425 71.0591 112.441 71.0591 111.177C71.0591 109.868 71.396 108.853 72.0698 108.13C72.7437 107.407 73.6177 107.046 74.6919 107.046C75.7319 107.046 76.5815 107.4 77.2407 108.108C77.8999 108.816 78.2295 109.812 78.2295 111.096C78.2295 111.174 78.2271 111.292 78.2222 111.448H72.4214C72.4702 112.302 72.7119 112.957 73.1465 113.411C73.5811 113.865 74.123 114.092 74.7725 114.092C75.2559 114.092 75.6685 113.965 76.0103 113.711C76.3521 113.457 76.623 113.052 76.8232 112.495ZM72.4946 110.364H76.8379C76.7793 109.709 76.6133 109.219 76.3398 108.892C75.9199 108.384 75.3755 108.13 74.7065 108.13C74.1011 108.13 73.5908 108.333 73.1758 108.738C72.7656 109.143 72.5386 109.685 72.4946 110.364ZM79.8848 107.222H81.9355L83.979 113.447L86.2495 107.222H88.1465V115H86.8281V108.738L84.5283 115H83.3491L81.1738 108.438V115H79.8848V107.222ZM90.168 107.222H91.4863V110.459H95.1411V107.222H96.4595V115H95.1411V111.55H91.4863V115H90.168V107.222ZM103.527 114.041C103.039 114.456 102.568 114.749 102.114 114.919C101.665 115.09 101.181 115.176 100.664 115.176C99.8091 115.176 99.1523 114.968 98.6934 114.553C98.2344 114.133 98.0049 113.599 98.0049 112.949C98.0049 112.568 98.0903 112.222 98.2612 111.909C98.437 111.592 98.6641 111.338 98.9424 111.147C99.2256 110.957 99.543 110.813 99.8945 110.715C100.153 110.647 100.544 110.581 101.066 110.518C102.131 110.391 102.915 110.239 103.417 110.063C103.422 109.883 103.425 109.768 103.425 109.719C103.425 109.182 103.3 108.804 103.051 108.584C102.714 108.286 102.214 108.137 101.55 108.137C100.93 108.137 100.471 108.247 100.173 108.467C99.8799 108.682 99.6626 109.065 99.521 109.617L98.2319 109.441C98.3491 108.889 98.542 108.445 98.8105 108.108C99.0791 107.766 99.4673 107.505 99.9751 107.324C100.483 107.139 101.071 107.046 101.74 107.046C102.404 107.046 102.944 107.124 103.359 107.28C103.774 107.437 104.079 107.634 104.274 107.874C104.47 108.108 104.606 108.406 104.685 108.767C104.729 108.992 104.75 109.397 104.75 109.983V111.741C104.75 112.966 104.777 113.743 104.831 114.07C104.89 114.392 105.002 114.702 105.168 115H103.791C103.654 114.727 103.566 114.407 103.527 114.041ZM103.417 111.096C102.939 111.292 102.221 111.458 101.264 111.594C100.722 111.672 100.339 111.76 100.114 111.858C99.8896 111.956 99.7163 112.1 99.5942 112.29C99.4722 112.476 99.4111 112.683 99.4111 112.913C99.4111 113.264 99.543 113.557 99.8066 113.792C100.075 114.026 100.466 114.143 100.979 114.143C101.486 114.143 101.938 114.033 102.333 113.813C102.729 113.589 103.02 113.284 103.205 112.898C103.347 112.6 103.417 112.161 103.417 111.58V111.096ZM112.924 107.222V115H111.613V111.968H110.852C110.388 111.968 110.041 112.029 109.812 112.151C109.587 112.268 109.257 112.651 108.823 113.301L107.673 115H106.04L107.46 112.905C107.895 112.266 108.327 111.904 108.757 111.821C108.005 111.719 107.446 111.448 107.08 111.008C106.718 110.569 106.538 110.063 106.538 109.492C106.538 108.818 106.774 108.271 107.248 107.852C107.727 107.432 108.417 107.222 109.321 107.222H112.924ZM111.613 108.313H109.738C108.952 108.313 108.444 108.435 108.215 108.679C107.99 108.923 107.878 109.209 107.878 109.536C107.878 110 108.044 110.342 108.376 110.562C108.713 110.776 109.306 110.884 110.156 110.884H111.613V108.313ZM125.668 113.733V115H118.571C118.562 114.683 118.613 114.377 118.725 114.084C118.906 113.601 119.194 113.125 119.589 112.656C119.99 112.188 120.566 111.646 121.318 111.03C122.485 110.073 123.273 109.316 123.684 108.76C124.094 108.198 124.299 107.668 124.299 107.17C124.299 106.648 124.111 106.208 123.735 105.852C123.364 105.491 122.878 105.31 122.277 105.31C121.643 105.31 121.135 105.5 120.754 105.881C120.373 106.262 120.18 106.79 120.175 107.463L118.82 107.324C118.913 106.313 119.262 105.544 119.868 105.017C120.473 104.485 121.286 104.219 122.307 104.219C123.337 104.219 124.152 104.504 124.753 105.076C125.354 105.647 125.654 106.355 125.654 107.2C125.654 107.629 125.566 108.052 125.39 108.467C125.214 108.882 124.921 109.319 124.511 109.778C124.106 110.237 123.43 110.867 122.482 111.667C121.691 112.332 121.184 112.783 120.959 113.022C120.734 113.257 120.549 113.494 120.402 113.733H125.668Z" fill="#4A4A4A"/>
<rect width="318" height="36" transform="translate(21 129)" fill="white"/>
<path d="M43.1719 140.263H51.6167V151H50.1885V141.53H44.5928V151H43.1719V140.263ZM53.77 153.981V143.222H54.9712V144.232C55.2544 143.837 55.5742 143.542 55.9307 143.346C56.2871 143.146 56.7192 143.046 57.2271 143.046C57.8911 143.046 58.4771 143.217 58.9849 143.559C59.4927 143.9 59.876 144.384 60.1348 145.009C60.3936 145.629 60.5229 146.31 60.5229 147.052C60.5229 147.848 60.3789 148.566 60.0908 149.206C59.8076 149.84 59.3926 150.329 58.8457 150.67C58.3037 151.007 57.7324 151.176 57.1318 151.176C56.6924 151.176 56.2969 151.083 55.9453 150.897C55.5986 150.712 55.313 150.478 55.0884 150.194V153.981H53.77ZM54.9639 147.155C54.9639 148.156 55.1665 148.896 55.5718 149.374C55.9771 149.853 56.4678 150.092 57.0439 150.092C57.6299 150.092 58.1304 149.845 58.5454 149.352C58.9653 148.854 59.1753 148.085 59.1753 147.045C59.1753 146.054 58.9702 145.312 58.5601 144.818C58.1548 144.325 57.6689 144.079 57.1025 144.079C56.541 144.079 56.043 144.342 55.6084 144.87C55.1787 145.392 54.9639 146.154 54.9639 147.155ZM62.1196 143.222H63.438V149.154L67.0928 143.222H68.5137V151H67.1953V145.104L63.5405 151H62.1196V143.222ZM75.8232 148.495L77.1855 148.664C76.9707 149.459 76.5728 150.077 75.9917 150.517C75.4106 150.956 74.6685 151.176 73.7651 151.176C72.6274 151.176 71.7241 150.827 71.0552 150.128C70.3911 149.425 70.0591 148.441 70.0591 147.177C70.0591 145.868 70.396 144.853 71.0698 144.13C71.7437 143.407 72.6177 143.046 73.6919 143.046C74.7319 143.046 75.5815 143.4 76.2407 144.108C76.8999 144.816 77.2295 145.812 77.2295 147.096C77.2295 147.174 77.2271 147.292 77.2222 147.448H71.4214C71.4702 148.302 71.7119 148.957 72.1465 149.411C72.5811 149.865 73.123 150.092 73.7725 150.092C74.2559 150.092 74.6685 149.965 75.0103 149.711C75.3521 149.457 75.623 149.052 75.8232 148.495ZM71.4946 146.364H75.8379C75.7793 145.709 75.6133 145.219 75.3398 144.892C74.9199 144.384 74.3755 144.13 73.7065 144.13C73.1011 144.13 72.5908 144.333 72.1758 144.738C71.7656 145.143 71.5386 145.685 71.4946 146.364ZM78.8848 143.222H80.9355L82.979 149.447L85.2495 143.222H87.1465V151H85.8281V144.738L83.5283 151H82.3491L80.1738 144.438V151H78.8848V143.222ZM89.168 143.222H90.4863V146.459H94.1411V143.222H95.4595V151H94.1411V147.55H90.4863V151H89.168V143.222ZM102.527 150.041C102.039 150.456 101.568 150.749 101.114 150.919C100.665 151.09 100.181 151.176 99.6636 151.176C98.8091 151.176 98.1523 150.968 97.6934 150.553C97.2344 150.133 97.0049 149.599 97.0049 148.949C97.0049 148.568 97.0903 148.222 97.2612 147.909C97.437 147.592 97.6641 147.338 97.9424 147.147C98.2256 146.957 98.543 146.813 98.8945 146.715C99.1533 146.647 99.5439 146.581 100.066 146.518C101.131 146.391 101.915 146.239 102.417 146.063C102.422 145.883 102.425 145.768 102.425 145.719C102.425 145.182 102.3 144.804 102.051 144.584C101.714 144.286 101.214 144.137 100.55 144.137C99.9297 144.137 99.4707 144.247 99.1729 144.467C98.8799 144.682 98.6626 145.065 98.521 145.617L97.2319 145.441C97.3491 144.889 97.542 144.445 97.8105 144.108C98.0791 143.766 98.4673 143.505 98.9751 143.324C99.4829 143.139 100.071 143.046 100.74 143.046C101.404 143.046 101.944 143.124 102.359 143.28C102.774 143.437 103.079 143.634 103.274 143.874C103.47 144.108 103.606 144.406 103.685 144.767C103.729 144.992 103.75 145.397 103.75 145.983V147.741C103.75 148.966 103.777 149.743 103.831 150.07C103.89 150.392 104.002 150.702 104.168 151H102.791C102.654 150.727 102.566 150.407 102.527 150.041ZM102.417 147.096C101.939 147.292 101.221 147.458 100.264 147.594C99.7222 147.672 99.3389 147.76 99.1143 147.858C98.8896 147.956 98.7163 148.1 98.5942 148.29C98.4722 148.476 98.4111 148.683 98.4111 148.913C98.4111 149.264 98.543 149.557 98.8066 149.792C99.0752 150.026 99.4658 150.143 99.9785 150.143C100.486 150.143 100.938 150.033 101.333 149.813C101.729 149.589 102.02 149.284 102.205 148.898C102.347 148.6 102.417 148.161 102.417 147.58V147.096ZM111.924 143.222V151H110.613V147.968H109.852C109.388 147.968 109.041 148.029 108.812 148.151C108.587 148.268 108.257 148.651 107.823 149.301L106.673 151H105.04L106.46 148.905C106.895 148.266 107.327 147.904 107.757 147.821C107.005 147.719 106.446 147.448 106.08 147.008C105.718 146.569 105.538 146.063 105.538 145.492C105.538 144.818 105.774 144.271 106.248 143.852C106.727 143.432 107.417 143.222 108.321 143.222H111.924ZM110.613 144.313H108.738C107.952 144.313 107.444 144.435 107.215 144.679C106.99 144.923 106.878 145.209 106.878 145.536C106.878 146 107.044 146.342 107.376 146.562C107.713 146.776 108.306 146.884 109.156 146.884H110.613V144.313Z" fill="#4A4A4A"/>
<rect width="318" height="36" transform="translate(21 165)" fill="#F2F2F2"/>
<path d="M44.1719 176.263H52.6167V187H51.1885V177.53H45.5928V187H44.1719V176.263ZM54.77 189.981V179.222H55.9712V180.232C56.2544 179.837 56.5742 179.542 56.9307 179.346C57.2871 179.146 57.7192 179.046 58.2271 179.046C58.8911 179.046 59.4771 179.217 59.9849 179.559C60.4927 179.9 60.876 180.384 61.1348 181.009C61.3936 181.629 61.5229 182.31 61.5229 183.052C61.5229 183.848 61.3789 184.566 61.0908 185.206C60.8076 185.84 60.3926 186.329 59.8457 186.67C59.3037 187.007 58.7324 187.176 58.1318 187.176C57.6924 187.176 57.2969 187.083 56.9453 186.897C56.5986 186.712 56.313 186.478 56.0884 186.194V189.981H54.77ZM55.9639 183.155C55.9639 184.156 56.1665 184.896 56.5718 185.374C56.9771 185.853 57.4678 186.092 58.0439 186.092C58.6299 186.092 59.1304 185.845 59.5454 185.352C59.9653 184.854 60.1753 184.085 60.1753 183.045C60.1753 182.054 59.9702 181.312 59.5601 180.818C59.1548 180.325 58.6689 180.079 58.1025 180.079C57.541 180.079 57.043 180.342 56.6084 180.87C56.1787 181.392 55.9639 182.154 55.9639 183.155ZM63.1196 179.222H64.438V185.154L68.0928 179.222H69.5137V187H68.1953V181.104L64.5405 187H63.1196V179.222ZM76.8232 184.495L78.1855 184.664C77.9707 185.459 77.5728 186.077 76.9917 186.517C76.4106 186.956 75.6685 187.176 74.7651 187.176C73.6274 187.176 72.7241 186.827 72.0552 186.128C71.3911 185.425 71.0591 184.441 71.0591 183.177C71.0591 181.868 71.396 180.853 72.0698 180.13C72.7437 179.407 73.6177 179.046 74.6919 179.046C75.7319 179.046 76.5815 179.4 77.2407 180.108C77.8999 180.816 78.2295 181.812 78.2295 183.096C78.2295 183.174 78.2271 183.292 78.2222 183.448H72.4214C72.4702 184.302 72.7119 184.957 73.1465 185.411C73.5811 185.865 74.123 186.092 74.7725 186.092C75.2559 186.092 75.6685 185.965 76.0103 185.711C76.3521 185.457 76.623 185.052 76.8232 184.495ZM72.4946 182.364H76.8379C76.7793 181.709 76.6133 181.219 76.3398 180.892C75.9199 180.384 75.3755 180.13 74.7065 180.13C74.1011 180.13 73.5908 180.333 73.1758 180.738C72.7656 181.143 72.5386 181.685 72.4946 182.364ZM79.8848 179.222H81.9355L83.979 185.447L86.2495 179.222H88.1465V187H86.8281V180.738L84.5283 187H83.3491L81.1738 180.438V187H79.8848V179.222ZM90.168 179.222H91.4863V182.459H95.1411V179.222H96.4595V187H95.1411V183.55H91.4863V187H90.168V179.222ZM103.527 186.041C103.039 186.456 102.568 186.749 102.114 186.919C101.665 187.09 101.181 187.176 100.664 187.176C99.8091 187.176 99.1523 186.968 98.6934 186.553C98.2344 186.133 98.0049 185.599 98.0049 184.949C98.0049 184.568 98.0903 184.222 98.2612 183.909C98.437 183.592 98.6641 183.338 98.9424 183.147C99.2256 182.957 99.543 182.813 99.8945 182.715C100.153 182.647 100.544 182.581 101.066 182.518C102.131 182.391 102.915 182.239 103.417 182.063C103.422 181.883 103.425 181.768 103.425 181.719C103.425 181.182 103.3 180.804 103.051 180.584C102.714 180.286 102.214 180.137 101.55 180.137C100.93 180.137 100.471 180.247 100.173 180.467C99.8799 180.682 99.6626 181.065 99.521 181.617L98.2319 181.441C98.3491 180.889 98.542 180.445 98.8105 180.108C99.0791 179.766 99.4673 179.505 99.9751 179.324C100.483 179.139 101.071 179.046 101.74 179.046C102.404 179.046 102.944 179.124 103.359 179.28C103.774 179.437 104.079 179.634 104.274 179.874C104.47 180.108 104.606 180.406 104.685 180.767C104.729 180.992 104.75 181.397 104.75 181.983V183.741C104.75 184.966 104.777 185.743 104.831 186.07C104.89 186.392 105.002 186.702 105.168 187H103.791C103.654 186.727 103.566 186.407 103.527 186.041ZM103.417 183.096C102.939 183.292 102.221 183.458 101.264 183.594C100.722 183.672 100.339 183.76 100.114 183.858C99.8896 183.956 99.7163 184.1 99.5942 184.29C99.4722 184.476 99.4111 184.683 99.4111 184.913C99.4111 185.264 99.543 185.557 99.8066 185.792C100.075 186.026 100.466 186.143 100.979 186.143C101.486 186.143 101.938 186.033 102.333 185.813C102.729 185.589 103.02 185.284 103.205 184.898C103.347 184.6 103.417 184.161 103.417 183.58V183.096ZM112.924 179.222V187H111.613V183.968H110.852C110.388 183.968 110.041 184.029 109.812 184.151C109.587 184.268 109.257 184.651 108.823 185.301L107.673 187H106.04L107.46 184.905C107.895 184.266 108.327 183.904 108.757 183.821C108.005 183.719 107.446 183.448 107.08 183.008C106.718 182.569 106.538 182.063 106.538 181.492C106.538 180.818 106.774 180.271 107.248 179.852C107.727 179.432 108.417 179.222 109.321 179.222H112.924ZM111.613 180.313H109.738C108.952 180.313 108.444 180.435 108.215 180.679C107.99 180.923 107.878 181.209 107.878 181.536C107.878 182 108.044 182.342 108.376 182.562C108.713 182.776 109.306 182.884 110.156 182.884H111.613V180.313ZM125.668 185.733V187H118.571C118.562 186.683 118.613 186.377 118.725 186.084C118.906 185.601 119.194 185.125 119.589 184.656C119.99 184.188 120.566 183.646 121.318 183.03C122.485 182.073 123.273 181.316 123.684 180.76C124.094 180.198 124.299 179.668 124.299 179.17C124.299 178.648 124.111 178.208 123.735 177.852C123.364 177.491 122.878 177.31 122.277 177.31C121.643 177.31 121.135 177.5 120.754 177.881C120.373 178.262 120.18 178.79 120.175 179.463L118.82 179.324C118.913 178.313 119.262 177.544 119.868 177.017C120.473 176.485 121.286 176.219 122.307 176.219C123.337 176.219 124.152 176.504 124.753 177.076C125.354 177.647 125.654 178.355 125.654 179.2C125.654 179.629 125.566 180.052 125.39 180.467C125.214 180.882 124.921 181.319 124.511 181.778C124.106 182.237 123.43 182.867 122.482 183.667C121.691 184.332 121.184 184.783 120.959 185.022C120.734 185.257 120.549 185.494 120.402 185.733H125.668Z" fill="#4A4A4A"/>
<rect width="318" height="35" transform="translate(21 201)" fill="white"/>
<rect width="318" height="36" transform="translate(21 236)" fill="white"/>
<defs>
<linearGradient id="paint0_linear_211_1265" x1="0" y1="0" x2="0" y2="36" gradientUnits="userSpaceOnUse">
<stop stop-color="#F2F2F2"/>
<stop offset="1" stop-color="#E6E6E6"/>
</linearGradient>
<linearGradient id="paint1_linear_211_1265" x1="0" y1="0" x2="0" y2="36" gradientUnits="userSpaceOnUse">
<stop stop-color="#F2F2F2"/>
<stop offset="1" stop-color="#E6E6E6"/>
</linearGradient>
</defs>
</svg>
