<svg width="160" height="196" viewBox="0 0 160 196" fill="none" xmlns="http://www.w3.org/2000/svg">
<g filter="url(#filter0_d_211_1271)">
<rect x="20" y="20" width="119" height="32" rx="4" fill="url(#paint0_linear_211_1271)"/>
<rect x="20.5" y="20.5" width="118" height="31" rx="3.5" stroke="#9B9B9B"/>
<path d="M48.4673 30.7627H55.0005V40.2329H55.9673V44.0049H54.7002V41.5H47.603V44.0049H46.3359V40.2329H47.1709C48.0352 38.9292 48.4673 36.2949 48.4673 32.3301V30.7627ZM53.5796 32.0298H49.8369V32.5791C49.8369 33.4922 49.7539 34.7422 49.5879 36.3291C49.4268 37.9111 49.1069 39.2124 48.6284 40.2329H53.5796V32.0298ZM57.1758 37.6108C57.1758 36.1704 57.5762 35.1035 58.377 34.4102C59.0459 33.834 59.8613 33.5459 60.8232 33.5459C61.8926 33.5459 62.7666 33.8975 63.4453 34.6006C64.124 35.2988 64.4634 36.2656 64.4634 37.501C64.4634 38.502 64.312 39.2905 64.0093 39.8667C63.7114 40.438 63.2744 40.8823 62.6982 41.1997C62.127 41.5171 61.502 41.6758 60.8232 41.6758C59.7344 41.6758 58.853 41.3267 58.1792 40.6284C57.5103 39.9302 57.1758 38.9243 57.1758 37.6108ZM58.5308 37.6108C58.5308 38.6069 58.748 39.354 59.1826 39.8521C59.6172 40.3452 60.1641 40.5918 60.8232 40.5918C61.4775 40.5918 62.022 40.3428 62.4565 39.8447C62.8911 39.3467 63.1084 38.5874 63.1084 37.5669C63.1084 36.605 62.8887 35.8774 62.4492 35.3843C62.0146 34.8862 61.4727 34.6372 60.8232 34.6372C60.1641 34.6372 59.6172 34.8838 59.1826 35.377C58.748 35.8701 58.5308 36.6147 58.5308 37.6108ZM71.7144 30.5063L72.8789 30.521C72.8252 31.0435 72.708 31.4072 72.5273 31.6123C72.3516 31.8174 72.1221 31.9492 71.8389 32.0078C71.5605 32.0664 71.0112 32.0957 70.1909 32.0957C69.1021 32.0957 68.3599 32.2007 67.9644 32.4106C67.5688 32.6206 67.2832 32.9575 67.1074 33.4214C66.9365 33.8804 66.8413 34.4736 66.8218 35.2012C67.1538 34.708 67.542 34.3394 67.9863 34.0952C68.4307 33.8462 68.9312 33.7217 69.4878 33.7217C70.5083 33.7217 71.353 34.0732 72.022 34.7764C72.6909 35.4746 73.0254 36.4219 73.0254 37.6182C73.0254 38.5264 72.8569 39.271 72.52 39.8521C72.1831 40.4331 71.7827 40.8823 71.3188 41.1997C70.8599 41.5171 70.2324 41.6758 69.4365 41.6758C68.5137 41.6758 67.7959 41.4658 67.2832 41.0459C66.7705 40.6211 66.3774 40.0791 66.104 39.4199C65.8306 38.7607 65.6938 37.6133 65.6938 35.9775C65.6938 33.9219 66.0405 32.5376 66.7339 31.8247C67.4321 31.1118 68.5039 30.7554 69.9492 30.7554C70.8477 30.7554 71.3579 30.7407 71.48 30.7114C71.6021 30.6821 71.6802 30.6138 71.7144 30.5063ZM71.6484 37.5815C71.6484 36.771 71.4556 36.1069 71.0698 35.5894C70.689 35.0718 70.1494 34.813 69.4512 34.813C68.7236 34.813 68.1621 35.0864 67.7666 35.6333C67.3711 36.1802 67.1733 36.9102 67.1733 37.8232C67.1733 38.7266 67.3906 39.4175 67.8252 39.896C68.2646 40.3745 68.8042 40.6138 69.4438 40.6138C70.0981 40.6138 70.6279 40.3379 71.0332 39.7861C71.4434 39.2295 71.6484 38.4946 71.6484 37.5815ZM79.3389 40.5405C78.8506 40.9556 78.3794 41.2485 77.9253 41.4194C77.4761 41.5903 76.9927 41.6758 76.4751 41.6758C75.6206 41.6758 74.9639 41.4683 74.5049 41.0532C74.0459 40.6333 73.8164 40.0986 73.8164 39.4492C73.8164 39.0684 73.9019 38.7217 74.0728 38.4092C74.2485 38.0918 74.4756 37.8379 74.7539 37.6475C75.0371 37.457 75.3545 37.313 75.7061 37.2153C75.9648 37.147 76.3555 37.0811 76.8779 37.0176C77.9424 36.8906 78.7261 36.7393 79.229 36.5635C79.2339 36.3828 79.2363 36.2681 79.2363 36.2192C79.2363 35.6821 79.1118 35.3037 78.8628 35.084C78.5259 34.7861 78.0254 34.6372 77.3613 34.6372C76.7412 34.6372 76.2822 34.7471 75.9844 34.9668C75.6914 35.1816 75.4741 35.5649 75.3325 36.1167L74.0435 35.9409C74.1606 35.3892 74.3535 34.9448 74.6221 34.6079C74.8906 34.2661 75.2788 34.0049 75.7866 33.8242C76.2944 33.6387 76.8828 33.5459 77.5518 33.5459C78.2158 33.5459 78.7554 33.624 79.1704 33.7803C79.5854 33.9365 79.8906 34.1343 80.0859 34.3735C80.2812 34.6079 80.418 34.9058 80.4961 35.2671C80.54 35.4917 80.562 35.897 80.562 36.4829V38.2407C80.562 39.4663 80.5889 40.2427 80.6426 40.5698C80.7012 40.8921 80.8135 41.2021 80.9795 41.5H79.6025C79.4658 41.2266 79.3779 40.9067 79.3389 40.5405ZM79.229 37.5962C78.7505 37.7915 78.0327 37.9575 77.0757 38.0942C76.5337 38.1724 76.1504 38.2603 75.9258 38.3579C75.7012 38.4556 75.5278 38.5996 75.4058 38.79C75.2837 38.9756 75.2227 39.1831 75.2227 39.4126C75.2227 39.7642 75.3545 40.0571 75.6182 40.2915C75.8867 40.5259 76.2773 40.6431 76.79 40.6431C77.2979 40.6431 77.7495 40.5332 78.145 40.3135C78.5405 40.0889 78.8311 39.7837 79.0166 39.3979C79.1582 39.1001 79.229 38.6606 79.229 38.0796V37.5962ZM82.6201 33.7217H85.6597C86.4067 33.7217 86.9609 33.7852 87.3223 33.9121C87.6885 34.0342 88.001 34.2612 88.2598 34.5933C88.5234 34.9253 88.6553 35.3232 88.6553 35.7871C88.6553 36.1582 88.5771 36.4829 88.4209 36.7612C88.2695 37.0347 88.04 37.2642 87.7324 37.4497C88.0986 37.5718 88.4014 37.8013 88.6406 38.1382C88.8848 38.4702 89.0068 38.8657 89.0068 39.3247C88.958 40.062 88.6943 40.6089 88.2158 40.9653C87.7373 41.3218 87.0415 41.5 86.1284 41.5H82.6201V33.7217ZM83.9385 36.9956H85.3447C85.9062 36.9956 86.292 36.9663 86.502 36.9077C86.7119 36.8491 86.8999 36.7319 87.0659 36.5562C87.2319 36.3755 87.3149 36.1606 87.3149 35.9116C87.3149 35.5015 87.1685 35.2158 86.8755 35.0547C86.5874 34.8936 86.0918 34.813 85.3887 34.813H83.9385V36.9956ZM83.9385 40.416H85.6743C86.4214 40.416 86.9341 40.3306 87.2124 40.1597C87.4907 39.9839 87.6372 39.6836 87.6519 39.2588C87.6519 39.0098 87.5713 38.7803 87.4102 38.5703C87.249 38.3555 87.0391 38.2212 86.7803 38.1675C86.5215 38.1089 86.1064 38.0796 85.5352 38.0796H83.9385V40.416ZM90.5815 33.7217H91.8999V39.6543L95.5547 33.7217H96.9756V41.5H95.6572V35.604L92.0024 41.5H90.5815V33.7217ZM98.25 33.7217H104.571V34.813H102.066V41.5H100.755V34.813H98.25V33.7217ZM105.809 33.7217H107.127V36.7612H108.797C109.886 36.7612 110.723 36.9736 111.309 37.3984C111.9 37.8184 112.195 38.3994 112.195 39.1416C112.195 39.791 111.949 40.3477 111.456 40.8115C110.967 41.2705 110.184 41.5 109.104 41.5H105.809V33.7217ZM107.127 40.416H108.511C109.346 40.416 109.942 40.3135 110.298 40.1084C110.655 39.9033 110.833 39.5835 110.833 39.1489C110.833 38.812 110.701 38.5117 110.438 38.248C110.174 37.9844 109.59 37.8525 108.687 37.8525H107.127V40.416Z" fill="#4A4A4A"/>
</g>
<g filter="url(#filter1_d_211_1271)">
<rect x="20" y="146" width="119" height="32" rx="4" fill="url(#paint1_linear_211_1271)"/>
<rect x="20.5" y="146.5" width="118" height="31" rx="3.5" stroke="#9B9B9B"/>
<path d="M48.4673 156.763H55.0005V166.233H55.9673V170.005H54.7002V167.5H47.603V170.005H46.3359V166.233H47.1709C48.0352 164.929 48.4673 162.295 48.4673 158.33V156.763ZM53.5796 158.03H49.8369V158.579C49.8369 159.492 49.7539 160.742 49.5879 162.329C49.4268 163.911 49.1069 165.212 48.6284 166.233H53.5796V158.03ZM57.1758 163.611C57.1758 162.17 57.5762 161.104 58.377 160.41C59.0459 159.834 59.8613 159.546 60.8232 159.546C61.8926 159.546 62.7666 159.897 63.4453 160.601C64.124 161.299 64.4634 162.266 64.4634 163.501C64.4634 164.502 64.312 165.291 64.0093 165.867C63.7114 166.438 63.2744 166.882 62.6982 167.2C62.127 167.517 61.502 167.676 60.8232 167.676C59.7344 167.676 58.853 167.327 58.1792 166.628C57.5103 165.93 57.1758 164.924 57.1758 163.611ZM58.5308 163.611C58.5308 164.607 58.748 165.354 59.1826 165.852C59.6172 166.345 60.1641 166.592 60.8232 166.592C61.4775 166.592 62.022 166.343 62.4565 165.845C62.8911 165.347 63.1084 164.587 63.1084 163.567C63.1084 162.605 62.8887 161.877 62.4492 161.384C62.0146 160.886 61.4727 160.637 60.8232 160.637C60.1641 160.637 59.6172 160.884 59.1826 161.377C58.748 161.87 58.5308 162.615 58.5308 163.611ZM71.7144 156.506L72.8789 156.521C72.8252 157.043 72.708 157.407 72.5273 157.612C72.3516 157.817 72.1221 157.949 71.8389 158.008C71.5605 158.066 71.0112 158.096 70.1909 158.096C69.1021 158.096 68.3599 158.201 67.9644 158.411C67.5688 158.621 67.2832 158.958 67.1074 159.421C66.9365 159.88 66.8413 160.474 66.8218 161.201C67.1538 160.708 67.542 160.339 67.9863 160.095C68.4307 159.846 68.9312 159.722 69.4878 159.722C70.5083 159.722 71.353 160.073 72.022 160.776C72.6909 161.475 73.0254 162.422 73.0254 163.618C73.0254 164.526 72.8569 165.271 72.52 165.852C72.1831 166.433 71.7827 166.882 71.3188 167.2C70.8599 167.517 70.2324 167.676 69.4365 167.676C68.5137 167.676 67.7959 167.466 67.2832 167.046C66.7705 166.621 66.3774 166.079 66.104 165.42C65.8306 164.761 65.6938 163.613 65.6938 161.978C65.6938 159.922 66.0405 158.538 66.7339 157.825C67.4321 157.112 68.5039 156.755 69.9492 156.755C70.8477 156.755 71.3579 156.741 71.48 156.711C71.6021 156.682 71.6802 156.614 71.7144 156.506ZM71.6484 163.582C71.6484 162.771 71.4556 162.107 71.0698 161.589C70.689 161.072 70.1494 160.813 69.4512 160.813C68.7236 160.813 68.1621 161.086 67.7666 161.633C67.3711 162.18 67.1733 162.91 67.1733 163.823C67.1733 164.727 67.3906 165.417 67.8252 165.896C68.2646 166.375 68.8042 166.614 69.4438 166.614C70.0981 166.614 70.6279 166.338 71.0332 165.786C71.4434 165.229 71.6484 164.495 71.6484 163.582ZM79.3389 166.541C78.8506 166.956 78.3794 167.249 77.9253 167.419C77.4761 167.59 76.9927 167.676 76.4751 167.676C75.6206 167.676 74.9639 167.468 74.5049 167.053C74.0459 166.633 73.8164 166.099 73.8164 165.449C73.8164 165.068 73.9019 164.722 74.0728 164.409C74.2485 164.092 74.4756 163.838 74.7539 163.647C75.0371 163.457 75.3545 163.313 75.7061 163.215C75.9648 163.147 76.3555 163.081 76.8779 163.018C77.9424 162.891 78.7261 162.739 79.229 162.563C79.2339 162.383 79.2363 162.268 79.2363 162.219C79.2363 161.682 79.1118 161.304 78.8628 161.084C78.5259 160.786 78.0254 160.637 77.3613 160.637C76.7412 160.637 76.2822 160.747 75.9844 160.967C75.6914 161.182 75.4741 161.565 75.3325 162.117L74.0435 161.941C74.1606 161.389 74.3535 160.945 74.6221 160.608C74.8906 160.266 75.2788 160.005 75.7866 159.824C76.2944 159.639 76.8828 159.546 77.5518 159.546C78.2158 159.546 78.7554 159.624 79.1704 159.78C79.5854 159.937 79.8906 160.134 80.0859 160.374C80.2812 160.608 80.418 160.906 80.4961 161.267C80.54 161.492 80.562 161.897 80.562 162.483V164.241C80.562 165.466 80.5889 166.243 80.6426 166.57C80.7012 166.892 80.8135 167.202 80.9795 167.5H79.6025C79.4658 167.227 79.3779 166.907 79.3389 166.541ZM79.229 163.596C78.7505 163.792 78.0327 163.958 77.0757 164.094C76.5337 164.172 76.1504 164.26 75.9258 164.358C75.7012 164.456 75.5278 164.6 75.4058 164.79C75.2837 164.976 75.2227 165.183 75.2227 165.413C75.2227 165.764 75.3545 166.057 75.6182 166.292C75.8867 166.526 76.2773 166.643 76.79 166.643C77.2979 166.643 77.7495 166.533 78.145 166.313C78.5405 166.089 78.8311 165.784 79.0166 165.398C79.1582 165.1 79.229 164.661 79.229 164.08V163.596ZM82.6201 159.722H85.6597C86.4067 159.722 86.9609 159.785 87.3223 159.912C87.6885 160.034 88.001 160.261 88.2598 160.593C88.5234 160.925 88.6553 161.323 88.6553 161.787C88.6553 162.158 88.5771 162.483 88.4209 162.761C88.2695 163.035 88.04 163.264 87.7324 163.45C88.0986 163.572 88.4014 163.801 88.6406 164.138C88.8848 164.47 89.0068 164.866 89.0068 165.325C88.958 166.062 88.6943 166.609 88.2158 166.965C87.7373 167.322 87.0415 167.5 86.1284 167.5H82.6201V159.722ZM83.9385 162.996H85.3447C85.9062 162.996 86.292 162.966 86.502 162.908C86.7119 162.849 86.8999 162.732 87.0659 162.556C87.2319 162.375 87.3149 162.161 87.3149 161.912C87.3149 161.501 87.1685 161.216 86.8755 161.055C86.5874 160.894 86.0918 160.813 85.3887 160.813H83.9385V162.996ZM83.9385 166.416H85.6743C86.4214 166.416 86.9341 166.331 87.2124 166.16C87.4907 165.984 87.6372 165.684 87.6519 165.259C87.6519 165.01 87.5713 164.78 87.4102 164.57C87.249 164.355 87.0391 164.221 86.7803 164.167C86.5215 164.109 86.1064 164.08 85.5352 164.08H83.9385V166.416ZM90.5815 159.722H91.8999V165.654L95.5547 159.722H96.9756V167.5H95.6572V161.604L92.0024 167.5H90.5815V159.722ZM98.25 159.722H104.571V160.813H102.066V167.5H100.755V160.813H98.25V159.722ZM105.809 159.722H107.127V162.761H108.797C109.886 162.761 110.723 162.974 111.309 163.398C111.9 163.818 112.195 164.399 112.195 165.142C112.195 165.791 111.949 166.348 111.456 166.812C110.967 167.271 110.184 167.5 109.104 167.5H105.809V159.722ZM107.127 166.416H108.511C109.346 166.416 109.942 166.313 110.298 166.108C110.655 165.903 110.833 165.583 110.833 165.149C110.833 164.812 110.701 164.512 110.438 164.248C110.174 163.984 109.59 163.853 108.687 163.853H107.127V166.416Z" fill="#9B9B9B"/>
</g>
<g filter="url(#filter2_d_211_1271)">
<rect x="20" y="82" width="119" height="32" rx="4" fill="url(#paint2_linear_211_1271)"/>
<rect x="20.5" y="82.5" width="118" height="31" rx="3.5" stroke="#9B9B9B"/>
<path d="M45.0981 92.7627H52.5176V101.698H53.4624V105.844H51.6606V103.5H44.9004V105.844H43.0986V101.698H44.0068C44.4512 100.78 44.7441 99.7158 44.8857 98.5049C45.0273 97.2891 45.0981 95.7534 45.0981 93.8979V92.7627ZM47.1636 94.5645C47.1636 97.8262 46.8682 100.204 46.2773 101.698H50.3569V94.5645H47.1636ZM54.627 99.501C54.627 98.8174 54.7954 98.1558 55.1323 97.5161C55.4692 96.8765 55.9453 96.3882 56.5605 96.0513C57.1807 95.7144 57.8716 95.5459 58.6333 95.5459C59.8101 95.5459 60.7744 95.9292 61.5264 96.6958C62.2783 97.4575 62.6543 98.4219 62.6543 99.5889C62.6543 100.766 62.2734 101.742 61.5117 102.519C60.7549 103.29 59.8003 103.676 58.6479 103.676C57.9351 103.676 57.2539 103.515 56.6045 103.192C55.96 102.87 55.4692 102.399 55.1323 101.779C54.7954 101.154 54.627 100.395 54.627 99.501ZM56.7363 99.6108C56.7363 100.382 56.9194 100.973 57.2856 101.383C57.6519 101.793 58.1035 101.999 58.6406 101.999C59.1777 101.999 59.627 101.793 59.9883 101.383C60.3545 100.973 60.5376 100.377 60.5376 99.5962C60.5376 98.8345 60.3545 98.2485 59.9883 97.8384C59.627 97.4282 59.1777 97.2231 58.6406 97.2231C58.1035 97.2231 57.6519 97.4282 57.2856 97.8384C56.9194 98.2485 56.7363 98.8394 56.7363 99.6108ZM70.1104 92.5137H71.5093C71.4653 93.1338 71.3018 93.605 71.0186 93.9272C70.7402 94.2446 70.0493 94.4033 68.9458 94.4033C68.814 94.4033 68.6821 94.4009 68.5503 94.396H68.2866C67.6323 94.396 67.1001 94.4692 66.6899 94.6157C66.2798 94.7573 65.9429 95.0356 65.6792 95.4507C65.4204 95.8657 65.2861 96.5347 65.2764 97.4575C65.5791 96.8862 65.9697 96.459 66.4482 96.1758C66.9316 95.8926 67.5054 95.751 68.1694 95.751C69.1899 95.751 70.0542 96.1489 70.7622 96.9448C71.4702 97.7358 71.8242 98.6538 71.8242 99.6987C71.8242 100.788 71.4507 101.723 70.7036 102.504C69.9614 103.285 68.9897 103.676 67.7886 103.676C66.9634 103.676 66.2383 103.478 65.6133 103.083C64.9883 102.687 64.5415 102.147 64.2729 101.464C64.0044 100.775 63.8701 99.6377 63.8701 98.0508C63.8701 96.1855 64.2119 94.8452 64.8955 94.0298C65.584 93.2144 66.7827 92.8066 68.4917 92.8066H69.5317C69.8198 92.8066 70.0127 92.709 70.1104 92.5137ZM65.9648 99.6694C65.9648 100.377 66.1406 100.939 66.4922 101.354C66.8486 101.764 67.2832 101.969 67.7959 101.969C68.3477 101.969 68.7993 101.757 69.1509 101.332C69.5073 100.902 69.6855 100.351 69.6855 99.6768C69.6855 98.9883 69.5049 98.4341 69.1436 98.0142C68.7871 97.5894 68.3452 97.377 67.8179 97.377C67.3052 97.377 66.8682 97.5845 66.5068 97.9995C66.1455 98.4146 65.9648 98.9712 65.9648 99.6694ZM75.0835 98.0947L73.2158 97.7578C73.4258 97.0059 73.7871 96.4492 74.2998 96.0879C74.8125 95.7266 75.5742 95.5459 76.585 95.5459C77.5029 95.5459 78.1865 95.6558 78.6357 95.8755C79.085 96.0903 79.3999 96.3662 79.5806 96.7031C79.7661 97.0352 79.8589 97.6479 79.8589 98.5415L79.8369 100.944C79.8369 101.627 79.8687 102.133 79.9321 102.46C80.0005 102.782 80.125 103.129 80.3057 103.5H78.2695C78.2158 103.363 78.1499 103.161 78.0718 102.892C78.0376 102.77 78.0132 102.689 77.9985 102.65C77.647 102.992 77.271 103.249 76.8706 103.419C76.4702 103.59 76.043 103.676 75.5889 103.676C74.7881 103.676 74.1558 103.458 73.6919 103.024C73.2329 102.589 73.0034 102.04 73.0034 101.376C73.0034 100.937 73.1084 100.546 73.3184 100.204C73.5283 99.8574 73.8213 99.5938 74.1973 99.4131C74.5781 99.2275 75.125 99.0664 75.8379 98.9297C76.7998 98.749 77.4663 98.5806 77.8374 98.4243V98.2192C77.8374 97.8237 77.7397 97.543 77.5444 97.377C77.3491 97.2061 76.9805 97.1206 76.4385 97.1206C76.0723 97.1206 75.7866 97.1938 75.5815 97.3403C75.3765 97.4819 75.2104 97.7334 75.0835 98.0947ZM77.8374 99.7646C77.5737 99.8525 77.1562 99.9575 76.585 100.08C76.0137 100.202 75.6401 100.321 75.4644 100.438C75.1958 100.629 75.0615 100.871 75.0615 101.164C75.0615 101.452 75.1689 101.701 75.3838 101.911C75.5986 102.121 75.8721 102.226 76.2041 102.226C76.5752 102.226 76.9292 102.104 77.2661 101.859C77.5151 101.674 77.6787 101.447 77.7568 101.178C77.8105 101.002 77.8374 100.668 77.8374 100.175V99.7646ZM81.917 95.7217H86.4214C87.3442 95.7217 88.0352 95.8901 88.4941 96.2271C88.9531 96.564 89.1826 97.0718 89.1826 97.7505C89.1826 98.1851 89.0557 98.5635 88.8018 98.8857C88.5527 99.208 88.2378 99.4229 87.8569 99.5303C88.394 99.6621 88.7944 99.9087 89.0581 100.27C89.3218 100.631 89.4536 101.027 89.4536 101.457C89.4536 102.062 89.2314 102.555 88.7871 102.936C88.3428 103.312 87.686 103.5 86.8169 103.5H81.917V95.7217ZM83.9897 98.9517H85.3154C85.9551 98.9517 86.4165 98.8711 86.6997 98.71C86.9878 98.5488 87.1318 98.2949 87.1318 97.9482C87.1318 97.6211 86.9976 97.3892 86.729 97.2524C86.4653 97.1108 85.9941 97.04 85.3154 97.04H83.9897V98.9517ZM83.9897 102.182H85.6157C86.2017 102.182 86.6289 102.111 86.8975 101.969C87.166 101.828 87.3003 101.574 87.3003 101.208C87.3003 100.827 87.1465 100.565 86.8389 100.424C86.5312 100.277 85.9331 100.204 85.0444 100.204H83.9897V102.182ZM91.0723 95.7217H93.0498V100.607L96.2139 95.7217H98.2354V103.5H96.2578V98.5269L93.0498 103.5H91.0723V95.7217ZM99.4292 95.7217H106.468V97.3843H103.978V103.5H101.919V97.3843H99.4292V95.7217ZM107.75 95.7217H109.808V98.9517H111.873C112.684 98.9517 113.306 99.0103 113.741 99.1274C114.175 99.2446 114.537 99.4985 114.825 99.8892C115.113 100.275 115.257 100.724 115.257 101.237C115.257 101.989 114.998 102.555 114.48 102.936C113.968 103.312 113.196 103.5 112.166 103.5H107.75V95.7217ZM109.808 102.196H111.727C112.327 102.196 112.71 102.099 112.876 101.903C113.047 101.708 113.133 101.476 113.133 101.208C113.133 100.832 112.986 100.573 112.693 100.431C112.405 100.29 111.89 100.219 111.148 100.219H109.808V102.196Z" fill="#4A4A4A"/>
</g>
<defs>
<filter id="filter0_d_211_1271" x="20" y="20" width="119" height="33" filterUnits="userSpaceOnUse" color-interpolation-filters="sRGB">
<feFlood flood-opacity="0" result="BackgroundImageFix"/>
<feColorMatrix in="SourceAlpha" type="matrix" values="0 0 0 0 0 0 0 0 0 0 0 0 0 0 0 0 0 0 127 0" result="hardAlpha"/>
<feOffset dy="1"/>
<feColorMatrix type="matrix" values="0 0 0 0 0.290222 0 0 0 0 0.290175 0 0 0 0 0.290237 0 0 0 0.196473 0"/>
<feBlend mode="normal" in2="BackgroundImageFix" result="effect1_dropShadow_211_1271"/>
<feBlend mode="normal" in="SourceGraphic" in2="effect1_dropShadow_211_1271" result="shape"/>
</filter>
<filter id="filter1_d_211_1271" x="20" y="146" width="119" height="33" filterUnits="userSpaceOnUse" color-interpolation-filters="sRGB">
<feFlood flood-opacity="0" result="BackgroundImageFix"/>
<feColorMatrix in="SourceAlpha" type="matrix" values="0 0 0 0 0 0 0 0 0 0 0 0 0 0 0 0 0 0 127 0" result="hardAlpha"/>
<feOffset dy="1"/>
<feColorMatrix type="matrix" values="0 0 0 0 0.290222 0 0 0 0 0.290175 0 0 0 0 0.290237 0 0 0 0.196473 0"/>
<feBlend mode="normal" in2="BackgroundImageFix" result="effect1_dropShadow_211_1271"/>
<feBlend mode="normal" in="SourceGraphic" in2="effect1_dropShadow_211_1271" result="shape"/>
</filter>
<filter id="filter2_d_211_1271" x="20" y="82" width="119" height="33" filterUnits="userSpaceOnUse" color-interpolation-filters="sRGB">
<feFlood flood-opacity="0" result="BackgroundImageFix"/>
<feColorMatrix in="SourceAlpha" type="matrix" values="0 0 0 0 0 0 0 0 0 0 0 0 0 0 0 0 0 0 127 0" result="hardAlpha"/>
<feOffset dy="1"/>
<feColorMatrix type="matrix" values="0 0 0 0 0.290222 0 0 0 0 0.290175 0 0 0 0 0.290237 0 0 0 0.196473 0"/>
<feBlend mode="normal" in2="BackgroundImageFix" result="effect1_dropShadow_211_1271"/>
<feBlend mode="normal" in="SourceGraphic" in2="effect1_dropShadow_211_1271" result="shape"/>
</filter>
<linearGradient id="paint0_linear_211_1271" x1="20" y1="20" x2="20" y2="52" gradientUnits="userSpaceOnUse">
<stop stop-color="white"/>
<stop offset="1" stop-color="#F9F9F9"/>
</linearGradient>
<linearGradient id="paint1_linear_211_1271" x1="20" y1="146" x2="20" y2="178" gradientUnits="userSpaceOnUse">
<stop stop-color="white"/>
<stop offset="1" stop-color="#F9F9F9"/>
</linearGradient>
<linearGradient id="paint2_linear_211_1271" x1="20" y1="82" x2="20" y2="114" gradientUnits="userSpaceOnUse">
<stop stop-color="#FEE832"/>
<stop offset="1" stop-color="#F9DA04"/>
</linearGradient>
</defs>
</svg>
