<svg width="220" height="196" viewBox="0 0 220 196" fill="none" xmlns="http://www.w3.org/2000/svg">
<g filter="url(#filter0_d_211_1312)">
<rect x="20" y="20" width="180" height="32" rx="4" fill="url(#paint0_linear_211_1312)"/>
<rect x="20.5" y="20.5" width="179" height="31" rx="3.5" stroke="#9B9B9B"/>
<path d="M62.8921 30.2627H69.4253V39.7329H70.3921V43.5049H69.125V41H62.0278V43.5049H60.7607V39.7329H61.5957C62.46 38.4292 62.8921 35.7949 62.8921 31.8301V30.2627ZM68.0044 31.5298H64.2617V32.0791C64.2617 32.9922 64.1787 34.2422 64.0127 35.8291C63.8516 37.4111 63.5317 38.7124 63.0532 39.7329H68.0044V31.5298ZM71.6006 37.1108C71.6006 35.6704 72.001 34.6035 72.8018 33.9102C73.4707 33.334 74.2861 33.0459 75.248 33.0459C76.3174 33.0459 77.1914 33.3975 77.8701 34.1006C78.5488 34.7988 78.8882 35.7656 78.8882 37.001C78.8882 38.002 78.7368 38.7905 78.4341 39.3667C78.1362 39.938 77.6992 40.3823 77.123 40.6997C76.5518 41.0171 75.9268 41.1758 75.248 41.1758C74.1592 41.1758 73.2778 40.8267 72.604 40.1284C71.9351 39.4302 71.6006 38.4243 71.6006 37.1108ZM72.9556 37.1108C72.9556 38.1069 73.1729 38.854 73.6074 39.3521C74.042 39.8452 74.5889 40.0918 75.248 40.0918C75.9023 40.0918 76.4468 39.8428 76.8813 39.3447C77.3159 38.8467 77.5332 38.0874 77.5332 37.0669C77.5332 36.105 77.3135 35.3774 76.874 34.8843C76.4395 34.3862 75.8975 34.1372 75.248 34.1372C74.5889 34.1372 74.042 34.3838 73.6074 34.877C73.1729 35.3701 72.9556 36.1147 72.9556 37.1108ZM86.1392 30.0063L87.3037 30.021C87.25 30.5435 87.1328 30.9072 86.9521 31.1123C86.7764 31.3174 86.5469 31.4492 86.2637 31.5078C85.9854 31.5664 85.436 31.5957 84.6157 31.5957C83.5269 31.5957 82.7847 31.7007 82.3892 31.9106C81.9937 32.1206 81.708 32.4575 81.5322 32.9214C81.3613 33.3804 81.2661 33.9736 81.2466 34.7012C81.5786 34.208 81.9668 33.8394 82.4111 33.5952C82.8555 33.3462 83.356 33.2217 83.9126 33.2217C84.9331 33.2217 85.7778 33.5732 86.4468 34.2764C87.1157 34.9746 87.4502 35.9219 87.4502 37.1182C87.4502 38.0264 87.2817 38.771 86.9448 39.3521C86.6079 39.9331 86.2075 40.3823 85.7437 40.6997C85.2847 41.0171 84.6572 41.1758 83.8613 41.1758C82.9385 41.1758 82.2207 40.9658 81.708 40.5459C81.1953 40.1211 80.8022 39.5791 80.5288 38.9199C80.2554 38.2607 80.1187 37.1133 80.1187 35.4775C80.1187 33.4219 80.4653 32.0376 81.1587 31.3247C81.8569 30.6118 82.9287 30.2554 84.374 30.2554C85.2725 30.2554 85.7827 30.2407 85.9048 30.2114C86.0269 30.1821 86.105 30.1138 86.1392 30.0063ZM86.0732 37.0815C86.0732 36.271 85.8804 35.6069 85.4946 35.0894C85.1138 34.5718 84.5742 34.313 83.876 34.313C83.1484 34.313 82.5869 34.5864 82.1914 35.1333C81.7959 35.6802 81.5981 36.4102 81.5981 37.3232C81.5981 38.2266 81.8154 38.9175 82.25 39.396C82.6895 39.8745 83.229 40.1138 83.8687 40.1138C84.5229 40.1138 85.0527 39.8379 85.458 39.2861C85.8682 38.7295 86.0732 37.9946 86.0732 37.0815ZM93.7637 40.0405C93.2754 40.4556 92.8042 40.7485 92.3501 40.9194C91.9009 41.0903 91.4175 41.1758 90.8999 41.1758C90.0454 41.1758 89.3887 40.9683 88.9297 40.5532C88.4707 40.1333 88.2412 39.5986 88.2412 38.9492C88.2412 38.5684 88.3267 38.2217 88.4976 37.9092C88.6733 37.5918 88.9004 37.3379 89.1787 37.1475C89.4619 36.957 89.7793 36.813 90.1309 36.7153C90.3896 36.647 90.7803 36.5811 91.3027 36.5176C92.3672 36.3906 93.1509 36.2393 93.6538 36.0635C93.6587 35.8828 93.6611 35.7681 93.6611 35.7192C93.6611 35.1821 93.5366 34.8037 93.2876 34.584C92.9507 34.2861 92.4502 34.1372 91.7861 34.1372C91.166 34.1372 90.707 34.2471 90.4092 34.4668C90.1162 34.6816 89.8989 35.0649 89.7573 35.6167L88.4683 35.4409C88.5854 34.8892 88.7783 34.4448 89.0469 34.1079C89.3154 33.7661 89.7036 33.5049 90.2114 33.3242C90.7192 33.1387 91.3076 33.0459 91.9766 33.0459C92.6406 33.0459 93.1802 33.124 93.5952 33.2803C94.0103 33.4365 94.3154 33.6343 94.5107 33.8735C94.7061 34.1079 94.8428 34.4058 94.9209 34.7671C94.9648 34.9917 94.9868 35.397 94.9868 35.9829V37.7407C94.9868 38.9663 95.0137 39.7427 95.0674 40.0698C95.126 40.3921 95.2383 40.7021 95.4043 41H94.0273C93.8906 40.7266 93.8027 40.4067 93.7637 40.0405ZM93.6538 37.0962C93.1753 37.2915 92.4575 37.4575 91.5005 37.5942C90.9585 37.6724 90.5752 37.7603 90.3506 37.8579C90.126 37.9556 89.9526 38.0996 89.8306 38.29C89.7085 38.4756 89.6475 38.6831 89.6475 38.9126C89.6475 39.2642 89.7793 39.5571 90.043 39.7915C90.3115 40.0259 90.7021 40.1431 91.2148 40.1431C91.7227 40.1431 92.1743 40.0332 92.5698 39.8135C92.9653 39.5889 93.2559 39.2837 93.4414 38.8979C93.583 38.6001 93.6538 38.1606 93.6538 37.5796V37.0962ZM97.0449 33.2217H100.084C100.832 33.2217 101.386 33.2852 101.747 33.4121C102.113 33.5342 102.426 33.7612 102.685 34.0933C102.948 34.4253 103.08 34.8232 103.08 35.2871C103.08 35.6582 103.002 35.9829 102.846 36.2612C102.694 36.5347 102.465 36.7642 102.157 36.9497C102.523 37.0718 102.826 37.3013 103.065 37.6382C103.31 37.9702 103.432 38.3657 103.432 38.8247C103.383 39.562 103.119 40.1089 102.641 40.4653C102.162 40.8218 101.466 41 100.553 41H97.0449V33.2217ZM98.3633 36.4956H99.7695C100.331 36.4956 100.717 36.4663 100.927 36.4077C101.137 36.3491 101.325 36.2319 101.491 36.0562C101.657 35.8755 101.74 35.6606 101.74 35.4116C101.74 35.0015 101.593 34.7158 101.3 34.5547C101.012 34.3936 100.517 34.313 99.8135 34.313H98.3633V36.4956ZM98.3633 39.916H100.099C100.846 39.916 101.359 39.8306 101.637 39.6597C101.916 39.4839 102.062 39.1836 102.077 38.7588C102.077 38.5098 101.996 38.2803 101.835 38.0703C101.674 37.8555 101.464 37.7212 101.205 37.6675C100.946 37.6089 100.531 37.5796 99.96 37.5796H98.3633V39.916ZM105.006 33.2217H106.325V39.1543L109.979 33.2217H111.4V41H110.082V35.104L106.427 41H105.006V33.2217ZM112.675 33.2217H118.996V34.313H116.491V41H115.18V34.313H112.675V33.2217ZM120.233 33.2217H121.552V36.2612H123.222C124.311 36.2612 125.148 36.4736 125.734 36.8984C126.325 37.3184 126.62 37.8994 126.62 38.6416C126.62 39.291 126.374 39.8477 125.88 40.3115C125.392 40.7705 124.608 41 123.529 41H120.233V33.2217ZM121.552 39.916H122.936C123.771 39.916 124.367 39.8135 124.723 39.6084C125.08 39.4033 125.258 39.0835 125.258 38.6489C125.258 38.312 125.126 38.0117 124.862 37.748C124.599 37.4844 124.015 37.3525 123.112 37.3525H121.552V39.916ZM132.26 33.2217H133.578V36.459H137.233V33.2217H138.551V41H137.233V37.5503H133.578V41H132.26V33.2217ZM140.053 37.1108C140.053 35.6704 140.453 34.6035 141.254 33.9102C141.923 33.334 142.738 33.0459 143.7 33.0459C144.77 33.0459 145.644 33.3975 146.322 34.1006C147.001 34.7988 147.34 35.7656 147.34 37.001C147.34 38.002 147.189 38.7905 146.886 39.3667C146.588 39.938 146.151 40.3823 145.575 40.6997C145.004 41.0171 144.379 41.1758 143.7 41.1758C142.611 41.1758 141.73 40.8267 141.056 40.1284C140.387 39.4302 140.053 38.4243 140.053 37.1108ZM141.408 37.1108C141.408 38.1069 141.625 38.854 142.06 39.3521C142.494 39.8452 143.041 40.0918 143.7 40.0918C144.354 40.0918 144.899 39.8428 145.333 39.3447C145.768 38.8467 145.985 38.0874 145.985 37.0669C145.985 36.105 145.766 35.3774 145.326 34.8843C144.892 34.3862 144.35 34.1372 143.7 34.1372C143.041 34.1372 142.494 34.3838 142.06 34.877C141.625 35.3701 141.408 36.1147 141.408 37.1108ZM148.9 33.2217H151.94C152.687 33.2217 153.241 33.2852 153.603 33.4121C153.969 33.5342 154.281 33.7612 154.54 34.0933C154.804 34.4253 154.936 34.8232 154.936 35.2871C154.936 35.6582 154.857 35.9829 154.701 36.2612C154.55 36.5347 154.32 36.7642 154.013 36.9497C154.379 37.0718 154.682 37.3013 154.921 37.6382C155.165 37.9702 155.287 38.3657 155.287 38.8247C155.238 39.562 154.975 40.1089 154.496 40.4653C154.018 40.8218 153.322 41 152.409 41H148.9V33.2217ZM150.219 36.4956H151.625C152.187 36.4956 152.572 36.4663 152.782 36.4077C152.992 36.3491 153.18 36.2319 153.346 36.0562C153.512 35.8755 153.595 35.6606 153.595 35.4116C153.595 35.0015 153.449 34.7158 153.156 34.5547C152.868 34.3936 152.372 34.313 151.669 34.313H150.219V36.4956ZM150.219 39.916H151.955C152.702 39.916 153.214 39.8306 153.493 39.6597C153.771 39.4839 153.917 39.1836 153.932 38.7588C153.932 38.5098 153.852 38.2803 153.69 38.0703C153.529 37.8555 153.319 37.7212 153.061 37.6675C152.802 37.6089 152.387 37.5796 151.815 37.5796H150.219V39.916ZM156.195 37.1108C156.195 35.6704 156.596 34.6035 157.396 33.9102C158.065 33.334 158.881 33.0459 159.843 33.0459C160.912 33.0459 161.786 33.3975 162.465 34.1006C163.144 34.7988 163.483 35.7656 163.483 37.001C163.483 38.002 163.332 38.7905 163.029 39.3667C162.731 39.938 162.294 40.3823 161.718 40.6997C161.146 41.0171 160.521 41.1758 159.843 41.1758C158.754 41.1758 157.873 40.8267 157.199 40.1284C156.53 39.4302 156.195 38.4243 156.195 37.1108ZM157.55 37.1108C157.55 38.1069 157.768 38.854 158.202 39.3521C158.637 39.8452 159.184 40.0918 159.843 40.0918C160.497 40.0918 161.042 39.8428 161.476 39.3447C161.911 38.8467 162.128 38.0874 162.128 37.0669C162.128 36.105 161.908 35.3774 161.469 34.8843C161.034 34.3862 160.492 34.1372 159.843 34.1372C159.184 34.1372 158.637 34.3838 158.202 34.877C157.768 35.3701 157.55 36.1147 157.55 37.1108ZM170.111 38.1509L171.408 38.3193C171.266 39.2129 170.902 39.9136 170.316 40.4214C169.735 40.9243 169.02 41.1758 168.17 41.1758C167.106 41.1758 166.249 40.8291 165.6 40.1357C164.955 39.4375 164.633 38.439 164.633 37.1401C164.633 36.3003 164.772 35.5654 165.05 34.9355C165.329 34.3057 165.751 33.8345 166.317 33.522C166.889 33.2046 167.509 33.0459 168.178 33.0459C169.022 33.0459 169.713 33.2607 170.25 33.6904C170.788 34.1152 171.132 34.7207 171.283 35.5068L170.001 35.7046C169.879 35.1821 169.662 34.7891 169.35 34.5254C169.042 34.2617 168.668 34.1299 168.229 34.1299C167.565 34.1299 167.025 34.3691 166.61 34.8477C166.195 35.3213 165.988 36.0732 165.988 37.1035C165.988 38.1484 166.188 38.9077 166.588 39.3813C166.989 39.855 167.511 40.0918 168.156 40.0918C168.673 40.0918 169.105 39.9331 169.452 39.6157C169.799 39.2983 170.019 38.8101 170.111 38.1509ZM171.825 33.2217H178.146V34.313H175.641V41H174.33V34.313H171.825V33.2217ZM179.384 33.2217H180.702V36.2612H182.372C183.461 36.2612 184.298 36.4736 184.884 36.8984C185.475 37.3184 185.771 37.8994 185.771 38.6416C185.771 39.291 185.524 39.8477 185.031 40.3115C184.542 40.7705 183.759 41 182.68 41H179.384V33.2217ZM180.702 39.916H182.086C182.921 39.916 183.517 39.8135 183.874 39.6084C184.23 39.4033 184.408 39.0835 184.408 38.6489C184.408 38.312 184.276 38.0117 184.013 37.748C183.749 37.4844 183.166 37.3525 182.262 37.3525H180.702V39.916Z" fill="#4A4A4A"/>
<circle cx="43.5" cy="36" r="8" fill="#009646"/>
<path d="M42.9 36.6V40.2H44.1V36.6H47.7V35.4H44.1V31.8H42.9V35.4H39.3V36.6H42.9Z" fill="white"/>
</g>
<g filter="url(#filter1_d_211_1312)">
<rect x="20" y="82" width="193" height="32" rx="4" fill="url(#paint1_linear_211_1312)"/>
<rect x="20.5" y="82.5" width="192" height="31" rx="3.5" stroke="#9B9B9B"/>
<circle cx="43" cy="97" r="8" fill="#009646"/>
<path fill-rule="evenodd" clip-rule="evenodd" d="M43.1687 93.1294C42.6924 93.1294 42.3063 93.4769 42.3063 93.9056V96.105H39.8625C39.3862 96.105 39 96.4525 39 96.8813C39 97.31 39.3862 97.6575 39.8625 97.6575H42.3063V99.8569C42.3063 100.286 42.6924 100.633 43.1687 100.633C43.6451 100.633 44.0312 100.286 44.0312 99.8569V97.6575H46.475C46.9513 97.6575 47.3375 97.31 47.3375 96.8813C47.3375 96.4525 46.9513 96.105 46.475 96.105H44.0312V93.9056C44.0312 93.4769 43.6451 93.1294 43.1687 93.1294V93.1294Z" fill="white"/>
<path d="M61.4321 92.2627H68.8516V101.198H69.7964V105.344H67.9946V103H61.2344V105.344H59.4326V101.198H60.3408C60.7852 100.28 61.0781 99.2158 61.2197 98.0049C61.3613 96.7891 61.4321 95.2534 61.4321 93.3979V92.2627ZM63.4976 94.0645C63.4976 97.3262 63.2021 99.7041 62.6113 101.198H66.6909V94.0645H63.4976ZM70.9609 99.001C70.9609 98.3174 71.1294 97.6558 71.4663 97.0161C71.8032 96.3765 72.2793 95.8882 72.8945 95.5513C73.5146 95.2144 74.2056 95.0459 74.9673 95.0459C76.144 95.0459 77.1084 95.4292 77.8604 96.1958C78.6123 96.9575 78.9883 97.9219 78.9883 99.0889C78.9883 100.266 78.6074 101.242 77.8457 102.019C77.0889 102.79 76.1343 103.176 74.9819 103.176C74.269 103.176 73.5879 103.015 72.9385 102.692C72.2939 102.37 71.8032 101.899 71.4663 101.279C71.1294 100.654 70.9609 99.8945 70.9609 99.001ZM73.0703 99.1108C73.0703 99.8823 73.2534 100.473 73.6196 100.883C73.9858 101.293 74.4375 101.499 74.9746 101.499C75.5117 101.499 75.9609 101.293 76.3223 100.883C76.6885 100.473 76.8716 99.8774 76.8716 99.0962C76.8716 98.3345 76.6885 97.7485 76.3223 97.3384C75.9609 96.9282 75.5117 96.7231 74.9746 96.7231C74.4375 96.7231 73.9858 96.9282 73.6196 97.3384C73.2534 97.7485 73.0703 98.3394 73.0703 99.1108ZM86.4443 92.0137H87.8433C87.7993 92.6338 87.6357 93.105 87.3525 93.4272C87.0742 93.7446 86.3833 93.9033 85.2798 93.9033C85.1479 93.9033 85.0161 93.9009 84.8843 93.896H84.6206C83.9663 93.896 83.4341 93.9692 83.0239 94.1157C82.6138 94.2573 82.2769 94.5356 82.0132 94.9507C81.7544 95.3657 81.6201 96.0347 81.6104 96.9575C81.9131 96.3862 82.3037 95.959 82.7822 95.6758C83.2656 95.3926 83.8394 95.251 84.5034 95.251C85.5239 95.251 86.3882 95.6489 87.0962 96.4448C87.8042 97.2358 88.1582 98.1538 88.1582 99.1987C88.1582 100.288 87.7847 101.223 87.0376 102.004C86.2954 102.785 85.3237 103.176 84.1226 103.176C83.2974 103.176 82.5723 102.978 81.9473 102.583C81.3223 102.187 80.8755 101.647 80.6069 100.964C80.3384 100.275 80.2041 99.1377 80.2041 97.5508C80.2041 95.6855 80.5459 94.3452 81.2295 93.5298C81.918 92.7144 83.1167 92.3066 84.8257 92.3066H85.8657C86.1538 92.3066 86.3467 92.209 86.4443 92.0137ZM82.2988 99.1694C82.2988 99.8774 82.4746 100.439 82.8262 100.854C83.1826 101.264 83.6172 101.469 84.1299 101.469C84.6816 101.469 85.1333 101.257 85.4849 100.832C85.8413 100.402 86.0195 99.8506 86.0195 99.1768C86.0195 98.4883 85.8389 97.9341 85.4775 97.5142C85.1211 97.0894 84.6792 96.877 84.1519 96.877C83.6392 96.877 83.2021 97.0845 82.8408 97.4995C82.4795 97.9146 82.2988 98.4712 82.2988 99.1694ZM91.4175 97.5947L89.5498 97.2578C89.7598 96.5059 90.1211 95.9492 90.6338 95.5879C91.1465 95.2266 91.9082 95.0459 92.9189 95.0459C93.8369 95.0459 94.5205 95.1558 94.9697 95.3755C95.4189 95.5903 95.7339 95.8662 95.9146 96.2031C96.1001 96.5352 96.1929 97.1479 96.1929 98.0415L96.1709 100.444C96.1709 101.127 96.2026 101.633 96.2661 101.96C96.3345 102.282 96.459 102.629 96.6396 103H94.6035C94.5498 102.863 94.4839 102.661 94.4058 102.392C94.3716 102.27 94.3472 102.189 94.3325 102.15C93.981 102.492 93.605 102.749 93.2046 102.919C92.8042 103.09 92.377 103.176 91.9229 103.176C91.1221 103.176 90.4897 102.958 90.0259 102.524C89.5669 102.089 89.3374 101.54 89.3374 100.876C89.3374 100.437 89.4424 100.046 89.6523 99.7041C89.8623 99.3574 90.1553 99.0938 90.5312 98.9131C90.9121 98.7275 91.459 98.5664 92.1719 98.4297C93.1338 98.249 93.8003 98.0806 94.1714 97.9243V97.7192C94.1714 97.3237 94.0737 97.043 93.8784 96.877C93.6831 96.7061 93.3145 96.6206 92.7725 96.6206C92.4062 96.6206 92.1206 96.6938 91.9155 96.8403C91.7104 96.9819 91.5444 97.2334 91.4175 97.5947ZM94.1714 99.2646C93.9077 99.3525 93.4902 99.4575 92.9189 99.5796C92.3477 99.7017 91.9741 99.8213 91.7983 99.9385C91.5298 100.129 91.3955 100.371 91.3955 100.664C91.3955 100.952 91.5029 101.201 91.7178 101.411C91.9326 101.621 92.2061 101.726 92.5381 101.726C92.9092 101.726 93.2632 101.604 93.6001 101.359C93.8491 101.174 94.0127 100.947 94.0908 100.678C94.1445 100.502 94.1714 100.168 94.1714 99.6748V99.2646ZM98.251 95.2217H102.755C103.678 95.2217 104.369 95.3901 104.828 95.7271C105.287 96.064 105.517 96.5718 105.517 97.2505C105.517 97.6851 105.39 98.0635 105.136 98.3857C104.887 98.708 104.572 98.9229 104.191 99.0303C104.728 99.1621 105.128 99.4087 105.392 99.77C105.656 100.131 105.788 100.527 105.788 100.957C105.788 101.562 105.565 102.055 105.121 102.436C104.677 102.812 104.02 103 103.151 103H98.251V95.2217ZM100.324 98.4517H101.649C102.289 98.4517 102.75 98.3711 103.034 98.21C103.322 98.0488 103.466 97.7949 103.466 97.4482C103.466 97.1211 103.332 96.8892 103.063 96.7524C102.799 96.6108 102.328 96.54 101.649 96.54H100.324V98.4517ZM100.324 101.682H101.95C102.536 101.682 102.963 101.611 103.231 101.469C103.5 101.328 103.634 101.074 103.634 100.708C103.634 100.327 103.48 100.065 103.173 99.9238C102.865 99.7773 102.267 99.7041 101.378 99.7041H100.324V101.682ZM107.406 95.2217H109.384V100.107L112.548 95.2217H114.569V103H112.592V98.0269L109.384 103H107.406V95.2217ZM115.763 95.2217H122.802V96.8843H120.312V103H118.253V96.8843H115.763V95.2217ZM124.083 95.2217H126.142V98.4517H128.207C129.018 98.4517 129.64 98.5103 130.075 98.6274C130.509 98.7446 130.871 98.9985 131.159 99.3892C131.447 99.7749 131.591 100.224 131.591 100.737C131.591 101.489 131.332 102.055 130.814 102.436C130.302 102.812 129.53 103 128.5 103H124.083V95.2217ZM126.142 101.696H128.061C128.661 101.696 129.044 101.599 129.21 101.403C129.381 101.208 129.467 100.976 129.467 100.708C129.467 100.332 129.32 100.073 129.027 99.9312C128.739 99.7896 128.224 99.7188 127.482 99.7188H126.142V101.696ZM137.362 95.2217H139.42V98.0708H142.365V95.2217H144.43V103H142.365V99.7334H139.42V103H137.362V95.2217ZM146.034 99.001C146.034 98.3174 146.203 97.6558 146.54 97.0161C146.876 96.3765 147.353 95.8882 147.968 95.5513C148.588 95.2144 149.279 95.0459 150.041 95.0459C151.217 95.0459 152.182 95.4292 152.934 96.1958C153.686 96.9575 154.062 97.9219 154.062 99.0889C154.062 100.266 153.681 101.242 152.919 102.019C152.162 102.79 151.208 103.176 150.055 103.176C149.342 103.176 148.661 103.015 148.012 102.692C147.367 102.37 146.876 101.899 146.54 101.279C146.203 100.654 146.034 99.8945 146.034 99.001ZM148.144 99.1108C148.144 99.8823 148.327 100.473 148.693 100.883C149.059 101.293 149.511 101.499 150.048 101.499C150.585 101.499 151.034 101.293 151.396 100.883C151.762 100.473 151.945 99.8774 151.945 99.0962C151.945 98.3345 151.762 97.7485 151.396 97.3384C151.034 96.9282 150.585 96.7231 150.048 96.7231C149.511 96.7231 149.059 96.9282 148.693 97.3384C148.327 97.7485 148.144 98.3394 148.144 99.1108ZM155.702 95.2217H160.207C161.129 95.2217 161.82 95.3901 162.279 95.7271C162.738 96.064 162.968 96.5718 162.968 97.2505C162.968 97.6851 162.841 98.0635 162.587 98.3857C162.338 98.708 162.023 98.9229 161.642 99.0303C162.179 99.1621 162.58 99.4087 162.843 99.77C163.107 100.131 163.239 100.527 163.239 100.957C163.239 101.562 163.017 102.055 162.572 102.436C162.128 102.812 161.471 103 160.602 103H155.702V95.2217ZM157.775 98.4517H159.101C159.74 98.4517 160.202 98.3711 160.485 98.21C160.773 98.0488 160.917 97.7949 160.917 97.4482C160.917 97.1211 160.783 96.8892 160.514 96.7524C160.25 96.6108 159.779 96.54 159.101 96.54H157.775V98.4517ZM157.775 101.682H159.401C159.987 101.682 160.414 101.611 160.683 101.469C160.951 101.328 161.085 101.074 161.085 100.708C161.085 100.327 160.932 100.065 160.624 99.9238C160.316 99.7773 159.718 99.7041 158.83 99.7041H157.775V101.682ZM164.228 99.001C164.228 98.3174 164.396 97.6558 164.733 97.0161C165.07 96.3765 165.546 95.8882 166.161 95.5513C166.781 95.2144 167.472 95.0459 168.234 95.0459C169.411 95.0459 170.375 95.4292 171.127 96.1958C171.879 96.9575 172.255 97.9219 172.255 99.0889C172.255 100.266 171.874 101.242 171.112 102.019C170.355 102.79 169.401 103.176 168.249 103.176C167.536 103.176 166.854 103.015 166.205 102.692C165.561 102.37 165.07 101.899 164.733 101.279C164.396 100.654 164.228 99.8945 164.228 99.001ZM166.337 99.1108C166.337 99.8823 166.52 100.473 166.886 100.883C167.252 101.293 167.704 101.499 168.241 101.499C168.778 101.499 169.228 101.293 169.589 100.883C169.955 100.473 170.138 99.8774 170.138 99.0962C170.138 98.3345 169.955 97.7485 169.589 97.3384C169.228 96.9282 168.778 96.7231 168.241 96.7231C167.704 96.7231 167.252 96.9282 166.886 97.3384C166.52 97.7485 166.337 98.3394 166.337 99.1108ZM180.451 97.5215L178.422 97.8877C178.354 97.4824 178.197 97.1772 177.953 96.9722C177.714 96.7671 177.401 96.6646 177.016 96.6646C176.503 96.6646 176.093 96.8428 175.785 97.1992C175.482 97.5508 175.331 98.1416 175.331 98.9717C175.331 99.8945 175.485 100.546 175.792 100.927C176.105 101.308 176.522 101.499 177.045 101.499C177.436 101.499 177.755 101.389 178.004 101.169C178.253 100.944 178.429 100.561 178.532 100.019L180.553 100.363C180.343 101.291 179.94 101.992 179.345 102.465C178.749 102.939 177.951 103.176 176.95 103.176C175.812 103.176 174.904 102.817 174.225 102.099C173.551 101.381 173.214 100.388 173.214 99.1182C173.214 97.834 173.554 96.8354 174.232 96.1226C174.911 95.4048 175.829 95.0459 176.986 95.0459C177.934 95.0459 178.686 95.251 179.242 95.6611C179.804 96.0664 180.207 96.6865 180.451 97.5215ZM181.095 95.2217H188.134V96.8843H185.644V103H183.585V96.8843H181.095V95.2217ZM189.416 95.2217H191.474V98.4517H193.539C194.35 98.4517 194.972 98.5103 195.407 98.6274C195.841 98.7446 196.203 98.9985 196.491 99.3892C196.779 99.7749 196.923 100.224 196.923 100.737C196.923 101.489 196.664 102.055 196.146 102.436C195.634 102.812 194.862 103 193.832 103H189.416V95.2217ZM191.474 101.696H193.393C193.993 101.696 194.376 101.599 194.542 101.403C194.713 101.208 194.799 100.976 194.799 100.708C194.799 100.332 194.652 100.073 194.359 99.9312C194.071 99.7896 193.556 99.7188 192.814 99.7188H191.474V101.696Z" fill="#4A4A4A"/>
</g>
<g filter="url(#filter2_d_211_1312)">
<rect x="20" y="144" width="180" height="32" rx="4" fill="url(#paint2_linear_211_1312)"/>
<rect x="20.5" y="144.5" width="179" height="31" rx="3.5" stroke="#9B9B9B"/>
<path d="M61.3921 154.263H67.9253V163.733H68.8921V167.505H67.625V165H60.5278V167.505H59.2607V163.733H60.0957C60.96 162.429 61.3921 159.795 61.3921 155.83V154.263ZM66.5044 155.53H62.7617V156.079C62.7617 156.992 62.6787 158.242 62.5127 159.829C62.3516 161.411 62.0317 162.712 61.5532 163.733H66.5044V155.53ZM70.1006 161.111C70.1006 159.67 70.501 158.604 71.3018 157.91C71.9707 157.334 72.7861 157.046 73.748 157.046C74.8174 157.046 75.6914 157.397 76.3701 158.101C77.0488 158.799 77.3882 159.766 77.3882 161.001C77.3882 162.002 77.2368 162.791 76.9341 163.367C76.6362 163.938 76.1992 164.382 75.623 164.7C75.0518 165.017 74.4268 165.176 73.748 165.176C72.6592 165.176 71.7778 164.827 71.104 164.128C70.4351 163.43 70.1006 162.424 70.1006 161.111ZM71.4556 161.111C71.4556 162.107 71.6729 162.854 72.1074 163.352C72.542 163.845 73.0889 164.092 73.748 164.092C74.4023 164.092 74.9468 163.843 75.3813 163.345C75.8159 162.847 76.0332 162.087 76.0332 161.067C76.0332 160.105 75.8135 159.377 75.374 158.884C74.9395 158.386 74.3975 158.137 73.748 158.137C73.0889 158.137 72.542 158.384 72.1074 158.877C71.6729 159.37 71.4556 160.115 71.4556 161.111ZM84.6392 154.006L85.8037 154.021C85.75 154.543 85.6328 154.907 85.4521 155.112C85.2764 155.317 85.0469 155.449 84.7637 155.508C84.4854 155.566 83.936 155.596 83.1157 155.596C82.0269 155.596 81.2847 155.701 80.8892 155.911C80.4937 156.121 80.208 156.458 80.0322 156.921C79.8613 157.38 79.7661 157.974 79.7466 158.701C80.0786 158.208 80.4668 157.839 80.9111 157.595C81.3555 157.346 81.856 157.222 82.4126 157.222C83.4331 157.222 84.2778 157.573 84.9468 158.276C85.6157 158.975 85.9502 159.922 85.9502 161.118C85.9502 162.026 85.7817 162.771 85.4448 163.352C85.1079 163.933 84.7075 164.382 84.2437 164.7C83.7847 165.017 83.1572 165.176 82.3613 165.176C81.4385 165.176 80.7207 164.966 80.208 164.546C79.6953 164.121 79.3022 163.579 79.0288 162.92C78.7554 162.261 78.6187 161.113 78.6187 159.478C78.6187 157.422 78.9653 156.038 79.6587 155.325C80.3569 154.612 81.4287 154.255 82.874 154.255C83.7725 154.255 84.2827 154.241 84.4048 154.211C84.5269 154.182 84.605 154.114 84.6392 154.006ZM84.5732 161.082C84.5732 160.271 84.3804 159.607 83.9946 159.089C83.6138 158.572 83.0742 158.313 82.376 158.313C81.6484 158.313 81.0869 158.586 80.6914 159.133C80.2959 159.68 80.0981 160.41 80.0981 161.323C80.0981 162.227 80.3154 162.917 80.75 163.396C81.1895 163.875 81.729 164.114 82.3687 164.114C83.0229 164.114 83.5527 163.838 83.958 163.286C84.3682 162.729 84.5732 161.995 84.5732 161.082ZM92.2637 164.041C91.7754 164.456 91.3042 164.749 90.8501 164.919C90.4009 165.09 89.9175 165.176 89.3999 165.176C88.5454 165.176 87.8887 164.968 87.4297 164.553C86.9707 164.133 86.7412 163.599 86.7412 162.949C86.7412 162.568 86.8267 162.222 86.9976 161.909C87.1733 161.592 87.4004 161.338 87.6787 161.147C87.9619 160.957 88.2793 160.813 88.6309 160.715C88.8896 160.647 89.2803 160.581 89.8027 160.518C90.8672 160.391 91.6509 160.239 92.1538 160.063C92.1587 159.883 92.1611 159.768 92.1611 159.719C92.1611 159.182 92.0366 158.804 91.7876 158.584C91.4507 158.286 90.9502 158.137 90.2861 158.137C89.666 158.137 89.207 158.247 88.9092 158.467C88.6162 158.682 88.3989 159.065 88.2573 159.617L86.9683 159.441C87.0854 158.889 87.2783 158.445 87.5469 158.108C87.8154 157.766 88.2036 157.505 88.7114 157.324C89.2192 157.139 89.8076 157.046 90.4766 157.046C91.1406 157.046 91.6802 157.124 92.0952 157.28C92.5103 157.437 92.8154 157.634 93.0107 157.874C93.2061 158.108 93.3428 158.406 93.4209 158.767C93.4648 158.992 93.4868 159.397 93.4868 159.983V161.741C93.4868 162.966 93.5137 163.743 93.5674 164.07C93.626 164.392 93.7383 164.702 93.9043 165H92.5273C92.3906 164.727 92.3027 164.407 92.2637 164.041ZM92.1538 161.096C91.6753 161.292 90.9575 161.458 90.0005 161.594C89.4585 161.672 89.0752 161.76 88.8506 161.858C88.626 161.956 88.4526 162.1 88.3306 162.29C88.2085 162.476 88.1475 162.683 88.1475 162.913C88.1475 163.264 88.2793 163.557 88.543 163.792C88.8115 164.026 89.2021 164.143 89.7148 164.143C90.2227 164.143 90.6743 164.033 91.0698 163.813C91.4653 163.589 91.7559 163.284 91.9414 162.898C92.083 162.6 92.1538 162.161 92.1538 161.58V161.096ZM95.5449 157.222H98.5845C99.3315 157.222 99.8857 157.285 100.247 157.412C100.613 157.534 100.926 157.761 101.185 158.093C101.448 158.425 101.58 158.823 101.58 159.287C101.58 159.658 101.502 159.983 101.346 160.261C101.194 160.535 100.965 160.764 100.657 160.95C101.023 161.072 101.326 161.301 101.565 161.638C101.81 161.97 101.932 162.366 101.932 162.825C101.883 163.562 101.619 164.109 101.141 164.465C100.662 164.822 99.9663 165 99.0532 165H95.5449V157.222ZM96.8633 160.496H98.2695C98.8311 160.496 99.2168 160.466 99.4268 160.408C99.6367 160.349 99.8247 160.232 99.9907 160.056C100.157 159.875 100.24 159.661 100.24 159.412C100.24 159.001 100.093 158.716 99.8003 158.555C99.5122 158.394 99.0166 158.313 98.3135 158.313H96.8633V160.496ZM96.8633 163.916H98.5991C99.3462 163.916 99.8589 163.831 100.137 163.66C100.416 163.484 100.562 163.184 100.577 162.759C100.577 162.51 100.496 162.28 100.335 162.07C100.174 161.855 99.9639 161.721 99.7051 161.667C99.4463 161.609 99.0312 161.58 98.46 161.58H96.8633V163.916ZM103.506 157.222H104.825V163.154L108.479 157.222H109.9V165H108.582V159.104L104.927 165H103.506V157.222ZM111.175 157.222H117.496V158.313H114.991V165H113.68V158.313H111.175V157.222ZM118.733 157.222H120.052V160.261H121.722C122.811 160.261 123.648 160.474 124.234 160.898C124.825 161.318 125.12 161.899 125.12 162.642C125.12 163.291 124.874 163.848 124.38 164.312C123.892 164.771 123.108 165 122.029 165H118.733V157.222ZM120.052 163.916H121.436C122.271 163.916 122.867 163.813 123.223 163.608C123.58 163.403 123.758 163.083 123.758 162.649C123.758 162.312 123.626 162.012 123.362 161.748C123.099 161.484 122.515 161.353 121.612 161.353H120.052V163.916ZM130.76 157.222H132.078V160.459H135.733V157.222H137.051V165H135.733V161.55H132.078V165H130.76V157.222ZM138.553 161.111C138.553 159.67 138.953 158.604 139.754 157.91C140.423 157.334 141.238 157.046 142.2 157.046C143.27 157.046 144.144 157.397 144.822 158.101C145.501 158.799 145.84 159.766 145.84 161.001C145.84 162.002 145.689 162.791 145.386 163.367C145.088 163.938 144.651 164.382 144.075 164.7C143.504 165.017 142.879 165.176 142.2 165.176C141.111 165.176 140.23 164.827 139.556 164.128C138.887 163.43 138.553 162.424 138.553 161.111ZM139.908 161.111C139.908 162.107 140.125 162.854 140.56 163.352C140.994 163.845 141.541 164.092 142.2 164.092C142.854 164.092 143.399 163.843 143.833 163.345C144.268 162.847 144.485 162.087 144.485 161.067C144.485 160.105 144.266 159.377 143.826 158.884C143.392 158.386 142.85 158.137 142.2 158.137C141.541 158.137 140.994 158.384 140.56 158.877C140.125 159.37 139.908 160.115 139.908 161.111ZM147.4 157.222H150.44C151.187 157.222 151.741 157.285 152.103 157.412C152.469 157.534 152.781 157.761 153.04 158.093C153.304 158.425 153.436 158.823 153.436 159.287C153.436 159.658 153.357 159.983 153.201 160.261C153.05 160.535 152.82 160.764 152.513 160.95C152.879 161.072 153.182 161.301 153.421 161.638C153.665 161.97 153.787 162.366 153.787 162.825C153.738 163.562 153.475 164.109 152.996 164.465C152.518 164.822 151.822 165 150.909 165H147.4V157.222ZM148.719 160.496H150.125C150.687 160.496 151.072 160.466 151.282 160.408C151.492 160.349 151.68 160.232 151.846 160.056C152.012 159.875 152.095 159.661 152.095 159.412C152.095 159.001 151.949 158.716 151.656 158.555C151.368 158.394 150.872 158.313 150.169 158.313H148.719V160.496ZM148.719 163.916H150.455C151.202 163.916 151.714 163.831 151.993 163.66C152.271 163.484 152.417 163.184 152.432 162.759C152.432 162.51 152.352 162.28 152.19 162.07C152.029 161.855 151.819 161.721 151.561 161.667C151.302 161.609 150.887 161.58 150.315 161.58H148.719V163.916ZM154.695 161.111C154.695 159.67 155.096 158.604 155.896 157.91C156.565 157.334 157.381 157.046 158.343 157.046C159.412 157.046 160.286 157.397 160.965 158.101C161.644 158.799 161.983 159.766 161.983 161.001C161.983 162.002 161.832 162.791 161.529 163.367C161.231 163.938 160.794 164.382 160.218 164.7C159.646 165.017 159.021 165.176 158.343 165.176C157.254 165.176 156.373 164.827 155.699 164.128C155.03 163.43 154.695 162.424 154.695 161.111ZM156.05 161.111C156.05 162.107 156.268 162.854 156.702 163.352C157.137 163.845 157.684 164.092 158.343 164.092C158.997 164.092 159.542 163.843 159.976 163.345C160.411 162.847 160.628 162.087 160.628 161.067C160.628 160.105 160.408 159.377 159.969 158.884C159.534 158.386 158.992 158.137 158.343 158.137C157.684 158.137 157.137 158.384 156.702 158.877C156.268 159.37 156.05 160.115 156.05 161.111ZM168.611 162.151L169.908 162.319C169.766 163.213 169.402 163.914 168.816 164.421C168.235 164.924 167.52 165.176 166.67 165.176C165.606 165.176 164.749 164.829 164.1 164.136C163.455 163.438 163.133 162.439 163.133 161.14C163.133 160.3 163.272 159.565 163.55 158.936C163.829 158.306 164.251 157.834 164.817 157.522C165.389 157.205 166.009 157.046 166.678 157.046C167.522 157.046 168.213 157.261 168.75 157.69C169.288 158.115 169.632 158.721 169.783 159.507L168.501 159.705C168.379 159.182 168.162 158.789 167.85 158.525C167.542 158.262 167.168 158.13 166.729 158.13C166.065 158.13 165.525 158.369 165.11 158.848C164.695 159.321 164.488 160.073 164.488 161.104C164.488 162.148 164.688 162.908 165.088 163.381C165.489 163.855 166.011 164.092 166.656 164.092C167.173 164.092 167.605 163.933 167.952 163.616C168.299 163.298 168.519 162.81 168.611 162.151ZM170.325 157.222H176.646V158.313H174.141V165H172.83V158.313H170.325V157.222ZM177.884 157.222H179.202V160.261H180.872C181.961 160.261 182.798 160.474 183.384 160.898C183.975 161.318 184.271 161.899 184.271 162.642C184.271 163.291 184.024 163.848 183.531 164.312C183.042 164.771 182.259 165 181.18 165H177.884V157.222ZM179.202 163.916H180.586C181.421 163.916 182.017 163.813 182.374 163.608C182.73 163.403 182.908 163.083 182.908 162.649C182.908 162.312 182.776 162.012 182.513 161.748C182.249 161.484 181.666 161.353 180.762 161.353H179.202V163.916Z" fill="#9B9B9B"/>
<g opacity="0.5">
<circle cx="43" cy="160" r="8" fill="#009646"/>
<path fill-rule="evenodd" clip-rule="evenodd" d="M43.1687 156.129C42.6924 156.129 42.3063 156.477 42.3063 156.906V159.105H39.8625C39.3862 159.105 39 159.453 39 159.881C39 160.31 39.3862 160.658 39.8625 160.658H42.3063V162.857C42.3063 163.286 42.6924 163.633 43.1687 163.633C43.6451 163.633 44.0312 163.286 44.0312 162.857V160.658H46.475C46.9513 160.658 47.3375 160.31 47.3375 159.881C47.3375 159.453 46.9513 159.105 46.475 159.105H44.0312V156.906C44.0312 156.477 43.6451 156.129 43.1687 156.129V156.129Z" fill="white"/>
</g>
</g>
<defs>
<filter id="filter0_d_211_1312" x="20" y="20" width="180" height="33" filterUnits="userSpaceOnUse" color-interpolation-filters="sRGB">
<feFlood flood-opacity="0" result="BackgroundImageFix"/>
<feColorMatrix in="SourceAlpha" type="matrix" values="0 0 0 0 0 0 0 0 0 0 0 0 0 0 0 0 0 0 127 0" result="hardAlpha"/>
<feOffset dy="1"/>
<feColorMatrix type="matrix" values="0 0 0 0 0.290222 0 0 0 0 0.290175 0 0 0 0 0.290237 0 0 0 0.196473 0"/>
<feBlend mode="normal" in2="BackgroundImageFix" result="effect1_dropShadow_211_1312"/>
<feBlend mode="normal" in="SourceGraphic" in2="effect1_dropShadow_211_1312" result="shape"/>
</filter>
<filter id="filter1_d_211_1312" x="20" y="82" width="193" height="33" filterUnits="userSpaceOnUse" color-interpolation-filters="sRGB">
<feFlood flood-opacity="0" result="BackgroundImageFix"/>
<feColorMatrix in="SourceAlpha" type="matrix" values="0 0 0 0 0 0 0 0 0 0 0 0 0 0 0 0 0 0 127 0" result="hardAlpha"/>
<feOffset dy="1"/>
<feColorMatrix type="matrix" values="0 0 0 0 0.290222 0 0 0 0 0.290175 0 0 0 0 0.290237 0 0 0 0.196473 0"/>
<feBlend mode="normal" in2="BackgroundImageFix" result="effect1_dropShadow_211_1312"/>
<feBlend mode="normal" in="SourceGraphic" in2="effect1_dropShadow_211_1312" result="shape"/>
</filter>
<filter id="filter2_d_211_1312" x="20" y="144" width="180" height="33" filterUnits="userSpaceOnUse" color-interpolation-filters="sRGB">
<feFlood flood-opacity="0" result="BackgroundImageFix"/>
<feColorMatrix in="SourceAlpha" type="matrix" values="0 0 0 0 0 0 0 0 0 0 0 0 0 0 0 0 0 0 127 0" result="hardAlpha"/>
<feOffset dy="1"/>
<feColorMatrix type="matrix" values="0 0 0 0 0.290222 0 0 0 0 0.290175 0 0 0 0 0.290237 0 0 0 0.196473 0"/>
<feBlend mode="normal" in2="BackgroundImageFix" result="effect1_dropShadow_211_1312"/>
<feBlend mode="normal" in="SourceGraphic" in2="effect1_dropShadow_211_1312" result="shape"/>
</filter>
<linearGradient id="paint0_linear_211_1312" x1="20" y1="20" x2="20" y2="52" gradientUnits="userSpaceOnUse">
<stop stop-color="white"/>
<stop offset="1" stop-color="#F9F9F9"/>
</linearGradient>
<linearGradient id="paint1_linear_211_1312" x1="20" y1="82" x2="20" y2="114" gradientUnits="userSpaceOnUse">
<stop stop-color="#FEE832"/>
<stop offset="1" stop-color="#F9DA04"/>
</linearGradient>
<linearGradient id="paint2_linear_211_1312" x1="20" y1="144" x2="20" y2="176" gradientUnits="userSpaceOnUse">
<stop stop-color="white"/>
<stop offset="1" stop-color="#F9F9F9"/>
</linearGradient>
</defs>
</svg>
