<svg width="650" height="104" viewBox="0 0 650 104" fill="none" xmlns="http://www.w3.org/2000/svg">
<rect x="20.5" y="20.5" width="19" height="19" rx="1.5" fill="white" stroke="#9B9B9B"/>
<path d="M52.7251 30.2705C52.7251 28.4883 53.2036 27.0942 54.1606 26.0884C55.1177 25.0776 56.353 24.5723 57.8667 24.5723C58.8579 24.5723 59.7515 24.8091 60.5474 25.2827C61.3433 25.7563 61.9487 26.418 62.3638 27.2676C62.7837 28.1123 62.9937 29.0718 62.9937 30.146C62.9937 31.2349 62.7739 32.209 62.3345 33.0684C61.895 33.9277 61.2725 34.5796 60.4668 35.0239C59.6611 35.4634 58.792 35.6831 57.8594 35.6831C56.8486 35.6831 55.9453 35.439 55.1494 34.9507C54.3535 34.4624 53.7505 33.7959 53.3403 32.9512C52.9302 32.1064 52.7251 31.2129 52.7251 30.2705ZM54.1899 30.2925C54.1899 31.5864 54.5366 32.6069 55.23 33.354C55.9282 34.0962 56.8022 34.4673 57.8521 34.4673C58.9214 34.4673 59.8003 34.0913 60.4888 33.3394C61.1821 32.5874 61.5288 31.5205 61.5288 30.1387C61.5288 29.2646 61.3799 28.5029 61.082 27.8535C60.7891 27.1992 60.3569 26.6938 59.7856 26.3374C59.2192 25.9761 58.582 25.7954 57.874 25.7954C56.8682 25.7954 56.0015 26.1421 55.2739 26.8354C54.5513 27.5239 54.1899 28.6763 54.1899 30.2925ZM70.3618 24.5063L71.5264 24.521C71.4727 25.0435 71.3555 25.4072 71.1748 25.6123C70.999 25.8174 70.7695 25.9492 70.4863 26.0078C70.208 26.0664 69.6587 26.0957 68.8384 26.0957C67.7495 26.0957 67.0073 26.2007 66.6118 26.4106C66.2163 26.6206 65.9307 26.9575 65.7549 27.4214C65.584 27.8804 65.4888 28.4736 65.4692 29.2012C65.8013 28.708 66.1895 28.3394 66.6338 28.0952C67.0781 27.8462 67.5786 27.7217 68.1353 27.7217C69.1558 27.7217 70.0005 28.0732 70.6694 28.7764C71.3384 29.4746 71.6729 30.4219 71.6729 31.6182C71.6729 32.5264 71.5044 33.271 71.1675 33.8521C70.8306 34.4331 70.4302 34.8823 69.9663 35.1997C69.5073 35.5171 68.8799 35.6758 68.084 35.6758C67.1611 35.6758 66.4434 35.4658 65.9307 35.0459C65.418 34.6211 65.0249 34.0791 64.7515 33.4199C64.478 32.7607 64.3413 31.6133 64.3413 29.9775C64.3413 27.9219 64.688 26.5376 65.3813 25.8247C66.0796 25.1118 67.1514 24.7554 68.5967 24.7554C69.4951 24.7554 70.0054 24.7407 70.1274 24.7114C70.2495 24.6821 70.3276 24.6138 70.3618 24.5063ZM70.2959 31.5815C70.2959 30.771 70.103 30.1069 69.7173 29.5894C69.3364 29.0718 68.7969 28.813 68.0986 28.813C67.3711 28.813 66.8096 29.0864 66.4141 29.6333C66.0186 30.1802 65.8208 30.9102 65.8208 31.8232C65.8208 32.7266 66.0381 33.4175 66.4727 33.896C66.9121 34.3745 67.4517 34.6138 68.0913 34.6138C68.7456 34.6138 69.2754 34.3379 69.6807 33.7861C70.0908 33.2295 70.2959 32.4946 70.2959 31.5815ZM80.667 27.7217H81.9854V35.5H80.667V27.7217ZM73.2915 27.7217H74.6099V30.7612H76.2798C77.3687 30.7612 78.2061 30.9736 78.792 31.3984C79.3828 31.8184 79.6782 32.3994 79.6782 33.1416C79.6782 33.791 79.4316 34.3477 78.9385 34.8115C78.4502 35.2705 77.6665 35.5 76.5874 35.5H73.2915V27.7217ZM74.6099 34.416H75.9941C76.8291 34.416 77.4248 34.3135 77.7812 34.1084C78.1377 33.9033 78.3159 33.5835 78.3159 33.1489C78.3159 32.812 78.1841 32.5117 77.9204 32.248C77.6567 31.9844 77.0732 31.8525 76.1699 31.8525H74.6099V34.416ZM83.5601 27.7217H84.8784V29.1938C84.8784 29.8286 84.915 30.29 84.9883 30.5781C85.0664 30.8613 85.2495 31.1104 85.5376 31.3252C85.8257 31.5352 86.187 31.6401 86.6216 31.6401C87.1196 31.6401 87.7642 31.5083 88.5552 31.2446V27.7217H89.8735V35.5H88.5552V32.3652C87.7446 32.6191 86.9878 32.7461 86.2847 32.7461C85.6938 32.7461 85.1714 32.5972 84.7173 32.2993C84.2681 31.9966 83.9629 31.6279 83.8018 31.1934C83.6406 30.7588 83.5601 30.2803 83.5601 29.7578V27.7217ZM91.873 27.7217H93.1914V30.959H96.8462V27.7217H98.1646V35.5H96.8462V32.0503H93.1914V35.5H91.873V27.7217ZM99.666 31.6108C99.666 30.1704 100.066 29.1035 100.867 28.4102C101.536 27.834 102.352 27.5459 103.313 27.5459C104.383 27.5459 105.257 27.8975 105.936 28.6006C106.614 29.2988 106.954 30.2656 106.954 31.501C106.954 32.502 106.802 33.2905 106.5 33.8667C106.202 34.438 105.765 34.8823 105.188 35.1997C104.617 35.5171 103.992 35.6758 103.313 35.6758C102.225 35.6758 101.343 35.3267 100.669 34.6284C100 33.9302 99.666 32.9243 99.666 31.6108ZM101.021 31.6108C101.021 32.6069 101.238 33.354 101.673 33.8521C102.107 34.3452 102.654 34.5918 103.313 34.5918C103.968 34.5918 104.512 34.3428 104.947 33.8447C105.381 33.3467 105.599 32.5874 105.599 31.5669C105.599 30.605 105.379 29.8774 104.939 29.3843C104.505 28.8862 103.963 28.6372 103.313 28.6372C102.654 28.6372 102.107 28.8838 101.673 29.377C101.238 29.8701 101.021 30.6147 101.021 31.6108ZM113.831 32.9951L115.193 33.1636C114.979 33.9595 114.581 34.5771 114 35.0166C113.418 35.4561 112.676 35.6758 111.773 35.6758C110.635 35.6758 109.732 35.3267 109.063 34.6284C108.399 33.9253 108.067 32.9414 108.067 31.6768C108.067 30.3682 108.404 29.3525 109.078 28.6299C109.751 27.9072 110.625 27.5459 111.7 27.5459C112.74 27.5459 113.589 27.8999 114.249 28.6079C114.908 29.3159 115.237 30.312 115.237 31.5962C115.237 31.6743 115.235 31.7915 115.23 31.9478H109.429C109.478 32.8022 109.72 33.4565 110.154 33.9106C110.589 34.3647 111.131 34.5918 111.78 34.5918C112.264 34.5918 112.676 34.4648 113.018 34.2109C113.36 33.957 113.631 33.5518 113.831 32.9951ZM109.502 30.8638H113.846C113.787 30.2095 113.621 29.7188 113.348 29.3916C112.928 28.8838 112.383 28.6299 111.714 28.6299C111.109 28.6299 110.599 28.8325 110.184 29.2378C109.773 29.6431 109.546 30.1851 109.502 30.8638ZM126.106 32.6509L127.403 32.8193C127.261 33.7129 126.897 34.4136 126.312 34.9214C125.73 35.4243 125.015 35.6758 124.166 35.6758C123.101 35.6758 122.244 35.3291 121.595 34.6357C120.95 33.9375 120.628 32.939 120.628 31.6401C120.628 30.8003 120.767 30.0654 121.045 29.4355C121.324 28.8057 121.746 28.3345 122.312 28.022C122.884 27.7046 123.504 27.5459 124.173 27.5459C125.018 27.5459 125.708 27.7607 126.246 28.1904C126.783 28.6152 127.127 29.2207 127.278 30.0068L125.997 30.2046C125.875 29.6821 125.657 29.2891 125.345 29.0254C125.037 28.7617 124.664 28.6299 124.224 28.6299C123.56 28.6299 123.021 28.8691 122.605 29.3477C122.19 29.8213 121.983 30.5732 121.983 31.6035C121.983 32.6484 122.183 33.4077 122.583 33.8813C122.984 34.355 123.506 34.5918 124.151 34.5918C124.668 34.5918 125.101 34.4331 125.447 34.1157C125.794 33.7983 126.014 33.3101 126.106 32.6509ZM128.216 31.6108C128.216 30.1704 128.616 29.1035 129.417 28.4102C130.086 27.834 130.901 27.5459 131.863 27.5459C132.933 27.5459 133.807 27.8975 134.485 28.6006C135.164 29.2988 135.503 30.2656 135.503 31.501C135.503 32.502 135.352 33.2905 135.049 33.8667C134.751 34.438 134.314 34.8823 133.738 35.1997C133.167 35.5171 132.542 35.6758 131.863 35.6758C130.774 35.6758 129.893 35.3267 129.219 34.6284C128.55 33.9302 128.216 32.9243 128.216 31.6108ZM129.571 31.6108C129.571 32.6069 129.788 33.354 130.223 33.8521C130.657 34.3452 131.204 34.5918 131.863 34.5918C132.518 34.5918 133.062 34.3428 133.497 33.8447C133.931 33.3467 134.148 32.5874 134.148 31.5669C134.148 30.605 133.929 29.8774 133.489 29.3843C133.055 28.8862 132.513 28.6372 131.863 28.6372C131.204 28.6372 130.657 28.8838 130.223 29.377C129.788 29.8701 129.571 30.6147 129.571 31.6108ZM142.132 32.6509L143.428 32.8193C143.287 33.7129 142.923 34.4136 142.337 34.9214C141.756 35.4243 141.041 35.6758 140.191 35.6758C139.126 35.6758 138.27 35.3291 137.62 34.6357C136.976 33.9375 136.653 32.939 136.653 31.6401C136.653 30.8003 136.792 30.0654 137.071 29.4355C137.349 28.8057 137.771 28.3345 138.338 28.022C138.909 27.7046 139.529 27.5459 140.198 27.5459C141.043 27.5459 141.734 27.7607 142.271 28.1904C142.808 28.6152 143.152 29.2207 143.304 30.0068L142.022 30.2046C141.9 29.6821 141.683 29.2891 141.37 29.0254C141.062 28.7617 140.689 28.6299 140.25 28.6299C139.585 28.6299 139.046 28.8691 138.631 29.3477C138.216 29.8213 138.008 30.5732 138.008 31.6035C138.008 32.6484 138.208 33.4077 138.609 33.8813C139.009 34.355 139.532 34.5918 140.176 34.5918C140.694 34.5918 141.126 34.4331 141.473 34.1157C141.819 33.7983 142.039 33.3101 142.132 32.6509ZM143.846 27.7217H150.167V28.813H147.662V35.5H146.351V28.813H143.846V27.7217ZM150.76 31.6108C150.76 30.1704 151.16 29.1035 151.961 28.4102C152.63 27.834 153.445 27.5459 154.407 27.5459C155.477 27.5459 156.351 27.8975 157.029 28.6006C157.708 29.2988 158.047 30.2656 158.047 31.501C158.047 32.502 157.896 33.2905 157.593 33.8667C157.295 34.438 156.858 34.8823 156.282 35.1997C155.711 35.5171 155.086 35.6758 154.407 35.6758C153.318 35.6758 152.437 35.3267 151.763 34.6284C151.094 33.9302 150.76 32.9243 150.76 31.6108ZM152.115 31.6108C152.115 32.6069 152.332 33.354 152.767 33.8521C153.201 34.3452 153.748 34.5918 154.407 34.5918C155.062 34.5918 155.606 34.3428 156.041 33.8447C156.475 33.3467 156.692 32.5874 156.692 31.5669C156.692 30.605 156.473 29.8774 156.033 29.3843C155.599 28.8862 155.057 28.6372 154.407 28.6372C153.748 28.6372 153.201 28.8838 152.767 29.377C152.332 29.8701 152.115 30.6147 152.115 31.6108ZM165.723 27.7217V35.5H164.412V32.4678H163.65C163.187 32.4678 162.84 32.5288 162.61 32.6509C162.386 32.7681 162.056 33.1514 161.622 33.8008L160.472 35.5H158.838L160.259 33.4053C160.694 32.7656 161.126 32.4043 161.556 32.3213C160.804 32.2188 160.245 31.9478 159.878 31.5083C159.517 31.0688 159.336 30.5635 159.336 29.9922C159.336 29.3184 159.573 28.7715 160.047 28.3516C160.525 27.9316 161.216 27.7217 162.12 27.7217H165.723ZM164.412 28.813H162.537C161.751 28.813 161.243 28.9351 161.014 29.1792C160.789 29.4233 160.677 29.709 160.677 30.0361C160.677 30.5 160.843 30.8418 161.175 31.0615C161.512 31.2764 162.105 31.3838 162.955 31.3838H164.412V28.813ZM167.737 27.7217H169.056V30.959H172.71V27.7217H174.029V35.5H172.71V32.0503H169.056V35.5H167.737V27.7217ZM176.021 27.7217H177.339V33.6543L180.994 27.7217H182.415V35.5H181.097V29.604L177.442 35.5H176.021V27.7217ZM189.725 32.9951L191.087 33.1636C190.872 33.9595 190.474 34.5771 189.893 35.0166C189.312 35.4561 188.57 35.6758 187.667 35.6758C186.529 35.6758 185.625 35.3267 184.957 34.6284C184.292 33.9253 183.96 32.9414 183.96 31.6768C183.96 30.3682 184.297 29.3525 184.971 28.6299C185.645 27.9072 186.519 27.5459 187.593 27.5459C188.633 27.5459 189.483 27.8999 190.142 28.6079C190.801 29.3159 191.131 30.312 191.131 31.5962C191.131 31.6743 191.128 31.7915 191.124 31.9478H185.323C185.372 32.8022 185.613 33.4565 186.048 33.9106C186.482 34.3647 187.024 34.5918 187.674 34.5918C188.157 34.5918 188.57 34.4648 188.912 34.2109C189.253 33.957 189.524 33.5518 189.725 32.9951ZM185.396 30.8638H189.739C189.681 30.2095 189.515 29.7188 189.241 29.3916C188.821 28.8838 188.277 28.6299 187.608 28.6299C187.002 28.6299 186.492 28.8325 186.077 29.2378C185.667 29.6431 185.44 30.1851 185.396 30.8638ZM196.441 27.7217H197.759V29.1938C197.759 29.8286 197.796 30.29 197.869 30.5781C197.947 30.8613 198.13 31.1104 198.418 31.3252C198.707 31.5352 199.068 31.6401 199.502 31.6401C200 31.6401 200.645 31.5083 201.436 31.2446V27.7217H202.754V35.5H201.436V32.3652C200.625 32.6191 199.869 32.7461 199.166 32.7461C198.575 32.7461 198.052 32.5972 197.598 32.2993C197.149 31.9966 196.844 31.6279 196.683 31.1934C196.521 30.7588 196.441 30.2803 196.441 29.7578V27.7217ZM210.071 32.9951L211.434 33.1636C211.219 33.9595 210.821 34.5771 210.24 35.0166C209.659 35.4561 208.917 35.6758 208.013 35.6758C206.875 35.6758 205.972 35.3267 205.303 34.6284C204.639 33.9253 204.307 32.9414 204.307 31.6768C204.307 30.3682 204.644 29.3525 205.318 28.6299C205.992 27.9072 206.866 27.5459 207.94 27.5459C208.98 27.5459 209.83 27.8999 210.489 28.6079C211.148 29.3159 211.478 30.312 211.478 31.5962C211.478 31.6743 211.475 31.7915 211.47 31.9478H205.669C205.718 32.8022 205.96 33.4565 206.395 33.9106C206.829 34.3647 207.371 34.5918 208.021 34.5918C208.504 34.5918 208.917 34.4648 209.258 34.2109C209.6 33.957 209.871 33.5518 210.071 32.9951ZM205.743 30.8638H210.086C210.027 30.2095 209.861 29.7188 209.588 29.3916C209.168 28.8838 208.624 28.6299 207.955 28.6299C207.349 28.6299 206.839 28.8325 206.424 29.2378C206.014 29.6431 205.787 30.1851 205.743 30.8638ZM213.089 27.7217H214.407V31.0835C214.827 31.0835 215.12 31.0029 215.286 30.8418C215.457 30.6807 215.706 30.2119 216.033 29.4355C216.292 28.8203 216.502 28.415 216.663 28.2197C216.824 28.0244 217.01 27.8926 217.22 27.8242C217.43 27.7559 217.767 27.7217 218.23 27.7217H218.494V28.813L218.128 28.8057C217.781 28.8057 217.559 28.8569 217.461 28.9595C217.359 29.0669 217.203 29.3867 216.993 29.9189C216.792 30.4268 216.609 30.7783 216.443 30.9736C216.277 31.1689 216.021 31.3472 215.674 31.5083C216.241 31.6597 216.797 32.187 217.344 33.0903L218.787 35.5H217.337L215.931 33.0903C215.643 32.6069 215.391 32.2896 215.176 32.1382C214.961 31.9819 214.705 31.9038 214.407 31.9038V35.5H213.089V27.7217ZM225.694 24.5063L226.858 24.521C226.805 25.0435 226.688 25.4072 226.507 25.6123C226.331 25.8174 226.102 25.9492 225.818 26.0078C225.54 26.0664 224.991 26.0957 224.17 26.0957C223.082 26.0957 222.339 26.2007 221.944 26.4106C221.548 26.6206 221.263 26.9575 221.087 27.4214C220.916 27.8804 220.821 28.4736 220.801 29.2012C221.133 28.708 221.521 28.3394 221.966 28.0952C222.41 27.8462 222.911 27.7217 223.467 27.7217C224.488 27.7217 225.333 28.0732 226.001 28.7764C226.67 29.4746 227.005 30.4219 227.005 31.6182C227.005 32.5264 226.836 33.271 226.5 33.8521C226.163 34.4331 225.762 34.8823 225.298 35.1997C224.839 35.5171 224.212 35.6758 223.416 35.6758C222.493 35.6758 221.775 35.4658 221.263 35.0459C220.75 34.6211 220.357 34.0791 220.083 33.4199C219.81 32.7607 219.673 31.6133 219.673 29.9775C219.673 27.9219 220.02 26.5376 220.713 25.8247C221.412 25.1118 222.483 24.7554 223.929 24.7554C224.827 24.7554 225.337 24.7407 225.459 24.7114C225.582 24.6821 225.66 24.6138 225.694 24.5063ZM225.628 31.5815C225.628 30.771 225.435 30.1069 225.049 29.5894C224.668 29.0718 224.129 28.813 223.431 28.813C222.703 28.813 222.142 29.0864 221.746 29.6333C221.351 30.1802 221.153 30.9102 221.153 31.8232C221.153 32.7266 221.37 33.4175 221.805 33.896C222.244 34.3745 222.784 34.6138 223.423 34.6138C224.078 34.6138 224.607 34.3379 225.013 33.7861C225.423 33.2295 225.628 32.4946 225.628 31.5815ZM228.104 31.6108C228.104 30.1704 228.504 29.1035 229.305 28.4102C229.974 27.834 230.789 27.5459 231.751 27.5459C232.82 27.5459 233.694 27.8975 234.373 28.6006C235.052 29.2988 235.391 30.2656 235.391 31.501C235.391 32.502 235.24 33.2905 234.937 33.8667C234.639 34.438 234.202 34.8823 233.626 35.1997C233.055 35.5171 232.43 35.6758 231.751 35.6758C230.662 35.6758 229.781 35.3267 229.107 34.6284C228.438 33.9302 228.104 32.9243 228.104 31.6108ZM229.458 31.6108C229.458 32.6069 229.676 33.354 230.11 33.8521C230.545 34.3452 231.092 34.5918 231.751 34.5918C232.405 34.5918 232.95 34.3428 233.384 33.8447C233.819 33.3467 234.036 32.5874 234.036 31.5669C234.036 30.605 233.816 29.8774 233.377 29.3843C232.942 28.8862 232.4 28.6372 231.751 28.6372C231.092 28.6372 230.545 28.8838 230.11 29.377C229.676 29.8701 229.458 30.6147 229.458 31.6108ZM236.937 27.7217H238.255V31.0835C238.675 31.0835 238.968 31.0029 239.134 30.8418C239.305 30.6807 239.554 30.2119 239.881 29.4355C240.14 28.8203 240.35 28.415 240.511 28.2197C240.672 28.0244 240.857 27.8926 241.067 27.8242C241.277 27.7559 241.614 27.7217 242.078 27.7217H242.342V28.813L241.976 28.8057C241.629 28.8057 241.407 28.8569 241.309 28.9595C241.207 29.0669 241.05 29.3867 240.84 29.9189C240.64 30.4268 240.457 30.7783 240.291 30.9736C240.125 31.1689 239.869 31.3472 239.522 31.5083C240.088 31.6597 240.645 32.187 241.192 33.0903L242.635 35.5H241.185L239.778 33.0903C239.49 32.6069 239.239 32.2896 239.024 32.1382C238.809 31.9819 238.553 31.9038 238.255 31.9038V35.5H236.937V27.7217ZM248.758 32.6509L250.054 32.8193C249.913 33.7129 249.549 34.4136 248.963 34.9214C248.382 35.4243 247.667 35.6758 246.817 35.6758C245.752 35.6758 244.896 35.3291 244.246 34.6357C243.602 33.9375 243.279 32.939 243.279 31.6401C243.279 30.8003 243.418 30.0654 243.697 29.4355C243.975 28.8057 244.397 28.3345 244.964 28.022C245.535 27.7046 246.155 27.5459 246.824 27.5459C247.669 27.5459 248.36 27.7607 248.897 28.1904C249.434 28.6152 249.778 29.2207 249.93 30.0068L248.648 30.2046C248.526 29.6821 248.309 29.2891 247.996 29.0254C247.688 28.7617 247.315 28.6299 246.875 28.6299C246.211 28.6299 245.672 28.8691 245.257 29.3477C244.842 29.8213 244.634 30.5732 244.634 31.6035C244.634 32.6484 244.834 33.4077 245.235 33.8813C245.635 34.355 246.158 34.5918 246.802 34.5918C247.32 34.5918 247.752 34.4331 248.099 34.1157C248.445 33.7983 248.665 33.3101 248.758 32.6509ZM256.258 34.5405C255.77 34.9556 255.298 35.2485 254.844 35.4194C254.395 35.5903 253.912 35.6758 253.394 35.6758C252.54 35.6758 251.883 35.4683 251.424 35.0532C250.965 34.6333 250.735 34.0986 250.735 33.4492C250.735 33.0684 250.821 32.7217 250.992 32.4092C251.167 32.0918 251.395 31.8379 251.673 31.6475C251.956 31.457 252.273 31.313 252.625 31.2153C252.884 31.147 253.274 31.0811 253.797 31.0176C254.861 30.8906 255.645 30.7393 256.148 30.5635C256.153 30.3828 256.155 30.2681 256.155 30.2192C256.155 29.6821 256.031 29.3037 255.782 29.084C255.445 28.7861 254.944 28.6372 254.28 28.6372C253.66 28.6372 253.201 28.7471 252.903 28.9668C252.61 29.1816 252.393 29.5649 252.251 30.1167L250.962 29.9409C251.08 29.3892 251.272 28.9448 251.541 28.6079C251.81 28.2661 252.198 28.0049 252.706 27.8242C253.213 27.6387 253.802 27.5459 254.471 27.5459C255.135 27.5459 255.674 27.624 256.089 27.7803C256.504 27.9365 256.81 28.1343 257.005 28.3735C257.2 28.6079 257.337 28.9058 257.415 29.2671C257.459 29.4917 257.481 29.897 257.481 30.4829V32.2407C257.481 33.4663 257.508 34.2427 257.562 34.5698C257.62 34.8921 257.732 35.2021 257.898 35.5H256.521C256.385 35.2266 256.297 34.9067 256.258 34.5405ZM256.148 31.5962C255.669 31.7915 254.952 31.9575 253.995 32.0942C253.453 32.1724 253.069 32.2603 252.845 32.3579C252.62 32.4556 252.447 32.5996 252.325 32.79C252.203 32.9756 252.142 33.1831 252.142 33.4126C252.142 33.7642 252.273 34.0571 252.537 34.2915C252.806 34.5259 253.196 34.6431 253.709 34.6431C254.217 34.6431 254.668 34.5332 255.064 34.3135C255.459 34.0889 255.75 33.7837 255.936 33.3979C256.077 33.1001 256.148 32.6606 256.148 32.0796V31.5962Z" fill="#757575"/>
<rect x="349.5" y="20.5" width="19" height="19" rx="9.5" fill="white" stroke="#9B9B9B"/>
<path d="M381.725 30.2705C381.725 28.4883 382.204 27.0942 383.161 26.0884C384.118 25.0776 385.353 24.5723 386.867 24.5723C387.858 24.5723 388.751 24.8091 389.547 25.2827C390.343 25.7563 390.949 26.418 391.364 27.2676C391.784 28.1123 391.994 29.0718 391.994 30.146C391.994 31.2349 391.774 32.209 391.334 33.0684C390.895 33.9277 390.272 34.5796 389.467 35.0239C388.661 35.4634 387.792 35.6831 386.859 35.6831C385.849 35.6831 384.945 35.439 384.149 34.9507C383.354 34.4624 382.75 33.7959 382.34 32.9512C381.93 32.1064 381.725 31.2129 381.725 30.2705ZM383.19 30.2925C383.19 31.5864 383.537 32.6069 384.23 33.354C384.928 34.0962 385.802 34.4673 386.852 34.4673C387.921 34.4673 388.8 34.0913 389.489 33.3394C390.182 32.5874 390.529 31.5205 390.529 30.1387C390.529 29.2646 390.38 28.5029 390.082 27.8535C389.789 27.1992 389.357 26.6938 388.786 26.3374C388.219 25.9761 387.582 25.7954 386.874 25.7954C385.868 25.7954 385.001 26.1421 384.274 26.8354C383.551 27.5239 383.19 28.6763 383.19 30.2925ZM399.362 24.5063L400.526 24.521C400.473 25.0435 400.355 25.4072 400.175 25.6123C399.999 25.8174 399.77 25.9492 399.486 26.0078C399.208 26.0664 398.659 26.0957 397.838 26.0957C396.75 26.0957 396.007 26.2007 395.612 26.4106C395.216 26.6206 394.931 26.9575 394.755 27.4214C394.584 27.8804 394.489 28.4736 394.469 29.2012C394.801 28.708 395.189 28.3394 395.634 28.0952C396.078 27.8462 396.579 27.7217 397.135 27.7217C398.156 27.7217 399 28.0732 399.669 28.7764C400.338 29.4746 400.673 30.4219 400.673 31.6182C400.673 32.5264 400.504 33.271 400.167 33.8521C399.831 34.4331 399.43 34.8823 398.966 35.1997C398.507 35.5171 397.88 35.6758 397.084 35.6758C396.161 35.6758 395.443 35.4658 394.931 35.0459C394.418 34.6211 394.025 34.0791 393.751 33.4199C393.478 32.7607 393.341 31.6133 393.341 29.9775C393.341 27.9219 393.688 26.5376 394.381 25.8247C395.08 25.1118 396.151 24.7554 397.597 24.7554C398.495 24.7554 399.005 24.7407 399.127 24.7114C399.25 24.6821 399.328 24.6138 399.362 24.5063ZM399.296 31.5815C399.296 30.771 399.103 30.1069 398.717 29.5894C398.336 29.0718 397.797 28.813 397.099 28.813C396.371 28.813 395.81 29.0864 395.414 29.6333C395.019 30.1802 394.821 30.9102 394.821 31.8232C394.821 32.7266 395.038 33.4175 395.473 33.896C395.912 34.3745 396.452 34.6138 397.091 34.6138C397.746 34.6138 398.275 34.3379 398.681 33.7861C399.091 33.2295 399.296 32.4946 399.296 31.5815ZM409.667 27.7217H410.985V35.5H409.667V27.7217ZM402.292 27.7217H403.61V30.7612H405.28C406.369 30.7612 407.206 30.9736 407.792 31.3984C408.383 31.8184 408.678 32.3994 408.678 33.1416C408.678 33.791 408.432 34.3477 407.938 34.8115C407.45 35.2705 406.667 35.5 405.587 35.5H402.292V27.7217ZM403.61 34.416H404.994C405.829 34.416 406.425 34.3135 406.781 34.1084C407.138 33.9033 407.316 33.5835 407.316 33.1489C407.316 32.812 407.184 32.5117 406.92 32.248C406.657 31.9844 406.073 31.8525 405.17 31.8525H403.61V34.416ZM412.56 27.7217H413.878V29.1938C413.878 29.8286 413.915 30.29 413.988 30.5781C414.066 30.8613 414.25 31.1104 414.538 31.3252C414.826 31.5352 415.187 31.6401 415.622 31.6401C416.12 31.6401 416.764 31.5083 417.555 31.2446V27.7217H418.874V35.5H417.555V32.3652C416.745 32.6191 415.988 32.7461 415.285 32.7461C414.694 32.7461 414.171 32.5972 413.717 32.2993C413.268 31.9966 412.963 31.6279 412.802 31.1934C412.641 30.7588 412.56 30.2803 412.56 29.7578V27.7217ZM420.873 27.7217H422.191V30.959H425.846V27.7217H427.165V35.5H425.846V32.0503H422.191V35.5H420.873V27.7217ZM428.666 31.6108C428.666 30.1704 429.066 29.1035 429.867 28.4102C430.536 27.834 431.352 27.5459 432.313 27.5459C433.383 27.5459 434.257 27.8975 434.936 28.6006C435.614 29.2988 435.954 30.2656 435.954 31.501C435.954 32.502 435.802 33.2905 435.5 33.8667C435.202 34.438 434.765 34.8823 434.188 35.1997C433.617 35.5171 432.992 35.6758 432.313 35.6758C431.225 35.6758 430.343 35.3267 429.669 34.6284C429 33.9302 428.666 32.9243 428.666 31.6108ZM430.021 31.6108C430.021 32.6069 430.238 33.354 430.673 33.8521C431.107 34.3452 431.654 34.5918 432.313 34.5918C432.968 34.5918 433.512 34.3428 433.947 33.8447C434.381 33.3467 434.599 32.5874 434.599 31.5669C434.599 30.605 434.379 29.8774 433.939 29.3843C433.505 28.8862 432.963 28.6372 432.313 28.6372C431.654 28.6372 431.107 28.8838 430.673 29.377C430.238 29.8701 430.021 30.6147 430.021 31.6108ZM442.831 32.9951L444.193 33.1636C443.979 33.9595 443.581 34.5771 443 35.0166C442.418 35.4561 441.676 35.6758 440.773 35.6758C439.635 35.6758 438.732 35.3267 438.063 34.6284C437.399 33.9253 437.067 32.9414 437.067 31.6768C437.067 30.3682 437.404 29.3525 438.078 28.6299C438.751 27.9072 439.625 27.5459 440.7 27.5459C441.74 27.5459 442.589 27.8999 443.249 28.6079C443.908 29.3159 444.237 30.312 444.237 31.5962C444.237 31.6743 444.235 31.7915 444.23 31.9478H438.429C438.478 32.8022 438.72 33.4565 439.154 33.9106C439.589 34.3647 440.131 34.5918 440.78 34.5918C441.264 34.5918 441.676 34.4648 442.018 34.2109C442.36 33.957 442.631 33.5518 442.831 32.9951ZM438.502 30.8638H442.846C442.787 30.2095 442.621 29.7188 442.348 29.3916C441.928 28.8838 441.383 28.6299 440.714 28.6299C440.109 28.6299 439.599 28.8325 439.184 29.2378C438.773 29.6431 438.546 30.1851 438.502 30.8638ZM455.106 32.6509L456.403 32.8193C456.261 33.7129 455.897 34.4136 455.312 34.9214C454.73 35.4243 454.015 35.6758 453.166 35.6758C452.101 35.6758 451.244 35.3291 450.595 34.6357C449.95 33.9375 449.628 32.939 449.628 31.6401C449.628 30.8003 449.767 30.0654 450.045 29.4355C450.324 28.8057 450.746 28.3345 451.312 28.022C451.884 27.7046 452.504 27.5459 453.173 27.5459C454.018 27.5459 454.708 27.7607 455.246 28.1904C455.783 28.6152 456.127 29.2207 456.278 30.0068L454.997 30.2046C454.875 29.6821 454.657 29.2891 454.345 29.0254C454.037 28.7617 453.664 28.6299 453.224 28.6299C452.56 28.6299 452.021 28.8691 451.605 29.3477C451.19 29.8213 450.983 30.5732 450.983 31.6035C450.983 32.6484 451.183 33.4077 451.583 33.8813C451.984 34.355 452.506 34.5918 453.151 34.5918C453.668 34.5918 454.101 34.4331 454.447 34.1157C454.794 33.7983 455.014 33.3101 455.106 32.6509ZM457.216 31.6108C457.216 30.1704 457.616 29.1035 458.417 28.4102C459.086 27.834 459.901 27.5459 460.863 27.5459C461.933 27.5459 462.807 27.8975 463.485 28.6006C464.164 29.2988 464.503 30.2656 464.503 31.501C464.503 32.502 464.352 33.2905 464.049 33.8667C463.751 34.438 463.314 34.8823 462.738 35.1997C462.167 35.5171 461.542 35.6758 460.863 35.6758C459.774 35.6758 458.893 35.3267 458.219 34.6284C457.55 33.9302 457.216 32.9243 457.216 31.6108ZM458.571 31.6108C458.571 32.6069 458.788 33.354 459.223 33.8521C459.657 34.3452 460.204 34.5918 460.863 34.5918C461.518 34.5918 462.062 34.3428 462.497 33.8447C462.931 33.3467 463.148 32.5874 463.148 31.5669C463.148 30.605 462.929 29.8774 462.489 29.3843C462.055 28.8862 461.513 28.6372 460.863 28.6372C460.204 28.6372 459.657 28.8838 459.223 29.377C458.788 29.8701 458.571 30.6147 458.571 31.6108ZM471.132 32.6509L472.428 32.8193C472.287 33.7129 471.923 34.4136 471.337 34.9214C470.756 35.4243 470.041 35.6758 469.191 35.6758C468.126 35.6758 467.27 35.3291 466.62 34.6357C465.976 33.9375 465.653 32.939 465.653 31.6401C465.653 30.8003 465.792 30.0654 466.071 29.4355C466.349 28.8057 466.771 28.3345 467.338 28.022C467.909 27.7046 468.529 27.5459 469.198 27.5459C470.043 27.5459 470.734 27.7607 471.271 28.1904C471.808 28.6152 472.152 29.2207 472.304 30.0068L471.022 30.2046C470.9 29.6821 470.683 29.2891 470.37 29.0254C470.062 28.7617 469.689 28.6299 469.25 28.6299C468.585 28.6299 468.046 28.8691 467.631 29.3477C467.216 29.8213 467.008 30.5732 467.008 31.6035C467.008 32.6484 467.208 33.4077 467.609 33.8813C468.009 34.355 468.532 34.5918 469.176 34.5918C469.694 34.5918 470.126 34.4331 470.473 34.1157C470.819 33.7983 471.039 33.3101 471.132 32.6509ZM472.846 27.7217H479.167V28.813H476.662V35.5H475.351V28.813H472.846V27.7217ZM479.76 31.6108C479.76 30.1704 480.16 29.1035 480.961 28.4102C481.63 27.834 482.445 27.5459 483.407 27.5459C484.477 27.5459 485.351 27.8975 486.029 28.6006C486.708 29.2988 487.047 30.2656 487.047 31.501C487.047 32.502 486.896 33.2905 486.593 33.8667C486.295 34.438 485.858 34.8823 485.282 35.1997C484.711 35.5171 484.086 35.6758 483.407 35.6758C482.318 35.6758 481.437 35.3267 480.763 34.6284C480.094 33.9302 479.76 32.9243 479.76 31.6108ZM481.115 31.6108C481.115 32.6069 481.332 33.354 481.767 33.8521C482.201 34.3452 482.748 34.5918 483.407 34.5918C484.062 34.5918 484.606 34.3428 485.041 33.8447C485.475 33.3467 485.692 32.5874 485.692 31.5669C485.692 30.605 485.473 29.8774 485.033 29.3843C484.599 28.8862 484.057 28.6372 483.407 28.6372C482.748 28.6372 482.201 28.8838 481.767 29.377C481.332 29.8701 481.115 30.6147 481.115 31.6108ZM494.723 27.7217V35.5H493.412V32.4678H492.65C492.187 32.4678 491.84 32.5288 491.61 32.6509C491.386 32.7681 491.056 33.1514 490.622 33.8008L489.472 35.5H487.838L489.259 33.4053C489.694 32.7656 490.126 32.4043 490.556 32.3213C489.804 32.2188 489.245 31.9478 488.878 31.5083C488.517 31.0688 488.336 30.5635 488.336 29.9922C488.336 29.3184 488.573 28.7715 489.047 28.3516C489.525 27.9316 490.216 27.7217 491.12 27.7217H494.723ZM493.412 28.813H491.537C490.751 28.813 490.243 28.9351 490.014 29.1792C489.789 29.4233 489.677 29.709 489.677 30.0361C489.677 30.5 489.843 30.8418 490.175 31.0615C490.512 31.2764 491.105 31.3838 491.955 31.3838H493.412V28.813ZM496.737 27.7217H498.056V30.959H501.71V27.7217H503.029V35.5H501.71V32.0503H498.056V35.5H496.737V27.7217ZM505.021 27.7217H506.339V33.6543L509.994 27.7217H511.415V35.5H510.097V29.604L506.442 35.5H505.021V27.7217ZM518.725 32.9951L520.087 33.1636C519.872 33.9595 519.474 34.5771 518.893 35.0166C518.312 35.4561 517.57 35.6758 516.667 35.6758C515.529 35.6758 514.625 35.3267 513.957 34.6284C513.292 33.9253 512.96 32.9414 512.96 31.6768C512.96 30.3682 513.297 29.3525 513.971 28.6299C514.645 27.9072 515.519 27.5459 516.593 27.5459C517.633 27.5459 518.483 27.8999 519.142 28.6079C519.801 29.3159 520.131 30.312 520.131 31.5962C520.131 31.6743 520.128 31.7915 520.124 31.9478H514.323C514.372 32.8022 514.613 33.4565 515.048 33.9106C515.482 34.3647 516.024 34.5918 516.674 34.5918C517.157 34.5918 517.57 34.4648 517.912 34.2109C518.253 33.957 518.524 33.5518 518.725 32.9951ZM514.396 30.8638H518.739C518.681 30.2095 518.515 29.7188 518.241 29.3916C517.821 28.8838 517.277 28.6299 516.608 28.6299C516.002 28.6299 515.492 28.8325 515.077 29.2378C514.667 29.6431 514.44 30.1851 514.396 30.8638ZM525.924 38.481V27.7217H527.125V28.7324C527.409 28.3369 527.729 28.0415 528.085 27.8462C528.441 27.646 528.874 27.5459 529.381 27.5459C530.045 27.5459 530.631 27.7168 531.139 28.0586C531.647 28.4004 532.03 28.8838 532.289 29.5088C532.548 30.1289 532.677 30.8101 532.677 31.5522C532.677 32.3481 532.533 33.0659 532.245 33.7056C531.962 34.3403 531.547 34.8286 531 35.1704C530.458 35.5073 529.887 35.6758 529.286 35.6758C528.847 35.6758 528.451 35.583 528.1 35.3975C527.753 35.2119 527.467 34.9775 527.243 34.6943V38.481H525.924ZM527.118 31.6548C527.118 32.6558 527.321 33.3955 527.726 33.874C528.131 34.3525 528.622 34.5918 529.198 34.5918C529.784 34.5918 530.285 34.3452 530.7 33.8521C531.12 33.354 531.33 32.585 531.33 31.5449C531.33 30.5537 531.125 29.8115 530.714 29.3184C530.309 28.8252 529.823 28.5786 529.257 28.5786C528.695 28.5786 528.197 28.8423 527.763 29.3696C527.333 29.8921 527.118 30.6538 527.118 31.6548ZM539.35 34.5405C538.861 34.9556 538.39 35.2485 537.936 35.4194C537.487 35.5903 537.003 35.6758 536.486 35.6758C535.631 35.6758 534.975 35.4683 534.516 35.0532C534.057 34.6333 533.827 34.0986 533.827 33.4492C533.827 33.0684 533.913 32.7217 534.083 32.4092C534.259 32.0918 534.486 31.8379 534.765 31.6475C535.048 31.457 535.365 31.313 535.717 31.2153C535.976 31.147 536.366 31.0811 536.889 31.0176C537.953 30.8906 538.737 30.7393 539.24 30.5635C539.245 30.3828 539.247 30.2681 539.247 30.2192C539.247 29.6821 539.123 29.3037 538.874 29.084C538.537 28.7861 538.036 28.6372 537.372 28.6372C536.752 28.6372 536.293 28.7471 535.995 28.9668C535.702 29.1816 535.485 29.5649 535.343 30.1167L534.054 29.9409C534.171 29.3892 534.364 28.9448 534.633 28.6079C534.901 28.2661 535.29 28.0049 535.797 27.8242C536.305 27.6387 536.894 27.5459 537.562 27.5459C538.227 27.5459 538.766 27.624 539.181 27.7803C539.596 27.9365 539.901 28.1343 540.097 28.3735C540.292 28.6079 540.429 28.9058 540.507 29.2671C540.551 29.4917 540.573 29.897 540.573 30.4829V32.2407C540.573 33.4663 540.6 34.2427 540.653 34.5698C540.712 34.8921 540.824 35.2021 540.99 35.5H539.613C539.477 35.2266 539.389 34.9067 539.35 34.5405ZM539.24 31.5962C538.761 31.7915 538.043 31.9575 537.086 32.0942C536.544 32.1724 536.161 32.2603 535.937 32.3579C535.712 32.4556 535.539 32.5996 535.417 32.79C535.294 32.9756 535.233 33.1831 535.233 33.4126C535.233 33.7642 535.365 34.0571 535.629 34.2915C535.897 34.5259 536.288 34.6431 536.801 34.6431C537.309 34.6431 537.76 34.5332 538.156 34.3135C538.551 34.0889 538.842 33.7837 539.027 33.3979C539.169 33.1001 539.24 32.6606 539.24 32.0796V31.5962ZM543.664 27.7217H549.083V34.416H549.926V37.7046H548.842V35.5H542.719V37.7046H541.635V34.416H542.331C543.258 33.1562 543.703 30.9248 543.664 27.7217ZM544.762 28.813C544.665 31.3374 544.274 33.2051 543.59 34.416H547.772V28.813H544.762ZM551.383 27.7217H552.702V33.6543L556.356 27.7217H557.777V35.5H556.459V29.604L552.804 35.5H551.383V27.7217ZM559.271 31.6108C559.271 30.1704 559.672 29.1035 560.473 28.4102C561.142 27.834 561.957 27.5459 562.919 27.5459C563.988 27.5459 564.862 27.8975 565.541 28.6006C566.22 29.2988 566.559 30.2656 566.559 31.501C566.559 32.502 566.408 33.2905 566.105 33.8667C565.807 34.438 565.37 34.8823 564.794 35.1997C564.223 35.5171 563.598 35.6758 562.919 35.6758C561.83 35.6758 560.949 35.3267 560.275 34.6284C559.606 33.9302 559.271 32.9243 559.271 31.6108ZM560.626 31.6108C560.626 32.6069 560.844 33.354 561.278 33.8521C561.713 34.3452 562.26 34.5918 562.919 34.5918C563.573 34.5918 564.118 34.3428 564.552 33.8447C564.987 33.3467 565.204 32.5874 565.204 31.5669C565.204 30.605 564.984 29.8774 564.545 29.3843C564.11 28.8862 563.568 28.6372 562.919 28.6372C562.26 28.6372 561.713 28.8838 561.278 29.377C560.844 29.8701 560.626 30.6147 560.626 31.6108ZM568.104 27.7217H569.423V31.0835C569.843 31.0835 570.136 31.0029 570.302 30.8418C570.473 30.6807 570.722 30.2119 571.049 29.4355C571.308 28.8203 571.518 28.415 571.679 28.2197C571.84 28.0244 572.025 27.8926 572.235 27.8242C572.445 27.7559 572.782 27.7217 573.246 27.7217H573.51V28.813L573.144 28.8057C572.797 28.8057 572.575 28.8569 572.477 28.9595C572.375 29.0669 572.218 29.3867 572.008 29.9189C571.808 30.4268 571.625 30.7783 571.459 30.9736C571.293 31.1689 571.037 31.3472 570.69 31.5083C571.256 31.6597 571.813 32.187 572.36 33.0903L573.803 35.5H572.353L570.946 33.0903C570.658 32.6069 570.407 32.2896 570.192 32.1382C569.977 31.9819 569.721 31.9038 569.423 31.9038V35.5H568.104V27.7217ZM574.682 27.7217H576V30.959H579.655V27.7217H580.973V35.5H579.655V32.0503H576V35.5H574.682V27.7217ZM582.475 31.6108C582.475 30.1704 582.875 29.1035 583.676 28.4102C584.345 27.834 585.16 27.5459 586.122 27.5459C587.191 27.5459 588.065 27.8975 588.744 28.6006C589.423 29.2988 589.762 30.2656 589.762 31.501C589.762 32.502 589.611 33.2905 589.308 33.8667C589.01 34.438 588.573 34.8823 587.997 35.1997C587.426 35.5171 586.801 35.6758 586.122 35.6758C585.033 35.6758 584.152 35.3267 583.478 34.6284C582.809 33.9302 582.475 32.9243 582.475 31.6108ZM583.83 31.6108C583.83 32.6069 584.047 33.354 584.481 33.8521C584.916 34.3452 585.463 34.5918 586.122 34.5918C586.776 34.5918 587.321 34.3428 587.755 33.8447C588.19 33.3467 588.407 32.5874 588.407 31.5669C588.407 30.605 588.188 29.8774 587.748 29.3843C587.313 28.8862 586.771 28.6372 586.122 28.6372C585.463 28.6372 584.916 28.8838 584.481 29.377C584.047 29.8701 583.83 30.6147 583.83 31.6108ZM591.322 27.7217H597.46V35.5H596.142V28.813H592.641V35.5H591.322V27.7217ZM599.438 27.7217H600.756V31.0835C601.176 31.0835 601.469 31.0029 601.635 30.8418C601.806 30.6807 602.055 30.2119 602.382 29.4355C602.641 28.8203 602.851 28.415 603.012 28.2197C603.173 28.0244 603.358 27.8926 603.568 27.8242C603.778 27.7559 604.115 27.7217 604.579 27.7217H604.843V28.813L604.477 28.8057C604.13 28.8057 603.908 28.8569 603.81 28.9595C603.708 29.0669 603.551 29.3867 603.341 29.9189C603.141 30.4268 602.958 30.7783 602.792 30.9736C602.626 31.1689 602.37 31.3472 602.023 31.5083C602.589 31.6597 603.146 32.187 603.693 33.0903L605.136 35.5H603.686L602.279 33.0903C601.991 32.6069 601.74 32.2896 601.525 32.1382C601.31 31.9819 601.054 31.9038 600.756 31.9038V35.5H599.438V27.7217ZM611.42 34.5405C610.932 34.9556 610.46 35.2485 610.006 35.4194C609.557 35.5903 609.074 35.6758 608.556 35.6758C607.702 35.6758 607.045 35.4683 606.586 35.0532C606.127 34.6333 605.897 34.0986 605.897 33.4492C605.897 33.0684 605.983 32.7217 606.154 32.4092C606.33 32.0918 606.557 31.8379 606.835 31.6475C607.118 31.457 607.436 31.313 607.787 31.2153C608.046 31.147 608.437 31.0811 608.959 31.0176C610.023 30.8906 610.807 30.7393 611.31 30.5635C611.315 30.3828 611.317 30.2681 611.317 30.2192C611.317 29.6821 611.193 29.3037 610.944 29.084C610.607 28.7861 610.106 28.6372 609.442 28.6372C608.822 28.6372 608.363 28.7471 608.065 28.9668C607.772 29.1816 607.555 29.5649 607.414 30.1167L606.125 29.9409C606.242 29.3892 606.435 28.9448 606.703 28.6079C606.972 28.2661 607.36 28.0049 607.868 27.8242C608.375 27.6387 608.964 27.5459 609.633 27.5459C610.297 27.5459 610.836 27.624 611.251 27.7803C611.667 27.9365 611.972 28.1343 612.167 28.3735C612.362 28.6079 612.499 28.9058 612.577 29.2671C612.621 29.4917 612.643 29.897 612.643 30.4829V32.2407C612.643 33.4663 612.67 34.2427 612.724 34.5698C612.782 34.8921 612.895 35.2021 613.061 35.5H611.684C611.547 35.2266 611.459 34.9067 611.42 34.5405ZM611.31 31.5962C610.832 31.7915 610.114 31.9575 609.157 32.0942C608.615 32.1724 608.231 32.2603 608.007 32.3579C607.782 32.4556 607.609 32.5996 607.487 32.79C607.365 32.9756 607.304 33.1831 607.304 33.4126C607.304 33.7642 607.436 34.0571 607.699 34.2915C607.968 34.5259 608.358 34.6431 608.871 34.6431C609.379 34.6431 609.831 34.5332 610.226 34.3135C610.622 34.0889 610.912 33.7837 611.098 33.3979C611.239 33.1001 611.31 32.6606 611.31 32.0796V31.5962Z" fill="#757575"/>
<rect x="349.5" y="64.5" width="19" height="19" rx="9.5" fill="white" stroke="#9B9B9B"/>
<rect x="354" y="69" width="10" height="10" rx="5" fill="#009646"/>
<path d="M382.099 78V67.2627H386.127C386.947 67.2627 387.604 67.3726 388.097 67.5923C388.595 67.8071 388.983 68.1416 389.262 68.5957C389.545 69.0449 389.687 69.5161 389.687 70.0093C389.687 70.4683 389.562 70.9004 389.313 71.3057C389.064 71.7109 388.688 72.0381 388.185 72.2871C388.834 72.4775 389.333 72.8022 389.679 73.2612C390.031 73.7202 390.207 74.2622 390.207 74.8872C390.207 75.3901 390.099 75.8589 389.884 76.2935C389.674 76.7231 389.413 77.0552 389.101 77.2896C388.788 77.5239 388.395 77.7021 387.921 77.8242C387.453 77.9414 386.876 78 386.193 78H382.099ZM383.52 71.7744H385.841C386.471 71.7744 386.923 71.7329 387.196 71.6499C387.558 71.5425 387.829 71.3643 388.009 71.1152C388.195 70.8662 388.288 70.5537 388.288 70.1777C388.288 69.8213 388.202 69.5088 388.031 69.2402C387.86 68.9668 387.616 68.7812 387.299 68.6836C386.981 68.5811 386.437 68.5298 385.666 68.5298H383.52V71.7744ZM383.52 76.7329H386.193C386.652 76.7329 386.974 76.7158 387.16 76.6816C387.487 76.623 387.76 76.5254 387.98 76.3887C388.2 76.252 388.38 76.0542 388.522 75.7954C388.664 75.5317 388.734 75.229 388.734 74.8872C388.734 74.4868 388.632 74.1401 388.427 73.8472C388.222 73.5493 387.936 73.3418 387.57 73.2246C387.208 73.1025 386.686 73.0415 386.002 73.0415H383.52V76.7329ZM399.398 70.2217H400.717V78H399.398V70.2217ZM392.023 70.2217H393.341V73.2612H395.011C396.1 73.2612 396.938 73.4736 397.523 73.8984C398.114 74.3184 398.41 74.8994 398.41 75.6416C398.41 76.291 398.163 76.8477 397.67 77.3115C397.182 77.7705 396.398 78 395.319 78H392.023V70.2217ZM393.341 76.916H394.726C395.561 76.916 396.156 76.8135 396.513 76.6084C396.869 76.4033 397.047 76.0835 397.047 75.6489C397.047 75.312 396.916 75.0117 396.652 74.748C396.388 74.4844 395.805 74.3525 394.901 74.3525H393.341V76.916ZM408.473 67.0063L409.638 67.021C409.584 67.5435 409.467 67.9072 409.286 68.1123C409.11 68.3174 408.881 68.4492 408.598 68.5078C408.319 68.5664 407.77 68.5957 406.95 68.5957C405.861 68.5957 405.119 68.7007 404.723 68.9106C404.328 69.1206 404.042 69.4575 403.866 69.9214C403.695 70.3804 403.6 70.9736 403.581 71.7012C403.913 71.208 404.301 70.8394 404.745 70.5952C405.189 70.3462 405.69 70.2217 406.247 70.2217C407.267 70.2217 408.112 70.5732 408.781 71.2764C409.45 71.9746 409.784 72.9219 409.784 74.1182C409.784 75.0264 409.616 75.771 409.279 76.3521C408.942 76.9331 408.542 77.3823 408.078 77.6997C407.619 78.0171 406.991 78.1758 406.195 78.1758C405.272 78.1758 404.555 77.9658 404.042 77.5459C403.529 77.1211 403.136 76.5791 402.863 75.9199C402.589 75.2607 402.453 74.1133 402.453 72.4775C402.453 70.4219 402.799 69.0376 403.493 68.3247C404.191 67.6118 405.263 67.2554 406.708 67.2554C407.606 67.2554 408.117 67.2407 408.239 67.2114C408.361 67.1821 408.439 67.1138 408.473 67.0063ZM408.407 74.0815C408.407 73.271 408.214 72.6069 407.829 72.0894C407.448 71.5718 406.908 71.313 406.21 71.313C405.482 71.313 404.921 71.5864 404.525 72.1333C404.13 72.6802 403.932 73.4102 403.932 74.3232C403.932 75.2266 404.149 75.9175 404.584 76.396C405.023 76.8745 405.563 77.1138 406.203 77.1138C406.857 77.1138 407.387 76.8379 407.792 76.2861C408.202 75.7295 408.407 74.9946 408.407 74.0815ZM411.374 80.981V70.2217H412.575V71.2324C412.858 70.8369 413.178 70.5415 413.534 70.3462C413.891 70.146 414.323 70.0459 414.831 70.0459C415.495 70.0459 416.081 70.2168 416.588 70.5586C417.096 70.9004 417.479 71.3838 417.738 72.0088C417.997 72.6289 418.126 73.3101 418.126 74.0522C418.126 74.8481 417.982 75.5659 417.694 76.2056C417.411 76.8403 416.996 77.3286 416.449 77.6704C415.907 78.0073 415.336 78.1758 414.735 78.1758C414.296 78.1758 413.9 78.083 413.549 77.8975C413.202 77.7119 412.917 77.4775 412.692 77.1943V80.981H411.374ZM412.567 74.1548C412.567 75.1558 412.77 75.8955 413.175 76.374C413.581 76.8525 414.071 77.0918 414.647 77.0918C415.233 77.0918 415.734 76.8452 416.149 76.3521C416.569 75.854 416.779 75.085 416.779 74.0449C416.779 73.0537 416.574 72.3115 416.164 71.8184C415.758 71.3252 415.272 71.0786 414.706 71.0786C414.145 71.0786 413.646 71.3423 413.212 71.8696C412.782 72.3921 412.567 73.1538 412.567 74.1548ZM424.799 77.0405C424.311 77.4556 423.839 77.7485 423.385 77.9194C422.936 78.0903 422.453 78.1758 421.935 78.1758C421.081 78.1758 420.424 77.9683 419.965 77.5532C419.506 77.1333 419.276 76.5986 419.276 75.9492C419.276 75.5684 419.362 75.2217 419.533 74.9092C419.708 74.5918 419.936 74.3379 420.214 74.1475C420.497 73.957 420.814 73.813 421.166 73.7153C421.425 73.647 421.815 73.5811 422.338 73.5176C423.402 73.3906 424.186 73.2393 424.689 73.0635C424.694 72.8828 424.696 72.7681 424.696 72.7192C424.696 72.1821 424.572 71.8037 424.323 71.584C423.986 71.2861 423.485 71.1372 422.821 71.1372C422.201 71.1372 421.742 71.2471 421.444 71.4668C421.151 71.6816 420.934 72.0649 420.792 72.6167L419.503 72.4409C419.621 71.8892 419.813 71.4448 420.082 71.1079C420.351 70.7661 420.739 70.5049 421.247 70.3242C421.754 70.1387 422.343 70.0459 423.012 70.0459C423.676 70.0459 424.215 70.124 424.63 70.2803C425.045 70.4365 425.351 70.6343 425.546 70.8735C425.741 71.1079 425.878 71.4058 425.956 71.7671C426 71.9917 426.022 72.397 426.022 72.9829V74.7407C426.022 75.9663 426.049 76.7427 426.103 77.0698C426.161 77.3921 426.273 77.7021 426.439 78H425.062C424.926 77.7266 424.838 77.4067 424.799 77.0405ZM424.689 74.0962C424.21 74.2915 423.493 74.4575 422.536 74.5942C421.994 74.6724 421.61 74.7603 421.386 74.8579C421.161 74.9556 420.988 75.0996 420.866 75.29C420.744 75.4756 420.683 75.6831 420.683 75.9126C420.683 76.2642 420.814 76.5571 421.078 76.7915C421.347 77.0259 421.737 77.1431 422.25 77.1431C422.758 77.1431 423.209 77.0332 423.605 76.8135C424 76.5889 424.291 76.2837 424.477 75.8979C424.618 75.6001 424.689 75.1606 424.689 74.5796V74.0962ZM428.08 70.2217H429.398V73.459H433.053V70.2217H434.372V78H433.053V74.5503H429.398V78H428.08V70.2217ZM436.371 70.2217H437.689V73.459H441.344V70.2217H442.663V78H441.344V74.5503H437.689V78H436.371V70.2217ZM444.164 74.1108C444.164 72.6704 444.564 71.6035 445.365 70.9102C446.034 70.334 446.85 70.0459 447.812 70.0459C448.881 70.0459 449.755 70.3975 450.434 71.1006C451.112 71.7988 451.452 72.7656 451.452 74.001C451.452 75.002 451.3 75.7905 450.998 76.3667C450.7 76.938 450.263 77.3823 449.687 77.6997C449.115 78.0171 448.49 78.1758 447.812 78.1758C446.723 78.1758 445.841 77.8267 445.167 77.1284C444.499 76.4302 444.164 75.4243 444.164 74.1108ZM445.519 74.1108C445.519 75.1069 445.736 75.854 446.171 76.3521C446.605 76.8452 447.152 77.0918 447.812 77.0918C448.466 77.0918 449.01 76.8428 449.445 76.3447C449.879 75.8467 450.097 75.0874 450.097 74.0669C450.097 73.105 449.877 72.3774 449.438 71.8843C449.003 71.3862 448.461 71.1372 447.812 71.1372C447.152 71.1372 446.605 71.3838 446.171 71.877C445.736 72.3701 445.519 73.1147 445.519 74.1108ZM458.329 75.4951L459.691 75.6636C459.477 76.4595 459.079 77.0771 458.498 77.5166C457.917 77.9561 457.174 78.1758 456.271 78.1758C455.133 78.1758 454.23 77.8267 453.561 77.1284C452.897 76.4253 452.565 75.4414 452.565 74.1768C452.565 72.8682 452.902 71.8525 453.576 71.1299C454.25 70.4072 455.124 70.0459 456.198 70.0459C457.238 70.0459 458.087 70.3999 458.747 71.1079C459.406 71.8159 459.735 72.812 459.735 74.0962C459.735 74.1743 459.733 74.2915 459.728 74.4478H453.927C453.976 75.3022 454.218 75.9565 454.652 76.4106C455.087 76.8647 455.629 77.0918 456.278 77.0918C456.762 77.0918 457.174 76.9648 457.516 76.7109C457.858 76.457 458.129 76.0518 458.329 75.4951ZM454 73.3638H458.344C458.285 72.7095 458.119 72.2188 457.846 71.8916C457.426 71.3838 456.881 71.1299 456.212 71.1299C455.607 71.1299 455.097 71.3325 454.682 71.7378C454.271 72.1431 454.044 72.6851 454 73.3638ZM470.604 75.1509L471.901 75.3193C471.759 76.2129 471.396 76.9136 470.81 77.4214C470.229 77.9243 469.513 78.1758 468.664 78.1758C467.599 78.1758 466.742 77.8291 466.093 77.1357C465.448 76.4375 465.126 75.439 465.126 74.1401C465.126 73.3003 465.265 72.5654 465.543 71.9355C465.822 71.3057 466.244 70.8345 466.811 70.522C467.382 70.2046 468.002 70.0459 468.671 70.0459C469.516 70.0459 470.207 70.2607 470.744 70.6904C471.281 71.1152 471.625 71.7207 471.776 72.5068L470.495 72.7046C470.373 72.1821 470.155 71.7891 469.843 71.5254C469.535 71.2617 469.162 71.1299 468.722 71.1299C468.058 71.1299 467.519 71.3691 467.104 71.8477C466.688 72.3213 466.481 73.0732 466.481 74.1035C466.481 75.1484 466.681 75.9077 467.082 76.3813C467.482 76.855 468.004 77.0918 468.649 77.0918C469.167 77.0918 469.599 76.9331 469.945 76.6157C470.292 76.2983 470.512 75.8101 470.604 75.1509ZM472.714 74.1108C472.714 72.6704 473.114 71.6035 473.915 70.9102C474.584 70.334 475.399 70.0459 476.361 70.0459C477.431 70.0459 478.305 70.3975 478.983 71.1006C479.662 71.7988 480.001 72.7656 480.001 74.001C480.001 75.002 479.85 75.7905 479.547 76.3667C479.25 76.938 478.812 77.3823 478.236 77.6997C477.665 78.0171 477.04 78.1758 476.361 78.1758C475.272 78.1758 474.391 77.8267 473.717 77.1284C473.048 76.4302 472.714 75.4243 472.714 74.1108ZM474.069 74.1108C474.069 75.1069 474.286 75.854 474.721 76.3521C475.155 76.8452 475.702 77.0918 476.361 77.0918C477.016 77.0918 477.56 76.8428 477.995 76.3447C478.429 75.8467 478.646 75.0874 478.646 74.0669C478.646 73.105 478.427 72.3774 477.987 71.8843C477.553 71.3862 477.011 71.1372 476.361 71.1372C475.702 71.1372 475.155 71.3838 474.721 71.877C474.286 72.3701 474.069 73.1147 474.069 74.1108ZM486.63 75.1509L487.926 75.3193C487.785 76.2129 487.421 76.9136 486.835 77.4214C486.254 77.9243 485.539 78.1758 484.689 78.1758C483.625 78.1758 482.768 77.8291 482.118 77.1357C481.474 76.4375 481.151 75.439 481.151 74.1401C481.151 73.3003 481.291 72.5654 481.569 71.9355C481.847 71.3057 482.27 70.8345 482.836 70.522C483.407 70.2046 484.027 70.0459 484.696 70.0459C485.541 70.0459 486.232 70.2607 486.769 70.6904C487.306 71.1152 487.65 71.7207 487.802 72.5068L486.52 72.7046C486.398 72.1821 486.181 71.7891 485.868 71.5254C485.561 71.2617 485.187 71.1299 484.748 71.1299C484.083 71.1299 483.544 71.3691 483.129 71.8477C482.714 72.3213 482.506 73.0732 482.506 74.1035C482.506 75.1484 482.707 75.9077 483.107 76.3813C483.507 76.855 484.03 77.0918 484.674 77.0918C485.192 77.0918 485.624 76.9331 485.971 76.6157C486.317 76.2983 486.537 75.8101 486.63 75.1509ZM488.344 70.2217H494.665V71.313H492.16V78H490.849V71.313H488.344V70.2217ZM495.258 74.1108C495.258 72.6704 495.658 71.6035 496.459 70.9102C497.128 70.334 497.943 70.0459 498.905 70.0459C499.975 70.0459 500.849 70.3975 501.527 71.1006C502.206 71.7988 502.545 72.7656 502.545 74.001C502.545 75.002 502.394 75.7905 502.091 76.3667C501.793 76.938 501.356 77.3823 500.78 77.6997C500.209 78.0171 499.584 78.1758 498.905 78.1758C497.816 78.1758 496.935 77.8267 496.261 77.1284C495.592 76.4302 495.258 75.4243 495.258 74.1108ZM496.613 74.1108C496.613 75.1069 496.83 75.854 497.265 76.3521C497.699 76.8452 498.246 77.0918 498.905 77.0918C499.56 77.0918 500.104 76.8428 500.539 76.3447C500.973 75.8467 501.19 75.0874 501.19 74.0669C501.19 73.105 500.971 72.3774 500.531 71.8843C500.097 71.3862 499.555 71.1372 498.905 71.1372C498.246 71.1372 497.699 71.3838 497.265 71.877C496.83 72.3701 496.613 73.1147 496.613 74.1108ZM510.221 70.2217V78H508.91V74.9678H508.148C507.685 74.9678 507.338 75.0288 507.108 75.1509C506.884 75.2681 506.554 75.6514 506.12 76.3008L504.97 78H503.336L504.757 75.9053C505.192 75.2656 505.624 74.9043 506.054 74.8213C505.302 74.7188 504.743 74.4478 504.376 74.0083C504.015 73.5688 503.834 73.0635 503.834 72.4922C503.834 71.8184 504.071 71.2715 504.545 70.8516C505.023 70.4316 505.714 70.2217 506.618 70.2217H510.221ZM508.91 71.313H507.035C506.249 71.313 505.741 71.4351 505.512 71.6792C505.287 71.9233 505.175 72.209 505.175 72.5361C505.175 73 505.341 73.3418 505.673 73.5615C506.01 73.7764 506.603 73.8838 507.453 73.8838H508.91V71.313ZM512.235 70.2217H513.554V73.459H517.208V70.2217H518.527V78H517.208V74.5503H513.554V78H512.235V70.2217ZM520.519 70.2217H521.837V76.1543L525.492 70.2217H526.913V78H525.595V72.104L521.94 78H520.519V70.2217ZM534.223 75.4951L535.585 75.6636C535.37 76.4595 534.972 77.0771 534.391 77.5166C533.81 77.9561 533.068 78.1758 532.165 78.1758C531.027 78.1758 530.124 77.8267 529.455 77.1284C528.791 76.4253 528.458 75.4414 528.458 74.1768C528.458 72.8682 528.795 71.8525 529.469 71.1299C530.143 70.4072 531.017 70.0459 532.091 70.0459C533.131 70.0459 533.981 70.3999 534.64 71.1079C535.299 71.8159 535.629 72.812 535.629 74.0962C535.629 74.1743 535.626 74.2915 535.622 74.4478H529.821C529.87 75.3022 530.111 75.9565 530.546 76.4106C530.98 76.8647 531.522 77.0918 532.172 77.0918C532.655 77.0918 533.068 76.9648 533.41 76.7109C533.751 76.457 534.022 76.0518 534.223 75.4951ZM529.894 73.3638H534.237C534.179 72.7095 534.013 72.2188 533.739 71.8916C533.319 71.3838 532.775 71.1299 532.106 71.1299C531.5 71.1299 530.99 71.3325 530.575 71.7378C530.165 72.1431 529.938 72.6851 529.894 73.3638ZM541.422 80.981V70.2217H542.624V71.2324C542.907 70.8369 543.227 70.5415 543.583 70.3462C543.939 70.146 544.372 70.0459 544.879 70.0459C545.543 70.0459 546.129 70.2168 546.637 70.5586C547.145 70.9004 547.528 71.3838 547.787 72.0088C548.046 72.6289 548.175 73.3101 548.175 74.0522C548.175 74.8481 548.031 75.5659 547.743 76.2056C547.46 76.8403 547.045 77.3286 546.498 77.6704C545.956 78.0073 545.385 78.1758 544.784 78.1758C544.345 78.1758 543.949 78.083 543.598 77.8975C543.251 77.7119 542.965 77.4775 542.741 77.1943V80.981H541.422ZM542.616 74.1548C542.616 75.1558 542.819 75.8955 543.224 76.374C543.629 76.8525 544.12 77.0918 544.696 77.0918C545.282 77.0918 545.783 76.8452 546.198 76.3521C546.618 75.854 546.828 75.085 546.828 74.0449C546.828 73.0537 546.623 72.3115 546.212 71.8184C545.807 71.3252 545.321 71.0786 544.755 71.0786C544.193 71.0786 543.695 71.3423 543.261 71.8696C542.831 72.3921 542.616 73.1538 542.616 74.1548ZM554.848 77.0405C554.359 77.4556 553.888 77.7485 553.434 77.9194C552.985 78.0903 552.501 78.1758 551.984 78.1758C551.129 78.1758 550.473 77.9683 550.014 77.5532C549.555 77.1333 549.325 76.5986 549.325 75.9492C549.325 75.5684 549.411 75.2217 549.582 74.9092C549.757 74.5918 549.984 74.3379 550.263 74.1475C550.546 73.957 550.863 73.813 551.215 73.7153C551.474 73.647 551.864 73.5811 552.387 73.5176C553.451 73.3906 554.235 73.2393 554.738 73.0635C554.743 72.8828 554.745 72.7681 554.745 72.7192C554.745 72.1821 554.621 71.8037 554.372 71.584C554.035 71.2861 553.534 71.1372 552.87 71.1372C552.25 71.1372 551.791 71.2471 551.493 71.4668C551.2 71.6816 550.983 72.0649 550.841 72.6167L549.552 72.4409C549.669 71.8892 549.862 71.4448 550.131 71.1079C550.399 70.7661 550.788 70.5049 551.295 70.3242C551.803 70.1387 552.392 70.0459 553.061 70.0459C553.725 70.0459 554.264 70.124 554.679 70.2803C555.094 70.4365 555.399 70.6343 555.595 70.8735C555.79 71.1079 555.927 71.4058 556.005 71.7671C556.049 71.9917 556.071 72.397 556.071 72.9829V74.7407C556.071 75.9663 556.098 76.7427 556.151 77.0698C556.21 77.3921 556.322 77.7021 556.488 78H555.111C554.975 77.7266 554.887 77.4067 554.848 77.0405ZM554.738 74.0962C554.259 74.2915 553.542 74.4575 552.584 74.5942C552.042 74.6724 551.659 74.7603 551.435 74.8579C551.21 74.9556 551.037 75.0996 550.915 75.29C550.792 75.4756 550.731 75.6831 550.731 75.9126C550.731 76.2642 550.863 76.5571 551.127 76.7915C551.396 77.0259 551.786 77.1431 552.299 77.1431C552.807 77.1431 553.258 77.0332 553.654 76.8135C554.049 76.5889 554.34 76.2837 554.525 75.8979C554.667 75.6001 554.738 75.1606 554.738 74.5796V74.0962ZM559.162 70.2217H564.582V76.916H565.424V80.2046H564.34V78H558.217V80.2046H557.133V76.916H557.829C558.756 75.6562 559.201 73.4248 559.162 70.2217ZM560.26 71.313C560.163 73.8374 559.772 75.7051 559.088 76.916H563.271V71.313H560.26ZM566.881 70.2217H568.2V76.1543L571.854 70.2217H573.275V78H571.957V72.104L568.302 78H566.881V70.2217ZM574.77 74.1108C574.77 72.6704 575.17 71.6035 575.971 70.9102C576.64 70.334 577.455 70.0459 578.417 70.0459C579.486 70.0459 580.36 70.3975 581.039 71.1006C581.718 71.7988 582.057 72.7656 582.057 74.001C582.057 75.002 581.906 75.7905 581.603 76.3667C581.305 76.938 580.868 77.3823 580.292 77.6997C579.721 78.0171 579.096 78.1758 578.417 78.1758C577.328 78.1758 576.447 77.8267 575.773 77.1284C575.104 76.4302 574.77 75.4243 574.77 74.1108ZM576.125 74.1108C576.125 75.1069 576.342 75.854 576.776 76.3521C577.211 76.8452 577.758 77.0918 578.417 77.0918C579.071 77.0918 579.616 76.8428 580.05 76.3447C580.485 75.8467 580.702 75.0874 580.702 74.0669C580.702 73.105 580.482 72.3774 580.043 71.8843C579.608 71.3862 579.066 71.1372 578.417 71.1372C577.758 71.1372 577.211 71.3838 576.776 71.877C576.342 72.3701 576.125 73.1147 576.125 74.1108ZM583.603 70.2217H584.921V73.5835C585.341 73.5835 585.634 73.5029 585.8 73.3418C585.971 73.1807 586.22 72.7119 586.547 71.9355C586.806 71.3203 587.016 70.915 587.177 70.7197C587.338 70.5244 587.523 70.3926 587.733 70.3242C587.943 70.2559 588.28 70.2217 588.744 70.2217H589.008V71.313L588.642 71.3057C588.295 71.3057 588.073 71.3569 587.975 71.4595C587.873 71.5669 587.716 71.8867 587.506 72.4189C587.306 72.9268 587.123 73.2783 586.957 73.4736C586.791 73.6689 586.535 73.8472 586.188 74.0083C586.754 74.1597 587.311 74.687 587.858 75.5903L589.301 78H587.851L586.444 75.5903C586.156 75.1069 585.905 74.7896 585.69 74.6382C585.475 74.4819 585.219 74.4038 584.921 74.4038V78H583.603V70.2217ZM590.18 70.2217H591.498V73.459H595.153V70.2217H596.471V78H595.153V74.5503H591.498V78H590.18V70.2217ZM597.973 74.1108C597.973 72.6704 598.373 71.6035 599.174 70.9102C599.843 70.334 600.658 70.0459 601.62 70.0459C602.689 70.0459 603.563 70.3975 604.242 71.1006C604.921 71.7988 605.26 72.7656 605.26 74.001C605.26 75.002 605.109 75.7905 604.806 76.3667C604.508 76.938 604.071 77.3823 603.495 77.6997C602.924 78.0171 602.299 78.1758 601.62 78.1758C600.531 78.1758 599.65 77.8267 598.976 77.1284C598.307 76.4302 597.973 75.4243 597.973 74.1108ZM599.328 74.1108C599.328 75.1069 599.545 75.854 599.979 76.3521C600.414 76.8452 600.961 77.0918 601.62 77.0918C602.274 77.0918 602.819 76.8428 603.253 76.3447C603.688 75.8467 603.905 75.0874 603.905 74.0669C603.905 73.105 603.686 72.3774 603.246 71.8843C602.812 71.3862 602.27 71.1372 601.62 71.1372C600.961 71.1372 600.414 71.3838 599.979 71.877C599.545 72.3701 599.328 73.1147 599.328 74.1108ZM606.82 70.2217H612.958V78H611.64V71.313H608.139V78H606.82V70.2217ZM614.936 70.2217H616.254V73.5835C616.674 73.5835 616.967 73.5029 617.133 73.3418C617.304 73.1807 617.553 72.7119 617.88 71.9355C618.139 71.3203 618.349 70.915 618.51 70.7197C618.671 70.5244 618.856 70.3926 619.066 70.3242C619.276 70.2559 619.613 70.2217 620.077 70.2217H620.341V71.313L619.975 71.3057C619.628 71.3057 619.406 71.3569 619.308 71.4595C619.206 71.5669 619.049 71.8867 618.839 72.4189C618.639 72.9268 618.456 73.2783 618.29 73.4736C618.124 73.6689 617.868 73.8472 617.521 74.0083C618.087 74.1597 618.644 74.687 619.191 75.5903L620.634 78H619.184L617.777 75.5903C617.489 75.1069 617.238 74.7896 617.023 74.6382C616.808 74.4819 616.552 74.4038 616.254 74.4038V78H614.936V70.2217ZM626.918 77.0405C626.43 77.4556 625.958 77.7485 625.504 77.9194C625.055 78.0903 624.572 78.1758 624.054 78.1758C623.2 78.1758 622.543 77.9683 622.084 77.5532C621.625 77.1333 621.396 76.5986 621.396 75.9492C621.396 75.5684 621.481 75.2217 621.652 74.9092C621.828 74.5918 622.055 74.3379 622.333 74.1475C622.616 73.957 622.934 73.813 623.285 73.7153C623.544 73.647 623.935 73.5811 624.457 73.5176C625.521 73.3906 626.305 73.2393 626.808 73.0635C626.813 72.8828 626.815 72.7681 626.815 72.7192C626.815 72.1821 626.691 71.8037 626.442 71.584C626.105 71.2861 625.604 71.1372 624.94 71.1372C624.32 71.1372 623.861 71.2471 623.563 71.4668C623.271 71.6816 623.053 72.0649 622.912 72.6167L621.623 72.4409C621.74 71.8892 621.933 71.4448 622.201 71.1079C622.47 70.7661 622.858 70.5049 623.366 70.3242C623.874 70.1387 624.462 70.0459 625.131 70.0459C625.795 70.0459 626.334 70.124 626.75 70.2803C627.165 70.4365 627.47 70.6343 627.665 70.8735C627.86 71.1079 627.997 71.4058 628.075 71.7671C628.119 71.9917 628.141 72.397 628.141 72.9829V74.7407C628.141 75.9663 628.168 76.7427 628.222 77.0698C628.28 77.3921 628.393 77.7021 628.559 78H627.182C627.045 77.7266 626.957 77.4067 626.918 77.0405ZM626.808 74.0962C626.33 74.2915 625.612 74.4575 624.655 74.5942C624.113 74.6724 623.729 74.7603 623.505 74.8579C623.28 74.9556 623.107 75.0996 622.985 75.29C622.863 75.4756 622.802 75.6831 622.802 75.9126C622.802 76.2642 622.934 76.5571 623.197 76.7915C623.466 77.0259 623.856 77.1431 624.369 77.1431C624.877 77.1431 625.329 77.0332 625.724 76.8135C626.12 76.5889 626.41 76.2837 626.596 75.8979C626.737 75.6001 626.808 75.1606 626.808 74.5796V74.0962Z" fill="#757575"/>
<rect x="20.5" y="64.5" width="19" height="19" rx="1.5" fill="white" stroke="#9B9B9B"/>
<path fill-rule="evenodd" clip-rule="evenodd" d="M38 69.6337L28.3656 80L22 74.064L23.8915 72.3002L28.2257 76.3419L35.9786 68L38 69.6337Z" fill="#009646"/>
<path d="M53.0986 79.5V68.7627H57.127C57.9473 68.7627 58.604 68.8726 59.0972 69.0923C59.5952 69.3071 59.9834 69.6416 60.2617 70.0957C60.5449 70.5449 60.6865 71.0161 60.6865 71.5093C60.6865 71.9683 60.562 72.4004 60.313 72.8057C60.064 73.2109 59.688 73.5381 59.1851 73.7871C59.8345 73.9775 60.3325 74.3022 60.6792 74.7612C61.0308 75.2202 61.2065 75.7622 61.2065 76.3872C61.2065 76.8901 61.0991 77.3589 60.8843 77.7935C60.6743 78.2231 60.4131 78.5552 60.1006 78.7896C59.7881 79.0239 59.395 79.2021 58.9214 79.3242C58.4526 79.4414 57.8765 79.5 57.1929 79.5H53.0986ZM54.5195 73.2744H56.8413C57.4712 73.2744 57.9229 73.2329 58.1963 73.1499C58.5576 73.0425 58.8286 72.8643 59.0093 72.6152C59.1948 72.3662 59.2876 72.0537 59.2876 71.6777C59.2876 71.3213 59.2021 71.0088 59.0312 70.7402C58.8604 70.4668 58.6162 70.2812 58.2988 70.1836C57.9814 70.0811 57.437 70.0298 56.6655 70.0298H54.5195V73.2744ZM54.5195 78.2329H57.1929C57.6519 78.2329 57.9741 78.2158 58.1597 78.1816C58.4868 78.123 58.7603 78.0254 58.98 77.8887C59.1997 77.752 59.3804 77.5542 59.522 77.2954C59.6636 77.0317 59.7344 76.729 59.7344 76.3872C59.7344 75.9868 59.6318 75.6401 59.4268 75.3472C59.2217 75.0493 58.936 74.8418 58.5698 74.7246C58.2085 74.6025 57.686 74.5415 57.0024 74.5415H54.5195V78.2329ZM70.3984 71.7217H71.7168V79.5H70.3984V71.7217ZM63.0229 71.7217H64.3413V74.7612H66.0112C67.1001 74.7612 67.9375 74.9736 68.5234 75.3984C69.1143 75.8184 69.4097 76.3994 69.4097 77.1416C69.4097 77.791 69.1631 78.3477 68.6699 78.8115C68.1816 79.2705 67.3979 79.5 66.3188 79.5H63.0229V71.7217ZM64.3413 78.416H65.7256C66.5605 78.416 67.1562 78.3135 67.5127 78.1084C67.8691 77.9033 68.0474 77.5835 68.0474 77.1489C68.0474 76.812 67.9155 76.5117 67.6519 76.248C67.3882 75.9844 66.8047 75.8525 65.9014 75.8525H64.3413V78.416ZM79.4731 68.5063L80.6377 68.521C80.584 69.0435 80.4668 69.4072 80.2861 69.6123C80.1104 69.8174 79.8809 69.9492 79.5977 70.0078C79.3193 70.0664 78.77 70.0957 77.9497 70.0957C76.8608 70.0957 76.1187 70.2007 75.7231 70.4106C75.3276 70.6206 75.042 70.9575 74.8662 71.4214C74.6953 71.8804 74.6001 72.4736 74.5806 73.2012C74.9126 72.708 75.3008 72.3394 75.7451 72.0952C76.1895 71.8462 76.6899 71.7217 77.2466 71.7217C78.2671 71.7217 79.1118 72.0732 79.7808 72.7764C80.4497 73.4746 80.7842 74.4219 80.7842 75.6182C80.7842 76.5264 80.6157 77.271 80.2788 77.8521C79.9419 78.4331 79.5415 78.8823 79.0776 79.1997C78.6187 79.5171 77.9912 79.6758 77.1953 79.6758C76.2725 79.6758 75.5547 79.4658 75.042 79.0459C74.5293 78.6211 74.1362 78.0791 73.8628 77.4199C73.5894 76.7607 73.4526 75.6133 73.4526 73.9775C73.4526 71.9219 73.7993 70.5376 74.4927 69.8247C75.1909 69.1118 76.2627 68.7554 77.708 68.7554C78.6064 68.7554 79.1167 68.7407 79.2388 68.7114C79.3608 68.6821 79.439 68.6138 79.4731 68.5063ZM79.4072 75.5815C79.4072 74.771 79.2144 74.1069 78.8286 73.5894C78.4478 73.0718 77.9082 72.813 77.21 72.813C76.4824 72.813 75.9209 73.0864 75.5254 73.6333C75.1299 74.1802 74.9321 74.9102 74.9321 75.8232C74.9321 76.7266 75.1494 77.4175 75.584 77.896C76.0234 78.3745 76.563 78.6138 77.2026 78.6138C77.8569 78.6138 78.3867 78.3379 78.792 77.7861C79.2021 77.2295 79.4072 76.4946 79.4072 75.5815ZM82.3735 82.481V71.7217H83.5747V72.7324C83.8579 72.3369 84.1777 72.0415 84.5342 71.8462C84.8906 71.646 85.3228 71.5459 85.8306 71.5459C86.4946 71.5459 87.0806 71.7168 87.5884 72.0586C88.0962 72.4004 88.4795 72.8838 88.7383 73.5088C88.9971 74.1289 89.1265 74.8101 89.1265 75.5522C89.1265 76.3481 88.9824 77.0659 88.6943 77.7056C88.4111 78.3403 87.9961 78.8286 87.4492 79.1704C86.9072 79.5073 86.3359 79.6758 85.7354 79.6758C85.2959 79.6758 84.9004 79.583 84.5488 79.3975C84.2021 79.2119 83.9165 78.9775 83.6919 78.6943V82.481H82.3735ZM83.5674 75.6548C83.5674 76.6558 83.77 77.3955 84.1753 77.874C84.5806 78.3525 85.0713 78.5918 85.6475 78.5918C86.2334 78.5918 86.7339 78.3452 87.1489 77.8521C87.5688 77.354 87.7788 76.585 87.7788 75.5449C87.7788 74.5537 87.5737 73.8115 87.1636 73.3184C86.7583 72.8252 86.2725 72.5786 85.7061 72.5786C85.1445 72.5786 84.6465 72.8423 84.2119 73.3696C83.7822 73.8921 83.5674 74.6538 83.5674 75.6548ZM95.7988 78.5405C95.3105 78.9556 94.8394 79.2485 94.3853 79.4194C93.936 79.5903 93.4526 79.6758 92.9351 79.6758C92.0806 79.6758 91.4238 79.4683 90.9648 79.0532C90.5059 78.6333 90.2764 78.0986 90.2764 77.4492C90.2764 77.0684 90.3618 76.7217 90.5327 76.4092C90.7085 76.0918 90.9355 75.8379 91.2139 75.6475C91.4971 75.457 91.8145 75.313 92.166 75.2153C92.4248 75.147 92.8154 75.0811 93.3379 75.0176C94.4023 74.8906 95.186 74.7393 95.689 74.5635C95.6938 74.3828 95.6963 74.2681 95.6963 74.2192C95.6963 73.6821 95.5718 73.3037 95.3228 73.084C94.9858 72.7861 94.4854 72.6372 93.8213 72.6372C93.2012 72.6372 92.7422 72.7471 92.4443 72.9668C92.1514 73.1816 91.9341 73.5649 91.7925 74.1167L90.5034 73.9409C90.6206 73.3892 90.8135 72.9448 91.082 72.6079C91.3506 72.2661 91.7388 72.0049 92.2466 71.8242C92.7544 71.6387 93.3428 71.5459 94.0117 71.5459C94.6758 71.5459 95.2153 71.624 95.6304 71.7803C96.0454 71.9365 96.3506 72.1343 96.5459 72.3735C96.7412 72.6079 96.8779 72.9058 96.9561 73.2671C97 73.4917 97.022 73.897 97.022 74.4829V76.2407C97.022 77.4663 97.0488 78.2427 97.1025 78.5698C97.1611 78.8921 97.2734 79.2021 97.4395 79.5H96.0625C95.9258 79.2266 95.8379 78.9067 95.7988 78.5405ZM95.689 75.5962C95.2104 75.7915 94.4927 75.9575 93.5356 76.0942C92.9937 76.1724 92.6104 76.2603 92.3857 76.3579C92.1611 76.4556 91.9878 76.5996 91.8657 76.79C91.7437 76.9756 91.6826 77.1831 91.6826 77.4126C91.6826 77.7642 91.8145 78.0571 92.0781 78.2915C92.3467 78.5259 92.7373 78.6431 93.25 78.6431C93.7578 78.6431 94.2095 78.5332 94.605 78.3135C95.0005 78.0889 95.291 77.7837 95.4766 77.3979C95.6182 77.1001 95.689 76.6606 95.689 76.0796V75.5962ZM99.0801 71.7217H100.398V74.959H104.053V71.7217H105.372V79.5H104.053V76.0503H100.398V79.5H99.0801V71.7217ZM107.371 71.7217H108.689V74.959H112.344V71.7217H113.663V79.5H112.344V76.0503H108.689V79.5H107.371V71.7217ZM115.164 75.6108C115.164 74.1704 115.564 73.1035 116.365 72.4102C117.034 71.834 117.85 71.5459 118.812 71.5459C119.881 71.5459 120.755 71.8975 121.434 72.6006C122.112 73.2988 122.452 74.2656 122.452 75.501C122.452 76.502 122.3 77.2905 121.998 77.8667C121.7 78.438 121.263 78.8823 120.687 79.1997C120.115 79.5171 119.49 79.6758 118.812 79.6758C117.723 79.6758 116.841 79.3267 116.167 78.6284C115.499 77.9302 115.164 76.9243 115.164 75.6108ZM116.519 75.6108C116.519 76.6069 116.736 77.354 117.171 77.8521C117.605 78.3452 118.152 78.5918 118.812 78.5918C119.466 78.5918 120.01 78.3428 120.445 77.8447C120.879 77.3467 121.097 76.5874 121.097 75.5669C121.097 74.605 120.877 73.8774 120.438 73.3843C120.003 72.8862 119.461 72.6372 118.812 72.6372C118.152 72.6372 117.605 72.8838 117.171 73.377C116.736 73.8701 116.519 74.6147 116.519 75.6108ZM129.329 76.9951L130.691 77.1636C130.477 77.9595 130.079 78.5771 129.498 79.0166C128.917 79.4561 128.174 79.6758 127.271 79.6758C126.133 79.6758 125.23 79.3267 124.561 78.6284C123.897 77.9253 123.565 76.9414 123.565 75.6768C123.565 74.3682 123.902 73.3525 124.576 72.6299C125.25 71.9072 126.124 71.5459 127.198 71.5459C128.238 71.5459 129.087 71.8999 129.747 72.6079C130.406 73.3159 130.735 74.312 130.735 75.5962C130.735 75.6743 130.733 75.7915 130.728 75.9478H124.927C124.976 76.8022 125.218 77.4565 125.652 77.9106C126.087 78.3647 126.629 78.5918 127.278 78.5918C127.762 78.5918 128.174 78.4648 128.516 78.2109C128.858 77.957 129.129 77.5518 129.329 76.9951ZM125 74.8638H129.344C129.285 74.2095 129.119 73.7188 128.846 73.3916C128.426 72.8838 127.881 72.6299 127.212 72.6299C126.607 72.6299 126.097 72.8325 125.682 73.2378C125.271 73.6431 125.044 74.1851 125 74.8638ZM141.604 76.6509L142.901 76.8193C142.759 77.7129 142.396 78.4136 141.81 78.9214C141.229 79.4243 140.513 79.6758 139.664 79.6758C138.599 79.6758 137.742 79.3291 137.093 78.6357C136.448 77.9375 136.126 76.939 136.126 75.6401C136.126 74.8003 136.265 74.0654 136.543 73.4355C136.822 72.8057 137.244 72.3345 137.811 72.022C138.382 71.7046 139.002 71.5459 139.671 71.5459C140.516 71.5459 141.207 71.7607 141.744 72.1904C142.281 72.6152 142.625 73.2207 142.776 74.0068L141.495 74.2046C141.373 73.6821 141.155 73.2891 140.843 73.0254C140.535 72.7617 140.162 72.6299 139.722 72.6299C139.058 72.6299 138.519 72.8691 138.104 73.3477C137.688 73.8213 137.481 74.5732 137.481 75.6035C137.481 76.6484 137.681 77.4077 138.082 77.8813C138.482 78.355 139.004 78.5918 139.649 78.5918C140.167 78.5918 140.599 78.4331 140.945 78.1157C141.292 77.7983 141.512 77.3101 141.604 76.6509ZM143.714 75.6108C143.714 74.1704 144.114 73.1035 144.915 72.4102C145.584 71.834 146.399 71.5459 147.361 71.5459C148.431 71.5459 149.305 71.8975 149.983 72.6006C150.662 73.2988 151.001 74.2656 151.001 75.501C151.001 76.502 150.85 77.2905 150.547 77.8667C150.25 78.438 149.812 78.8823 149.236 79.1997C148.665 79.5171 148.04 79.6758 147.361 79.6758C146.272 79.6758 145.391 79.3267 144.717 78.6284C144.048 77.9302 143.714 76.9243 143.714 75.6108ZM145.069 75.6108C145.069 76.6069 145.286 77.354 145.721 77.8521C146.155 78.3452 146.702 78.5918 147.361 78.5918C148.016 78.5918 148.56 78.3428 148.995 77.8447C149.429 77.3467 149.646 76.5874 149.646 75.5669C149.646 74.605 149.427 73.8774 148.987 73.3843C148.553 72.8862 148.011 72.6372 147.361 72.6372C146.702 72.6372 146.155 72.8838 145.721 73.377C145.286 73.8701 145.069 74.6147 145.069 75.6108ZM157.63 76.6509L158.926 76.8193C158.785 77.7129 158.421 78.4136 157.835 78.9214C157.254 79.4243 156.539 79.6758 155.689 79.6758C154.625 79.6758 153.768 79.3291 153.118 78.6357C152.474 77.9375 152.151 76.939 152.151 75.6401C152.151 74.8003 152.291 74.0654 152.569 73.4355C152.847 72.8057 153.27 72.3345 153.836 72.022C154.407 71.7046 155.027 71.5459 155.696 71.5459C156.541 71.5459 157.232 71.7607 157.769 72.1904C158.306 72.6152 158.65 73.2207 158.802 74.0068L157.52 74.2046C157.398 73.6821 157.181 73.2891 156.868 73.0254C156.561 72.7617 156.187 72.6299 155.748 72.6299C155.083 72.6299 154.544 72.8691 154.129 73.3477C153.714 73.8213 153.506 74.5732 153.506 75.6035C153.506 76.6484 153.707 77.4077 154.107 77.8813C154.507 78.355 155.03 78.5918 155.674 78.5918C156.192 78.5918 156.624 78.4331 156.971 78.1157C157.317 77.7983 157.537 77.3101 157.63 76.6509ZM159.344 71.7217H165.665V72.813H163.16V79.5H161.849V72.813H159.344V71.7217ZM166.258 75.6108C166.258 74.1704 166.658 73.1035 167.459 72.4102C168.128 71.834 168.943 71.5459 169.905 71.5459C170.975 71.5459 171.849 71.8975 172.527 72.6006C173.206 73.2988 173.545 74.2656 173.545 75.501C173.545 76.502 173.394 77.2905 173.091 77.8667C172.793 78.438 172.356 78.8823 171.78 79.1997C171.209 79.5171 170.584 79.6758 169.905 79.6758C168.816 79.6758 167.935 79.3267 167.261 78.6284C166.592 77.9302 166.258 76.9243 166.258 75.6108ZM167.613 75.6108C167.613 76.6069 167.83 77.354 168.265 77.8521C168.699 78.3452 169.246 78.5918 169.905 78.5918C170.56 78.5918 171.104 78.3428 171.539 77.8447C171.973 77.3467 172.19 76.5874 172.19 75.5669C172.19 74.605 171.971 73.8774 171.531 73.3843C171.097 72.8862 170.555 72.6372 169.905 72.6372C169.246 72.6372 168.699 72.8838 168.265 73.377C167.83 73.8701 167.613 74.6147 167.613 75.6108ZM181.221 71.7217V79.5H179.91V76.4678H179.148C178.685 76.4678 178.338 76.5288 178.108 76.6509C177.884 76.7681 177.554 77.1514 177.12 77.8008L175.97 79.5H174.336L175.757 77.4053C176.192 76.7656 176.624 76.4043 177.054 76.3213C176.302 76.2188 175.743 75.9478 175.376 75.5083C175.015 75.0688 174.834 74.5635 174.834 73.9922C174.834 73.3184 175.071 72.7715 175.545 72.3516C176.023 71.9316 176.714 71.7217 177.618 71.7217H181.221ZM179.91 72.813H178.035C177.249 72.813 176.741 72.9351 176.512 73.1792C176.287 73.4233 176.175 73.709 176.175 74.0361C176.175 74.5 176.341 74.8418 176.673 75.0615C177.01 75.2764 177.603 75.3838 178.453 75.3838H179.91V72.813ZM183.235 71.7217H184.554V74.959H188.208V71.7217H189.527V79.5H188.208V76.0503H184.554V79.5H183.235V71.7217ZM191.519 71.7217H192.837V77.6543L196.492 71.7217H197.913V79.5H196.595V73.604L192.94 79.5H191.519V71.7217ZM205.223 76.9951L206.585 77.1636C206.37 77.9595 205.972 78.5771 205.391 79.0166C204.81 79.4561 204.068 79.6758 203.165 79.6758C202.027 79.6758 201.124 79.3267 200.455 78.6284C199.791 77.9253 199.458 76.9414 199.458 75.6768C199.458 74.3682 199.795 73.3525 200.469 72.6299C201.143 71.9072 202.017 71.5459 203.091 71.5459C204.131 71.5459 204.981 71.8999 205.64 72.6079C206.299 73.3159 206.629 74.312 206.629 75.5962C206.629 75.6743 206.626 75.7915 206.622 75.9478H200.821C200.87 76.8022 201.111 77.4565 201.546 77.9106C201.98 78.3647 202.522 78.5918 203.172 78.5918C203.655 78.5918 204.068 78.4648 204.41 78.2109C204.751 77.957 205.022 77.5518 205.223 76.9951ZM200.894 74.8638H205.237C205.179 74.2095 205.013 73.7188 204.739 73.3916C204.319 72.8838 203.775 72.6299 203.106 72.6299C202.5 72.6299 201.99 72.8325 201.575 73.2378C201.165 73.6431 200.938 74.1851 200.894 74.8638ZM211.939 71.7217H213.257V73.1938C213.257 73.8286 213.294 74.29 213.367 74.5781C213.445 74.8613 213.628 75.1104 213.917 75.3252C214.205 75.5352 214.566 75.6401 215 75.6401C215.499 75.6401 216.143 75.5083 216.934 75.2446V71.7217H218.252V79.5H216.934V76.3652C216.124 76.6191 215.367 76.7461 214.664 76.7461C214.073 76.7461 213.55 76.5972 213.096 76.2993C212.647 75.9966 212.342 75.6279 212.181 75.1934C212.02 74.7588 211.939 74.2803 211.939 73.7578V71.7217ZM225.569 76.9951L226.932 77.1636C226.717 77.9595 226.319 78.5771 225.738 79.0166C225.157 79.4561 224.415 79.6758 223.511 79.6758C222.374 79.6758 221.47 79.3267 220.801 78.6284C220.137 77.9253 219.805 76.9414 219.805 75.6768C219.805 74.3682 220.142 73.3525 220.816 72.6299C221.49 71.9072 222.364 71.5459 223.438 71.5459C224.478 71.5459 225.328 71.8999 225.987 72.6079C226.646 73.3159 226.976 74.312 226.976 75.5962C226.976 75.6743 226.973 75.7915 226.968 75.9478H221.167C221.216 76.8022 221.458 77.4565 221.893 77.9106C222.327 78.3647 222.869 78.5918 223.519 78.5918C224.002 78.5918 224.415 78.4648 224.756 78.2109C225.098 77.957 225.369 77.5518 225.569 76.9951ZM221.241 74.8638H225.584C225.525 74.2095 225.359 73.7188 225.086 73.3916C224.666 72.8838 224.122 72.6299 223.453 72.6299C222.847 72.6299 222.337 72.8325 221.922 73.2378C221.512 73.6431 221.285 74.1851 221.241 74.8638ZM228.587 71.7217H229.905V75.0835C230.325 75.0835 230.618 75.0029 230.784 74.8418C230.955 74.6807 231.204 74.2119 231.531 73.4355C231.79 72.8203 232 72.415 232.161 72.2197C232.322 72.0244 232.508 71.8926 232.718 71.8242C232.928 71.7559 233.265 71.7217 233.729 71.7217H233.992V72.813L233.626 72.8057C233.279 72.8057 233.057 72.8569 232.959 72.9595C232.857 73.0669 232.701 73.3867 232.491 73.9189C232.291 74.4268 232.107 74.7783 231.941 74.9736C231.775 75.1689 231.519 75.3472 231.172 75.5083C231.739 75.6597 232.295 76.187 232.842 77.0903L234.285 79.5H232.835L231.429 77.0903C231.141 76.6069 230.889 76.2896 230.674 76.1382C230.459 75.9819 230.203 75.9038 229.905 75.9038V79.5H228.587V71.7217ZM241.192 68.5063L242.356 68.521C242.303 69.0435 242.186 69.4072 242.005 69.6123C241.829 69.8174 241.6 69.9492 241.316 70.0078C241.038 70.0664 240.489 70.0957 239.668 70.0957C238.58 70.0957 237.837 70.2007 237.442 70.4106C237.046 70.6206 236.761 70.9575 236.585 71.4214C236.414 71.8804 236.319 72.4736 236.299 73.2012C236.631 72.708 237.02 72.3394 237.464 72.0952C237.908 71.8462 238.409 71.7217 238.965 71.7217C239.986 71.7217 240.831 72.0732 241.5 72.7764C242.168 73.4746 242.503 74.4219 242.503 75.6182C242.503 76.5264 242.334 77.271 241.998 77.8521C241.661 78.4331 241.26 78.8823 240.796 79.1997C240.337 79.5171 239.71 79.6758 238.914 79.6758C237.991 79.6758 237.273 79.4658 236.761 79.0459C236.248 78.6211 235.855 78.0791 235.582 77.4199C235.308 76.7607 235.171 75.6133 235.171 73.9775C235.171 71.9219 235.518 70.5376 236.211 69.8247C236.91 69.1118 237.981 68.7554 239.427 68.7554C240.325 68.7554 240.835 68.7407 240.958 68.7114C241.08 68.6821 241.158 68.6138 241.192 68.5063ZM241.126 75.5815C241.126 74.771 240.933 74.1069 240.547 73.5894C240.167 73.0718 239.627 72.813 238.929 72.813C238.201 72.813 237.64 73.0864 237.244 73.6333C236.849 74.1802 236.651 74.9102 236.651 75.8232C236.651 76.7266 236.868 77.4175 237.303 77.896C237.742 78.3745 238.282 78.6138 238.921 78.6138C239.576 78.6138 240.105 78.3379 240.511 77.7861C240.921 77.2295 241.126 76.4946 241.126 75.5815ZM243.602 75.6108C243.602 74.1704 244.002 73.1035 244.803 72.4102C245.472 71.834 246.287 71.5459 247.249 71.5459C248.318 71.5459 249.192 71.8975 249.871 72.6006C250.55 73.2988 250.889 74.2656 250.889 75.501C250.889 76.502 250.738 77.2905 250.435 77.8667C250.137 78.438 249.7 78.8823 249.124 79.1997C248.553 79.5171 247.928 79.6758 247.249 79.6758C246.16 79.6758 245.279 79.3267 244.605 78.6284C243.936 77.9302 243.602 76.9243 243.602 75.6108ZM244.957 75.6108C244.957 76.6069 245.174 77.354 245.608 77.8521C246.043 78.3452 246.59 78.5918 247.249 78.5918C247.903 78.5918 248.448 78.3428 248.882 77.8447C249.317 77.3467 249.534 76.5874 249.534 75.5669C249.534 74.605 249.314 73.8774 248.875 73.3843C248.44 72.8862 247.898 72.6372 247.249 72.6372C246.59 72.6372 246.043 72.8838 245.608 73.377C245.174 73.8701 244.957 74.6147 244.957 75.6108ZM252.435 71.7217H253.753V75.0835C254.173 75.0835 254.466 75.0029 254.632 74.8418C254.803 74.6807 255.052 74.2119 255.379 73.4355C255.638 72.8203 255.848 72.415 256.009 72.2197C256.17 72.0244 256.355 71.8926 256.565 71.8242C256.775 71.7559 257.112 71.7217 257.576 71.7217H257.84V72.813L257.474 72.8057C257.127 72.8057 256.905 72.8569 256.807 72.9595C256.705 73.0669 256.548 73.3867 256.338 73.9189C256.138 74.4268 255.955 74.7783 255.789 74.9736C255.623 75.1689 255.367 75.3472 255.02 75.5083C255.586 75.6597 256.143 76.187 256.69 77.0903L258.133 79.5H256.683L255.276 77.0903C254.988 76.6069 254.737 76.2896 254.522 76.1382C254.307 75.9819 254.051 75.9038 253.753 75.9038V79.5H252.435V71.7217ZM264.256 76.6509L265.552 76.8193C265.411 77.7129 265.047 78.4136 264.461 78.9214C263.88 79.4243 263.165 79.6758 262.315 79.6758C261.25 79.6758 260.394 79.3291 259.744 78.6357C259.1 77.9375 258.777 76.939 258.777 75.6401C258.777 74.8003 258.917 74.0654 259.195 73.4355C259.473 72.8057 259.896 72.3345 260.462 72.022C261.033 71.7046 261.653 71.5459 262.322 71.5459C263.167 71.5459 263.858 71.7607 264.395 72.1904C264.932 72.6152 265.276 73.2207 265.428 74.0068L264.146 74.2046C264.024 73.6821 263.807 73.2891 263.494 73.0254C263.187 72.7617 262.813 72.6299 262.374 72.6299C261.709 72.6299 261.17 72.8691 260.755 73.3477C260.34 73.8213 260.132 74.5732 260.132 75.6035C260.132 76.6484 260.333 77.4077 260.733 77.8813C261.133 78.355 261.656 78.5918 262.3 78.5918C262.818 78.5918 263.25 78.4331 263.597 78.1157C263.943 77.7983 264.163 77.3101 264.256 76.6509ZM271.756 78.5405C271.268 78.9556 270.796 79.2485 270.342 79.4194C269.893 79.5903 269.41 79.6758 268.892 79.6758C268.038 79.6758 267.381 79.4683 266.922 79.0532C266.463 78.6333 266.233 78.0986 266.233 77.4492C266.233 77.0684 266.319 76.7217 266.49 76.4092C266.666 76.0918 266.893 75.8379 267.171 75.6475C267.454 75.457 267.771 75.313 268.123 75.2153C268.382 75.147 268.772 75.0811 269.295 75.0176C270.359 74.8906 271.143 74.7393 271.646 74.5635C271.651 74.3828 271.653 74.2681 271.653 74.2192C271.653 73.6821 271.529 73.3037 271.28 73.084C270.943 72.7861 270.442 72.6372 269.778 72.6372C269.158 72.6372 268.699 72.7471 268.401 72.9668C268.108 73.1816 267.891 73.5649 267.75 74.1167L266.46 73.9409C266.578 73.3892 266.771 72.9448 267.039 72.6079C267.308 72.2661 267.696 72.0049 268.204 71.8242C268.711 71.6387 269.3 71.5459 269.969 71.5459C270.633 71.5459 271.172 71.624 271.587 71.7803C272.002 71.9365 272.308 72.1343 272.503 72.3735C272.698 72.6079 272.835 72.9058 272.913 73.2671C272.957 73.4917 272.979 73.897 272.979 74.4829V76.2407C272.979 77.4663 273.006 78.2427 273.06 78.5698C273.118 78.8921 273.23 79.2021 273.396 79.5H272.02C271.883 79.2266 271.795 78.9067 271.756 78.5405ZM271.646 75.5962C271.167 75.7915 270.45 75.9575 269.493 76.0942C268.951 76.1724 268.567 76.2603 268.343 76.3579C268.118 76.4556 267.945 76.5996 267.823 76.79C267.701 76.9756 267.64 77.1831 267.64 77.4126C267.64 77.7642 267.771 78.0571 268.035 78.2915C268.304 78.5259 268.694 78.6431 269.207 78.6431C269.715 78.6431 270.167 78.5332 270.562 78.3135C270.958 78.0889 271.248 77.7837 271.434 77.3979C271.575 77.1001 271.646 76.6606 271.646 76.0796V75.5962Z" fill="#757575"/>
</svg>
