<svg width="266" height="165" viewBox="0 0 266 165" fill="none" xmlns="http://www.w3.org/2000/svg">
<g clip-path="url(#clip0_225_535)" filter="url(#filter0_d_225_535)">
<rect x="6.5" y="32.5" width="253" height="122" fill="white" stroke="#9B9B9B"/>
<rect x="8" y="123" width="250" height="30" fill="#F3DB13"/>
<path d="M24.1719 71.2627H32.6167V82H31.1885V72.5298H25.5928V82H24.1719V71.2627ZM35.4146 74.2217H41.5376V82H40.2266V75.313H36.7329V79.1875C36.7329 80.0908 36.7036 80.6865 36.645 80.9746C36.5864 81.2627 36.4253 81.5142 36.1616 81.729C35.8979 81.9438 35.5171 82.0513 35.019 82.0513C34.7114 82.0513 34.3574 82.0317 33.957 81.9927V80.894H34.5356C34.8091 80.894 35.0044 80.8672 35.1216 80.8135C35.2388 80.7549 35.3169 80.6646 35.356 80.5425C35.395 80.4204 35.4146 80.0225 35.4146 79.3486V74.2217ZM48.6055 81.0405C48.1172 81.4556 47.646 81.7485 47.1919 81.9194C46.7427 82.0903 46.2593 82.1758 45.7417 82.1758C44.8872 82.1758 44.2305 81.9683 43.7715 81.5532C43.3125 81.1333 43.083 80.5986 43.083 79.9492C43.083 79.5684 43.1685 79.2217 43.3394 78.9092C43.5151 78.5918 43.7422 78.3379 44.0205 78.1475C44.3037 77.957 44.6211 77.813 44.9727 77.7153C45.2314 77.647 45.6221 77.5811 46.1445 77.5176C47.209 77.3906 47.9927 77.2393 48.4956 77.0635C48.5005 76.8828 48.5029 76.7681 48.5029 76.7192C48.5029 76.1821 48.3784 75.8037 48.1294 75.584C47.7925 75.2861 47.292 75.1372 46.6279 75.1372C46.0078 75.1372 45.5488 75.2471 45.251 75.4668C44.958 75.6816 44.7407 76.0649 44.5991 76.6167L43.3101 76.4409C43.4272 75.8892 43.6201 75.4448 43.8887 75.1079C44.1572 74.7661 44.5454 74.5049 45.0532 74.3242C45.561 74.1387 46.1494 74.0459 46.8184 74.0459C47.4824 74.0459 48.022 74.124 48.437 74.2803C48.8521 74.4365 49.1572 74.6343 49.3525 74.8735C49.5479 75.1079 49.6846 75.4058 49.7627 75.7671C49.8066 75.9917 49.8286 76.397 49.8286 76.9829V78.7407C49.8286 79.9663 49.8555 80.7427 49.9092 81.0698C49.9678 81.3921 50.0801 81.7021 50.2461 82H48.8691C48.7324 81.7266 48.6445 81.4067 48.6055 81.0405ZM48.4956 78.0962C48.0171 78.2915 47.2993 78.4575 46.3423 78.5942C45.8003 78.6724 45.417 78.7603 45.1924 78.8579C44.9678 78.9556 44.7944 79.0996 44.6724 79.29C44.5503 79.4756 44.4893 79.6831 44.4893 79.9126C44.4893 80.2642 44.6211 80.5571 44.8848 80.7915C45.1533 81.0259 45.5439 81.1431 46.0566 81.1431C46.5645 81.1431 47.0161 81.0332 47.4116 80.8135C47.8071 80.5889 48.0977 80.2837 48.2832 79.8979C48.4248 79.6001 48.4956 79.1606 48.4956 78.5796V78.0962ZM51.8867 74.2217H53.2051V77.459H56.8599V74.2217H58.1782V82H56.8599V78.5503H53.2051V82H51.8867V74.2217ZM59.6797 78.1108C59.6797 76.6704 60.0801 75.6035 60.8809 74.9102C61.5498 74.334 62.3652 74.0459 63.3271 74.0459C64.3965 74.0459 65.2705 74.3975 65.9492 75.1006C66.6279 75.7988 66.9673 76.7656 66.9673 78.001C66.9673 79.002 66.8159 79.7905 66.5132 80.3667C66.2153 80.938 65.7783 81.3823 65.2021 81.6997C64.6309 82.0171 64.0059 82.1758 63.3271 82.1758C62.2383 82.1758 61.3569 81.8267 60.6831 81.1284C60.0142 80.4302 59.6797 79.4243 59.6797 78.1108ZM61.0347 78.1108C61.0347 79.1069 61.252 79.854 61.6865 80.3521C62.1211 80.8452 62.668 81.0918 63.3271 81.0918C63.9814 81.0918 64.5259 80.8428 64.9604 80.3447C65.395 79.8467 65.6123 79.0874 65.6123 78.0669C65.6123 77.105 65.3926 76.3774 64.9531 75.8843C64.5186 75.3862 63.9766 75.1372 63.3271 75.1372C62.668 75.1372 62.1211 75.3838 61.6865 75.877C61.252 76.3701 61.0347 77.1147 61.0347 78.1108ZM68.5273 74.2217H71.5669C72.314 74.2217 72.8682 74.2852 73.2295 74.4121C73.5957 74.5342 73.9082 74.7612 74.167 75.0933C74.4307 75.4253 74.5625 75.8232 74.5625 76.2871C74.5625 76.6582 74.4844 76.9829 74.3281 77.2612C74.1768 77.5347 73.9473 77.7642 73.6396 77.9497C74.0059 78.0718 74.3086 78.3013 74.5479 78.6382C74.792 78.9702 74.9141 79.3657 74.9141 79.8247C74.8652 80.562 74.6016 81.1089 74.123 81.4653C73.6445 81.8218 72.9487 82 72.0356 82H68.5273V74.2217ZM69.8457 77.4956H71.252C71.8135 77.4956 72.1992 77.4663 72.4092 77.4077C72.6191 77.3491 72.8071 77.2319 72.9731 77.0562C73.1392 76.8755 73.2222 76.6606 73.2222 76.4116C73.2222 76.0015 73.0757 75.7158 72.7827 75.5547C72.4946 75.3936 71.999 75.313 71.2959 75.313H69.8457V77.4956ZM69.8457 80.916H71.5815C72.3286 80.916 72.8413 80.8306 73.1196 80.6597C73.3979 80.4839 73.5444 80.1836 73.5591 79.7588C73.5591 79.5098 73.4785 79.2803 73.3174 79.0703C73.1562 78.8555 72.9463 78.7212 72.6875 78.6675C72.4287 78.6089 72.0137 78.5796 71.4424 78.5796H69.8457V80.916ZM83.8936 74.2217H85.2119V82H83.8936V74.2217ZM76.5181 74.2217H77.8364V77.2612H79.5063C80.5952 77.2612 81.4326 77.4736 82.0186 77.8984C82.6094 78.3184 82.9048 78.8994 82.9048 79.6416C82.9048 80.291 82.6582 80.8477 82.165 81.3115C81.6768 81.7705 80.8931 82 79.814 82H76.5181V74.2217ZM77.8364 80.916H79.2207C80.0557 80.916 80.6514 80.8135 81.0078 80.6084C81.3643 80.4033 81.5425 80.0835 81.5425 79.6489C81.5425 79.312 81.4106 79.0117 81.147 78.748C80.8833 78.4844 80.2998 78.3525 79.3965 78.3525H77.8364V80.916ZM92.5947 79.4951L93.957 79.6636C93.7422 80.4595 93.3442 81.0771 92.7632 81.5166C92.1821 81.9561 91.4399 82.1758 90.5366 82.1758C89.3989 82.1758 88.4956 81.8267 87.8267 81.1284C87.1626 80.4253 86.8306 79.4414 86.8306 78.1768C86.8306 76.8682 87.1675 75.8525 87.8413 75.1299C88.5151 74.4072 89.3892 74.0459 90.4634 74.0459C91.5034 74.0459 92.353 74.3999 93.0122 75.1079C93.6714 75.8159 94.001 76.812 94.001 78.0962C94.001 78.1743 93.9985 78.2915 93.9937 78.4478H88.1929C88.2417 79.3022 88.4834 79.9565 88.918 80.4106C89.3525 80.8647 89.8945 81.0918 90.5439 81.0918C91.0273 81.0918 91.4399 80.9648 91.7817 80.7109C92.1235 80.457 92.3945 80.0518 92.5947 79.4951ZM88.2661 77.3638H92.6094C92.5508 76.7095 92.3848 76.2188 92.1113 75.8916C91.6914 75.3838 91.147 75.1299 90.478 75.1299C89.8726 75.1299 89.3623 75.3325 88.9473 75.7378C88.5371 76.1431 88.3101 76.6851 88.2661 77.3638ZM99.7944 84.981V74.2217H100.996V75.2324C101.279 74.8369 101.599 74.5415 101.955 74.3462C102.312 74.146 102.744 74.0459 103.251 74.0459C103.916 74.0459 104.501 74.2168 105.009 74.5586C105.517 74.9004 105.9 75.3838 106.159 76.0088C106.418 76.6289 106.547 77.3101 106.547 78.0522C106.547 78.8481 106.403 79.5659 106.115 80.2056C105.832 80.8403 105.417 81.3286 104.87 81.6704C104.328 82.0073 103.757 82.1758 103.156 82.1758C102.717 82.1758 102.321 82.083 101.97 81.8975C101.623 81.7119 101.337 81.4775 101.113 81.1943V84.981H99.7944ZM100.988 78.1548C100.988 79.1558 101.191 79.8955 101.596 80.374C102.001 80.8525 102.492 81.0918 103.068 81.0918C103.654 81.0918 104.155 80.8452 104.57 80.3521C104.99 79.854 105.2 79.085 105.2 78.0449C105.2 77.0537 104.995 76.3115 104.584 75.8184C104.179 75.3252 103.693 75.0786 103.127 75.0786C102.565 75.0786 102.067 75.3423 101.633 75.8696C101.203 76.3921 100.988 77.1538 100.988 78.1548ZM113.22 81.0405C112.731 81.4556 112.26 81.7485 111.806 81.9194C111.357 82.0903 110.874 82.1758 110.356 82.1758C109.501 82.1758 108.845 81.9683 108.386 81.5532C107.927 81.1333 107.697 80.5986 107.697 79.9492C107.697 79.5684 107.783 79.2217 107.954 78.9092C108.129 78.5918 108.356 78.3379 108.635 78.1475C108.918 77.957 109.235 77.813 109.587 77.7153C109.846 77.647 110.236 77.5811 110.759 77.5176C111.823 77.3906 112.607 77.2393 113.11 77.0635C113.115 76.8828 113.117 76.7681 113.117 76.7192C113.117 76.1821 112.993 75.8037 112.744 75.584C112.407 75.2861 111.906 75.1372 111.242 75.1372C110.622 75.1372 110.163 75.2471 109.865 75.4668C109.572 75.6816 109.355 76.0649 109.213 76.6167L107.924 76.4409C108.042 75.8892 108.234 75.4448 108.503 75.1079C108.771 74.7661 109.16 74.5049 109.667 74.3242C110.175 74.1387 110.764 74.0459 111.433 74.0459C112.097 74.0459 112.636 74.124 113.051 74.2803C113.466 74.4365 113.771 74.6343 113.967 74.8735C114.162 75.1079 114.299 75.4058 114.377 75.7671C114.421 75.9917 114.443 76.397 114.443 76.9829V78.7407C114.443 79.9663 114.47 80.7427 114.523 81.0698C114.582 81.3921 114.694 81.7021 114.86 82H113.483C113.347 81.7266 113.259 81.4067 113.22 81.0405ZM113.11 78.0962C112.631 78.2915 111.914 78.4575 110.957 78.5942C110.415 78.6724 110.031 78.7603 109.807 78.8579C109.582 78.9556 109.409 79.0996 109.287 79.29C109.165 79.4756 109.104 79.6831 109.104 79.9126C109.104 80.2642 109.235 80.5571 109.499 80.7915C109.768 81.0259 110.158 81.1431 110.671 81.1431C111.179 81.1431 111.63 81.0332 112.026 80.8135C112.421 80.5889 112.712 80.2837 112.897 79.8979C113.039 79.6001 113.11 79.1606 113.11 78.5796V78.0962ZM122.192 71.0063L123.356 71.021C123.303 71.5435 123.186 71.9072 123.005 72.1123C122.829 72.3174 122.6 72.4492 122.316 72.5078C122.038 72.5664 121.489 72.5957 120.668 72.5957C119.58 72.5957 118.837 72.7007 118.442 72.9106C118.046 73.1206 117.761 73.4575 117.585 73.9214C117.414 74.3804 117.319 74.9736 117.299 75.7012C117.631 75.208 118.02 74.8394 118.464 74.5952C118.908 74.3462 119.409 74.2217 119.965 74.2217C120.986 74.2217 121.831 74.5732 122.5 75.2764C123.168 75.9746 123.503 76.9219 123.503 78.1182C123.503 79.0264 123.334 79.771 122.998 80.3521C122.661 80.9331 122.26 81.3823 121.796 81.6997C121.337 82.0171 120.71 82.1758 119.914 82.1758C118.991 82.1758 118.273 81.9658 117.761 81.5459C117.248 81.1211 116.855 80.5791 116.582 79.9199C116.308 79.2607 116.171 78.1133 116.171 76.4775C116.171 74.4219 116.518 73.0376 117.211 72.3247C117.91 71.6118 118.981 71.2554 120.427 71.2554C121.325 71.2554 121.835 71.2407 121.958 71.2114C122.08 71.1821 122.158 71.1138 122.192 71.0063ZM122.126 78.0815C122.126 77.271 121.933 76.6069 121.547 76.0894C121.167 75.5718 120.627 75.313 119.929 75.313C119.201 75.313 118.64 75.5864 118.244 76.1333C117.849 76.6802 117.651 77.4102 117.651 78.3232C117.651 79.2266 117.868 79.9175 118.303 80.396C118.742 80.8745 119.282 81.1138 119.921 81.1138C120.576 81.1138 121.105 80.8379 121.511 80.2861C121.921 79.7295 122.126 78.9946 122.126 78.0815ZM124.602 78.1108C124.602 76.6704 125.002 75.6035 125.803 74.9102C126.472 74.334 127.287 74.0459 128.249 74.0459C129.318 74.0459 130.192 74.3975 130.871 75.1006C131.55 75.7988 131.889 76.7656 131.889 78.001C131.889 79.002 131.738 79.7905 131.435 80.3667C131.137 80.938 130.7 81.3823 130.124 81.6997C129.553 82.0171 128.928 82.1758 128.249 82.1758C127.16 82.1758 126.279 81.8267 125.605 81.1284C124.936 80.4302 124.602 79.4243 124.602 78.1108ZM125.957 78.1108C125.957 79.1069 126.174 79.854 126.608 80.3521C127.043 80.8452 127.59 81.0918 128.249 81.0918C128.903 81.0918 129.448 80.8428 129.882 80.3447C130.317 79.8467 130.534 79.0874 130.534 78.0669C130.534 77.105 130.314 76.3774 129.875 75.8843C129.44 75.3862 128.898 75.1372 128.249 75.1372C127.59 75.1372 127.043 75.3838 126.608 75.877C126.174 76.3701 125.957 77.1147 125.957 78.1108ZM132.395 74.2217H138.715V75.313H136.21V82H134.899V75.313H132.395V74.2217ZM147.38 74.2217H148.698V82H147.38V74.2217ZM140.004 74.2217H141.323V77.2612H142.993C144.082 77.2612 144.919 77.4736 145.505 77.8984C146.096 78.3184 146.391 78.8994 146.391 79.6416C146.391 80.291 146.145 80.8477 145.651 81.3115C145.163 81.7705 144.379 82 143.3 82H140.004V74.2217ZM141.323 80.916H142.707C143.542 80.916 144.138 80.8135 144.494 80.6084C144.851 80.4033 145.029 80.0835 145.029 79.6489C145.029 79.312 144.897 79.0117 144.633 78.748C144.37 78.4844 143.786 78.3525 142.883 78.3525H141.323V80.916Z" fill="#4A4A4A"/>
<path d="M24.1719 101.263H32.6167V112H31.1885V102.53H25.5928V112H24.1719V101.263ZM35.4146 104.222H41.5376V112H40.2266V105.313H36.7329V109.188C36.7329 110.091 36.7036 110.687 36.645 110.975C36.5864 111.263 36.4253 111.514 36.1616 111.729C35.8979 111.944 35.5171 112.051 35.019 112.051C34.7114 112.051 34.3574 112.032 33.957 111.993V110.894H34.5356C34.8091 110.894 35.0044 110.867 35.1216 110.813C35.2388 110.755 35.3169 110.665 35.356 110.542C35.395 110.42 35.4146 110.022 35.4146 109.349V104.222ZM48.6055 111.041C48.1172 111.456 47.646 111.749 47.1919 111.919C46.7427 112.09 46.2593 112.176 45.7417 112.176C44.8872 112.176 44.2305 111.968 43.7715 111.553C43.3125 111.133 43.083 110.599 43.083 109.949C43.083 109.568 43.1685 109.222 43.3394 108.909C43.5151 108.592 43.7422 108.338 44.0205 108.147C44.3037 107.957 44.6211 107.813 44.9727 107.715C45.2314 107.647 45.6221 107.581 46.1445 107.518C47.209 107.391 47.9927 107.239 48.4956 107.063C48.5005 106.883 48.5029 106.768 48.5029 106.719C48.5029 106.182 48.3784 105.804 48.1294 105.584C47.7925 105.286 47.292 105.137 46.6279 105.137C46.0078 105.137 45.5488 105.247 45.251 105.467C44.958 105.682 44.7407 106.065 44.5991 106.617L43.3101 106.441C43.4272 105.889 43.6201 105.445 43.8887 105.108C44.1572 104.766 44.5454 104.505 45.0532 104.324C45.561 104.139 46.1494 104.046 46.8184 104.046C47.4824 104.046 48.022 104.124 48.437 104.28C48.8521 104.437 49.1572 104.634 49.3525 104.874C49.5479 105.108 49.6846 105.406 49.7627 105.767C49.8066 105.992 49.8286 106.397 49.8286 106.983V108.741C49.8286 109.966 49.8555 110.743 49.9092 111.07C49.9678 111.392 50.0801 111.702 50.2461 112H48.8691C48.7324 111.727 48.6445 111.407 48.6055 111.041ZM48.4956 108.096C48.0171 108.292 47.2993 108.458 46.3423 108.594C45.8003 108.672 45.417 108.76 45.1924 108.858C44.9678 108.956 44.7944 109.1 44.6724 109.29C44.5503 109.476 44.4893 109.683 44.4893 109.913C44.4893 110.264 44.6211 110.557 44.8848 110.792C45.1533 111.026 45.5439 111.143 46.0566 111.143C46.5645 111.143 47.0161 111.033 47.4116 110.813C47.8071 110.589 48.0977 110.284 48.2832 109.898C48.4248 109.6 48.4956 109.161 48.4956 108.58V108.096ZM51.8867 104.222H53.2051V107.459H56.8599V104.222H58.1782V112H56.8599V108.55H53.2051V112H51.8867V104.222ZM59.6797 108.111C59.6797 106.67 60.0801 105.604 60.8809 104.91C61.5498 104.334 62.3652 104.046 63.3271 104.046C64.3965 104.046 65.2705 104.397 65.9492 105.101C66.6279 105.799 66.9673 106.766 66.9673 108.001C66.9673 109.002 66.8159 109.791 66.5132 110.367C66.2153 110.938 65.7783 111.382 65.2021 111.7C64.6309 112.017 64.0059 112.176 63.3271 112.176C62.2383 112.176 61.3569 111.827 60.6831 111.128C60.0142 110.43 59.6797 109.424 59.6797 108.111ZM61.0347 108.111C61.0347 109.107 61.252 109.854 61.6865 110.352C62.1211 110.845 62.668 111.092 63.3271 111.092C63.9814 111.092 64.5259 110.843 64.9604 110.345C65.395 109.847 65.6123 109.087 65.6123 108.067C65.6123 107.105 65.3926 106.377 64.9531 105.884C64.5186 105.386 63.9766 105.137 63.3271 105.137C62.668 105.137 62.1211 105.384 61.6865 105.877C61.252 106.37 61.0347 107.115 61.0347 108.111ZM68.5273 104.222H71.5669C72.314 104.222 72.8682 104.285 73.2295 104.412C73.5957 104.534 73.9082 104.761 74.167 105.093C74.4307 105.425 74.5625 105.823 74.5625 106.287C74.5625 106.658 74.4844 106.983 74.3281 107.261C74.1768 107.535 73.9473 107.764 73.6396 107.95C74.0059 108.072 74.3086 108.301 74.5479 108.638C74.792 108.97 74.9141 109.366 74.9141 109.825C74.8652 110.562 74.6016 111.109 74.123 111.465C73.6445 111.822 72.9487 112 72.0356 112H68.5273V104.222ZM69.8457 107.496H71.252C71.8135 107.496 72.1992 107.466 72.4092 107.408C72.6191 107.349 72.8071 107.232 72.9731 107.056C73.1392 106.875 73.2222 106.661 73.2222 106.412C73.2222 106.001 73.0757 105.716 72.7827 105.555C72.4946 105.394 71.999 105.313 71.2959 105.313H69.8457V107.496ZM69.8457 110.916H71.5815C72.3286 110.916 72.8413 110.831 73.1196 110.66C73.3979 110.484 73.5444 110.184 73.5591 109.759C73.5591 109.51 73.4785 109.28 73.3174 109.07C73.1562 108.855 72.9463 108.721 72.6875 108.667C72.4287 108.609 72.0137 108.58 71.4424 108.58H69.8457V110.916ZM83.8936 104.222H85.2119V112H83.8936V104.222ZM76.5181 104.222H77.8364V107.261H79.5063C80.5952 107.261 81.4326 107.474 82.0186 107.898C82.6094 108.318 82.9048 108.899 82.9048 109.642C82.9048 110.291 82.6582 110.848 82.165 111.312C81.6768 111.771 80.8931 112 79.814 112H76.5181V104.222ZM77.8364 110.916H79.2207C80.0557 110.916 80.6514 110.813 81.0078 110.608C81.3643 110.403 81.5425 110.083 81.5425 109.649C81.5425 109.312 81.4106 109.012 81.147 108.748C80.8833 108.484 80.2998 108.353 79.3965 108.353H77.8364V110.916ZM92.5947 109.495L93.957 109.664C93.7422 110.459 93.3442 111.077 92.7632 111.517C92.1821 111.956 91.4399 112.176 90.5366 112.176C89.3989 112.176 88.4956 111.827 87.8267 111.128C87.1626 110.425 86.8306 109.441 86.8306 108.177C86.8306 106.868 87.1675 105.853 87.8413 105.13C88.5151 104.407 89.3892 104.046 90.4634 104.046C91.5034 104.046 92.353 104.4 93.0122 105.108C93.6714 105.816 94.001 106.812 94.001 108.096C94.001 108.174 93.9985 108.292 93.9937 108.448H88.1929C88.2417 109.302 88.4834 109.957 88.918 110.411C89.3525 110.865 89.8945 111.092 90.5439 111.092C91.0273 111.092 91.4399 110.965 91.7817 110.711C92.1235 110.457 92.3945 110.052 92.5947 109.495ZM88.2661 107.364H92.6094C92.5508 106.709 92.3848 106.219 92.1113 105.892C91.6914 105.384 91.147 105.13 90.478 105.13C89.8726 105.13 89.3623 105.333 88.9473 105.738C88.5371 106.143 88.3101 106.685 88.2661 107.364ZM99.7944 114.981V104.222H100.996V105.232C101.279 104.837 101.599 104.542 101.955 104.346C102.312 104.146 102.744 104.046 103.251 104.046C103.916 104.046 104.501 104.217 105.009 104.559C105.517 104.9 105.9 105.384 106.159 106.009C106.418 106.629 106.547 107.31 106.547 108.052C106.547 108.848 106.403 109.566 106.115 110.206C105.832 110.84 105.417 111.329 104.87 111.67C104.328 112.007 103.757 112.176 103.156 112.176C102.717 112.176 102.321 112.083 101.97 111.897C101.623 111.712 101.337 111.478 101.113 111.194V114.981H99.7944ZM100.988 108.155C100.988 109.156 101.191 109.896 101.596 110.374C102.001 110.853 102.492 111.092 103.068 111.092C103.654 111.092 104.155 110.845 104.57 110.352C104.99 109.854 105.2 109.085 105.2 108.045C105.2 107.054 104.995 106.312 104.584 105.818C104.179 105.325 103.693 105.079 103.127 105.079C102.565 105.079 102.067 105.342 101.633 105.87C101.203 106.392 100.988 107.154 100.988 108.155ZM113.22 111.041C112.731 111.456 112.26 111.749 111.806 111.919C111.357 112.09 110.874 112.176 110.356 112.176C109.501 112.176 108.845 111.968 108.386 111.553C107.927 111.133 107.697 110.599 107.697 109.949C107.697 109.568 107.783 109.222 107.954 108.909C108.129 108.592 108.356 108.338 108.635 108.147C108.918 107.957 109.235 107.813 109.587 107.715C109.846 107.647 110.236 107.581 110.759 107.518C111.823 107.391 112.607 107.239 113.11 107.063C113.115 106.883 113.117 106.768 113.117 106.719C113.117 106.182 112.993 105.804 112.744 105.584C112.407 105.286 111.906 105.137 111.242 105.137C110.622 105.137 110.163 105.247 109.865 105.467C109.572 105.682 109.355 106.065 109.213 106.617L107.924 106.441C108.042 105.889 108.234 105.445 108.503 105.108C108.771 104.766 109.16 104.505 109.667 104.324C110.175 104.139 110.764 104.046 111.433 104.046C112.097 104.046 112.636 104.124 113.051 104.28C113.466 104.437 113.771 104.634 113.967 104.874C114.162 105.108 114.299 105.406 114.377 105.767C114.421 105.992 114.443 106.397 114.443 106.983V108.741C114.443 109.966 114.47 110.743 114.523 111.07C114.582 111.392 114.694 111.702 114.86 112H113.483C113.347 111.727 113.259 111.407 113.22 111.041ZM113.11 108.096C112.631 108.292 111.914 108.458 110.957 108.594C110.415 108.672 110.031 108.76 109.807 108.858C109.582 108.956 109.409 109.1 109.287 109.29C109.165 109.476 109.104 109.683 109.104 109.913C109.104 110.264 109.235 110.557 109.499 110.792C109.768 111.026 110.158 111.143 110.671 111.143C111.179 111.143 111.63 111.033 112.026 110.813C112.421 110.589 112.712 110.284 112.897 109.898C113.039 109.6 113.11 109.161 113.11 108.58V108.096ZM122.192 101.006L123.356 101.021C123.303 101.543 123.186 101.907 123.005 102.112C122.829 102.317 122.6 102.449 122.316 102.508C122.038 102.566 121.489 102.596 120.668 102.596C119.58 102.596 118.837 102.701 118.442 102.911C118.046 103.121 117.761 103.458 117.585 103.921C117.414 104.38 117.319 104.974 117.299 105.701C117.631 105.208 118.02 104.839 118.464 104.595C118.908 104.346 119.409 104.222 119.965 104.222C120.986 104.222 121.831 104.573 122.5 105.276C123.168 105.975 123.503 106.922 123.503 108.118C123.503 109.026 123.334 109.771 122.998 110.352C122.661 110.933 122.26 111.382 121.796 111.7C121.337 112.017 120.71 112.176 119.914 112.176C118.991 112.176 118.273 111.966 117.761 111.546C117.248 111.121 116.855 110.579 116.582 109.92C116.308 109.261 116.171 108.113 116.171 106.478C116.171 104.422 116.518 103.038 117.211 102.325C117.91 101.612 118.981 101.255 120.427 101.255C121.325 101.255 121.835 101.241 121.958 101.211C122.08 101.182 122.158 101.114 122.192 101.006ZM122.126 108.082C122.126 107.271 121.933 106.607 121.547 106.089C121.167 105.572 120.627 105.313 119.929 105.313C119.201 105.313 118.64 105.586 118.244 106.133C117.849 106.68 117.651 107.41 117.651 108.323C117.651 109.227 117.868 109.917 118.303 110.396C118.742 110.875 119.282 111.114 119.921 111.114C120.576 111.114 121.105 110.838 121.511 110.286C121.921 109.729 122.126 108.995 122.126 108.082ZM124.602 108.111C124.602 106.67 125.002 105.604 125.803 104.91C126.472 104.334 127.287 104.046 128.249 104.046C129.318 104.046 130.192 104.397 130.871 105.101C131.55 105.799 131.889 106.766 131.889 108.001C131.889 109.002 131.738 109.791 131.435 110.367C131.137 110.938 130.7 111.382 130.124 111.7C129.553 112.017 128.928 112.176 128.249 112.176C127.16 112.176 126.279 111.827 125.605 111.128C124.936 110.43 124.602 109.424 124.602 108.111ZM125.957 108.111C125.957 109.107 126.174 109.854 126.608 110.352C127.043 110.845 127.59 111.092 128.249 111.092C128.903 111.092 129.448 110.843 129.882 110.345C130.317 109.847 130.534 109.087 130.534 108.067C130.534 107.105 130.314 106.377 129.875 105.884C129.44 105.386 128.898 105.137 128.249 105.137C127.59 105.137 127.043 105.384 126.608 105.877C126.174 106.37 125.957 107.115 125.957 108.111ZM132.395 104.222H138.715V105.313H136.21V112H134.899V105.313H132.395V104.222ZM147.38 104.222H148.698V112H147.38V104.222ZM140.004 104.222H141.323V107.261H142.993C144.082 107.261 144.919 107.474 145.505 107.898C146.096 108.318 146.391 108.899 146.391 109.642C146.391 110.291 146.145 110.848 145.651 111.312C145.163 111.771 144.379 112 143.3 112H140.004V104.222ZM141.323 110.916H142.707C143.542 110.916 144.138 110.813 144.494 110.608C144.851 110.403 145.029 110.083 145.029 109.649C145.029 109.312 144.897 109.012 144.633 108.748C144.37 108.484 143.786 108.353 142.883 108.353H141.323V110.916Z" fill="#4A4A4A"/>
<path d="M24.1719 131.263H32.6167V142H31.1885V132.53H25.5928V142H24.1719V131.263ZM35.4146 134.222H41.5376V142H40.2266V135.313H36.7329V139.188C36.7329 140.091 36.7036 140.687 36.645 140.975C36.5864 141.263 36.4253 141.514 36.1616 141.729C35.8979 141.944 35.5171 142.051 35.019 142.051C34.7114 142.051 34.3574 142.032 33.957 141.993V140.894H34.5356C34.8091 140.894 35.0044 140.867 35.1216 140.813C35.2388 140.755 35.3169 140.665 35.356 140.542C35.395 140.42 35.4146 140.022 35.4146 139.349V134.222ZM48.6055 141.041C48.1172 141.456 47.646 141.749 47.1919 141.919C46.7427 142.09 46.2593 142.176 45.7417 142.176C44.8872 142.176 44.2305 141.968 43.7715 141.553C43.3125 141.133 43.083 140.599 43.083 139.949C43.083 139.568 43.1685 139.222 43.3394 138.909C43.5151 138.592 43.7422 138.338 44.0205 138.147C44.3037 137.957 44.6211 137.813 44.9727 137.715C45.2314 137.647 45.6221 137.581 46.1445 137.518C47.209 137.391 47.9927 137.239 48.4956 137.063C48.5005 136.883 48.5029 136.768 48.5029 136.719C48.5029 136.182 48.3784 135.804 48.1294 135.584C47.7925 135.286 47.292 135.137 46.6279 135.137C46.0078 135.137 45.5488 135.247 45.251 135.467C44.958 135.682 44.7407 136.065 44.5991 136.617L43.3101 136.441C43.4272 135.889 43.6201 135.445 43.8887 135.108C44.1572 134.766 44.5454 134.505 45.0532 134.324C45.561 134.139 46.1494 134.046 46.8184 134.046C47.4824 134.046 48.022 134.124 48.437 134.28C48.8521 134.437 49.1572 134.634 49.3525 134.874C49.5479 135.108 49.6846 135.406 49.7627 135.767C49.8066 135.992 49.8286 136.397 49.8286 136.983V138.741C49.8286 139.966 49.8555 140.743 49.9092 141.07C49.9678 141.392 50.0801 141.702 50.2461 142H48.8691C48.7324 141.727 48.6445 141.407 48.6055 141.041ZM48.4956 138.096C48.0171 138.292 47.2993 138.458 46.3423 138.594C45.8003 138.672 45.417 138.76 45.1924 138.858C44.9678 138.956 44.7944 139.1 44.6724 139.29C44.5503 139.476 44.4893 139.683 44.4893 139.913C44.4893 140.264 44.6211 140.557 44.8848 140.792C45.1533 141.026 45.5439 141.143 46.0566 141.143C46.5645 141.143 47.0161 141.033 47.4116 140.813C47.8071 140.589 48.0977 140.284 48.2832 139.898C48.4248 139.6 48.4956 139.161 48.4956 138.58V138.096ZM51.8867 134.222H53.2051V137.459H56.8599V134.222H58.1782V142H56.8599V138.55H53.2051V142H51.8867V134.222ZM59.6797 138.111C59.6797 136.67 60.0801 135.604 60.8809 134.91C61.5498 134.334 62.3652 134.046 63.3271 134.046C64.3965 134.046 65.2705 134.397 65.9492 135.101C66.6279 135.799 66.9673 136.766 66.9673 138.001C66.9673 139.002 66.8159 139.791 66.5132 140.367C66.2153 140.938 65.7783 141.382 65.2021 141.7C64.6309 142.017 64.0059 142.176 63.3271 142.176C62.2383 142.176 61.3569 141.827 60.6831 141.128C60.0142 140.43 59.6797 139.424 59.6797 138.111ZM61.0347 138.111C61.0347 139.107 61.252 139.854 61.6865 140.352C62.1211 140.845 62.668 141.092 63.3271 141.092C63.9814 141.092 64.5259 140.843 64.9604 140.345C65.395 139.847 65.6123 139.087 65.6123 138.067C65.6123 137.105 65.3926 136.377 64.9531 135.884C64.5186 135.386 63.9766 135.137 63.3271 135.137C62.668 135.137 62.1211 135.384 61.6865 135.877C61.252 136.37 61.0347 137.115 61.0347 138.111ZM68.5273 134.222H71.5669C72.314 134.222 72.8682 134.285 73.2295 134.412C73.5957 134.534 73.9082 134.761 74.167 135.093C74.4307 135.425 74.5625 135.823 74.5625 136.287C74.5625 136.658 74.4844 136.983 74.3281 137.261C74.1768 137.535 73.9473 137.764 73.6396 137.95C74.0059 138.072 74.3086 138.301 74.5479 138.638C74.792 138.97 74.9141 139.366 74.9141 139.825C74.8652 140.562 74.6016 141.109 74.123 141.465C73.6445 141.822 72.9487 142 72.0356 142H68.5273V134.222ZM69.8457 137.496H71.252C71.8135 137.496 72.1992 137.466 72.4092 137.408C72.6191 137.349 72.8071 137.232 72.9731 137.056C73.1392 136.875 73.2222 136.661 73.2222 136.412C73.2222 136.001 73.0757 135.716 72.7827 135.555C72.4946 135.394 71.999 135.313 71.2959 135.313H69.8457V137.496ZM69.8457 140.916H71.5815C72.3286 140.916 72.8413 140.831 73.1196 140.66C73.3979 140.484 73.5444 140.184 73.5591 139.759C73.5591 139.51 73.4785 139.28 73.3174 139.07C73.1562 138.855 72.9463 138.721 72.6875 138.667C72.4287 138.609 72.0137 138.58 71.4424 138.58H69.8457V140.916ZM83.8936 134.222H85.2119V142H83.8936V134.222ZM76.5181 134.222H77.8364V137.261H79.5063C80.5952 137.261 81.4326 137.474 82.0186 137.898C82.6094 138.318 82.9048 138.899 82.9048 139.642C82.9048 140.291 82.6582 140.848 82.165 141.312C81.6768 141.771 80.8931 142 79.814 142H76.5181V134.222ZM77.8364 140.916H79.2207C80.0557 140.916 80.6514 140.813 81.0078 140.608C81.3643 140.403 81.5425 140.083 81.5425 139.649C81.5425 139.312 81.4106 139.012 81.147 138.748C80.8833 138.484 80.2998 138.353 79.3965 138.353H77.8364V140.916ZM92.5947 139.495L93.957 139.664C93.7422 140.459 93.3442 141.077 92.7632 141.517C92.1821 141.956 91.4399 142.176 90.5366 142.176C89.3989 142.176 88.4956 141.827 87.8267 141.128C87.1626 140.425 86.8306 139.441 86.8306 138.177C86.8306 136.868 87.1675 135.853 87.8413 135.13C88.5151 134.407 89.3892 134.046 90.4634 134.046C91.5034 134.046 92.353 134.4 93.0122 135.108C93.6714 135.816 94.001 136.812 94.001 138.096C94.001 138.174 93.9985 138.292 93.9937 138.448H88.1929C88.2417 139.302 88.4834 139.957 88.918 140.411C89.3525 140.865 89.8945 141.092 90.5439 141.092C91.0273 141.092 91.4399 140.965 91.7817 140.711C92.1235 140.457 92.3945 140.052 92.5947 139.495ZM88.2661 137.364H92.6094C92.5508 136.709 92.3848 136.219 92.1113 135.892C91.6914 135.384 91.147 135.13 90.478 135.13C89.8726 135.13 89.3623 135.333 88.9473 135.738C88.5371 136.143 88.3101 136.685 88.2661 137.364ZM99.7944 144.981V134.222H100.996V135.232C101.279 134.837 101.599 134.542 101.955 134.346C102.312 134.146 102.744 134.046 103.251 134.046C103.916 134.046 104.501 134.217 105.009 134.559C105.517 134.9 105.9 135.384 106.159 136.009C106.418 136.629 106.547 137.31 106.547 138.052C106.547 138.848 106.403 139.566 106.115 140.206C105.832 140.84 105.417 141.329 104.87 141.67C104.328 142.007 103.757 142.176 103.156 142.176C102.717 142.176 102.321 142.083 101.97 141.897C101.623 141.712 101.337 141.478 101.113 141.194V144.981H99.7944ZM100.988 138.155C100.988 139.156 101.191 139.896 101.596 140.374C102.001 140.853 102.492 141.092 103.068 141.092C103.654 141.092 104.155 140.845 104.57 140.352C104.99 139.854 105.2 139.085 105.2 138.045C105.2 137.054 104.995 136.312 104.584 135.818C104.179 135.325 103.693 135.079 103.127 135.079C102.565 135.079 102.067 135.342 101.633 135.87C101.203 136.392 100.988 137.154 100.988 138.155ZM113.22 141.041C112.731 141.456 112.26 141.749 111.806 141.919C111.357 142.09 110.874 142.176 110.356 142.176C109.501 142.176 108.845 141.968 108.386 141.553C107.927 141.133 107.697 140.599 107.697 139.949C107.697 139.568 107.783 139.222 107.954 138.909C108.129 138.592 108.356 138.338 108.635 138.147C108.918 137.957 109.235 137.813 109.587 137.715C109.846 137.647 110.236 137.581 110.759 137.518C111.823 137.391 112.607 137.239 113.11 137.063C113.115 136.883 113.117 136.768 113.117 136.719C113.117 136.182 112.993 135.804 112.744 135.584C112.407 135.286 111.906 135.137 111.242 135.137C110.622 135.137 110.163 135.247 109.865 135.467C109.572 135.682 109.355 136.065 109.213 136.617L107.924 136.441C108.042 135.889 108.234 135.445 108.503 135.108C108.771 134.766 109.16 134.505 109.667 134.324C110.175 134.139 110.764 134.046 111.433 134.046C112.097 134.046 112.636 134.124 113.051 134.28C113.466 134.437 113.771 134.634 113.967 134.874C114.162 135.108 114.299 135.406 114.377 135.767C114.421 135.992 114.443 136.397 114.443 136.983V138.741C114.443 139.966 114.47 140.743 114.523 141.07C114.582 141.392 114.694 141.702 114.86 142H113.483C113.347 141.727 113.259 141.407 113.22 141.041ZM113.11 138.096C112.631 138.292 111.914 138.458 110.957 138.594C110.415 138.672 110.031 138.76 109.807 138.858C109.582 138.956 109.409 139.1 109.287 139.29C109.165 139.476 109.104 139.683 109.104 139.913C109.104 140.264 109.235 140.557 109.499 140.792C109.768 141.026 110.158 141.143 110.671 141.143C111.179 141.143 111.63 141.033 112.026 140.813C112.421 140.589 112.712 140.284 112.897 139.898C113.039 139.6 113.11 139.161 113.11 138.58V138.096ZM122.192 131.006L123.356 131.021C123.303 131.543 123.186 131.907 123.005 132.112C122.829 132.317 122.6 132.449 122.316 132.508C122.038 132.566 121.489 132.596 120.668 132.596C119.58 132.596 118.837 132.701 118.442 132.911C118.046 133.121 117.761 133.458 117.585 133.921C117.414 134.38 117.319 134.974 117.299 135.701C117.631 135.208 118.02 134.839 118.464 134.595C118.908 134.346 119.409 134.222 119.965 134.222C120.986 134.222 121.831 134.573 122.5 135.276C123.168 135.975 123.503 136.922 123.503 138.118C123.503 139.026 123.334 139.771 122.998 140.352C122.661 140.933 122.26 141.382 121.796 141.7C121.337 142.017 120.71 142.176 119.914 142.176C118.991 142.176 118.273 141.966 117.761 141.546C117.248 141.121 116.855 140.579 116.582 139.92C116.308 139.261 116.171 138.113 116.171 136.478C116.171 134.422 116.518 133.038 117.211 132.325C117.91 131.612 118.981 131.255 120.427 131.255C121.325 131.255 121.835 131.241 121.958 131.211C122.08 131.182 122.158 131.114 122.192 131.006ZM122.126 138.082C122.126 137.271 121.933 136.607 121.547 136.089C121.167 135.572 120.627 135.313 119.929 135.313C119.201 135.313 118.64 135.586 118.244 136.133C117.849 136.68 117.651 137.41 117.651 138.323C117.651 139.227 117.868 139.917 118.303 140.396C118.742 140.875 119.282 141.114 119.921 141.114C120.576 141.114 121.105 140.838 121.511 140.286C121.921 139.729 122.126 138.995 122.126 138.082ZM124.602 138.111C124.602 136.67 125.002 135.604 125.803 134.91C126.472 134.334 127.287 134.046 128.249 134.046C129.318 134.046 130.192 134.397 130.871 135.101C131.55 135.799 131.889 136.766 131.889 138.001C131.889 139.002 131.738 139.791 131.435 140.367C131.137 140.938 130.7 141.382 130.124 141.7C129.553 142.017 128.928 142.176 128.249 142.176C127.16 142.176 126.279 141.827 125.605 141.128C124.936 140.43 124.602 139.424 124.602 138.111ZM125.957 138.111C125.957 139.107 126.174 139.854 126.608 140.352C127.043 140.845 127.59 141.092 128.249 141.092C128.903 141.092 129.448 140.843 129.882 140.345C130.317 139.847 130.534 139.087 130.534 138.067C130.534 137.105 130.314 136.377 129.875 135.884C129.44 135.386 128.898 135.137 128.249 135.137C127.59 135.137 127.043 135.384 126.608 135.877C126.174 136.37 125.957 137.115 125.957 138.111ZM132.395 134.222H138.715V135.313H136.21V142H134.899V135.313H132.395V134.222ZM147.38 134.222H148.698V142H147.38V134.222ZM140.004 134.222H141.323V137.261H142.993C144.082 137.261 144.919 137.474 145.505 137.898C146.096 138.318 146.391 138.899 146.391 139.642C146.391 140.291 146.145 140.848 145.651 141.312C145.163 141.771 144.379 142 143.3 142H140.004V134.222ZM141.323 140.916H142.707C143.542 140.916 144.138 140.813 144.494 140.608C144.851 140.403 145.029 140.083 145.029 139.649C145.029 139.312 144.897 139.012 144.633 138.748C144.37 138.484 143.786 138.353 142.883 138.353H141.323V140.916Z" fill="#4A4A4A"/>
<path d="M24.1719 41.2627H32.6167V52H31.1885V42.5298H25.5928V52H24.1719V41.2627ZM35.4146 44.2217H41.5376V52H40.2266V45.313H36.7329V49.1875C36.7329 50.0908 36.7036 50.6865 36.645 50.9746C36.5864 51.2627 36.4253 51.5142 36.1616 51.729C35.8979 51.9438 35.5171 52.0513 35.019 52.0513C34.7114 52.0513 34.3574 52.0317 33.957 51.9927V50.894H34.5356C34.8091 50.894 35.0044 50.8672 35.1216 50.8135C35.2388 50.7549 35.3169 50.6646 35.356 50.5425C35.395 50.4204 35.4146 50.0225 35.4146 49.3486V44.2217ZM48.6055 51.0405C48.1172 51.4556 47.646 51.7485 47.1919 51.9194C46.7427 52.0903 46.2593 52.1758 45.7417 52.1758C44.8872 52.1758 44.2305 51.9683 43.7715 51.5532C43.3125 51.1333 43.083 50.5986 43.083 49.9492C43.083 49.5684 43.1685 49.2217 43.3394 48.9092C43.5151 48.5918 43.7422 48.3379 44.0205 48.1475C44.3037 47.957 44.6211 47.813 44.9727 47.7153C45.2314 47.647 45.6221 47.5811 46.1445 47.5176C47.209 47.3906 47.9927 47.2393 48.4956 47.0635C48.5005 46.8828 48.5029 46.7681 48.5029 46.7192C48.5029 46.1821 48.3784 45.8037 48.1294 45.584C47.7925 45.2861 47.292 45.1372 46.6279 45.1372C46.0078 45.1372 45.5488 45.2471 45.251 45.4668C44.958 45.6816 44.7407 46.0649 44.5991 46.6167L43.3101 46.4409C43.4272 45.8892 43.6201 45.4448 43.8887 45.1079C44.1572 44.7661 44.5454 44.5049 45.0532 44.3242C45.561 44.1387 46.1494 44.0459 46.8184 44.0459C47.4824 44.0459 48.022 44.124 48.437 44.2803C48.8521 44.4365 49.1572 44.6343 49.3525 44.8735C49.5479 45.1079 49.6846 45.4058 49.7627 45.7671C49.8066 45.9917 49.8286 46.397 49.8286 46.9829V48.7407C49.8286 49.9663 49.8555 50.7427 49.9092 51.0698C49.9678 51.3921 50.0801 51.7021 50.2461 52H48.8691C48.7324 51.7266 48.6445 51.4067 48.6055 51.0405ZM48.4956 48.0962C48.0171 48.2915 47.2993 48.4575 46.3423 48.5942C45.8003 48.6724 45.417 48.7603 45.1924 48.8579C44.9678 48.9556 44.7944 49.0996 44.6724 49.29C44.5503 49.4756 44.4893 49.6831 44.4893 49.9126C44.4893 50.2642 44.6211 50.5571 44.8848 50.7915C45.1533 51.0259 45.5439 51.1431 46.0566 51.1431C46.5645 51.1431 47.0161 51.0332 47.4116 50.8135C47.8071 50.5889 48.0977 50.2837 48.2832 49.8979C48.4248 49.6001 48.4956 49.1606 48.4956 48.5796V48.0962ZM51.8867 44.2217H53.2051V47.459H56.8599V44.2217H58.1782V52H56.8599V48.5503H53.2051V52H51.8867V44.2217ZM59.6797 48.1108C59.6797 46.6704 60.0801 45.6035 60.8809 44.9102C61.5498 44.334 62.3652 44.0459 63.3271 44.0459C64.3965 44.0459 65.2705 44.3975 65.9492 45.1006C66.6279 45.7988 66.9673 46.7656 66.9673 48.001C66.9673 49.002 66.8159 49.7905 66.5132 50.3667C66.2153 50.938 65.7783 51.3823 65.2021 51.6997C64.6309 52.0171 64.0059 52.1758 63.3271 52.1758C62.2383 52.1758 61.3569 51.8267 60.6831 51.1284C60.0142 50.4302 59.6797 49.4243 59.6797 48.1108ZM61.0347 48.1108C61.0347 49.1069 61.252 49.854 61.6865 50.3521C62.1211 50.8452 62.668 51.0918 63.3271 51.0918C63.9814 51.0918 64.5259 50.8428 64.9604 50.3447C65.395 49.8467 65.6123 49.0874 65.6123 48.0669C65.6123 47.105 65.3926 46.3774 64.9531 45.8843C64.5186 45.3862 63.9766 45.1372 63.3271 45.1372C62.668 45.1372 62.1211 45.3838 61.6865 45.877C61.252 46.3701 61.0347 47.1147 61.0347 48.1108ZM68.5273 44.2217H71.5669C72.314 44.2217 72.8682 44.2852 73.2295 44.4121C73.5957 44.5342 73.9082 44.7612 74.167 45.0933C74.4307 45.4253 74.5625 45.8232 74.5625 46.2871C74.5625 46.6582 74.4844 46.9829 74.3281 47.2612C74.1768 47.5347 73.9473 47.7642 73.6396 47.9497C74.0059 48.0718 74.3086 48.3013 74.5479 48.6382C74.792 48.9702 74.9141 49.3657 74.9141 49.8247C74.8652 50.562 74.6016 51.1089 74.123 51.4653C73.6445 51.8218 72.9487 52 72.0356 52H68.5273V44.2217ZM69.8457 47.4956H71.252C71.8135 47.4956 72.1992 47.4663 72.4092 47.4077C72.6191 47.3491 72.8071 47.2319 72.9731 47.0562C73.1392 46.8755 73.2222 46.6606 73.2222 46.4116C73.2222 46.0015 73.0757 45.7158 72.7827 45.5547C72.4946 45.3936 71.999 45.313 71.2959 45.313H69.8457V47.4956ZM69.8457 50.916H71.5815C72.3286 50.916 72.8413 50.8306 73.1196 50.6597C73.3979 50.4839 73.5444 50.1836 73.5591 49.7588C73.5591 49.5098 73.4785 49.2803 73.3174 49.0703C73.1562 48.8555 72.9463 48.7212 72.6875 48.6675C72.4287 48.6089 72.0137 48.5796 71.4424 48.5796H69.8457V50.916ZM83.8936 44.2217H85.2119V52H83.8936V44.2217ZM76.5181 44.2217H77.8364V47.2612H79.5063C80.5952 47.2612 81.4326 47.4736 82.0186 47.8984C82.6094 48.3184 82.9048 48.8994 82.9048 49.6416C82.9048 50.291 82.6582 50.8477 82.165 51.3115C81.6768 51.7705 80.8931 52 79.814 52H76.5181V44.2217ZM77.8364 50.916H79.2207C80.0557 50.916 80.6514 50.8135 81.0078 50.6084C81.3643 50.4033 81.5425 50.0835 81.5425 49.6489C81.5425 49.312 81.4106 49.0117 81.147 48.748C80.8833 48.4844 80.2998 48.3525 79.3965 48.3525H77.8364V50.916ZM92.5947 49.4951L93.957 49.6636C93.7422 50.4595 93.3442 51.0771 92.7632 51.5166C92.1821 51.9561 91.4399 52.1758 90.5366 52.1758C89.3989 52.1758 88.4956 51.8267 87.8267 51.1284C87.1626 50.4253 86.8306 49.4414 86.8306 48.1768C86.8306 46.8682 87.1675 45.8525 87.8413 45.1299C88.5151 44.4072 89.3892 44.0459 90.4634 44.0459C91.5034 44.0459 92.353 44.3999 93.0122 45.1079C93.6714 45.8159 94.001 46.812 94.001 48.0962C94.001 48.1743 93.9985 48.2915 93.9937 48.4478H88.1929C88.2417 49.3022 88.4834 49.9565 88.918 50.4106C89.3525 50.8647 89.8945 51.0918 90.5439 51.0918C91.0273 51.0918 91.4399 50.9648 91.7817 50.7109C92.1235 50.457 92.3945 50.0518 92.5947 49.4951ZM88.2661 47.3638H92.6094C92.5508 46.7095 92.3848 46.2188 92.1113 45.8916C91.6914 45.3838 91.147 45.1299 90.478 45.1299C89.8726 45.1299 89.3623 45.3325 88.9473 45.7378C88.5371 46.1431 88.3101 46.6851 88.2661 47.3638ZM99.7944 54.981V44.2217H100.996V45.2324C101.279 44.8369 101.599 44.5415 101.955 44.3462C102.312 44.146 102.744 44.0459 103.251 44.0459C103.916 44.0459 104.501 44.2168 105.009 44.5586C105.517 44.9004 105.9 45.3838 106.159 46.0088C106.418 46.6289 106.547 47.3101 106.547 48.0522C106.547 48.8481 106.403 49.5659 106.115 50.2056C105.832 50.8403 105.417 51.3286 104.87 51.6704C104.328 52.0073 103.757 52.1758 103.156 52.1758C102.717 52.1758 102.321 52.083 101.97 51.8975C101.623 51.7119 101.337 51.4775 101.113 51.1943V54.981H99.7944ZM100.988 48.1548C100.988 49.1558 101.191 49.8955 101.596 50.374C102.001 50.8525 102.492 51.0918 103.068 51.0918C103.654 51.0918 104.155 50.8452 104.57 50.3521C104.99 49.854 105.2 49.085 105.2 48.0449C105.2 47.0537 104.995 46.3115 104.584 45.8184C104.179 45.3252 103.693 45.0786 103.127 45.0786C102.565 45.0786 102.067 45.3423 101.633 45.8696C101.203 46.3921 100.988 47.1538 100.988 48.1548ZM113.22 51.0405C112.731 51.4556 112.26 51.7485 111.806 51.9194C111.357 52.0903 110.874 52.1758 110.356 52.1758C109.501 52.1758 108.845 51.9683 108.386 51.5532C107.927 51.1333 107.697 50.5986 107.697 49.9492C107.697 49.5684 107.783 49.2217 107.954 48.9092C108.129 48.5918 108.356 48.3379 108.635 48.1475C108.918 47.957 109.235 47.813 109.587 47.7153C109.846 47.647 110.236 47.5811 110.759 47.5176C111.823 47.3906 112.607 47.2393 113.11 47.0635C113.115 46.8828 113.117 46.7681 113.117 46.7192C113.117 46.1821 112.993 45.8037 112.744 45.584C112.407 45.2861 111.906 45.1372 111.242 45.1372C110.622 45.1372 110.163 45.2471 109.865 45.4668C109.572 45.6816 109.355 46.0649 109.213 46.6167L107.924 46.4409C108.042 45.8892 108.234 45.4448 108.503 45.1079C108.771 44.7661 109.16 44.5049 109.667 44.3242C110.175 44.1387 110.764 44.0459 111.433 44.0459C112.097 44.0459 112.636 44.124 113.051 44.2803C113.466 44.4365 113.771 44.6343 113.967 44.8735C114.162 45.1079 114.299 45.4058 114.377 45.7671C114.421 45.9917 114.443 46.397 114.443 46.9829V48.7407C114.443 49.9663 114.47 50.7427 114.523 51.0698C114.582 51.3921 114.694 51.7021 114.86 52H113.483C113.347 51.7266 113.259 51.4067 113.22 51.0405ZM113.11 48.0962C112.631 48.2915 111.914 48.4575 110.957 48.5942C110.415 48.6724 110.031 48.7603 109.807 48.8579C109.582 48.9556 109.409 49.0996 109.287 49.29C109.165 49.4756 109.104 49.6831 109.104 49.9126C109.104 50.2642 109.235 50.5571 109.499 50.7915C109.768 51.0259 110.158 51.1431 110.671 51.1431C111.179 51.1431 111.63 51.0332 112.026 50.8135C112.421 50.5889 112.712 50.2837 112.897 49.8979C113.039 49.6001 113.11 49.1606 113.11 48.5796V48.0962ZM122.192 41.0063L123.356 41.021C123.303 41.5435 123.186 41.9072 123.005 42.1123C122.829 42.3174 122.6 42.4492 122.316 42.5078C122.038 42.5664 121.489 42.5957 120.668 42.5957C119.58 42.5957 118.837 42.7007 118.442 42.9106C118.046 43.1206 117.761 43.4575 117.585 43.9214C117.414 44.3804 117.319 44.9736 117.299 45.7012C117.631 45.208 118.02 44.8394 118.464 44.5952C118.908 44.3462 119.409 44.2217 119.965 44.2217C120.986 44.2217 121.831 44.5732 122.5 45.2764C123.168 45.9746 123.503 46.9219 123.503 48.1182C123.503 49.0264 123.334 49.771 122.998 50.3521C122.661 50.9331 122.26 51.3823 121.796 51.6997C121.337 52.0171 120.71 52.1758 119.914 52.1758C118.991 52.1758 118.273 51.9658 117.761 51.5459C117.248 51.1211 116.855 50.5791 116.582 49.9199C116.308 49.2607 116.171 48.1133 116.171 46.4775C116.171 44.4219 116.518 43.0376 117.211 42.3247C117.91 41.6118 118.981 41.2554 120.427 41.2554C121.325 41.2554 121.835 41.2407 121.958 41.2114C122.08 41.1821 122.158 41.1138 122.192 41.0063ZM122.126 48.0815C122.126 47.271 121.933 46.6069 121.547 46.0894C121.167 45.5718 120.627 45.313 119.929 45.313C119.201 45.313 118.64 45.5864 118.244 46.1333C117.849 46.6802 117.651 47.4102 117.651 48.3232C117.651 49.2266 117.868 49.9175 118.303 50.396C118.742 50.8745 119.282 51.1138 119.921 51.1138C120.576 51.1138 121.105 50.8379 121.511 50.2861C121.921 49.7295 122.126 48.9946 122.126 48.0815ZM124.602 48.1108C124.602 46.6704 125.002 45.6035 125.803 44.9102C126.472 44.334 127.287 44.0459 128.249 44.0459C129.318 44.0459 130.192 44.3975 130.871 45.1006C131.55 45.7988 131.889 46.7656 131.889 48.001C131.889 49.002 131.738 49.7905 131.435 50.3667C131.137 50.938 130.7 51.3823 130.124 51.6997C129.553 52.0171 128.928 52.1758 128.249 52.1758C127.16 52.1758 126.279 51.8267 125.605 51.1284C124.936 50.4302 124.602 49.4243 124.602 48.1108ZM125.957 48.1108C125.957 49.1069 126.174 49.854 126.608 50.3521C127.043 50.8452 127.59 51.0918 128.249 51.0918C128.903 51.0918 129.448 50.8428 129.882 50.3447C130.317 49.8467 130.534 49.0874 130.534 48.0669C130.534 47.105 130.314 46.3774 129.875 45.8843C129.44 45.3862 128.898 45.1372 128.249 45.1372C127.59 45.1372 127.043 45.3838 126.608 45.877C126.174 46.3701 125.957 47.1147 125.957 48.1108ZM132.395 44.2217H138.715V45.313H136.21V52H134.899V45.313H132.395V44.2217ZM147.38 44.2217H148.698V52H147.38V44.2217ZM140.004 44.2217H141.323V47.2612H142.993C144.082 47.2612 144.919 47.4736 145.505 47.8984C146.096 48.3184 146.391 48.8994 146.391 49.6416C146.391 50.291 146.145 50.8477 145.651 51.3115C145.163 51.7705 144.379 52 143.3 52H140.004V44.2217ZM141.323 50.916H142.707C143.542 50.916 144.138 50.8135 144.494 50.6084C144.851 50.4033 145.029 50.0835 145.029 49.6489C145.029 49.312 144.897 49.0117 144.633 48.748C144.37 48.4844 143.786 48.3525 142.883 48.3525H141.323V50.916Z" fill="#4A4A4A"/>
</g>
<g clip-path="url(#clip1_225_535)">
<rect x="6" width="254" height="32" fill="white" stroke="#F3DB13" stroke-width="2"/>
<path d="M17.1719 10.2627H25.6167V21H24.1885V11.5298H18.5928V21H17.1719V10.2627ZM28.4146 13.2217H34.5376V21H33.2266V14.313H29.7329V18.1875C29.7329 19.0908 29.7036 19.6865 29.645 19.9746C29.5864 20.2627 29.4253 20.5142 29.1616 20.729C28.8979 20.9438 28.5171 21.0513 28.019 21.0513C27.7114 21.0513 27.3574 21.0317 26.957 20.9927V19.894H27.5356C27.8091 19.894 28.0044 19.8672 28.1216 19.8135C28.2388 19.7549 28.3169 19.6646 28.356 19.5425C28.395 19.4204 28.4146 19.0225 28.4146 18.3486V13.2217ZM41.6055 20.0405C41.1172 20.4556 40.646 20.7485 40.1919 20.9194C39.7427 21.0903 39.2593 21.1758 38.7417 21.1758C37.8872 21.1758 37.2305 20.9683 36.7715 20.5532C36.3125 20.1333 36.083 19.5986 36.083 18.9492C36.083 18.5684 36.1685 18.2217 36.3394 17.9092C36.5151 17.5918 36.7422 17.3379 37.0205 17.1475C37.3037 16.957 37.6211 16.813 37.9727 16.7153C38.2314 16.647 38.6221 16.5811 39.1445 16.5176C40.209 16.3906 40.9927 16.2393 41.4956 16.0635C41.5005 15.8828 41.5029 15.7681 41.5029 15.7192C41.5029 15.1821 41.3784 14.8037 41.1294 14.584C40.7925 14.2861 40.292 14.1372 39.6279 14.1372C39.0078 14.1372 38.5488 14.2471 38.251 14.4668C37.958 14.6816 37.7407 15.0649 37.5991 15.6167L36.3101 15.4409C36.4272 14.8892 36.6201 14.4448 36.8887 14.1079C37.1572 13.7661 37.5454 13.5049 38.0532 13.3242C38.561 13.1387 39.1494 13.0459 39.8184 13.0459C40.4824 13.0459 41.022 13.124 41.437 13.2803C41.8521 13.4365 42.1572 13.6343 42.3525 13.8735C42.5479 14.1079 42.6846 14.4058 42.7627 14.7671C42.8066 14.9917 42.8286 15.397 42.8286 15.9829V17.7407C42.8286 18.9663 42.8555 19.7427 42.9092 20.0698C42.9678 20.3921 43.0801 20.7021 43.2461 21H41.8691C41.7324 20.7266 41.6445 20.4067 41.6055 20.0405ZM41.4956 17.0962C41.0171 17.2915 40.2993 17.4575 39.3423 17.5942C38.8003 17.6724 38.417 17.7603 38.1924 17.8579C37.9678 17.9556 37.7944 18.0996 37.6724 18.29C37.5503 18.4756 37.4893 18.6831 37.4893 18.9126C37.4893 19.2642 37.6211 19.5571 37.8848 19.7915C38.1533 20.0259 38.5439 20.1431 39.0566 20.1431C39.5645 20.1431 40.0161 20.0332 40.4116 19.8135C40.8071 19.5889 41.0977 19.2837 41.2832 18.8979C41.4248 18.6001 41.4956 18.1606 41.4956 17.5796V17.0962ZM44.8867 13.2217H46.2051V16.459H49.8599V13.2217H51.1782V21H49.8599V17.5503H46.2051V21H44.8867V13.2217ZM52.6797 17.1108C52.6797 15.6704 53.0801 14.6035 53.8809 13.9102C54.5498 13.334 55.3652 13.0459 56.3271 13.0459C57.3965 13.0459 58.2705 13.3975 58.9492 14.1006C59.6279 14.7988 59.9673 15.7656 59.9673 17.001C59.9673 18.002 59.8159 18.7905 59.5132 19.3667C59.2153 19.938 58.7783 20.3823 58.2021 20.6997C57.6309 21.0171 57.0059 21.1758 56.3271 21.1758C55.2383 21.1758 54.3569 20.8267 53.6831 20.1284C53.0142 19.4302 52.6797 18.4243 52.6797 17.1108ZM54.0347 17.1108C54.0347 18.1069 54.252 18.854 54.6865 19.3521C55.1211 19.8452 55.668 20.0918 56.3271 20.0918C56.9814 20.0918 57.5259 19.8428 57.9604 19.3447C58.395 18.8467 58.6123 18.0874 58.6123 17.0669C58.6123 16.105 58.3926 15.3774 57.9531 14.8843C57.5186 14.3862 56.9766 14.1372 56.3271 14.1372C55.668 14.1372 55.1211 14.3838 54.6865 14.877C54.252 15.3701 54.0347 16.1147 54.0347 17.1108ZM61.5273 13.2217H64.5669C65.314 13.2217 65.8682 13.2852 66.2295 13.4121C66.5957 13.5342 66.9082 13.7612 67.167 14.0933C67.4307 14.4253 67.5625 14.8232 67.5625 15.2871C67.5625 15.6582 67.4844 15.9829 67.3281 16.2612C67.1768 16.5347 66.9473 16.7642 66.6396 16.9497C67.0059 17.0718 67.3086 17.3013 67.5479 17.6382C67.792 17.9702 67.9141 18.3657 67.9141 18.8247C67.8652 19.562 67.6016 20.1089 67.123 20.4653C66.6445 20.8218 65.9487 21 65.0356 21H61.5273V13.2217ZM62.8457 16.4956H64.252C64.8135 16.4956 65.1992 16.4663 65.4092 16.4077C65.6191 16.3491 65.8071 16.2319 65.9731 16.0562C66.1392 15.8755 66.2222 15.6606 66.2222 15.4116C66.2222 15.0015 66.0757 14.7158 65.7827 14.5547C65.4946 14.3936 64.999 14.313 64.2959 14.313H62.8457V16.4956ZM62.8457 19.916H64.5815C65.3286 19.916 65.8413 19.8306 66.1196 19.6597C66.3979 19.4839 66.5444 19.1836 66.5591 18.7588C66.5591 18.5098 66.4785 18.2803 66.3174 18.0703C66.1562 17.8555 65.9463 17.7212 65.6875 17.6675C65.4287 17.6089 65.0137 17.5796 64.4424 17.5796H62.8457V19.916ZM76.8936 13.2217H78.2119V21H76.8936V13.2217ZM69.5181 13.2217H70.8364V16.2612H72.5063C73.5952 16.2612 74.4326 16.4736 75.0186 16.8984C75.6094 17.3184 75.9048 17.8994 75.9048 18.6416C75.9048 19.291 75.6582 19.8477 75.165 20.3115C74.6768 20.7705 73.8931 21 72.814 21H69.5181V13.2217ZM70.8364 19.916H72.2207C73.0557 19.916 73.6514 19.8135 74.0078 19.6084C74.3643 19.4033 74.5425 19.0835 74.5425 18.6489C74.5425 18.312 74.4106 18.0117 74.147 17.748C73.8833 17.4844 73.2998 17.3525 72.3965 17.3525H70.8364V19.916ZM85.5947 18.4951L86.957 18.6636C86.7422 19.4595 86.3442 20.0771 85.7632 20.5166C85.1821 20.9561 84.4399 21.1758 83.5366 21.1758C82.3989 21.1758 81.4956 20.8267 80.8267 20.1284C80.1626 19.4253 79.8306 18.4414 79.8306 17.1768C79.8306 15.8682 80.1675 14.8525 80.8413 14.1299C81.5151 13.4072 82.3892 13.0459 83.4634 13.0459C84.5034 13.0459 85.353 13.3999 86.0122 14.1079C86.6714 14.8159 87.001 15.812 87.001 17.0962C87.001 17.1743 86.9985 17.2915 86.9937 17.4478H81.1929C81.2417 18.3022 81.4834 18.9565 81.918 19.4106C82.3525 19.8647 82.8945 20.0918 83.5439 20.0918C84.0273 20.0918 84.4399 19.9648 84.7817 19.7109C85.1235 19.457 85.3945 19.0518 85.5947 18.4951ZM81.2661 16.3638H85.6094C85.5508 15.7095 85.3848 15.2188 85.1113 14.8916C84.6914 14.3838 84.147 14.1299 83.478 14.1299C82.8726 14.1299 82.3623 14.3325 81.9473 14.7378C81.5371 15.1431 81.3101 15.6851 81.2661 16.3638ZM92.7944 23.981V13.2217H93.9956V14.2324C94.2788 13.8369 94.5986 13.5415 94.9551 13.3462C95.3115 13.146 95.7437 13.0459 96.2515 13.0459C96.9155 13.0459 97.5015 13.2168 98.0093 13.5586C98.5171 13.9004 98.9004 14.3838 99.1592 15.0088C99.418 15.6289 99.5474 16.3101 99.5474 17.0522C99.5474 17.8481 99.4033 18.5659 99.1152 19.2056C98.832 19.8403 98.417 20.3286 97.8701 20.6704C97.3281 21.0073 96.7568 21.1758 96.1562 21.1758C95.7168 21.1758 95.3213 21.083 94.9697 20.8975C94.623 20.7119 94.3374 20.4775 94.1128 20.1943V23.981H92.7944ZM93.9883 17.1548C93.9883 18.1558 94.1909 18.8955 94.5962 19.374C95.0015 19.8525 95.4922 20.0918 96.0684 20.0918C96.6543 20.0918 97.1548 19.8452 97.5698 19.3521C97.9897 18.854 98.1997 18.085 98.1997 17.0449C98.1997 16.0537 97.9946 15.3115 97.5845 14.8184C97.1792 14.3252 96.6934 14.0786 96.127 14.0786C95.5654 14.0786 95.0674 14.3423 94.6328 14.8696C94.2031 15.3921 93.9883 16.1538 93.9883 17.1548ZM106.22 20.0405C105.731 20.4556 105.26 20.7485 104.806 20.9194C104.357 21.0903 103.874 21.1758 103.356 21.1758C102.501 21.1758 101.845 20.9683 101.386 20.5532C100.927 20.1333 100.697 19.5986 100.697 18.9492C100.697 18.5684 100.783 18.2217 100.954 17.9092C101.129 17.5918 101.356 17.3379 101.635 17.1475C101.918 16.957 102.235 16.813 102.587 16.7153C102.846 16.647 103.236 16.5811 103.759 16.5176C104.823 16.3906 105.607 16.2393 106.11 16.0635C106.115 15.8828 106.117 15.7681 106.117 15.7192C106.117 15.1821 105.993 14.8037 105.744 14.584C105.407 14.2861 104.906 14.1372 104.242 14.1372C103.622 14.1372 103.163 14.2471 102.865 14.4668C102.572 14.6816 102.355 15.0649 102.213 15.6167L100.924 15.4409C101.042 14.8892 101.234 14.4448 101.503 14.1079C101.771 13.7661 102.16 13.5049 102.667 13.3242C103.175 13.1387 103.764 13.0459 104.433 13.0459C105.097 13.0459 105.636 13.124 106.051 13.2803C106.466 13.4365 106.771 13.6343 106.967 13.8735C107.162 14.1079 107.299 14.4058 107.377 14.7671C107.421 14.9917 107.443 15.397 107.443 15.9829V17.7407C107.443 18.9663 107.47 19.7427 107.523 20.0698C107.582 20.3921 107.694 20.7021 107.86 21H106.483C106.347 20.7266 106.259 20.4067 106.22 20.0405ZM106.11 17.0962C105.631 17.2915 104.914 17.4575 103.957 17.5942C103.415 17.6724 103.031 17.7603 102.807 17.8579C102.582 17.9556 102.409 18.0996 102.287 18.29C102.165 18.4756 102.104 18.6831 102.104 18.9126C102.104 19.2642 102.235 19.5571 102.499 19.7915C102.768 20.0259 103.158 20.1431 103.671 20.1431C104.179 20.1431 104.63 20.0332 105.026 19.8135C105.421 19.5889 105.712 19.2837 105.897 18.8979C106.039 18.6001 106.11 18.1606 106.11 17.5796V17.0962ZM115.192 10.0063L116.356 10.021C116.303 10.5435 116.186 10.9072 116.005 11.1123C115.829 11.3174 115.6 11.4492 115.316 11.5078C115.038 11.5664 114.489 11.5957 113.668 11.5957C112.58 11.5957 111.837 11.7007 111.442 11.9106C111.046 12.1206 110.761 12.4575 110.585 12.9214C110.414 13.3804 110.319 13.9736 110.299 14.7012C110.631 14.208 111.02 13.8394 111.464 13.5952C111.908 13.3462 112.409 13.2217 112.965 13.2217C113.986 13.2217 114.831 13.5732 115.5 14.2764C116.168 14.9746 116.503 15.9219 116.503 17.1182C116.503 18.0264 116.334 18.771 115.998 19.3521C115.661 19.9331 115.26 20.3823 114.796 20.6997C114.337 21.0171 113.71 21.1758 112.914 21.1758C111.991 21.1758 111.273 20.9658 110.761 20.5459C110.248 20.1211 109.855 19.5791 109.582 18.9199C109.308 18.2607 109.171 17.1133 109.171 15.4775C109.171 13.4219 109.518 12.0376 110.211 11.3247C110.91 10.6118 111.981 10.2554 113.427 10.2554C114.325 10.2554 114.835 10.2407 114.958 10.2114C115.08 10.1821 115.158 10.1138 115.192 10.0063ZM115.126 17.0815C115.126 16.271 114.933 15.6069 114.547 15.0894C114.167 14.5718 113.627 14.313 112.929 14.313C112.201 14.313 111.64 14.5864 111.244 15.1333C110.849 15.6802 110.651 16.4102 110.651 17.3232C110.651 18.2266 110.868 18.9175 111.303 19.396C111.742 19.8745 112.282 20.1138 112.921 20.1138C113.576 20.1138 114.105 19.8379 114.511 19.2861C114.921 18.7295 115.126 17.9946 115.126 17.0815ZM117.602 17.1108C117.602 15.6704 118.002 14.6035 118.803 13.9102C119.472 13.334 120.287 13.0459 121.249 13.0459C122.318 13.0459 123.192 13.3975 123.871 14.1006C124.55 14.7988 124.889 15.7656 124.889 17.001C124.889 18.002 124.738 18.7905 124.435 19.3667C124.137 19.938 123.7 20.3823 123.124 20.6997C122.553 21.0171 121.928 21.1758 121.249 21.1758C120.16 21.1758 119.279 20.8267 118.605 20.1284C117.936 19.4302 117.602 18.4243 117.602 17.1108ZM118.957 17.1108C118.957 18.1069 119.174 18.854 119.608 19.3521C120.043 19.8452 120.59 20.0918 121.249 20.0918C121.903 20.0918 122.448 19.8428 122.882 19.3447C123.317 18.8467 123.534 18.0874 123.534 17.0669C123.534 16.105 123.314 15.3774 122.875 14.8843C122.44 14.3862 121.898 14.1372 121.249 14.1372C120.59 14.1372 120.043 14.3838 119.608 14.877C119.174 15.3701 118.957 16.1147 118.957 17.1108ZM125.395 13.2217H131.715V14.313H129.21V21H127.899V14.313H125.395V13.2217ZM140.38 13.2217H141.698V21H140.38V13.2217ZM133.004 13.2217H134.323V16.2612H135.993C137.082 16.2612 137.919 16.4736 138.505 16.8984C139.096 17.3184 139.391 17.8994 139.391 18.6416C139.391 19.291 139.145 19.8477 138.651 20.3115C138.163 20.7705 137.379 21 136.3 21H133.004V13.2217ZM134.323 19.916H135.707C136.542 19.916 137.138 19.8135 137.494 19.6084C137.851 19.4033 138.029 19.0835 138.029 18.6489C138.029 18.312 137.897 18.0117 137.633 17.748C137.37 17.4844 136.786 17.3525 135.883 17.3525H134.323V19.916Z" fill="#4A4A4A"/>
<path d="M227.5 3V29" stroke="#9B9B9B"/>
<path d="M240 18L244 13.24L248 18H240Z" fill="#4A4A4A"/>
</g>
<defs>
<filter id="filter0_d_225_535" x="0" y="30" width="266" height="135" filterUnits="userSpaceOnUse" color-interpolation-filters="sRGB">
<feFlood flood-opacity="0" result="BackgroundImageFix"/>
<feColorMatrix in="SourceAlpha" type="matrix" values="0 0 0 0 0 0 0 0 0 0 0 0 0 0 0 0 0 0 127 0" result="hardAlpha"/>
<feOffset dy="4"/>
<feGaussianBlur stdDeviation="3"/>
<feComposite in2="hardAlpha" operator="out"/>
<feColorMatrix type="matrix" values="0 0 0 0 0 0 0 0 0 0 0 0 0 0 0 0 0 0 0.12 0"/>
<feBlend mode="normal" in2="BackgroundImageFix" result="effect1_dropShadow_225_535"/>
<feBlend mode="normal" in="SourceGraphic" in2="effect1_dropShadow_225_535" result="shape"/>
</filter>
<clipPath id="clip0_225_535">
<rect width="254" height="123" fill="white" transform="translate(6 32)"/>
</clipPath>
<clipPath id="clip1_225_535">
<rect width="254" height="32" fill="white" transform="translate(6)"/>
</clipPath>
</defs>
</svg>
