<svg width="20" height="20" viewBox="0 0 20 20" fill="none" xmlns="http://www.w3.org/2000/svg">
<path fill-rule="evenodd" clip-rule="evenodd" d="M8.32231 1C8.06215 1 7.85124 1.21091 7.85124 1.47107V3.24768C7.11716 3.42912 6.41437 3.7195 5.76632 4.10914L4.51431 2.8539C4.42601 2.76537 4.30613 2.71558 4.18109 2.7155C4.05605 2.71542 3.9361 2.76505 3.84769 2.85347L1.85347 4.84769C1.76505 4.9361 1.71542 5.05605 1.7155 5.18109C1.71558 5.30613 1.76537 5.42601 1.8539 5.51431L3.10914 6.76632C2.7195 7.41437 2.42912 8.11716 2.24768 8.85124H0.471074C0.210907 8.85124 0 9.06215 0 9.32231V11.6777C0 11.9379 0.210907 12.1488 0.471074 12.1488H2.24768C2.42912 12.8828 2.7195 13.5856 3.10914 14.2337L1.8539 15.4857C1.76537 15.574 1.71558 15.6939 1.7155 15.8189C1.71542 15.944 1.76505 16.0639 1.85347 16.1523L3.84769 18.1465C3.9361 18.2349 4.05605 18.2846 4.18109 18.2845C4.30613 18.2844 4.42601 18.2346 4.51431 18.1461L5.76632 16.8909C6.41437 17.2805 7.11716 17.5709 7.85124 17.7523V19.5289C7.85124 19.7891 8.06215 20 8.32231 20H10.6777C10.9379 20 11.1488 19.7891 11.1488 19.5289V17.7523C11.8828 17.5709 12.5856 17.2805 13.2337 16.8909L14.4857 18.1461C14.574 18.2346 14.6939 18.2844 14.8189 18.2845C14.944 18.2846 15.0639 18.2349 15.1523 18.1465L17.1465 16.1523C17.2349 16.0639 17.2846 15.944 17.2845 15.8189C17.2844 15.6939 17.2346 15.574 17.1461 15.4857L15.8909 14.2337C16.2805 13.5856 16.5709 12.8828 16.7523 12.1488H18.5289C18.7891 12.1488 19 11.9379 19 11.6777V9.32231C19 9.06215 18.7891 8.85124 18.5289 8.85124H16.7523C16.5709 8.11716 16.2805 7.41437 15.8909 6.76632L17.1461 5.51431C17.2346 5.42601 17.2844 5.30613 17.2845 5.18109C17.2846 5.05605 17.2349 4.9361 17.1465 4.84769L15.1523 2.85347C15.0639 2.76505 14.944 2.71542 14.8189 2.7155C14.6939 2.71558 14.574 2.76537 14.4857 2.8539L13.2337 4.10914C12.5856 3.7195 11.8828 3.42912 11.1488 3.24768V1.47107C11.1488 1.21091 10.9379 1 10.6777 1H8.32231ZM6.20248 10.5C6.20248 8.67883 7.67883 7.20248 9.5 7.20248C11.3212 7.20248 12.7975 8.67883 12.7975 10.5C12.7975 12.3212 11.3212 13.7975 9.5 13.7975C7.67883 13.7975 6.20248 12.3212 6.20248 10.5Z" fill="black"/>
</svg>
