<svg width="535" height="40" viewBox="0 0 535 40" fill="none" xmlns="http://www.w3.org/2000/svg">
<path d="M4 0.5H123C124.933 0.5 126.5 2.067 126.5 4V38.5H0.5V4C0.5 2.067 2.067 0.5 4 0.5Z" fill="#F2F2F2"/>
<path d="M4 0.5H123C124.933 0.5 126.5 2.067 126.5 4V38.5H0.5V4C0.5 2.067 2.067 0.5 4 0.5Z" stroke="#E6E6E6"/>
<path d="M35.6606 25V14.2627H37.0815V18.6719H42.6626V14.2627H44.0835V25H42.6626V19.939H37.0815V25H35.6606ZM45.7974 21.1108C45.7974 19.6704 46.1978 18.6035 46.9985 17.9102C47.6675 17.334 48.4829 17.0459 49.4448 17.0459C50.5142 17.0459 51.3882 17.3975 52.0669 18.1006C52.7456 18.7988 53.085 19.7656 53.085 21.001C53.085 22.002 52.9336 22.7905 52.6309 23.3667C52.333 23.938 51.896 24.3823 51.3198 24.6997C50.7485 25.0171 50.1235 25.1758 49.4448 25.1758C48.356 25.1758 47.4746 24.8267 46.8008 24.1284C46.1318 23.4302 45.7974 22.4243 45.7974 21.1108ZM47.1523 21.1108C47.1523 22.1069 47.3696 22.854 47.8042 23.3521C48.2388 23.8452 48.7856 24.0918 49.4448 24.0918C50.0991 24.0918 50.6436 23.8428 51.0781 23.3447C51.5127 22.8467 51.73 22.0874 51.73 21.0669C51.73 20.105 51.5103 19.3774 51.0708 18.8843C50.6362 18.3862 50.0942 18.1372 49.4448 18.1372C48.7856 18.1372 48.2388 18.3838 47.8042 18.877C47.3696 19.3701 47.1523 20.1147 47.1523 21.1108ZM54.645 17.2217H57.6846C58.4316 17.2217 58.9858 17.2852 59.3472 17.4121C59.7134 17.5342 60.0259 17.7612 60.2847 18.0933C60.5483 18.4253 60.6802 18.8232 60.6802 19.2871C60.6802 19.6582 60.6021 19.9829 60.4458 20.2612C60.2944 20.5347 60.0649 20.7642 59.7573 20.9497C60.1235 21.0718 60.4263 21.3013 60.6655 21.6382C60.9097 21.9702 61.0317 22.3657 61.0317 22.8247C60.9829 23.562 60.7192 24.1089 60.2407 24.4653C59.7622 24.8218 59.0664 25 58.1533 25H54.645V17.2217ZM55.9634 20.4956H57.3696C57.9312 20.4956 58.3169 20.4663 58.5269 20.4077C58.7368 20.3491 58.9248 20.2319 59.0908 20.0562C59.2568 19.8755 59.3398 19.6606 59.3398 19.4116C59.3398 19.0015 59.1934 18.7158 58.9004 18.5547C58.6123 18.3936 58.1167 18.313 57.4136 18.313H55.9634V20.4956ZM55.9634 23.916H57.6992C58.4463 23.916 58.959 23.8306 59.2373 23.6597C59.5156 23.4839 59.6621 23.1836 59.6768 22.7588C59.6768 22.5098 59.5962 22.2803 59.4351 22.0703C59.2739 21.8555 59.064 21.7212 58.8052 21.6675C58.5464 21.6089 58.1313 21.5796 57.5601 21.5796H55.9634V23.916ZM61.9399 21.1108C61.9399 19.6704 62.3403 18.6035 63.1411 17.9102C63.8101 17.334 64.6255 17.0459 65.5874 17.0459C66.6567 17.0459 67.5308 17.3975 68.2095 18.1006C68.8882 18.7988 69.2275 19.7656 69.2275 21.001C69.2275 22.002 69.0762 22.7905 68.7734 23.3667C68.4756 23.938 68.0386 24.3823 67.4624 24.6997C66.8911 25.0171 66.2661 25.1758 65.5874 25.1758C64.4985 25.1758 63.6172 24.8267 62.9434 24.1284C62.2744 23.4302 61.9399 22.4243 61.9399 21.1108ZM63.2949 21.1108C63.2949 22.1069 63.5122 22.854 63.9468 23.3521C64.3813 23.8452 64.9282 24.0918 65.5874 24.0918C66.2417 24.0918 66.7861 23.8428 67.2207 23.3447C67.6553 22.8467 67.8726 22.0874 67.8726 21.0669C67.8726 20.105 67.6528 19.3774 67.2134 18.8843C66.7788 18.3862 66.2368 18.1372 65.5874 18.1372C64.9282 18.1372 64.3813 18.3838 63.9468 18.877C63.5122 19.3701 63.2949 20.1147 63.2949 21.1108ZM75.856 22.1509L77.1523 22.3193C77.0107 23.2129 76.647 23.9136 76.061 24.4214C75.48 24.9243 74.7646 25.1758 73.915 25.1758C72.8506 25.1758 71.9937 24.8291 71.3442 24.1357C70.6997 23.4375 70.3774 22.439 70.3774 21.1401C70.3774 20.3003 70.5166 19.5654 70.7949 18.9355C71.0732 18.3057 71.4956 17.8345 72.062 17.522C72.6333 17.2046 73.2534 17.0459 73.9224 17.0459C74.7671 17.0459 75.458 17.2607 75.9951 17.6904C76.5322 18.1152 76.8765 18.7207 77.0278 19.5068L75.7461 19.7046C75.624 19.1821 75.4067 18.7891 75.0942 18.5254C74.7866 18.2617 74.4131 18.1299 73.9736 18.1299C73.3096 18.1299 72.77 18.3691 72.355 18.8477C71.9399 19.3213 71.7324 20.0732 71.7324 21.1035C71.7324 22.1484 71.9326 22.9077 72.333 23.3813C72.7334 23.855 73.2559 24.0918 73.9004 24.0918C74.418 24.0918 74.8501 23.9331 75.1968 23.6157C75.5435 23.2983 75.7632 22.8101 75.856 22.1509ZM77.5698 17.2217H83.8906V18.313H81.3857V25H80.0747V18.313H77.5698V17.2217ZM85.1504 17.2217H86.4688V23.1543L90.1235 17.2217H91.5444V25H90.2261V19.104L86.5713 25H85.1504V17.2217Z" fill="#4A4A4A"/>
<path d="M131 0.5H389C390.933 0.5 392.5 2.067 392.5 4V39.5H127.5V4L127.505 3.82031C127.598 1.97083 129.127 0.5 131 0.5Z" fill="white"/>
<path d="M131 0.5H389C390.933 0.5 392.5 2.067 392.5 4V39.5H127.5V4L127.505 3.82031C127.598 1.97083 129.127 0.5 131 0.5Z" stroke="#E6E6E6"/>
<path d="M183.923 14.7627H185.344V19.4648C185.994 19.4648 186.45 19.3403 186.714 19.0913C186.978 18.8374 187.314 18.2319 187.725 17.2749C188.022 16.5718 188.267 16.0762 188.457 15.7881C188.652 15.4951 188.928 15.251 189.285 15.0557C189.641 14.8555 190.034 14.7554 190.464 14.7554C191.011 14.7554 191.299 14.7603 191.328 14.77V16.0005C191.279 16.0005 191.184 15.998 191.042 15.9932C190.886 15.9883 190.791 15.9858 190.757 15.9858C190.303 15.9858 189.966 16.0957 189.746 16.3154C189.521 16.5352 189.265 17.0039 188.977 17.7217C188.616 18.6299 188.311 19.2036 188.062 19.4429C187.812 19.6772 187.515 19.8652 187.168 20.0068C187.861 20.1973 188.545 20.8369 189.219 21.9258L191.431 25.5H189.666L187.871 22.585C187.378 21.7793 186.965 21.2275 186.633 20.9297C186.301 20.627 185.872 20.4756 185.344 20.4756V25.5H183.923V14.7627ZM197.554 24.5405C197.065 24.9556 196.594 25.2485 196.14 25.4194C195.691 25.5903 195.208 25.6758 194.69 25.6758C193.835 25.6758 193.179 25.4683 192.72 25.0532C192.261 24.6333 192.031 24.0986 192.031 23.4492C192.031 23.0684 192.117 22.7217 192.288 22.4092C192.463 22.0918 192.69 21.8379 192.969 21.6475C193.252 21.457 193.569 21.313 193.921 21.2153C194.18 21.147 194.57 21.0811 195.093 21.0176C196.157 20.8906 196.941 20.7393 197.444 20.5635C197.449 20.3828 197.451 20.2681 197.451 20.2192C197.451 19.6821 197.327 19.3037 197.078 19.084C196.741 18.7861 196.24 18.6372 195.576 18.6372C194.956 18.6372 194.497 18.7471 194.199 18.9668C193.906 19.1816 193.689 19.5649 193.547 20.1167L192.258 19.9409C192.375 19.3892 192.568 18.9448 192.837 18.6079C193.105 18.2661 193.494 18.0049 194.001 17.8242C194.509 17.6387 195.098 17.5459 195.767 17.5459C196.431 17.5459 196.97 17.624 197.385 17.7803C197.8 17.9365 198.105 18.1343 198.301 18.3735C198.496 18.6079 198.633 18.9058 198.711 19.2671C198.755 19.4917 198.777 19.897 198.777 20.4829V22.2407C198.777 23.4663 198.804 24.2427 198.857 24.5698C198.916 24.8921 199.028 25.2021 199.194 25.5H197.817C197.681 25.2266 197.593 24.9067 197.554 24.5405ZM197.444 21.5962C196.965 21.7915 196.248 21.9575 195.291 22.0942C194.749 22.1724 194.365 22.2603 194.141 22.3579C193.916 22.4556 193.743 22.5996 193.621 22.79C193.499 22.9756 193.438 23.1831 193.438 23.4126C193.438 23.7642 193.569 24.0571 193.833 24.2915C194.102 24.5259 194.492 24.6431 195.005 24.6431C195.513 24.6431 195.964 24.5332 196.36 24.3135C196.755 24.0889 197.046 23.7837 197.231 23.3979C197.373 23.1001 197.444 22.6606 197.444 22.0796V21.5962ZM200.828 28.481V17.7217H202.029V18.7324C202.312 18.3369 202.632 18.0415 202.988 17.8462C203.345 17.646 203.777 17.5459 204.285 17.5459C204.949 17.5459 205.535 17.7168 206.042 18.0586C206.55 18.4004 206.934 18.8838 207.192 19.5088C207.451 20.1289 207.581 20.8101 207.581 21.5522C207.581 22.3481 207.437 23.0659 207.148 23.7056C206.865 24.3403 206.45 24.8286 205.903 25.1704C205.361 25.5073 204.79 25.6758 204.189 25.6758C203.75 25.6758 203.354 25.583 203.003 25.3975C202.656 25.2119 202.371 24.9775 202.146 24.6943V28.481H200.828ZM202.021 21.6548C202.021 22.6558 202.224 23.3955 202.629 23.874C203.035 24.3525 203.525 24.5918 204.102 24.5918C204.688 24.5918 205.188 24.3452 205.603 23.8521C206.023 23.354 206.233 22.585 206.233 21.5449C206.233 20.5537 206.028 19.8115 205.618 19.3184C205.212 18.8252 204.727 18.5786 204.16 18.5786C203.599 18.5786 203.101 18.8423 202.666 19.3696C202.236 19.8921 202.021 20.6538 202.021 21.6548ZM208.13 17.7217H214.451V18.813H211.946V25.5H210.635V18.813H208.13V17.7217ZM215.044 21.6108C215.044 20.1704 215.444 19.1035 216.245 18.4102C216.914 17.834 217.729 17.5459 218.691 17.5459C219.761 17.5459 220.635 17.8975 221.313 18.6006C221.992 19.2988 222.332 20.2656 222.332 21.501C222.332 22.502 222.18 23.2905 221.877 23.8667C221.58 24.438 221.143 24.8823 220.566 25.1997C219.995 25.5171 219.37 25.6758 218.691 25.6758C217.603 25.6758 216.721 25.3267 216.047 24.6284C215.378 23.9302 215.044 22.9243 215.044 21.6108ZM216.399 21.6108C216.399 22.6069 216.616 23.354 217.051 23.8521C217.485 24.3452 218.032 24.5918 218.691 24.5918C219.346 24.5918 219.89 24.3428 220.325 23.8447C220.759 23.3467 220.977 22.5874 220.977 21.5669C220.977 20.605 220.757 19.8774 220.317 19.3843C219.883 18.8862 219.341 18.6372 218.691 18.6372C218.032 18.6372 217.485 18.8838 217.051 19.377C216.616 19.8701 216.399 20.6147 216.399 21.6108ZM223.064 17.7217H224.382V19.1938C224.382 19.8286 224.419 20.29 224.492 20.5781C224.57 20.8613 224.753 21.1104 225.042 21.3252C225.33 21.5352 225.691 21.6401 226.125 21.6401C226.624 21.6401 227.268 21.5083 228.059 21.2446V17.7217H229.377V25.5H228.059V22.3652C227.249 22.6191 226.492 22.7461 225.789 22.7461C225.198 22.7461 224.675 22.5972 224.221 22.2993C223.772 21.9966 223.467 21.6279 223.306 21.1934C223.145 20.7588 223.064 20.2803 223.064 19.7578V17.7217ZM231.362 17.7217H232.681V21.0835C233.101 21.0835 233.394 21.0029 233.56 20.8418C233.73 20.6807 233.979 20.2119 234.307 19.4355C234.565 18.8203 234.775 18.415 234.937 18.2197C235.098 18.0244 235.283 17.8926 235.493 17.8242C235.703 17.7559 236.04 17.7217 236.504 17.7217H236.768V18.813L236.401 18.8057C236.055 18.8057 235.833 18.8569 235.735 18.9595C235.632 19.0669 235.476 19.3867 235.266 19.9189C235.066 20.4268 234.883 20.7783 234.717 20.9736C234.551 21.1689 234.294 21.3472 233.948 21.5083C234.514 21.6597 235.071 22.187 235.618 23.0903L237.061 25.5H235.61L234.204 23.0903C233.916 22.6069 233.665 22.2896 233.45 22.1382C233.235 21.9819 232.979 21.9038 232.681 21.9038V25.5H231.362V17.7217ZM243.345 24.5405C242.856 24.9556 242.385 25.2485 241.931 25.4194C241.482 25.5903 240.999 25.6758 240.481 25.6758C239.626 25.6758 238.97 25.4683 238.511 25.0532C238.052 24.6333 237.822 24.0986 237.822 23.4492C237.822 23.0684 237.908 22.7217 238.079 22.4092C238.254 22.0918 238.481 21.8379 238.76 21.6475C239.043 21.457 239.36 21.313 239.712 21.2153C239.971 21.147 240.361 21.0811 240.884 21.0176C241.948 20.8906 242.732 20.7393 243.235 20.5635C243.24 20.3828 243.242 20.2681 243.242 20.2192C243.242 19.6821 243.118 19.3037 242.869 19.084C242.532 18.7861 242.031 18.6372 241.367 18.6372C240.747 18.6372 240.288 18.7471 239.99 18.9668C239.697 19.1816 239.48 19.5649 239.338 20.1167L238.049 19.9409C238.167 19.3892 238.359 18.9448 238.628 18.6079C238.896 18.2661 239.285 18.0049 239.792 17.8242C240.3 17.6387 240.889 17.5459 241.558 17.5459C242.222 17.5459 242.761 17.624 243.176 17.7803C243.591 17.9365 243.896 18.1343 244.092 18.3735C244.287 18.6079 244.424 18.9058 244.502 19.2671C244.546 19.4917 244.568 19.897 244.568 20.4829V22.2407C244.568 23.4663 244.595 24.2427 244.648 24.5698C244.707 24.8921 244.819 25.2021 244.985 25.5H243.608C243.472 25.2266 243.384 24.9067 243.345 24.5405ZM243.235 21.5962C242.756 21.7915 242.039 21.9575 241.082 22.0942C240.54 22.1724 240.156 22.2603 239.932 22.3579C239.707 22.4556 239.534 22.5996 239.412 22.79C239.29 22.9756 239.229 23.1831 239.229 23.4126C239.229 23.7642 239.36 24.0571 239.624 24.2915C239.893 24.5259 240.283 24.6431 240.796 24.6431C241.304 24.6431 241.755 24.5332 242.151 24.3135C242.546 24.0889 242.837 23.7837 243.022 23.3979C243.164 23.1001 243.235 22.6606 243.235 22.0796V21.5962ZM250.303 21.6108C250.303 20.1704 250.703 19.1035 251.504 18.4102C252.173 17.834 252.988 17.5459 253.95 17.5459C255.02 17.5459 255.894 17.8975 256.572 18.6006C257.251 19.2988 257.59 20.2656 257.59 21.501C257.59 22.502 257.439 23.2905 257.136 23.8667C256.838 24.438 256.401 24.8823 255.825 25.1997C255.254 25.5171 254.629 25.6758 253.95 25.6758C252.861 25.6758 251.98 25.3267 251.306 24.6284C250.637 23.9302 250.303 22.9243 250.303 21.6108ZM251.658 21.6108C251.658 22.6069 251.875 23.354 252.31 23.8521C252.744 24.3452 253.291 24.5918 253.95 24.5918C254.604 24.5918 255.149 24.3428 255.583 23.8447C256.018 23.3467 256.235 22.5874 256.235 21.5669C256.235 20.605 256.016 19.8774 255.576 19.3843C255.142 18.8862 254.6 18.6372 253.95 18.6372C253.291 18.6372 252.744 18.8838 252.31 19.377C251.875 19.8701 251.658 20.6147 251.658 21.6108ZM259.143 28.481V17.7217H260.344V18.7324C260.627 18.3369 260.947 18.0415 261.304 17.8462C261.66 17.646 262.092 17.5459 262.6 17.5459C263.264 17.5459 263.85 17.7168 264.358 18.0586C264.866 18.4004 265.249 18.8838 265.508 19.5088C265.767 20.1289 265.896 20.8101 265.896 21.5522C265.896 22.3481 265.752 23.0659 265.464 23.7056C265.181 24.3403 264.766 24.8286 264.219 25.1704C263.677 25.5073 263.105 25.6758 262.505 25.6758C262.065 25.6758 261.67 25.583 261.318 25.3975C260.972 25.2119 260.686 24.9775 260.461 24.6943V28.481H259.143ZM260.337 21.6548C260.337 22.6558 260.54 23.3955 260.945 23.874C261.35 24.3525 261.841 24.5918 262.417 24.5918C263.003 24.5918 263.503 24.3452 263.918 23.8521C264.338 23.354 264.548 22.585 264.548 21.5449C264.548 20.5537 264.343 19.8115 263.933 19.3184C263.528 18.8252 263.042 18.5786 262.476 18.5786C261.914 18.5786 261.416 18.8423 260.981 19.3696C260.552 19.8921 260.337 20.6538 260.337 21.6548ZM267.5 17.7217H271.975V18.813H268.818V25.5H267.5V17.7217ZM277.71 24.5405C277.222 24.9556 276.75 25.2485 276.296 25.4194C275.847 25.5903 275.364 25.6758 274.846 25.6758C273.992 25.6758 273.335 25.4683 272.876 25.0532C272.417 24.6333 272.188 24.0986 272.188 23.4492C272.188 23.0684 272.273 22.7217 272.444 22.4092C272.62 22.0918 272.847 21.8379 273.125 21.6475C273.408 21.457 273.726 21.313 274.077 21.2153C274.336 21.147 274.727 21.0811 275.249 21.0176C276.313 20.8906 277.097 20.7393 277.6 20.5635C277.605 20.3828 277.607 20.2681 277.607 20.2192C277.607 19.6821 277.483 19.3037 277.234 19.084C276.897 18.7861 276.396 18.6372 275.732 18.6372C275.112 18.6372 274.653 18.7471 274.355 18.9668C274.062 19.1816 273.845 19.5649 273.704 20.1167L272.415 19.9409C272.532 19.3892 272.725 18.9448 272.993 18.6079C273.262 18.2661 273.65 18.0049 274.158 17.8242C274.666 17.6387 275.254 17.5459 275.923 17.5459C276.587 17.5459 277.126 17.624 277.542 17.7803C277.957 17.9365 278.262 18.1343 278.457 18.3735C278.652 18.6079 278.789 18.9058 278.867 19.2671C278.911 19.4917 278.933 19.897 278.933 20.4829V22.2407C278.933 23.4663 278.96 24.2427 279.014 24.5698C279.072 24.8921 279.185 25.2021 279.351 25.5H277.974C277.837 25.2266 277.749 24.9067 277.71 24.5405ZM277.6 21.5962C277.122 21.7915 276.404 21.9575 275.447 22.0942C274.905 22.1724 274.521 22.2603 274.297 22.3579C274.072 22.4556 273.899 22.5996 273.777 22.79C273.655 22.9756 273.594 23.1831 273.594 23.4126C273.594 23.7642 273.726 24.0571 273.989 24.2915C274.258 24.5259 274.648 24.6431 275.161 24.6431C275.669 24.6431 276.121 24.5332 276.516 24.3135C276.912 24.0889 277.202 23.7837 277.388 23.3979C277.529 23.1001 277.6 22.6606 277.6 22.0796V21.5962ZM280.991 17.7217H282.31V20.959H285.964V17.7217H287.283V25.5H285.964V22.0503H282.31V25.5H280.991V17.7217ZM289.275 17.7217H290.593V23.6543L294.248 17.7217H295.669V25.5H294.351V19.604L290.696 25.5H289.275V17.7217ZM299.375 21.9844V20.9517C299.932 20.9468 300.31 20.9248 300.51 20.8857C300.715 20.8467 300.908 20.7295 301.089 20.5342C301.27 20.3389 301.36 20.0947 301.36 19.8018C301.36 19.4453 301.24 19.1621 301.001 18.9521C300.767 18.7373 300.461 18.6299 300.085 18.6299C299.343 18.6299 298.823 19.0669 298.525 19.9409L297.273 19.7358C297.664 18.2759 298.606 17.5459 300.1 17.5459C300.93 17.5459 301.58 17.7729 302.048 18.2271C302.522 18.6812 302.759 19.2231 302.759 19.853C302.759 20.4878 302.451 20.9932 301.836 21.3691C302.227 21.5791 302.52 21.8477 302.715 22.1748C302.91 22.4971 303.008 22.8804 303.008 23.3247C303.008 24.0229 302.754 24.5894 302.246 25.0239C301.738 25.4585 301.028 25.6758 300.115 25.6758C298.342 25.6758 297.314 24.8872 297.031 23.3101L298.269 23.0464C298.381 23.5444 298.608 23.9302 298.95 24.2036C299.297 24.4771 299.692 24.6138 300.137 24.6138C300.581 24.6138 300.95 24.4893 301.243 24.2402C301.541 23.9863 301.689 23.6641 301.689 23.2734C301.689 22.9707 301.597 22.707 301.411 22.4824C301.226 22.2578 301.028 22.1187 300.818 22.0649C300.608 22.0063 300.227 21.9771 299.675 21.9771C299.631 21.9771 299.531 21.9795 299.375 21.9844ZM309.614 24.5405C309.126 24.9556 308.655 25.2485 308.201 25.4194C307.751 25.5903 307.268 25.6758 306.75 25.6758C305.896 25.6758 305.239 25.4683 304.78 25.0532C304.321 24.6333 304.092 24.0986 304.092 23.4492C304.092 23.0684 304.177 22.7217 304.348 22.4092C304.524 22.0918 304.751 21.8379 305.029 21.6475C305.312 21.457 305.63 21.313 305.981 21.2153C306.24 21.147 306.631 21.0811 307.153 21.0176C308.218 20.8906 309.001 20.7393 309.504 20.5635C309.509 20.3828 309.512 20.2681 309.512 20.2192C309.512 19.6821 309.387 19.3037 309.138 19.084C308.801 18.7861 308.301 18.6372 307.637 18.6372C307.017 18.6372 306.558 18.7471 306.26 18.9668C305.967 19.1816 305.75 19.5649 305.608 20.1167L304.319 19.9409C304.436 19.3892 304.629 18.9448 304.897 18.6079C305.166 18.2661 305.554 18.0049 306.062 17.8242C306.57 17.6387 307.158 17.5459 307.827 17.5459C308.491 17.5459 309.031 17.624 309.446 17.7803C309.861 17.9365 310.166 18.1343 310.361 18.3735C310.557 18.6079 310.693 18.9058 310.771 19.2671C310.815 19.4917 310.837 19.897 310.837 20.4829V22.2407C310.837 23.4663 310.864 24.2427 310.918 24.5698C310.977 24.8921 311.089 25.2021 311.255 25.5H309.878C309.741 25.2266 309.653 24.9067 309.614 24.5405ZM309.504 21.5962C309.026 21.7915 308.308 21.9575 307.351 22.0942C306.809 22.1724 306.426 22.2603 306.201 22.3579C305.977 22.4556 305.803 22.5996 305.681 22.79C305.559 22.9756 305.498 23.1831 305.498 23.4126C305.498 23.7642 305.63 24.0571 305.894 24.2915C306.162 24.5259 306.553 24.6431 307.065 24.6431C307.573 24.6431 308.025 24.5332 308.42 24.3135C308.816 24.0889 309.106 23.7837 309.292 23.3979C309.434 23.1001 309.504 22.6606 309.504 22.0796V21.5962ZM312.91 17.7217H314.229V24.416H317.876V17.7217H319.194V24.416H320.044V27.7046H318.96V25.5H312.91V17.7217ZM321.487 17.7217H322.805V23.6543L326.46 17.7217H327.881V25.5H326.562V19.604L322.908 25.5H321.487V17.7217ZM329.866 17.7217H331.184V23.6543L334.839 17.7217H336.26V25.5H334.941V19.604L331.287 25.5H329.866V17.7217Z" fill="#4A4A4A"/>
<rect x="128" y="36.5" width="264" height="3" fill="#009646"/>
<path d="M397 0.5H531C532.933 0.5 534.5 2.067 534.5 4V38.5H393.5V4C393.5 2.067 395.067 0.5 397 0.5Z" fill="#F2F2F2"/>
<path d="M397 0.5H531C532.933 0.5 534.5 2.067 534.5 4V38.5H393.5V4C393.5 2.067 395.067 0.5 397 0.5Z" stroke="#E6E6E6"/>
<path d="M428.412 25V14.2627H429.833V18.6719H435.414V14.2627H436.834V25H435.414V19.939H429.833V25H428.412ZM444.115 24.0405C443.626 24.4556 443.155 24.7485 442.701 24.9194C442.252 25.0903 441.769 25.1758 441.251 25.1758C440.396 25.1758 439.74 24.9683 439.281 24.5532C438.822 24.1333 438.592 23.5986 438.592 22.9492C438.592 22.5684 438.678 22.2217 438.849 21.9092C439.024 21.5918 439.251 21.3379 439.53 21.1475C439.813 20.957 440.13 20.813 440.482 20.7153C440.741 20.647 441.131 20.5811 441.654 20.5176C442.718 20.3906 443.502 20.2393 444.005 20.0635C444.01 19.8828 444.012 19.7681 444.012 19.7192C444.012 19.1821 443.888 18.8037 443.639 18.584C443.302 18.2861 442.801 18.1372 442.137 18.1372C441.517 18.1372 441.058 18.2471 440.76 18.4668C440.467 18.6816 440.25 19.0649 440.108 19.6167L438.819 19.4409C438.937 18.8892 439.129 18.4448 439.398 18.1079C439.667 17.7661 440.055 17.5049 440.562 17.3242C441.07 17.1387 441.659 17.0459 442.328 17.0459C442.992 17.0459 443.531 17.124 443.946 17.2803C444.361 17.4365 444.667 17.6343 444.862 17.8735C445.057 18.1079 445.194 18.4058 445.272 18.7671C445.316 18.9917 445.338 19.397 445.338 19.9829V21.7407C445.338 22.9663 445.365 23.7427 445.418 24.0698C445.477 24.3921 445.589 24.7021 445.755 25H444.378C444.242 24.7266 444.154 24.4067 444.115 24.0405ZM444.005 21.0962C443.526 21.2915 442.809 21.4575 441.852 21.5942C441.31 21.6724 440.926 21.7603 440.702 21.8579C440.477 21.9556 440.304 22.0996 440.182 22.29C440.06 22.4756 439.999 22.6831 439.999 22.9126C439.999 23.2642 440.13 23.5571 440.394 23.7915C440.663 24.0259 441.053 24.1431 441.566 24.1431C442.074 24.1431 442.525 24.0332 442.921 23.8135C443.316 23.5889 443.607 23.2837 443.792 22.8979C443.934 22.6001 444.005 22.1606 444.005 21.5796V21.0962ZM452.464 22.1509L453.761 22.3193C453.619 23.2129 453.255 23.9136 452.669 24.4214C452.088 24.9243 451.373 25.1758 450.523 25.1758C449.459 25.1758 448.602 24.8291 447.953 24.1357C447.308 23.4375 446.986 22.439 446.986 21.1401C446.986 20.3003 447.125 19.5654 447.403 18.9355C447.682 18.3057 448.104 17.8345 448.67 17.522C449.242 17.2046 449.862 17.0459 450.531 17.0459C451.375 17.0459 452.066 17.2607 452.604 17.6904C453.141 18.1152 453.485 18.7207 453.636 19.5068L452.354 19.7046C452.232 19.1821 452.015 18.7891 451.703 18.5254C451.395 18.2617 451.021 18.1299 450.582 18.1299C449.918 18.1299 449.378 18.3691 448.963 18.8477C448.548 19.3213 448.341 20.0732 448.341 21.1035C448.341 22.1484 448.541 22.9077 448.941 23.3813C449.342 23.855 449.864 24.0918 450.509 24.0918C451.026 24.0918 451.458 23.9331 451.805 23.6157C452.152 23.2983 452.372 22.8101 452.464 22.1509ZM454.178 17.2217H460.499V18.313H457.994V25H456.683V18.313H454.178V17.2217ZM461.759 27.981V17.2217H462.96V18.2324C463.243 17.8369 463.563 17.5415 463.919 17.3462C464.276 17.146 464.708 17.0459 465.216 17.0459C465.88 17.0459 466.466 17.2168 466.974 17.5586C467.481 17.9004 467.865 18.3838 468.124 19.0088C468.382 19.6289 468.512 20.3101 468.512 21.0522C468.512 21.8481 468.368 22.5659 468.08 23.2056C467.796 23.8403 467.381 24.3286 466.834 24.6704C466.292 25.0073 465.721 25.1758 465.121 25.1758C464.681 25.1758 464.286 25.083 463.934 24.8975C463.587 24.7119 463.302 24.4775 463.077 24.1943V27.981H461.759ZM462.953 21.1548C462.953 22.1558 463.155 22.8955 463.561 23.374C463.966 23.8525 464.457 24.0918 465.033 24.0918C465.619 24.0918 466.119 23.8452 466.534 23.3521C466.954 22.854 467.164 22.085 467.164 21.0449C467.164 20.0537 466.959 19.3115 466.549 18.8184C466.144 18.3252 465.658 18.0786 465.091 18.0786C464.53 18.0786 464.032 18.3423 463.597 18.8696C463.167 19.3921 462.953 20.1538 462.953 21.1548ZM469.618 21.1108C469.618 19.6704 470.018 18.6035 470.819 17.9102C471.488 17.334 472.303 17.0459 473.265 17.0459C474.334 17.0459 475.208 17.3975 475.887 18.1006C476.566 18.7988 476.905 19.7656 476.905 21.001C476.905 22.002 476.754 22.7905 476.451 23.3667C476.153 23.938 475.716 24.3823 475.14 24.6997C474.569 25.0171 473.944 25.1758 473.265 25.1758C472.176 25.1758 471.295 24.8267 470.621 24.1284C469.952 23.4302 469.618 22.4243 469.618 21.1108ZM470.973 21.1108C470.973 22.1069 471.19 22.854 471.625 23.3521C472.059 23.8452 472.606 24.0918 473.265 24.0918C473.919 24.0918 474.464 23.8428 474.898 23.3447C475.333 22.8467 475.55 22.0874 475.55 21.0669C475.55 20.105 475.331 19.3774 474.891 18.8843C474.457 18.3862 473.915 18.1372 473.265 18.1372C472.606 18.1372 472.059 18.3838 471.625 18.877C471.19 19.3701 470.973 20.1147 470.973 21.1108ZM478.458 17.2217H479.776V23.1543L483.431 17.2217H484.852V25H483.534V19.104L479.879 25H478.458V17.2217ZM483.036 14.2773H483.937C483.863 14.8877 483.639 15.3564 483.263 15.6836C482.892 16.0107 482.396 16.1743 481.776 16.1743C481.151 16.1743 480.65 16.0132 480.274 15.6909C479.903 15.3638 479.681 14.8926 479.608 14.2773H480.509C480.577 14.6094 480.711 14.8584 480.912 15.0244C481.117 15.1855 481.39 15.2661 481.732 15.2661C482.127 15.2661 482.425 15.188 482.625 15.0317C482.831 14.8706 482.967 14.6191 483.036 14.2773ZM486.83 17.2217H488.148V20.5835C488.568 20.5835 488.861 20.5029 489.027 20.3418C489.198 20.1807 489.447 19.7119 489.774 18.9355C490.033 18.3203 490.243 17.915 490.404 17.7197C490.565 17.5244 490.75 17.3926 490.96 17.3242C491.17 17.2559 491.507 17.2217 491.971 17.2217H492.235V18.313L491.869 18.3057C491.522 18.3057 491.3 18.3569 491.202 18.4595C491.1 18.5669 490.943 18.8867 490.733 19.4189C490.533 19.9268 490.35 20.2783 490.184 20.4736C490.018 20.6689 489.762 20.8472 489.415 21.0083C489.981 21.1597 490.538 21.687 491.085 22.5903L492.528 25H491.078L489.671 22.5903C489.383 22.1069 489.132 21.7896 488.917 21.6382C488.702 21.4819 488.446 21.4038 488.148 21.4038V25H486.83V17.2217ZM493.399 17.2217H494.718V23.1543L498.373 17.2217H499.793V25H498.475V19.104L494.82 25H493.399V17.2217Z" fill="#4A4A4A"/>
</svg>
